<svg width="773" height="375" fill="none" xmlns="http://www.w3.org/2000/svg"><path fill-rule="evenodd" clip-rule="evenodd" d="M469.145 134.066c-2.602-33.775-10.815-65.411-31.33-96.882-13.507-20.721-35.374-35.155-60.852-37.11-9.577-.734-15.999 4.077-20.077 9.682-2.953 4.061-5.149 9.261-6.777 13.117-.336.795-.648 1.534-.937 2.193-2.945 6.711-6.542 13.15-10.394 19.985l-.389.691-.003.006c-3.671 6.512-7.562 13.414-10.853 20.706-1.195 2.649-2.486 5.372-3.809 8.161l-.002.006c-2.868 6.048-5.883 12.406-8.385 18.984-2.335 6.136-3.932 12.117-5.026 18.024a125.268 125.268 0 00-5.12-5.957c-6.241-6.819-13.631-13.38-20.684-17.287-5.314-2.944-10.148-7.143-15.861-12.114l-.053-.045c-5.415-4.712-11.696-10.176-19.012-14.038-17.814-9.404-35.711-17.785-55.427-23.887-10.645-3.294-27.388-8.246-39.905-8.727a31.017 31.017 0 01-1.469-.115c-.498-.046-1.131-.104-1.963-.173-1.667-.138-3.82-.285-5.971-.25-1.964.033-4.81.217-7.462 1.219-2.814 1.063-7.443 4.02-7.69 10.169-.228 5.672-.15 11.583-.076 17.19.035 2.666.069 5.264.069 7.737 0 14.895 3.135 28.978 6.817 42.285 1.308 4.727 2.654 9.264 3.973 13.711 2.509 8.458 4.922 16.594 6.801 25.108.453 2.057.955 4.215 1.507 6.45-6.861-1.532-14.016-1.914-20.713-1.91-5.394.004-10.823.268-15.876.518l-.267.014c-5.037.249-9.655.477-13.905.477-1.722 0-3.795-.208-6.545-.484l-.944-.095c-2.932-.292-6.564-.631-10.009-.489-3.278.136-7.795.734-11.641 3.45-4.487 3.168-6.527 8.061-6.527 13.434 0 13.479 3.579 25.767 6.883 36.762l.39 1.299c2.543 8.45 4.852 16.122 5.967 23.865-5.042 1.384-10.44 3.01-15.748 4.938-8.706 3.163-17.81 7.358-24.856 13.107-3.081 2.514-6.652 4.211-11.323 6.293l-.815.362c-4.253 1.89-9.492 4.217-14.306 7.818-.742.554-1.353.921-2.146 1.397l-.325.196-.004.002c-.398.24-1.134.683-1.841 1.221-.676.514-2.003 1.606-2.991 3.397-2.71 4.908-.29 9.291.705 10.802 1.032 1.569 2.548 3.175 3.886 4.562 4.969 5.154 10.594 10.179 15.962 14.975l.005.004c1.361 1.216 2.706 2.418 4.02 3.603 6.68 6.028 12.736 11.787 17.505 17.84 7.605 9.651 17.907 18.797 28.662 25.084 5.6 3.273 10.895 6.94 16.506 10.826 1.655 1.146 3.338 2.312 5.064 3.492 3.797 2.595 7.751 5.221 11.9 7.69a95.34 95.34 0 00-3.057 2.025c-1.643 1.129-3.428 2.423-5.054 3.603l-.002.001-.009.007c-.922.668-1.794 1.301-2.561 1.845l-.231.164h71.25c-10.803-3.874-21.595-8.697-32.53-13.585l-.027-.012-.018-.008c-2.76-1.233-5.529-2.471-8.31-3.698-7.293-3.219-14.156-7.601-21.378-12.538a943.147 943.147 0 01-4.637-3.198c-5.703-3.952-11.742-8.136-17.987-11.786-8.752-5.117-17.402-12.769-23.712-20.778-5.767-7.318-12.796-13.929-19.54-20.015a1321.53 1321.53 0 00-4.329-3.881l-.017-.015c-4.137-3.698-8.08-7.223-11.735-10.792 2.581-1.562 5.491-2.859 9.04-4.441l.255-.114c4.553-2.029 10.165-4.553 15.293-8.736 4.788-3.907 11.731-7.291 19.725-10.194 7.892-2.867 16.194-5.053 23.372-6.842 4.658-1.162 9.52-2.722 14.023-4.167 2.151-.69 4.221-1.354 6.147-1.936 6.36-1.921 12.163-3.301 17.959-3.515 6.566-.243 13.027-2.147 18.419-3.831l1.363-.428.899-.283c4.772-1.505 8.74-2.756 12.572-3.344 9.269-1.422 18.116-1.853 27.673-1.955-2.731 7.411-4.831 14.671-6.294 21.322a1198.59 1198.59 0 01-2.378 10.497c-3.661 15.94-7.439 32.39-8.359 49.923-.361 6.891.697 13.824 1.596 19.709.13.852.257 1.681.375 2.485 1.004 6.813 1.539 12.324.558 17.475-1.122 5.89.379 11.624 2.404 16.459 1.718 4.105 4.111 8.244 6.652 12.222h21.248l-.387-.562c-1.654-2.395-3.229-4.678-4.625-6.794-2.942-4.457-5.214-8.301-6.613-11.642-1.429-3.412-1.547-5.374-1.351-6.401 1.588-8.336.573-16.465-.436-23.314-.134-.91-.267-1.795-.398-2.66l-.001-.011-.002-.01c-.912-6.058-1.667-11.069-1.407-16.037.833-15.87 4.192-30.532 7.822-46.379l.002-.008.024-.107c2.979.304 5.925.585 8.839.863 17.76 1.695 34.336 3.276 49.811 9.21 14.706 5.639 25.922 12.261 36.306 23.098 11.249 11.74 23.077 31.302 26.93 46.864a8.814 8.814 0 00-.494 2.07c-.143 1.252-.67 2.785-1.804 5.268-.185.406-.399.861-.631 1.354-.964 2.048-2.242 4.766-3.102 7.436l-.452 1.401c-1.761 5.46-3.495 10.838-5.018 16.361h18.354c1.11-3.701 2.334-7.5 3.634-11.533l.274-.85c.483-1.5 1.121-2.862 1.996-4.732l.006-.014c.301-.642.63-1.346.99-2.135 1.198-2.622 2.708-6.164 3.233-10.204a8.737 8.737 0 00.79-5.75c-4.054-19.92-18.511-43.656-31.954-57.685-12.612-13.162-26.248-21.045-42.727-27.364-17.962-6.888-37.684-8.745-55.741-10.446h-.002c-1.753-.165-3.491-.329-5.209-.496 3.016-11.146 7.849-23.634 14.38-34.958 7.84-13.593 17.639-24.672 28.853-30.345 10.074-5.095 22.836-10.611 35.9-14.654 13.188-4.081 26.047-6.459 36.547-5.809 18.838 1.167 38.133 8.1 57.923 15.21 2.94 1.057 5.891 2.117 8.853 3.163 1.723.609 3.5 1.296 5.332 2.006 11.29 4.371 24.693 9.559 40.586 2 15.517-7.379 41.463-9.191 59.586-6.981 41.353 5.041 77.697 21.294 100.841 55.647a75.383 75.383 0 014.846 8.319c-27.114-1.524-54.014 2.853-79.645 10.788-23.642 7.32-41.359 22.834-57.322 38.041l-.595.567c-7.403 7.045-16.504 15.704-18.853 29.683-1.303 7.755-1.497 15.444-1.675 22.528-.047 1.881-.094 3.72-.159 5.506a8.74 8.74 0 00.563 3.438c.01 4.287 1.17 8.519 2.282 11.809 1.182 3.497 2.688 6.954 3.807 9.524l.003.006c.196.451.381.875.549 1.266a48.37 48.37 0 011.654 4.455h18.304c-.98-3.857-2.181-7.748-3.752-11.395l-.374-.864-.269-.62c-1.126-2.591-2.287-5.262-3.208-7.989-1.158-3.427-1.46-5.637-1.335-6.729a8.735 8.735 0 00-.534-4.164c.048-1.539.087-3.03.125-4.486v-.009c.179-6.88.336-12.956 1.414-19.37 1.304-7.758 6.139-12.724 14.237-20.44 15.856-15.105 31.001-27.965 50.368-33.961 26.633-8.246 54.08-12.199 81.187-9.408 5.47 20.55 5.522 43.926 4.019 65.481-.25 3.598-1.31 7.438-2.892 11.838-.696 1.936-1.448 3.861-2.245 5.901l-.001.004-.318.813c-.894 2.293-1.836 4.731-2.671 7.192-3.208 9.455-4.954 19.114-6.453 28.206h102.665c5.692-1.952 11.509-3.965 17.181-6.168 15.545-6.038 31.15-13.912 44.07-27.825 3.809-4.102 10.278-13.664 14.377-23.171 2.043-4.738 3.855-10.262 4.058-15.541.208-5.411-1.342-12.343-8.111-16.314-13.108-7.688-26.405-13.393-40.676-18.475-5.951-2.12-11.257-4.893-17.18-7.989l-.116-.06c-.748-.391-1.507-.788-2.278-1.189-3.895-2.024-8.045-4.123-12.569-5.997a18.826 18.826 0 001.505-2.689c.187-.42.845-1.447 2.233-3.097.927-1.102 1.839-2.096 2.777-3.117l.015-.017c.41-.447.826-.899 1.25-1.369 4.128-4.574 7.292-10.369 9.784-15.672 1.776-3.779 3.427-7.802 4.855-11.283.563-1.37 1.091-2.656 1.578-3.81 4.688-11.103 7.653-22.349 7.653-35.059 0-5.211-.287-10.479-.558-15.468l-.001-.005v-.004a590.061 590.061 0 01-.314-6.162l-.003-.084c-.042-.953-.125-2.888-.548-4.861-.378-1.765-1.385-5.431-4.671-8.051-3.767-3.005-8.597-3.985-11.437-4.487a125.014 125.014 0 00-3.365-.53l-.007-.001c-.38-.056-.732-.108-1.043-.156-1.337-.205-2.145-.359-2.661-.502-5.037-1.395-10.373-1.426-14.878-1.174-2.751.153-5.907.48-8.584.757-1.429.147-2.721.281-3.741.367-3.047.255-5.99.224-9.368.188h-.002a355.24 355.24 0 00-4.007-.028c-6.051 0-11.293 1.889-15.128 3.295l-.385.141c-.933.342-1.786.656-2.58.937-1.107-10.136-2.976-20.426-5.719-31.092-1.05-4.084-4.714-17.719-9.289-30.432-2.269-6.305-4.891-12.753-7.672-17.756-1.372-2.468-3.005-4.996-4.924-7.023-1.675-1.768-5.034-4.72-9.874-4.72-7.883 0-16.402 2.924-23.512 5.85-3.688 1.517-7.304 3.17-10.583 4.684l-1.026.473c-2.924 1.35-5.502 2.541-7.801 3.506-16.636 6.985-31.244 16.7-45.261 26.022l-1.321.878c-6.8 4.52-12.271 10.489-16.962 15.963-1.173 1.368-2.287 2.692-3.365 3.973l-.005.007h-.001c-3.469 4.122-6.562 7.797-10.007 11.06-2.146 2.033-4.664 4.222-7.488 6.67l-.24.208c-1.991 1.726-4.111 3.563-6.226 5.465zM366.724 28.885l-.003.005a337.833 337.833 0 01-1.39 3.225c-3.349 7.632-7.373 14.801-11.177 21.552l-.241.427c-3.781 6.71-7.333 13.011-10.296 19.577-1.493 3.308-2.941 6.359-4.337 9.297-2.693 5.67-5.192 10.933-7.452 16.874-5.15 13.537-6.064 26.209-6.219 41.42 18.931 2.502 37.882 9.337 54.985 15.506 2.897 1.044 5.741 2.07 8.523 3.052 2.507.886 4.773 1.727 6.851 2.499l.002.001.001.001c11.247 4.177 16.974 6.305 25.583 2.21 8.45-4.019 18.739-6.611 29.303-8.071a8.85 8.85 0 01.61-1.574c.298-.595.615-1.185.948-1.77-.881-38.999-7.545-72.84-29.388-106.348-10.846-16.64-27.994-27.669-47.417-29.159-1.799-.138-2.865.3-4.446 2.473-1.65 2.268-2.85 5.077-4.44 8.803zm308.601 216.421c-.231.317-.491.68-.762 1.079-.628-.227-1.268-.462-1.927-.704l-1.232-.451c-3.569-1.305-7.627-2.741-12.129-3.711-8.509-1.835-17.512-1.905-25.83-1.61-3.41.121-6.592.294-9.643.46 1.796-3.261 3.679-6.707 5.455-10.225 3.907-7.738 7.622-16.431 9.03-25.554 2.446-15.853 3.684-30.996 3.327-46.192 2.62-.699 4.98-1.574 6.937-2.299l.003-.001.494-.183.425-.157c3.915-1.435 6.477-2.214 9.041-2.214.983 0 2.04.012 3.146.024 3.605.04 7.753.086 11.71-.247 1.789-.15 3.386-.319 4.929-.482 2.266-.24 4.42-.468 6.904-.607 3.891-.218 6.931-.06 9.171.56 1.615.448 3.332.73 4.701.94l.605.091.798.119c.92.136 1.74.257 2.619.412.891.157 1.573.311 2.089.445l.023.483c.104 2.399.229 4.685.351 6.911.26 4.757.505 9.24.505 13.965 0 9.795-2.243 18.694-6.271 28.234a461.197 461.197 0 00-1.84 4.44c-1.361 3.319-2.728 6.653-4.308 10.015-2.27 4.828-4.555 8.746-6.924 11.37-.141.157-.3.331-.474.521l-.37.404-.056.061c-1.014 1.104-2.355 2.565-3.546 3.981-1.53 1.819-3.543 4.393-4.8 7.173l-.014.023c-.041.066-.167.267-.441.648a54.44 54.44 0 01-.74.995l-.065.087c-.266.353-.581.771-.891 1.196zM657.938 369.5h-.103a8.798 8.798 0 00-5.15 1.655c-2.29.514-4.994.943-7.988 1.269-5.466.595-11.125.773-15.453.773-3.488 0-8.811.046-14.08.619-2.002.218-4.293.538-6.629 1.061 1.343-7.873 2.825-15.282 5.256-22.446.696-2.049 1.507-4.159 2.402-6.454l.313-.802.005-.014c.787-2.012 1.629-4.168 2.41-6.341 1.771-4.924 3.467-10.553 3.885-16.555 1.352-19.397 1.706-42.306-2.88-64.084a856.31 856.31 0 005.524-.284c2.99-.16 5.912-.316 8.623-.412 7.971-.283 15.181-.134 21.475 1.223 3.208.692 6.275 1.751 9.787 3.034l.78.286.418.154c3.098 1.138 6.623 2.434 10.364 3.442 6.908 1.862 12.969 4.808 19.571 8.239l1.531.799.789.414c5.825 3.05 12.277 6.428 19.475 8.992 13.368 4.761 25.401 9.94 37.088 16.735.014.189.021.455.007.818-.081 2.104-.926 5.299-2.637 9.269-3.41 7.908-8.84 15.717-11.116 18.168-10.282 11.074-23.025 17.752-37.529 23.386-5.774 2.243-11.649 4.257-17.743 6.345l-.003.001-1.759.603-1.68.578c-.486.167-.974.335-1.463.505-7.704 2.663-15.669 5.526-23.49 9.024zM472.931 154.959c6.442-.011 12.555.35 17.943 1.007 44.597 5.437 86.449 23.382 113.34 63.297a92.274 92.274 0 015.717 9.743 249.704 249.704 0 003.573-6.771c3.639-7.207 6.366-13.939 7.351-20.319 4.74-30.722 4.597-57.843-3.238-88.31-.997-3.879-4.503-16.905-8.805-28.86-2.17-6.031-4.413-11.421-6.497-15.171-.621-1.116-1.151-1.948-1.577-2.543-3.891.455-8.838 2.02-14.579 4.382-3.312 1.362-6.63 2.877-9.905 4.388l-1.042.48c-2.864 1.324-5.742 2.653-8.347 3.747-15.066 6.325-28.448 15.222-42.864 24.806l-.779.518c-4.64 3.085-8.79 7.45-13.337 12.756a468.449 468.449 0 00-2.849 3.368c-3.584 4.264-7.547 8.978-11.79 12.997-2.479 2.348-5.302 4.798-8.064 7.192l-.155.134c-2.764 2.396-5.51 4.776-8.133 7.209-2.232 2.069-4.235 4.053-5.963 5.95zm-164.93-16.395c-.01.637-.019 1.274-.026 1.913-10.93.623-22.452 3.204-33.297 6.56-14.198 4.394-27.887 10.322-38.651 15.767-15.495 7.838-27.455 22.163-36.163 37.262a148.142 148.142 0 00-3.678 6.784c-7.222-5.284-13.413-13.879-18.579-24.508-6.321-13.008-10.478-27.765-13.104-39.666-2.006-9.091-4.735-18.308-7.353-27.148l-.001-.001c-1.273-4.298-2.519-8.507-3.643-12.569-3.548-12.822-6.182-25.095-6.182-37.607 0-2.98-.038-5.834-.076-8.618v-.003c-.046-3.422-.091-6.742-.061-10.066a69.15 69.15 0 012.167.148l1.109.098.02.002c1.067.096 2.286.206 3.088.236 9.773.375 24.236 4.51 35.355 7.95 18.238 5.644 35.049 13.472 52.402 22.633 5.243 2.768 10.051 6.858 15.723 11.792l.588.513c5.252 4.572 11.319 9.854 18.302 13.722 4.708 2.608 10.614 7.642 16.223 13.77 5.574 6.089 10.228 12.572 12.741 17.585a8.764 8.764 0 003.096 3.451zm-155.605 34.049a8.848 8.848 0 002.472.807c1.961 5.56 4.236 11.176 6.867 16.591 2.994 6.161 6.567 12.304 10.836 17.874-4.787.328-9.629.831-14.612 1.595-5.293.813-10.715 2.531-15.36 4.003l-.004.002c-.706.224-1.394.442-2.062.65-5.473 1.71-9.87 2.894-13.798 3.039-8.077.298-15.599 2.199-22.419 4.258-2.569.776-4.947 1.542-7.233 2.277l-.005.002-.006.002h-.002c-1.48.477-2.922.941-4.353 1.388-1.402-8.398-3.795-16.331-6.014-23.684l-.005-.02c-.19-.625-.376-1.246-.562-1.863-3.264-10.861-6.001-20.636-6.135-30.924.326-.043.74-.081 1.256-.102 2.031-.084 4.493.114 7.522.417l.76.076.212.022c2.556.26 5.591.568 8.273.568 4.695 0 9.697-.247 14.565-.489l.481-.023c5.107-.253 10.117-.493 15.014-.497 9.998-.007 18.253 1.01 24.312 4.031zM599.899 66.005a.903.903 0 00-.12-.105 1.122 1.122 0 00.12.105zm155.416 234.503c-.015-.074-.03-.1-.03-.1s.001.014.007.037a.58.58 0 00.023.063z" fill="#2C2C2C"/><path d="M266.192 324.87l-.073.077c-2.429 2.573-3.629 5.828-3.629 9.921 0 5.252 2.993 10.668 6.213 13.879 2.41 2.402 5.831 2.602 7.803 2.602 1.134 0 2.261-.081 3.178-.149l.089-.007c.947-.07 1.611-.12 2.141-.12 3.817 0 7.586-1.576 10.401-3.936 2.808-2.355 5.143-5.918 5.143-10.181 0-2.897-.805-6.62-2.481-9.738a16.27 16.27 0 00-.442-.773 4.16 4.16 0 00-1.073-1.833c-.177-.176-.391-.438-.781-.948l-.095-.125a22.728 22.728 0 00-1.315-1.609c-1.22-1.328-3.238-2.96-6.308-2.96-.598 0-1.255-.033-2.061-.075l-.059-.003c-.754-.039-1.63-.085-2.513-.09a20.985 20.985 0 00-2.381.105c-1.978-.119-4.196-.004-6.28.808-2.398.934-4.293 2.66-5.477 5.155zm207.716.077l.073-.077c1.184-2.495 3.079-4.221 5.477-5.155 2.084-.812 4.302-.927 6.28-.808.852-.091 1.661-.11 2.381-.105.883.005 1.759.051 2.512.09l.06.003c.806.042 1.463.075 2.061.075 3.071 0 5.088 1.632 6.309 2.96.519.566.984 1.176 1.314 1.609l.096.125c.39.51.603.772.78.948a4.151 4.151 0 011.073 1.833c.158.259.305.518.442.773 1.677 3.118 2.481 6.841 2.481 9.738 0 4.263-2.334 7.826-5.143 10.181-2.814 2.36-6.584 3.936-10.401 3.936-.529 0-1.189.049-2.132.119l-.005.001h-.004l-.088.007c-.918.068-2.045.149-3.179.149-1.971 0-5.393-.2-7.802-2.602-3.22-3.211-6.214-8.627-6.214-13.879 0-4.093 1.2-7.348 3.629-9.921z" fill="#2C2C2C"/></svg>