<svg width="290" height="329" fill="none" xmlns="http://www.w3.org/2000/svg"><path d="M167.988 86.32l.02-.02a2.64 2.64 0 011.456-1.37c.554-.216 1.143-.246 1.669-.215a5.68 5.68 0 01.633-.028c.235.002.468.014.668.024l.016.001c.214.011.389.02.548.02.816 0 1.352.433 1.677.786.138.15.262.313.349.428l.026.033c.103.136.16.205.207.252.141.14.236.308.285.487.042.069.082.137.118.205.446.828.659 1.817.659 2.587 0 1.132-.62 2.079-1.367 2.704-.748.627-1.75 1.046-2.765 1.046-.141 0-.317.013-.569.032l-.024.002c-.244.018-.543.04-.845.04-.524 0-1.433-.054-2.074-.692-.856-.853-1.652-2.292-1.652-3.687 0-1.087.319-1.952.965-2.635zm-55.221-.02l-.02.02c-.645.683-.964 1.548-.964 2.635 0 1.395.796 2.834 1.652 3.687.64.638 1.55.691 2.074.691.301 0 .601-.021.845-.04l.023-.001a8.34 8.34 0 01.57-.032c1.014 0 2.016-.419 2.765-1.046.746-.625 1.367-1.572 1.367-2.704 0-.77-.214-1.759-.66-2.587a4.074 4.074 0 00-.117-.205 1.111 1.111 0 00-.285-.487 2.699 2.699 0 01-.208-.252l-.025-.033a6.363 6.363 0 00-.35-.428c-.324-.353-.861-.786-1.677-.786-.159 0-.333-.009-.548-.02h-.016c-.2-.011-.433-.023-.668-.025a5.69 5.69 0 00-.633.028c-.525-.031-1.115 0-1.669.215a2.643 2.643 0 00-1.456 1.37z" fill="#2C2C2C"/><path fill-rule="evenodd" clip-rule="evenodd" d="M158.393 9.878c5.454 8.36 7.637 16.764 8.329 25.736a119.06 119.06 0 011.655-1.452l.064-.055c.75-.65 1.42-1.232 1.99-1.772.916-.867 1.739-1.843 2.661-2.938l.001-.002c.287-.34.583-.692.895-1.055 1.247-1.455 2.701-3.04 4.509-4.24l.351-.234c3.727-2.476 7.61-5.057 12.033-6.913a67.543 67.543 0 002.074-.931l.273-.126a74.173 74.173 0 012.813-1.244c1.89-.777 4.155-1.554 6.251-1.554 1.287 0 2.18.784 2.625 1.254.51.538.944 1.21 1.309 1.865.739 1.33 1.436 3.042 2.04 4.717 1.216 3.377 2.19 7 2.469 8.084a58.488 58.488 0 011.52 8.26c.211-.075.438-.158.686-.25l.103-.037c1.019-.373 2.413-.875 4.021-.875.377 0 .73.004 1.066.007.898.01 1.681.018 2.491-.05.271-.022.614-.058.994-.097.712-.074 1.551-.16 2.282-.201 1.198-.067 2.616-.059 3.956.312.137.038.352.079.707.133l.277.042h.002c.272.04.595.088.895.14.755.134 2.039.394 3.04 1.192.874.697 1.142 1.67 1.242 2.14.112.523.135 1.038.146 1.29l.001.023c.023.528.052 1.076.083 1.637.072 1.326.148 2.726.148 4.111 0 3.377-.788 6.364-2.034 9.313-.13.307-.27.648-.419 1.013-.38.924-.819 1.993-1.291 2.997-.663 1.408-1.504 2.948-2.601 4.163-.113.125-.224.245-.333.363l-.004.005c-.249.271-.491.535-.738.828-.369.438-.544.711-.593.823a5.047 5.047 0 01-.401.714c1.203.498 2.306 1.055 3.342 1.593l.636.332c1.575.822 2.985 1.559 4.568 2.122 3.794 1.35 7.328 2.865 10.813 4.908 1.8 1.055 2.212 2.896 2.157 4.334-.054 1.402-.536 2.87-1.079 4.128-1.09 2.525-2.81 5.065-3.822 6.155-3.435 3.696-7.584 5.788-11.716 7.392-1.633.633-3.31 1.208-4.942 1.766l-.003.001-.033.011-.907.311.076.036.052.026.126.061c2.64 1.301 5.202 3.334 6.504 6.174l.04.067.027.044.063.101c.047.076.103.169.153.258.093.163.232.421.339.729.097.28.25.828.13 1.486-.137.749-.484 1.362-.783 1.796a9.803 9.803 0 01-.97 1.166c-.17.179-.391.401-.576.588l-.003.003-.002.002-.099.1-.08.081a6.04 6.04 0 00-.085.087 4.71 4.71 0 00-.43.481c-1.155 1.644-2.637 3.398-4.44 4.716-1.022.746-2.088 1.306-3.019 1.78l-.34.174-.004.001c-.749.381-1.396.71-2.011 1.089 4.887 1.05 9.797 2.351 14.688 4.722.623.302 2.632 1.29 3.836 2.403.316.292.721.721 1.003 1.275.298.585.562 1.551.09 2.586-.431.946-1.247 1.416-1.812 1.65-.598.248-1.285.387-1.996.47h.004l-.003.001c-.023.006-.158.045-.423.21-.307.192-.665.475-1.077.845-.368.33-.727.681-1.104 1.05l-.001.001-.001.001-.002.002-.002.002-.13.127c-.398.389-.858.836-1.293 1.189-2.392 1.936-5.078 3.627-7.83 4.998-5.091 2.536-10.281 4.945-15.837 6.668a29.263 29.263 0 013.404 2.129c3.013 2.162 5.73 4.8 7.66 6.723 1.051 1.048 2.046 2.478 1.8 4.2-.245 1.717-1.578 2.673-2.419 3.149-.919.52-2.022.898-2.914 1.188l-.183.059-.149.048-.307.099c-.691.221-1.252.401-1.725.599-3.463 1.453-6.966 1.575-10.233 1.334a60.877 60.877 0 01-3.135-.324c2.78 3.185 5.093 6.778 6.542 10.902.172.489.374.969.607 1.52.111.263.229.542.354.846.345.842.742 1.879.91 2.908.168 1.031.17 2.442-.749 3.687-.912 1.237-2.346 1.783-3.822 1.993-4.673.665-9.016 1.043-13.904 1.043l-.67.001c-3.894.007-8.451.015-12.606-2.054-3.949-1.968-8.025-4.535-11.733-7.352l.004.343c.017 1.882-.084 3.932-.651 5.909-1.978 6.898-4.6 12.98-8.102 19.262-.279.5-.732.905-1.305 1.115a2.56 2.56 0 01-1.268.126 3.3 3.3 0 01-1.151-.426c-.46-.269-.937-.659-1.351-1.024-.871-.768-1.942-1.858-2.984-2.967-2.09-2.226-4.273-4.762-4.893-5.539-.938-1.174-1.91-2.265-2.907-3.383l-.429-.482c-1.127-1.267-2.281-2.587-3.31-4.002-1.453-2-2.674-4.215-3.339-6.877-6.947 6.465-14.23 12.439-24.54 14.64-4.917 1.05-10.465 2.15-15.76 2.15-.328 0-.623.024-.971.051l-.185.015c-.315.025-.912.072-1.473-.028a3.061 3.061 0 01-1.258-.517 2.834 2.834 0 01-1.017-1.343c-.324-.885-.17-1.782-.047-2.332.398-1.784.908-3.62 1.4-5.387.18-.649.357-1.288.526-1.912 1.213-4.489 3.076-9.323 5.063-13.668-.902.033-1.809.079-2.734.125h-.004c-.934.047-1.887.094-2.871.132-2.859.109-5.852.123-8.877-.307-.44-.063-.953-.074-1.584-.06a41.82 41.82 0 00-.65.021h-.002c-.448.015-.951.033-1.381.033-.679 0-1.46-.221-2.079-.847-.564-.571-.754-1.241-.822-1.682-.128-.821.042-1.667.165-2.186.135-.57.321-1.157.46-1.6l.017-.05a20.098 20.098 0 00.234-.785v-.004l.001-.002c.465-3.004 2.055-6.335 3.888-8.992-3.44-.687-6.883-1.718-9.47-2.972-.235-.114-.547-.257-.913-.426-1.259-.578-3.162-1.453-4.787-2.439-1.063-.644-2.181-1.434-3.031-2.363-.824-.9-1.709-2.283-1.492-4.012.279-2.225 1.703-3.981 2.824-5.213.352-.387.759-.809 1.128-1.193l.002-.001v-.001l.005-.005.006-.006c.208-.215.403-.418.57-.595.528-.56.921-1.017 1.193-1.424 1.74-2.6 4.29-5.295 6.517-7.542-6.915-.694-14.054-2.72-20.018-6.062l-.19-.106c-.67-.369-2.057-1.133-3.046-2.076-.536-.511-1.287-1.376-1.487-2.564-.24-1.433.408-2.653 1.393-3.494.847-.723 1.519-1.695 2.415-2.992l.003-.004.33-.476c.979-1.409 2.241-3.151 4.12-4.355 1.565-1.002 2.914-2.219 4.428-3.584l.676-.608c1.739-1.558 3.707-3.243 6.173-4.472.404-.201.9-.524 1.533-.973l.684-.493a67.36 67.36 0 011.343-.957c.25-.171.522-.354.813-.538a59.966 59.966 0 01-3.164-2.042c-.459-.314-.906-.624-1.346-.928-1.492-1.032-2.9-2.007-4.388-2.876-2.86-1.67-5.598-4.1-7.62-6.663-1.268-1.608-2.877-3.138-4.654-4.74l-1.068-.957h-.001c-1.427-1.274-2.923-2.61-4.244-3.979-.356-.368-.759-.795-1.033-1.211-.265-.402-.908-1.566-.188-2.87.263-.476.616-.766.796-.902a5.52 5.52 0 01.489-.325h.001l.087-.052c.21-.127.373-.224.57-.372 1.28-.956 2.673-1.574 3.803-2.076l.217-.096c1.242-.553 2.191-1.004 3.01-1.672 1.873-1.527 4.294-2.642 6.608-3.482a54.96 54.96 0 014.187-1.312c-.297-2.057-.91-4.094-1.587-6.34l-.103-.344c-.879-2.92-1.83-6.185-1.83-9.766 0-1.427.542-2.727 1.735-3.569 1.022-.72 2.223-.88 3.095-.916.916-.038 1.881.052 2.66.13l.252.025c.73.074 1.282.129 1.74.129 1.13 0 2.357-.06 3.696-.127l.071-.004c1.344-.066 2.787-.136 4.22-.137 1.781-.001 3.683.1 5.507.507a70.125 70.125 0 01-.4-1.713c-.5-2.262-1.141-4.423-1.808-6.67a193.8 193.8 0 01-1.056-3.642c-.98-3.535-1.813-7.276-1.813-11.233 0-.657-.009-1.347-.018-2.055-.02-1.49-.04-3.06.02-4.567.066-1.633 1.296-2.419 2.044-2.701.705-.266 1.462-.315 1.984-.324.572-.01 1.144.03 1.588.067l.521.045c.183.017.298.028.39.031 3.329.128 7.78 1.443 10.61 2.319 5.241 1.62 9.999 3.847 14.735 6.345 1.945 1.026 3.615 2.477 5.054 3.729l.014.012c1.519 1.32 2.804 2.436 4.217 3.218 1.875 1.038 3.84 2.78 5.499 4.592a33.54 33.54 0 011.361 1.582 27.39 27.39 0 011.336-4.788c.665-1.747 1.467-3.436 2.229-5.042l.001-.002c.351-.741.695-1.464 1.012-2.168.875-1.937 1.91-3.77 2.885-5.5l.001-.002.104-.184c1.024-1.815 1.98-3.526 2.763-5.308.077-.176.16-.372.249-.583.433-1.024 1.017-2.406 1.802-3.484 1.084-1.49 2.791-2.767 5.337-2.572 6.774.519 12.587 4.353 16.178 9.858zm-18.9-2.204v-.001c.423-.99.742-1.736 1.181-2.338.42-.578.703-.694 1.182-.657 5.163.396 9.722 3.326 12.605 7.746 5.807 8.9 7.579 17.89 7.813 28.25-.088.156-.173.312-.252.47a2.4 2.4 0 00-.162.419c-2.808.387-5.544 1.076-7.79 2.143-2.289 1.088-3.811.523-6.801-.587-.553-.205-1.156-.429-1.823-.664-.739-.26-1.495-.533-2.265-.81-4.547-1.64-9.585-3.455-14.618-4.12.041-4.04.284-7.407 1.653-11.003.601-1.578 1.265-2.976 1.981-4.482.371-.78.756-1.591 1.153-2.47.788-1.744 1.732-3.418 2.738-5.2l.064-.114c1.011-1.793 2.081-3.697 2.971-5.725.134-.305.255-.59.37-.857zm81.839 57.776a8.89 8.89 0 01.203-.286c.082-.113.166-.224.236-.318l.018-.023c.079-.104.141-.188.196-.264.073-.102.107-.155.118-.172l.004-.007c.333-.738.869-1.422 1.276-1.905.316-.376.673-.764.942-1.058a14.285 14.285 0 00.239-.261c.63-.698 1.238-1.738 1.841-3.02a57.32 57.32 0 001.146-2.661c.161-.394.323-.787.488-1.18 1.071-2.534 1.668-4.898 1.668-7.5 0-1.255-.065-2.446-.135-3.71-.032-.59-.065-1.198-.093-1.835a22.241 22.241 0 00-.006-.129 7.156 7.156 0 00-.555-.118 24.598 24.598 0 00-.909-.14l-.161-.025c-.363-.056-.82-.131-1.249-.25-.596-.165-1.404-.206-2.438-.149-.661.037-1.233.098-1.836.161-.41.044-.834.089-1.31.129-1.052.088-2.155.076-3.113.065-.294-.003-.575-.006-.837-.006-.681 0-1.362.207-2.403.588l-.113.042-.132.048c-.52.193-1.148.425-1.844.611.095 4.037-.235 8.06-.885 12.27-.374 2.424-1.362 4.733-2.401 6.79a84.592 84.592 0 01-1.45 2.715c.811-.044 1.657-.09 2.564-.122 2.211-.078 4.604-.06 6.867.428 1.196.257 2.275.64 3.224.986l.328.12.512.187zm-4.447 32.705h.027c2.079-.93 4.197-1.69 6.245-2.397l.389-.134.914-.314c1.621-.555 3.183-1.09 4.718-1.686 3.856-1.496 7.243-3.27 9.977-6.212.605-.651 2.049-2.726 2.955-4.826.455-1.055.68-1.904.701-2.463a1.823 1.823 0 00-.002-.217c-3.107-1.805-6.305-3.18-9.859-4.445-1.914-.681-3.629-1.579-5.178-2.39l-.209-.109-.408-.212c-1.755-.912-3.366-1.694-5.203-2.189-.994-.268-1.931-.612-2.755-.914l-.318-.117c-.934-.34-1.749-.622-2.602-.806-1.673-.36-3.59-.4-5.709-.325-.721.026-1.498.067-2.293.11-.485.025-.978.052-1.468.075 1.219 5.785 1.125 11.87.765 17.023-.111 1.595-.562 3.09-1.032 4.398a63.17 63.17 0 01-.642 1.686v.002l-.084.213c-.238.61-.453 1.17-.638 1.715-.646 1.903-1.04 3.871-1.397 5.963.62-.14 1.23-.225 1.762-.282 1.4-.153 2.816-.165 3.743-.165 1.151 0 2.655-.047 4.108-.205.796-.087 1.515-.2 2.124-.337a2.34 2.34 0 011.369-.44zm6.285 6.222c-1.796-.884-3.788-1.399-5.504-1.521-1.2.372-2.544.587-3.765.72a44.134 44.134 0 01-4.617.233c-.907 0-2.105.014-3.234.137-1.245.135-1.957.363-2.193.52a2.328 2.328 0 01-.977.37c-.335 1.712-.755 3.462-1.368 5.187-.917 2.579-1.909 4.898-3.122 7.085 3.999.324 7.88 1.184 11.532 1.993l.248.055c.785.174 1.571.34 2.358.502 1.467-.6 3.009-1.458 4.417-2.36.881-.564 1.806-1.033 2.609-1.441l.328-.166c.918-.469 1.689-.883 2.382-1.389 1.23-.899 2.37-2.202 3.372-3.628.284-.404.633-.775.904-1.054.149-.153.268-.273.379-.384a23.231 23.231 0 00.543-.56l.058-.063.048-.054.028-.031a3.846 3.846 0 01-.065-.129l-.021-.045a.256.256 0 01-.011-.024c-.69-1.527-2.234-2.92-4.329-3.953zm-14.017 19.339c.571.127 1.137.249 1.697.367.558.431 1.3.605 2.024.418.609.124 1.212.245 1.809.365l.027.006h.003c6.214 1.248 11.836 2.376 17.587 5.164.142.069.327.16.539.269-.097.055-.19.111-.279.166-.635.397-1.222.881-1.725 1.333-.45.404-.886.83-1.256 1.193l-.13.127c-.427.418-.731.707-.966.897-2.103 1.703-4.496 3.212-6.97 4.445-6.614 3.295-13.023 6.177-20.036 7.674-8.748 1.868-17.894 1.832-27.161 1.795l-.587-.002c1.425-3.427 3.08-6.597 5.465-9.575 1.89-2.359 4.143-4.58 6.548-6.856.463-.438.933-.88 1.406-1.324 1.949-1.831 3.96-3.721 5.803-5.682a39.39 39.39 0 002.445-2.851c4.54.031 9.031 1.025 13.737 2.067l.02.004zm-36.655-82.285a39.436 39.436 0 00-4.77-.267 26.88 26.88 0 011.585-1.58 84.941 84.941 0 012.163-1.916l.041-.035a67.14 67.14 0 002.144-1.911c1.128-1.068 2.181-2.32 3.134-3.453.26-.309.513-.609.757-.894 1.209-1.41 2.313-2.57 3.546-3.389l.207-.137c3.833-2.546 7.39-4.91 11.396-6.59.692-.29 1.457-.644 2.219-.995l.277-.128a68.89 68.89 0 012.633-1.165c1.526-.628 2.841-1.043 3.876-1.165.113.159.254.38.419.676.554.996 1.15 2.428 1.727 4.03 1.144 3.176 2.076 6.636 2.341 7.667 2.083 8.093 2.121 15.298.861 23.459-.262 1.694-.987 3.483-1.955 5.397a65.09 65.09 0 01-.949 1.799 24.517 24.517 0 00-1.52-2.588c-7.149-10.604-18.275-15.37-30.132-16.815zm-48.623-4.114l.007-.509a2.321 2.321 0 01-.823-.916c-.668-1.332-1.906-3.054-3.387-4.672-1.492-1.627-3.062-2.965-4.313-3.657-1.857-1.028-3.47-2.431-4.866-3.646l-.156-.136c-1.508-1.31-2.786-2.397-4.18-3.132-4.613-2.434-9.082-4.513-13.931-6.013-2.956-.914-6.801-2.012-9.4-2.111a18.95 18.95 0 01-.82-.063H82l-.295-.027c-.198-.016-.391-.03-.577-.04a119 119 0 00.017 2.676c.01.74.02 1.498.02 2.29 0 3.323.7 6.583 1.644 9.99.298 1.078.63 2.196.968 3.338.696 2.348 1.422 4.797 1.955 7.212.698 3.161 1.803 7.081 3.484 10.537 1.373 2.823 3.019 5.106 4.939 6.51.31-.608.636-1.21.978-1.802 2.315-4.01 5.494-7.816 9.614-9.898 2.861-1.447 6.5-3.021 10.275-4.189 2.883-.891 5.946-1.577 8.852-1.742zm-40.703 8.75a2.348 2.348 0 01-.658-.214c-1.61-.802-3.805-1.072-6.463-1.07-1.302 0-2.634.064-3.992.131l-.127.007c-1.294.064-2.624.13-3.872.13-.713 0-1.52-.082-2.2-.151l-.056-.006-.202-.02c-.806-.08-1.46-.133-2-.111a3.874 3.874 0 00-.334.027c.036 2.733.763 5.33 1.631 8.215l.15.495.001.005c.59 1.953 1.226 4.06 1.599 6.291.38-.118.763-.242 1.157-.368.609-.196 1.242-.4 1.926-.606 1.813-.547 3.813-1.052 5.96-1.131 1.045-.039 2.214-.353 3.669-.808l.548-.172c1.236-.392 2.677-.848 4.084-1.064a46.47 46.47 0 013.885-.424c-1.135-1.48-2.085-3.111-2.88-4.748a42.343 42.343 0 01-1.826-4.407zm88.757.002c10.994 1.339 20.656 5.656 26.809 14.782.475.705.903 1.444 1.288 2.21-7.208-.405-14.359.757-21.173 2.866-6.286 1.944-10.996 6.065-15.239 10.105l-.159.15c-1.968 1.872-4.387 4.172-5.012 7.885-.346 2.06-.398 4.103-.445 5.985-.013.5-.025.988-.042 1.462-.012.322.042.63.149.914.003 1.139.311 2.263.607 3.137.314.929.715 1.847 1.012 2.53l.147.338c.639 1.481.958 3.095 1.321 4.931l.001.002v.004l.002.006v.002c.103.519.209 1.056.327 1.612.218 1.026.068 2.23-.412 3.575-.477 1.337-1.226 2.664-2.014 3.851-1.059 1.597-2.42 3.209-3.818 4.607a23.32 23.32 0 00-1.907 2.155c-.257.333-.534.715-.794 1.128l-.071-.008-.621-.071c-1.531-.178-3.205-.372-4.913-.366-1.904.007-3.763.24-5.499.489-.371.053-.734.107-1.092.16-1.361.2-2.637.388-3.925.496-.406.034-.815.04-1.323.048l-.08.001c-.516.007-1.134.018-1.778.086-.583.061-1.396.262-2.149.557a20.294 20.294 0 00-.346-.548c-.24-.366-.497-.732-.724-1.057l-.002-.002-.156-.223a16.485 16.485 0 01-.666-1.011 19.118 19.118 0 01-1.917-4.499c-.716-2.524-.514-5.354-.16-8.456.372-3.245 1.258-5.993 2.34-9.35l.073-.225c.129-.399.298-.76.531-1.257l.265-.571c.318-.697.72-1.638.859-2.711.234-.454.32-.988.21-1.527-1.077-5.292-4.921-11.597-8.495-15.324-3.353-3.496-6.978-5.59-11.359-7.269-4.775-1.83-10.018-2.323-14.818-2.775-.466-.044-.929-.087-1.386-.132.802-2.96 2.087-6.278 3.823-9.286 2.084-3.61 4.689-6.554 7.671-8.06 2.678-1.355 6.071-2.82 9.544-3.894 3.506-1.084 6.924-1.715 9.716-1.543 5.008.31 10.138 2.152 15.399 4.04.781.281 1.566.563 2.353.84.458.163.931.345 1.418.534 3.001 1.16 6.564 2.54 10.789.531 4.126-1.96 11.023-2.442 15.841-1.855zm-9.27 45.11c.132.34.186.718.141 1.106-.033.29.047.877.355 1.788.245.724.554 1.434.853 2.122l.072.165.099.229c.856 1.986 1.298 4.243 1.67 6.136.089.458.174.894.261 1.299.457 2.158.068 4.282-.582 6.105-.652 1.83-1.622 3.51-2.52 4.863-1.261 1.901-2.831 3.751-4.409 5.328a18.886 18.886 0 00-1.512 1.707 9.172 9.172 0 00-.632.914c.034.14.06.287.076.441.176 1.66-.668 2.945-1.398 3.725-.75.801-1.67 1.395-2.393 1.782a114.932 114.932 0 00-5.514 3.149c-.821.499-1.45.945-1.873 1.42-.171.191-.506.56-.865.912-.13.127-.279.267-.436.403l.042.2c.169.842.266 1.833.329 2.746.061.896.095 1.803.123 2.539l.003.078c.015.382.027.707.041.972.007.132.013.239.02.324l.005.059.002.026.002.016.002.018.001.011.001.008v.002l.196 1.385c.397 2.789.827 5.802.982 8.77 2.379.388 4.574 1.286 6.472 2.062l.748.305c1.489.6 2.821 1.367 4.008 2.068l.374.221c1.072.634 2.022 1.197 3.03 1.664.648.3 1.255.644 1.768.936l.12.068c.568.321 1.035.58 1.511.787.098.043.194.089.285.136.145-.046.296-.079.451-.096.489-1.75.977-3.47 1.502-4.947.19-.534.378-1.068.566-1.603l.005-.012c2.19-6.217 4.388-12.453 8.889-18.072 2.105-2.629 4.561-5.037 6.982-7.329.492-.465.981-.925 1.467-1.381l.001-.001.001-.002.002-.001.001-.001.001-.001c1.937-1.82 3.812-3.582 5.544-5.426 3.669-3.902 5.73-7.681 7.563-12.839.865-2.432 1.297-4.986 1.751-7.771l.039-.237c.432-2.655.9-5.527 1.852-8.332.222-.653.473-1.301.71-1.91l.085-.216v-.001c.212-.542.412-1.053.597-1.568.421-1.168.702-2.188.769-3.144.399-5.726.385-11.936-1.069-17.395-7.206-.741-14.503.309-21.583 2.5-5.149 1.592-9.175 5.008-13.39 9.02-2.153 2.05-3.439 3.37-3.785 5.43-.287 1.704-.329 3.318-.376 5.146v.002l-.033 1.192zm-43.111-13.015c2.991 3.12 6.135 8.316 7.16 12.45-.065.173-.11.357-.132.55-.038.332-.178.74-.479 1.399l-.168.36c-.256.543-.596 1.265-.825 1.975l-.12.372c-1.049 3.25-2.063 6.39-2.487 10.104-.351 3.063-.69 6.743.306 10.255a23.754 23.754 0 002.384 5.59c.269.458.58.912.86 1.313l.178.255.004.005c.223.319.428.612.625.913.523.798.756 1.312.812 1.65.093.554.373 1.03.767 1.373.304.896.82 1.624 1.194 2.105.356.458.739.881 1.048 1.219l.101.11c.284.31.476.52.62.701.644.806 1.397 1.356 2.062 1.766.375.232.876.503 1.274.718l.002.001.003.001.003.002c.189.103.355.192.471.258l.164.094c1.213.69 2.378 1.353 3.945 1.749.033.044.068.087.104.129.02.073.045.175.073.311.108.539.189 1.287.248 2.146.056.823.088 1.668.116 2.418l.006.154c.025.657.052 1.376.112 1.806l.199 1.409c.392 2.758.78 5.49.93 8.135-.691.136-1.39.339-2.094.619-1.174.468-2.316 1.005-3.385 1.507l-.127.06c-1.129.53-2.18 1.02-3.237 1.431-1.479.575-2.962 1.384-4.275 2.1-.584.318-1.135.618-1.636.872-.208.105-.496.242-.826.399-.669.319-1.509.72-2.204 1.099-.159.088-.325.18-.494.279-.565-1.735-1.296-3.383-2.005-4.925l-.431-.933c-.911-1.965-1.742-3.759-2.311-5.6-.62-2.01-1.112-4.074-1.625-6.226l-.001-.001c-.078-.33-.157-.662-.238-.996-.594-2.477-1.239-5.05-2.141-7.546-1.188-3.291-2.58-6.547-3.938-9.723-.857-2.004-1.7-3.976-2.47-5.905-1.03-2.581-2.565-4.863-3.988-6.925l-.354-.512c-1.331-1.922-2.535-3.662-3.431-5.535-.974-2.034-2.445-4.163-3.736-6.032-.44-.637-.858-1.243-1.23-1.805-.782-1.184-1.385-2.205-1.757-3.093-.38-.906-.412-1.427-.36-1.7.423-2.214.153-4.374-.115-6.193l-.107-.71v-.002c-.243-1.61-.443-2.94-.374-4.26.221-4.216 1.114-8.111 2.08-12.32v-.003l.006-.028c.792.08 1.575.155 2.35.229 4.722.45 9.128.87 13.242 2.447 3.91 1.498 6.892 3.257 9.652 6.135zm4.666 86.861c.499 1.083 1.171 2.039 1.975 3.031.333.411.713.852 1.118 1.324 1.106 1.284 2.405 2.794 3.488 4.532.012.014.147.182.616.436.47.255 1.096.502 1.855.746.738.237 1.515.446 2.304.657l.052.014c.764.205 1.588.426 2.267.666 5.848 2.063 13.341 2.118 18.605-.57 2.491-1.272 4.332-4.337 5.862-8.545.276-.758.534-1.532.781-2.314-.33-.151-.653-.357-.82-.463l-.047-.03a7.828 7.828 0 00-.24-.149 1.68 1.68 0 00-.073-.04l-.002-.001c-.731-.318-1.394-.691-1.952-1.008l-.081-.045c-.551-.313-1-.567-1.466-.783-1.236-.573-2.397-1.261-3.442-1.88l-.375-.222c-1.181-.697-2.246-1.301-3.376-1.757l-.277-.111c-4.093-1.651-7.075-2.854-10.231-1.596-1.04.415-2.069.898-3.174 1.417l-.08.038c-1.112.522-2.302 1.079-3.531 1.557-1.208.47-2.214 1.022-3.36 1.65-.647.355-1.339.734-2.137 1.137-.412.208-.792.388-1.165.564-.564.267-1.113.527-1.728.863-.611.334-1.059.631-1.366.882zm-49.605-64.367c.407 0 .79-.104 1.124-.285 5.843 2.618 12.4 5.525 19.23 6.048l.097.006h.016l.025.001c.201.361.39.721.563 1.082.87 1.816 1.972 3.511 3.05 5.085-5.021 2.069-10.007 5.518-14.11 8.357l-.918.634c-.869.599-1.805 1.211-2.772 1.843-1.67 1.092-3.436 2.245-5.118 3.507-7.647-.065-16.04-2.028-22.649-5.731l-.233-.13-.004-.002a23.22 23.22 0 01-.998-.577 9.104 9.104 0 01-.719-.49c1.053-1.051 1.9-2.285 2.605-3.314l.002-.002.32-.466c.986-1.418 1.791-2.437 2.802-3.084 1.915-1.227 3.573-2.725 5.062-4.071l.002-.002.01-.008.63-.568c1.713-1.535 3.28-2.843 5.134-3.766.752-.375 1.497-.88 2.156-1.347.291-.207.557-.399.814-.586.384-.279.75-.544 1.154-.822 1.4-.961 2.24-1.312 2.725-1.312zm17.083.581c-4.774-.994-9.467-3.09-14.264-5.232l-.007-.003-.005-.002c-.734-.328-1.47-.656-2.209-.982-1.939-.855-3.763-2.02-5.683-3.33-.404-.277-.815-.561-1.233-.85-1.516-1.05-3.122-2.162-4.782-3.132-2.327-1.359-4.626-3.391-6.304-5.519-1.533-1.944-3.401-3.7-5.195-5.317-.389-.35-.773-.693-1.15-1.03l-.005-.005c-1.1-.982-2.148-1.918-3.12-2.867.687-.415 1.46-.759 2.404-1.18l.068-.03c1.21-.539 2.702-1.209 4.065-2.32 1.273-1.038 3.119-1.937 5.244-2.708 2.098-.762 4.305-1.342 6.214-1.818 1.238-.308 2.53-.723 3.727-1.107.572-.183 1.123-.36 1.635-.514 1.69-.51 3.233-.877 4.774-.934 1.746-.064 3.463-.57 4.897-1.017l.592-.187.009-.002c1.269-.4 2.323-.732 3.342-.889 2.464-.377 4.816-.492 7.357-.519a43.73 43.73 0 00-1.673 5.664c-.204.924-.417 1.853-.632 2.789-.974 4.234-1.978 8.604-2.222 13.262-.097 1.83.185 3.672.424 5.235l.1.66c.266 1.81.409 3.274.148 4.642-.298 1.565.1 3.088.639 4.372.546 1.304 1.348 2.62 2.168 3.861.225.342.452.678.677 1.009zm100.847 66.315a2.345 2.345 0 01-1.204-1.488c-.334-.41-.659-.805-.974-1.178-1.534-1.812-3.053-3.369-4.869-4.532a104.65 104.65 0 01-2.894-1.956l-.817-.564c-1.294-.89-2.617-1.78-3.957-2.576-2.149-1.275-4.145-2.183-5.932-2.521-.288.802-.576 1.617-.869 2.447l-.533 1.504c-.505 1.421-.981 3.124-1.518 5.045l-.153.545c-.589 2.104-1.247 4.408-2.054 6.628-.787 2.163-1.771 4.416-3.093 6.394 4.314 3.784 9.623 7.373 14.659 9.882 3.136 1.562 6.665 1.561 10.872 1.56h.307c4.623 0 8.741-.356 13.241-.996.31-.044.508-.099.627-.143a1.577 1.577 0 00-.021-.163c-.075-.457-.284-1.063-.623-1.89-.081-.199-.174-.418-.271-.649a35.457 35.457 0 01-.775-1.94c-1.35-3.845-3.633-7.241-6.525-10.345-.894-.959-1.777-2.023-2.624-3.064zm5.993-3.883c-1.118-.147-2.278-.3-3.447-.417a88.148 88.148 0 00-1.139-1.377c-1.639-1.937-3.515-3.912-5.918-5.451-.834-.534-1.728-1.153-2.713-1.834l-.869-.6c-.663-.456-1.357-.929-2.073-1.398 5.609-.077 11.297-.361 16.875-1.28a2.343 2.343 0 001.726.755c2.132 0 4.715 1.192 7.463 3.164 2.68 1.923 5.168 4.326 7.084 6.236.043.042.082.082.117.12-.442.213-1.037.427-1.79.672-.156.051-.321.104-.493.158l-.006.002c-.719.23-1.546.494-2.228.78-2.485 1.043-5.137 1.197-8.068.981-1.47-.108-2.956-.304-4.519-.51l-.002-.001zm-111.815-3.205c-.952 0-1.992-.052-3.085-.151-2.077 2.315-4.131 6.066-4.572 8.924-.07.446-.25 1.013-.37 1.395l-.027.084-.073.232c.654-.01 1.394.003 2.14.11 2.603.37 5.262.369 8.034.264.865-.033 1.757-.078 2.663-.123h.002c1.87-.093 3.8-.189 5.673-.194.926-1.277 1.97-2.383 2.938-3.377l.297-.305.269-.275c1.352-1.38 2.496-2.55 3.363-3.892.312-.485 1.115-1.467 2.043-2.518.227-.257.469-.526.722-.803-1.042.169-2.123.34-3.267.492-2.848.378-5.756.404-8.563.344-1.113-.024-2.187-.06-3.24-.095h-.001c-1.679-.057-3.303-.112-4.945-.112zm29.921-2.104c.125.005.252 0 .378-.015.835 1.872 1.521 3.622 1.88 5.387.643 3.157 2.108 5.361 3.646 7.258.5.617.979 1.172 1.439 1.707 1.018 1.182 1.948 2.262 2.83 3.677.615.985 1.548 1.636 2.359 2.076.603.327 1.257.6 1.903.832-7.414 6.979-14.114 12.79-23.781 14.854-4.942 1.055-10.04 2.047-14.778 2.047h-.008c.29-1.153.613-2.316.945-3.511l.001-.002c.187-.673.377-1.357.566-2.054 1.34-4.962 3.57-10.488 5.87-15.209.782-1.603 2.009-2.976 3.518-4.527.175-.18.356-.364.54-.551 1.317-1.341 2.824-2.875 3.967-4.647l.031-.044.103-.139c.089-.116.208-.266.354-.446a53.145 53.145 0 014.329-4.662 26.374 26.374 0 011.7-1.491c.238-.006.478-.01.72-.01.565 0 1.083-.199 1.488-.53zm-3.833-4.052c-2.255.165-4.488.529-6.612.875h-.001c-1.152.188-2.271.371-3.345.513-2.486.331-5.108.363-7.842.304-.986-.021-2.01-.055-3.046-.089-1.752-.059-3.54-.119-5.242-.119-4.61 0-11.713-1.444-15.823-3.436a64.341 64.341 0 00-1.204-.563l-.002-.001c-1.244-.573-2.74-1.261-4.106-2.09-.913-.554-1.594-1.072-2.004-1.52a1.868 1.868 0 01-.29-.385c.118-.639.605-1.427 1.631-2.556.324-.356.626-.668.949-1.002.22-.229.452-.468.707-.739.563-.598 1.178-1.286 1.676-2.029 1.798-2.688 4.73-5.64 7.283-8.184 2.18-2.173 4.798-3.884 7.605-5.72 1.05-.686 2.126-1.39 3.216-2.142l.76-.524c4.551-3.145 9.511-6.572 14.284-8.341.762 1.208 1.419 2.394 1.914 3.635.866 2.171 1.745 4.222 2.611 6.244 1.304 3.042 2.579 6.019 3.742 9.24.805 2.229 1.4 4.579 1.993 7.05l.232.971v.002l.001.001c.51 2.141 1.04 4.369 1.71 6.537.327 1.06.729 2.106 1.159 3.126a6.577 6.577 0 00-1.324.564c-.208.114-.419.241-.632.378zm27.147 33.893c-1.539-2.118-2.621-4.311-2.911-7.126 6.649 2.149 15.144 2.234 21.592-1.058.378-.193.74-.406 1.089-.637l.015.377.005.135c.034.86.067 1.685.075 2.502.015 1.728-.089 3.25-.471 4.584-1.632 5.69-3.725 10.796-6.458 15.997a63.508 63.508 0 01-1.771-1.819c-2.03-2.163-4.126-4.603-4.648-5.256-1.022-1.281-2.085-2.473-3.075-3.584l-.42-.471c-1.127-1.267-2.143-2.435-3.022-3.644zm4.833-60.154a119.88 119.88 0 015.735-3.275c-1.235-.139-2.373-.245-3.531-.241-1.557.005-3.145.197-4.848.441-.328.047-.662.097-1.001.147-1.377.203-2.84.419-4.291.541-.576.048-1.14.056-1.612.063l-.116.001c-.524.008-.946.018-1.353.061l-.01.001-.01.001-.018.003-.026.005-.015.002-.053.01a4.97 4.97 0 00-.282.068l-.037.01-.039.011.016.022.02.026.021.027c.229.295.499.596.806.933l.103.112c.26.283.571.622.822.937.18.225.439.442.859.701.298.184.53.308.812.459.219.116.467.248.797.436 1.569.891 2.343 1.326 3.643 1.511l.027-.027a14.4 14.4 0 00.645-.681c.912-1.023 2.05-1.766 2.936-2.305zm58.594 57.727v-.003l.002-.008a.12.12 0 01-.002.011zm.151-.242l.002-.001.002-.001-.007.005.003-.003zm32.135-56.097c.011-.006.013-.006.003-.002l-.003.002zm-19.496 31.839a.143.143 0 01.011-.012l.003-.003.002-.002.002-.001s-.004.006-.018.018zm-14.718-143.77s.01.007.032.028c-.022-.016-.032-.028-.032-.028zM242.792 79.8s.004.007.008.027c-.007-.016-.008-.027-.008-.027z" fill="#2C2C2C"/><path d="M185.205 229.797a2.338 2.338 0 012.344 2.331c0 1.974.039 3.954.079 5.96v.015c.039 1.993.079 4.012.079 6.029 0 .955.103 1.929.224 3.05l.005.049c.115 1.067.245 2.273.245 3.505 0 .547.012 1.142.024 1.764v.016c.028 1.414.059 2.966-.038 4.412-.03.451-.062.89-.094 1.319-.108 1.489-.208 2.873-.208 4.31 0 .765-.04 1.621-.077 2.414v.002a95.56 95.56 0 00-.049 1.163c-.037 1.146-.021 2.137.128 3.008.266 1.554.246 3.121.18 4.516-.025.519-.055.997-.083 1.451v.002c-.052.852-.099 1.617-.099 2.396a2.338 2.338 0 01-2.345 2.331 2.337 2.337 0 01-2.344-2.331c0-.918.062-1.931.119-2.869.025-.42.05-.825.068-1.2.062-1.312.06-2.47-.119-3.513-.23-1.346-.231-2.716-.191-3.942.016-.507.038-.967.059-1.404v-.002c.033-.705.064-1.348.064-2.022 0-1.622.117-3.226.227-4.741l.001-.007v-.004l.003-.034v-.012l.003-.029c.027-.377.054-.748.078-1.112.084-1.248.059-2.446.032-3.744v-.019a99.8 99.8 0 01-.028-2.119c0-.96-.103-1.937-.224-3.058l-.006-.056c-.114-1.064-.244-2.266-.244-3.49 0-1.969-.039-3.947-.078-5.952l-.001-.008v-.015c-.039-1.991-.079-4.009-.079-6.029a2.338 2.338 0 012.345-2.331z" fill="#2C2C2C"/><path fill-rule="evenodd" clip-rule="evenodd" d="M7.526 267.582c-.147.627-.296 1.266-.456 1.918l-.143.591A72.583 72.583 0 016.178 273c-.211.736-.497 1.487-.74 2.122l-.194.515c-.292.789-.493 1.424-.577 2.031a2.342 2.342 0 01-2.643 1.991 2.333 2.333 0 01-2.002-2.628c.157-1.128.506-2.153.823-3.007a62.6 62.6 0 01.259-.687c.225-.592.413-1.087.566-1.618.247-.862.464-1.754.69-2.687l.154-.634c.134-.548.268-1.118.404-1.704.474-2.026.99-4.231 1.716-6.283.889-2.513 1.602-4.756 1.952-7.189.468-3.258 1.16-6.528 2.317-9.725.174-.481.344-.928.505-1.352.476-1.253.876-2.307 1.089-3.447.354-1.902.95-3.766 1.922-5.506.595-1.065 1.574-1.585 2.338-1.844.767-.26 1.577-.347 2.249-.377a20.78 20.78 0 011.93.023l.5.026c.331.018.563.031.753.031l.147-.001c.473-.003 1.246-.007 1.97.17a4.314 4.314 0 012.587 1.792c1.079 1.561 2.185 3.405 2.653 5.655.11.527.267 1.036.463 1.669l.079.254c.219.71.473 1.564.613 2.499.289 1.931.69 3.902 1.107 5.885.216 1.024.323 2.144.415 3.104.028.293.054.572.082.828.131 1.208.302 2.147.646 2.93.956 2.174 1.734 4.563 2.288 6.83.142.578.346 1.161.598 1.851l.076.209c.224.61.483 1.315.69 2.043.673 2.361 1.034 4.688 1.302 6.999.034.294.098.593.188 1.013l.077.364c.113.541.259 1.283.259 2.048a2.338 2.338 0 01-2.345 2.331 2.338 2.338 0 01-2.344-2.331c0-.238-.049-.564-.16-1.097a52.56 52.56 0 00-.054-.248 16.687 16.687 0 01-.28-1.546c-.255-2.201-.58-4.247-1.154-6.262-.158-.554-.356-1.094-.588-1.728l-.074-.203-.145-.4h-5.387c-.667 0-1.423-.025-2.133-.047a83.79 83.79 0 00-1.236-.035c-1.078-.02-2.038.002-2.912.134-1.05.158-2.126.143-2.979.13l-.216-.003c-.972-.012-1.677-.003-2.29.122-1.128.23-2.263.258-3.257.243-.396-.006-.727-.017-1.029-.027-.107.446-.213.898-.32 1.356zm7.581-28.035c.262-1.405.669-2.676 1.262-3.814.176-.045.453-.086.846-.104a16.3 16.3 0 011.486.021l.341.019c.388.021.818.044 1.146.044h.162c.234 0 .397 0 .556.007.076.003.134.008.177.012.943 1.374 1.6 2.578 1.872 3.88.158.76.385 1.493.575 2.103l.075.241c.215.699.375 1.261.458 1.819.31 2.079.738 4.168 1.156 6.154.157.747.229 1.49.313 2.375.034.344.069.709.111 1.103.141 1.295.366 2.829 1.012 4.298a34.794 34.794 0 011.259 3.341h-4.016c-.63 0-1.207-.019-1.827-.04-.45-.015-.924-.031-1.455-.041-1.162-.022-2.434-.005-3.701.186-.652.098-1.358.089-2.316.076l-.116-.001c-.928-.012-2.116-.024-3.294.217-.568.115-1.225.154-2.004.15.86-2.45 1.644-4.941 2.043-7.712.44-3.061 1.07-5.999 2.087-8.805.114-.316.244-.656.381-1.016.508-1.33 1.115-2.922 1.411-4.513zm29.087 4.384a2.337 2.337 0 012.344 2.331v4.694c.055-.058.103-.113.146-.169.584-.739 1.333-1.269 1.837-1.616l.359-.245.001-.001c.387-.264.63-.429.842-.621l.214-.195.001-.001c.682-.623 1.694-1.548 2.875-2.136 5.444-2.706 11.692-.557 15.575 2.85 2.293 2.013 3.367 5.028 3.416 7.761.036 2.019.024 4.065.012 6.077v.007c-.006.992-.012 1.975-.012 2.943 0 1.982-.04 3.972-.08 5.931v.005c-.039 1.964-.078 3.897-.078 5.806a2.337 2.337 0 01-2.344 2.331 2.337 2.337 0 01-2.345-2.331c0-1.957.04-3.93.08-5.88v-.025c.04-1.966.078-3.909.078-5.837 0-1.028.006-2.041.012-3.046v-.008c.012-1.977.024-3.924-.011-5.89-.031-1.705-.717-3.371-1.83-4.348-3.023-2.651-7.234-3.737-10.376-2.175-.56.278-1.086.754-1.884 1.477l-.149.134c-.478.433-1.061.827-1.47 1.103l-.216.147c-.5.344-.715.531-.82.664-.423.535-.92.983-1.26 1.289l-.073.067c-.395.356-.603.559-.75.755-.283.38-.595.682-.797.874l-.083.079-.056.053c-.115.11-.185.176-.245.239l-.014.024-.083.149-.012.022c-.039.07-.092.167-.151.268-.06.103-.161.274-.309.471v7.723c0 1.118.106 2.234.226 3.478l.005.048c.115 1.196.243 2.515.243 3.872 0 .13.015.354.046.754l.004.048c.027.348.06.784.077 1.222.017.452.018.985-.042 1.505-.055.464-.187 1.21-.637 1.882a2.353 2.353 0 01-3.251.646 2.324 2.324 0 01-.775-3.024 5.558 5.558 0 00.02-.838 26.86 26.86 0 00-.07-1.065l-.004-.051c-.025-.329-.057-.74-.057-1.079 0-1.116-.106-2.231-.226-3.475l-.005-.045c-.115-1.197-.243-2.518-.243-3.878v-19.419a2.337 2.337 0 012.345-2.331zm-1.775 32.259s.001-.007.005-.017l-.005.017zm40.701-44.878c.869.127 1.633.518 2.282 1.052.379.311.67.734.87 1.083.22.381.417.826.56 1.287.138.452.248.996.225 1.555-.024.554-.188 1.294-.783 1.886-.56.556-1.285.84-1.9.986a6.884 6.884 0 01-1.993.159 6.562 6.562 0 01-1.97-.414c-.6-.235-1.302-.639-1.767-1.334-.43-.639-.71-1.455-.437-2.356.044-.144.1-.278.163-.405a2.743 2.743 0 01.91-2.283c.433-.395.965-.645 1.275-.791l.028-.013c.802-.378 1.662-.539 2.538-.412zm.43 4.621l.12-.075.01.042-.088.023-.017.004-.026.006zm119.346-3.569c-.65-.534-1.414-.925-2.282-1.052-.876-.127-1.735.034-2.537.412l-.029.013c-.31.146-.841.396-1.274.791a2.741 2.741 0 00-.918 2.079c0 .066.002.135.007.204a2.652 2.652 0 00-.162.405c-.274.901.007 1.717.436 2.356.466.695 1.168 1.099 1.768 1.334a6.57 6.57 0 001.97.414c.657.04 1.35-.005 1.992-.159.615-.146 1.341-.43 1.901-.986.595-.592.759-1.332.782-1.886a4.71 4.71 0 00-.225-1.555 6.419 6.419 0 00-.559-1.287c-.201-.349-.492-.772-.87-1.083zm-1.733 3.494a2.422 2.422 0 01-.12.075l.042-.01.088-.023-.004-.016-.002-.011-.004-.015z" fill="#2C2C2C"/><path d="M82.092 244.872a2.338 2.338 0 012.344 2.332c0 5.145.04 10.287.079 15.441v.002c.04 5.153.079 10.317.079 15.491a2.338 2.338 0 01-2.344 2.332 2.338 2.338 0 01-2.345-2.332c0-5.153-.04-10.3-.079-15.455v-.01a1990.61 1990.61 0 01-.079-15.469 2.338 2.338 0 012.345-2.332zm119.838 2.332a2.339 2.339 0 00-2.345-2.332 2.338 2.338 0 00-2.344 2.332c0 5.16.039 10.315.079 15.462v.044c.039 5.146.079 10.284.079 15.428a2.338 2.338 0 002.344 2.332 2.339 2.339 0 002.345-2.332c0-5.174-.04-10.338-.079-15.491v-.001c-.04-5.155-.079-10.297-.079-15.442zm-106.892-3.43a2.338 2.338 0 012.345 2.332v2.972c1.871-1.797 4.177-3.218 6.963-3.733 2.036-.377 4.868-.483 7.138.176 1.937.562 3.079 1.452 4.248 2.613.882.878 1.388 1.935 1.704 2.9.242-.21.483-.408.718-.596.537-.429.989-.767 1.405-1.078.555-.414 1.043-.78 1.577-1.244 2.409-2.096 5.579-2.775 8.29-2.775 2.161 0 4.346.801 6.059 2.119 1.722 1.325 3.129 3.308 3.403 5.765.492 4.402.655 8.738.655 13.133 0 1.139-.041 2.267-.08 3.347v.019a88.037 88.037 0 00-.078 3.195c0 .835-.092 1.637-.168 2.294l-.005.041c-.082.708-.143 1.255-.143 1.782a2.338 2.338 0 01-2.344 2.332 2.338 2.338 0 01-2.344-2.332c0-.815.091-1.606.166-2.256l.007-.058c.081-.704.142-1.261.142-1.803 0-1.136.041-2.263.08-3.342l.001-.021a88.05 88.05 0 00.077-3.198c0-4.282-.159-8.437-.626-12.618-.105-.94-.664-1.863-1.613-2.593-.958-.738-2.149-1.143-3.189-1.143-2.044 0-3.945.527-5.202 1.621-.606.527-1.392 1.121-2.089 1.646-.393.297-.758.573-1.045.802-.956.764-1.649 1.443-2.093 2.179-.14.232-.314.431-.513.595.217 1.651.373 3.342.373 5.106 0 .67.008 1.37.016 2.085.017 1.494.035 3.056-.017 4.564-.046 1.331-.138 2.673-.226 3.972l-.001.02-.055.804c-.104 1.573-.191 3.089-.191 4.58a2.337 2.337 0 01-2.344 2.331 2.338 2.338 0 01-2.345-2.331c0-1.656.096-3.302.202-4.887l.056-.836.002-.022c.088-1.296.172-2.545.216-3.792.048-1.404.032-2.773.016-4.198v-.026c-.009-.735-.018-1.486-.018-2.264 0-2.181-.279-4.29-.639-6.616a81.33 81.33 0 01-.08-.528l-.002-.01v-.003c-.111-.738-.206-1.374-.371-1.989-.2-.741-.434-1.151-.66-1.376-.831-.826-1.315-1.164-2.245-1.434-1.325-.384-3.358-.366-4.967-.068-3.242.6-5.885 3.365-7.79 6.862l-.02.035c.033 1.258.123 2.529.22 3.864l.002.033c.117 1.622.24 3.341.24 5.09 0 1.261-.083 2.486-.16 3.621l-.003.03c-.08 1.168-.152 2.244-.152 3.328v4.719a2.338 2.338 0 01-2.345 2.332 2.338 2.338 0 01-2.344-2.332v-4.719c0-1.254.083-2.474.16-3.606l.003-.038c.08-1.167.153-2.246.153-3.335 0-1.567-.112-3.131-.231-4.79l-.003-.042c-.117-1.619-.24-3.331-.24-5.07v-9.805a2.338 2.338 0 012.344-2.332zm152.802 2.332a2.339 2.339 0 00-2.345-2.332 2.338 2.338 0 00-2.344 2.332v9.805c0 1.739.123 3.451.24 5.07l.003.042c.119 1.659.23 3.223.23 4.79 0 1.089-.072 2.168-.152 3.335l-.003.038c-.077 1.132-.16 2.352-.16 3.606v4.719a2.338 2.338 0 002.344 2.332 2.339 2.339 0 002.345-2.332v-4.719c0-1.084.072-2.16.152-3.328l.002-.03c.078-1.135.161-2.36.161-3.621 0-1.749-.123-3.467-.24-5.09l-.003-.033c-.096-1.335-.187-2.606-.218-3.864l.019-.035c1.905-3.497 4.548-6.262 7.789-6.862 1.609-.298 3.643-.316 4.968.068.93.27 1.414.608 2.245 1.434.226.225.46.635.659 1.376.166.615.261 1.251.372 1.989l.082.541c.36 2.326.639 4.435.639 6.616 0 .786.009 1.544.018 2.286.016 1.427.032 2.797-.017 4.202-.043 1.246-.128 2.495-.216 3.791l-.057.859c-.106 1.585-.202 3.231-.202 4.887a2.338 2.338 0 002.345 2.331 2.337 2.337 0 002.344-2.331c0-1.491.087-3.007.191-4.58l.047-.697.007-.107.002-.02c.088-1.299.179-2.641.226-3.972.052-1.508.034-3.07.017-4.564v-.004c-.008-.714-.016-1.412-.016-2.081 0-1.764-.156-3.455-.373-5.106.198-.164.373-.363.512-.595.445-.736 1.138-1.415 2.094-2.179.287-.229.652-.504 1.045-.802.696-.525 1.483-1.119 2.089-1.646 1.257-1.094 3.157-1.621 5.202-1.621 1.04 0 2.231.405 3.189 1.143.949.73 1.508 1.653 1.613 2.593.467 4.181.626 8.336.626 12.618 0 1.047-.038 2.099-.077 3.198l-.001.021c-.039 1.079-.08 2.206-.08 3.342 0 .542-.061 1.099-.142 1.803l-.007.058c-.075.65-.167 1.441-.167 2.256a2.339 2.339 0 002.345 2.332 2.338 2.338 0 002.344-2.332c0-.527.061-1.074.143-1.782l.005-.041c.075-.657.168-1.459.168-2.294 0-1.045.038-2.096.078-3.195v-.019c.039-1.08.08-2.209.08-3.347 0-4.395-.163-8.731-.655-13.133-.274-2.457-1.681-4.44-3.403-5.765-1.713-1.318-3.898-2.119-6.059-2.119-2.711 0-5.881.679-8.29 2.775-.534.464-1.022.83-1.577 1.244-.415.311-.869.65-1.405 1.078-.235.188-.476.386-.718.596-.316-.965-.822-2.022-1.705-2.9-1.168-1.161-2.31-2.051-4.247-2.613-2.27-.659-5.102-.553-7.138-.176-2.787.515-5.092 1.936-6.963 3.733v-2.972z" fill="#2C2C2C"/><path fill-rule="evenodd" clip-rule="evenodd" d="M161.324 248.905c-1.627 0-2.844.109-4.152.566-.296.104-.615.289-1.119.628l-.212.144c-.428.292-1.019.696-1.645 1.007-1.391.692-2.759 1.893-4.128 3.254-.915.91-2.399.91-3.315 0a2.321 2.321 0 010-3.297c1.414-1.406 3.231-3.075 5.347-4.127.311-.155.591-.345 1.018-.635l.004-.003.17-.115.132-.089c.539-.363 1.284-.848 2.192-1.165 2.034-.712 3.861-.83 5.708-.83 2.515 0 4.803.603 6.939 2.461 1.467 1.277 2.306 2.766 2.992 4.132l.125.239c.358.678 1.009 1.91 1.009 3.359 0 .591.109 1.201.274 2.059l.015.077c.149.777.342 1.783.342 2.846 0 .527.061 1.075.143 1.781l.006.049c.075.651.167 1.448.167 2.27v7.389c0 .624.007 1.29.1 1.879.045.288.101.489.151.612l.006.015.049.026c.108.054.253.113.427.168.373.117.698.159.835.159.467 0 .923.051 1.242.087l.051.006c.368.042.593.064.795.064a2.338 2.338 0 012.345 2.331 2.339 2.339 0 01-2.345 2.332c-.493 0-.963-.053-1.292-.09l-.03-.004a7.414 7.414 0 00-.766-.063c-.73 0-1.541-.154-2.252-.378-.679-.214-1.559-.583-2.246-1.198-1.121-1.003-1.463-2.457-1.603-3.347a13.867 13.867 0 01-.144-1.644l-.192.143-.001.001c-.269.2-.511.38-.766.592a4.709 4.709 0 00-.4.368c-.079.082-.111.128-.118.137l-.001.002.002-.003c-.56.974-1.493 1.461-1.864 1.655l-.025.013-.113.059-.069.036-.079.04c-.094.048-.155.079-.235.124l-.04.024c-.41.399-.845.729-1.175.977l-.122.092c-.317.237-.533.4-.728.574-1.012.906-2.475 1.395-3.161 1.613-.157.05-.249.087-.381.139a13.87 13.87 0 01-.573.218c-.408.148-1.061.363-1.791.389-.162.006-.342.018-.575.032l-.129.008c-.278.018-.607.037-.945.045-.617.014-1.534.001-2.387-.281-1.504-.499-2.693-1.021-4.093-2.115-.804-.628-1.279-1.42-1.556-1.891l-.118-.2c-.252-.429-.34-.579-.458-.705-.98-1.053-1.143-2.358-1.177-3.149-.018-.428-.002-.839.013-1.158l.011-.211c.012-.238.02-.402.02-.556 0-1.293.461-2.548.733-3.289l.04-.107.082-.229.001-.003c.317-.891.794-2.234 2.181-3.307.78-.603 1.581-.919 2.2-1.133.261-.09.465-.155.64-.212.309-.099.527-.169.796-.288 1.053-.466 2.125-.627 2.988-.716.433-.044.772-.07 1.072-.092.409-.031.748-.056 1.159-.118 1.551-.231 3.096-.225 4.454-.219l.596.002h5.95c-.026-.509-.127-1.058-.268-1.795l-.013-.069c-.15-.78-.344-1.791-.344-2.863 0-.084-.017-.207-.113-.444-.085-.209-.177-.387-.315-.656l-.001-.002-.21-.411c-.621-1.236-1.129-2.05-1.885-2.708-1.106-.962-2.215-1.308-3.852-1.308zm7.323 14.918h-6.503l-.413-.001c-1.385-.004-2.541-.007-3.71.167-.537.08-1.216.135-1.769.179-.264.021-.499.04-.676.058-.713.074-1.196.175-1.565.338-.504.223-1.092.413-1.495.544-.123.039-.23.074-.311.102-.445.153-.678.27-.856.408-.263.203-.317.302-.737 1.451-.33.903-.49 1.419-.49 1.803 0 .283-.016.597-.029.844l-.007.146a8.418 8.418 0 00-.013.736c.007.144.019.235.029.285.456.519.799 1.115 1.002 1.468l.083.143c.264.447.363.547.408.582.844.66 1.499.966 2.679 1.357.009.003.073.019.211.031.154.013.347.018.585.012.238-.005.487-.019.759-.036l.113-.007c.226-.015.48-.031.711-.039h-.002l.006-.002a2.64 2.64 0 00.36-.11c.114-.041.223-.084.358-.136l.127-.049c.177-.069.405-.156.641-.231.321-.102.653-.219.947-.352.317-.144.467-.251.506-.286.359-.32.75-.613 1.046-.834l.115-.086c.345-.259.568-.437.741-.609a4.55 4.55 0 01.971-.718c.172-.098.393-.212.535-.284l.105-.054.078-.042.058-.032c.433-.663 1.017-1.19 1.441-1.545.363-.302.78-.612 1.082-.837l.254-.19c.66-.502 1.179-1.009 1.889-1.716.218-.216.469-.382.736-.495v-1.963z" fill="#2C2C2C"/><path d="M221.324 243.931c-2.379 0-5.693.49-7.939 2.724-.066.065-.16.147-.366.325l-.024.02c-.189.164-.453.393-.708.652-.411.417-1.326 1.415-1.326 2.85 0 .371-.031.757-.071 1.257l-.003.029a19.689 19.689 0 00-.084 1.619v.035c0 .618 0 1.569.149 2.514.145.924.483 2.206 1.438 3.213.465.489 1.062.881 1.506 1.145.483.287.979.535 1.369.711l.837.379.025.011c1.002.455 2.029.921 3.038 1.36.129.056.307.139.513.235.548.254 1.298.603 1.896.809.498.171 1.026.255 1.321.302h.002l.088.014c.306.05.402.077.42.082l.004.001-.002-.001c.407.18.791.258 1.078.298.265.037.521.051.673.059l.021.001c.146.007.22.012.269.017.651.256 1.3.363 1.706.43l.032.005c.517.086.732.125.903.188.332.122.716.248 1.066.363l.353.117c.466.155.888.305 1.27.471.835.364 1.098.65 1.164.771.62 1.129.68 2.309.244 3.23-.635 1.342-1.431 2.14-2.7 2.701-.663.293-1.408.539-2.171.739-.126.033-.291.046-.808.067l-.034.001c-.42.018-1.139.047-1.875.275-.301.094-.826.134-1.574.042a12.756 12.756 0 01-2.116-.472c-.645-.197-1.06-.442-1.762-.856-.234-.138-.5-.295-.817-.475-.177-.1-.435-.322-.848-.785-.087-.097-.199-.228-.325-.375-.312-.363-.712-.831-1.052-1.169-.367-.365-.968-1.302-1.333-2.029a2.351 2.351 0 00-3.146-1.042 2.324 2.324 0 00-1.048 3.127c.432.859 1.302 2.337 2.211 3.241.217.215.387.416.611.679l.001.001c.155.182.335.394.573.661.472.529 1.151 1.24 2.029 1.739.158.09.327.19.507.298.787.468 1.789 1.065 3.02 1.441a17.35 17.35 0 002.923.644c1.048.128 2.332.158 3.545-.219.086-.027.233-.049.704-.068l.094-.004c.388-.015 1.052-.04 1.714-.213a19.122 19.122 0 002.882-.988c2.382-1.053 3.964-2.708 5.038-4.976 1.189-2.514.822-5.274-.371-7.448-.835-1.523-2.314-2.336-3.399-2.809-.702-.305-1.632-.613-2.292-.832a25.565 25.565 0 01-.65-.22c-.624-.23-1.267-.335-1.669-.4l-.094-.016c-.483-.079-.669-.124-.79-.175a4.133 4.133 0 00-1.06-.278 7.74 7.74 0 00-.652-.054l-.029-.002a9.6 9.6 0 01-.178-.01l-.059-.004c-.556-.225-1.109-.316-1.416-.366l-.023-.003c-.435-.072-.553-.093-.639-.122-.375-.129-.699-.282-1.108-.474-.269-.127-.575-.27-.956-.436-.972-.423-1.954-.869-2.95-1.32l-.888-.403a9.212 9.212 0 01-.904-.469 4.743 4.743 0 01-.376-.244 1.57 1.57 0 01-.126-.1l-.002-.002c-.015-.024-.132-.208-.214-.731-.087-.55-.092-1.165-.092-1.827 0-.381.03-.773.071-1.271l.003-.04c.029-.35.062-.758.077-1.187.108-.11.242-.229.429-.39l.055-.048c.158-.136.383-.33.573-.519.902-.897 2.625-1.359 4.624-1.359 2.195 0 4.521.501 6.043 1.549.305.21.674.43.932.585l.001.001c.09.054.166.099.222.134.285.177.447.298.575.425.429.427.912.921 1.326 1.422.447.54.665.912.729 1.089a2.347 2.347 0 002.996 1.412 2.328 2.328 0 001.42-2.98c-.345-.96-.99-1.839-1.524-2.484a24.94 24.94 0 00-1.632-1.756 7.692 7.692 0 00-1.411-1.086c-.185-.115-.327-.199-.449-.272a8.11 8.11 0 01-.516-.324c-2.605-1.794-6.006-2.377-8.712-2.377zM94.373 291.806c.841 0 1.523.671 1.523 1.499v.075c0 1.289 0 2.657-.177 4.055-.212 1.671-.205 3.35-.198 5.138.001.329.003.663.003 1 0 .442.05.902.125 1.432l.05.356c.061.42.13.889.17 1.346.068.749.15 1.486.248 2.235l.066.518c.057.454.11.879.18 1.311.045.27.07.594.089.833v.002l.015.19c.028.302.058.446.084.517.605 1.647 1.72 2.963 3.257 3.798.934.508 2.426.736 3.745.736.272 0 .509.003.72.006.918.011 1.338.017 1.901-.26.316-.156.638-.275.876-.364l.084-.031c.179-.067.315-.12.429-.173l.013-.017c.044-.058.089-.122.136-.188l.091-.132.04-.056.092-.131c.35-.49.653-.917.905-1.357.519-.904 1.043-1.951 1.274-2.793.334-1.217.341-2.431.341-3.95 0-1.469.047-2.935.093-4.374l.001-.012c.047-1.45.092-2.872.092-4.288 0-.915.049-1.82.095-2.679v-.02c.047-.878.092-1.71.092-2.539 0-.829.681-1.5 1.522-1.5s1.523.671 1.523 1.5c0 .914-.048 1.819-.094 2.678l-.001.019a47.62 47.62 0 00-.091 2.541c0 1.467-.047 2.933-.094 4.371v.012a132.678 132.678 0 00-.092 4.291v.095c0 1.432 0 3.011-.446 4.638-.336 1.221-1.02 2.538-1.562 3.485-.33.575-.719 1.121-1.053 1.59l-.102.143-.031.044c-.058.084-.179.258-.281.394-.07.094-.16.209-.259.318a2.142 2.142 0 01-.532.44 7.001 7.001 0 01-1.022.455l-.081.03c-.258.096-.43.16-.596.242-1.286.633-2.539.603-3.501.579-.17-.004-.331-.008-.482-.008-1.516 0-3.618-.24-5.217-1.109-2.211-1.201-3.804-3.103-4.65-5.404-.17-.463-.222-.942-.252-1.271a17.164 17.164 0 01-.03-.352 5.234 5.234 0 00-.048-.464c-.08-.489-.143-.993-.202-1.464v-.007l-.003-.015-.055-.436a59.7 59.7 0 01-.26-2.351 20.65 20.65 0 00-.144-1.132l-.027-.188-.02-.143-.014-.098a13.28 13.28 0 01-.153-1.839l-.003-.946c-.008-1.784-.017-3.685.222-5.564.153-1.208.154-2.414.154-3.758a1.51 1.51 0 011.522-1.499z" fill="#2C2C2C"/><path fill-rule="evenodd" clip-rule="evenodd" d="M133.044 313.293l-.051-.141h-3.088c-.395 0-.847-.014-1.268-.028l-.253-.008a130.603 130.603 0 01-.469-.012c-.633-.011-1.19.002-1.694.077-.632.094-1.277.085-1.779.078l-.128-.002c-.575-.007-.977-.001-1.322.069-.679.137-1.361.153-1.951.144a26.756 26.756 0 01-.488-.012l-.16.674c-.087.367-.175.743-.27 1.127l-.085.344c-.134.547-.279 1.139-.443 1.706-.127.436-.298.882-.441 1.254-.041.105-.079.204-.113.296-.172.459-.286.818-.333 1.158a1.519 1.519 0 01-1.717 1.28 1.503 1.503 0 01-1.3-1.69c.094-.675.305-1.285.492-1.786l.155-.407c.132-.342.24-.625.328-.929.146-.5.272-1.018.406-1.562l.091-.373c.078-.317.157-.648.237-.988.279-1.184.586-2.484 1.017-3.691.524-1.466.941-2.765 1.145-4.173.277-1.909.687-3.829 1.374-5.708.105-.286.206-.551.302-.8.279-.728.509-1.329.632-1.982.211-1.122.567-2.226 1.149-3.258.375-.663.988-.983 1.457-1.14.47-.158.963-.21 1.365-.228.414-.018.823-.003 1.151.013l.132.007.169.009h.004l.003.001.191.009.049.003.036.001c.055.002.104.004.149.004l.085-.001c.277-.001.752-.004 1.198.104a2.683 2.683 0 011.607 1.102c.639.916 1.305 2.012 1.587 3.354.063.301.154.591.27.962l.046.148c.129.415.282.923.366 1.48.17 1.124.406 2.272.652 3.43.129.606.193 1.273.247 1.834l.02.205.028.271c.077.704.176 1.234.37 1.671a24.66 24.66 0 011.358 4.013c.081.329.199.663.348 1.066l.045.123c.132.356.286.772.41 1.203.4 1.389.613 2.757.772 4.11.019.165.055.331.108.575l.046.217c.067.316.156.762.156 1.224 0 .828-.682 1.5-1.523 1.5a1.512 1.512 0 01-1.523-1.5c0-.123-.026-.301-.091-.612l-.013-.06-.018-.082c-.055-.254-.13-.597-.168-.919-.15-1.282-.341-2.469-.676-3.636-.092-.318-.207-.629-.344-1l-.044-.118zm-8.179-15.539c.148-.786.375-1.496.701-2.132.093-.018.227-.035.411-.043.265-.012.557-.003.863.012l.071.004.127.006c.229.013.489.027.687.027h.096c.138 0 .231 0 .321.004l.032.001c.533.775.894 1.445 1.045 2.162.095.451.231.886.343 1.242l.044.14c.127.408.218.728.266 1.042.184 1.22.436 2.443.683 3.603.091.428.132.85.181 1.362l.018.177.01.108.039.372c.083.759.218 1.672.608 2.551.248.559.476 1.154.679 1.761h-2.185c-.37 0-.706-.011-1.069-.023-.265-.009-.546-.019-.865-.024-.687-.013-1.447-.004-2.206.11-.373.055-.779.05-1.351.043l-.061-.001c-.546-.007-1.261-.014-1.973.129-.272.055-.584.08-.95.085.483-1.376.921-2.786 1.147-4.35.259-1.782.63-3.489 1.225-5.116.065-.179.14-.374.22-.58v-.002l.001-.002c.3-.778.664-1.724.842-2.668zm18.536 3.902c0-.828-.682-1.499-1.523-1.499a1.51 1.51 0 00-1.522 1.499V313c0 .801.075 1.578.143 2.276l.003.029c.071.728.133 1.372.133 2.016 0 .204.019.449.034.639l.003.031c.017.217.033.421.04.618.008.202.004.348-.007.443a1.485 1.485 0 00.515 1.922c.7.46 1.645.274 2.112-.416.284-.419.365-.881.398-1.159.037-.314.036-.633.026-.9-.01-.259-.03-.516-.046-.719l-.002-.029a6.58 6.58 0 01-.027-.43c0-.799-.076-1.575-.144-2.272l-.003-.031c-.071-.727-.133-1.373-.133-2.018v-4.465c.077-.105.129-.194.162-.249l.001-.002a8.65 8.65 0 00.092-.16l.006-.013.001-.001.046-.082c.03-.031.067-.065.126-.121l.085-.08c.12-.113.312-.296.486-.528.077-.102.19-.212.424-.421l.044-.04c.2-.178.501-.447.759-.769.047-.06.158-.159.452-.36l.125-.084c.24-.16.594-.397.885-.657l.078-.07c.48-.431.777-.696 1.089-.85 1.785-.879 4.208-.276 5.965 1.251.622.54 1.015 1.473 1.032 2.438.021 1.144.014 2.275.007 3.425v.024c-.003.584-.007 1.174-.007 1.773 0 1.125-.023 2.259-.046 3.408v.015a163.56 163.56 0 00-.047 3.437c0 .828.682 1.499 1.523 1.499.841 0 1.523-.671 1.523-1.499 0-1.112.023-2.237.046-3.383v-.008c.023-1.144.047-2.309.047-3.469 0-.561.003-1.132.007-1.708v-.009c.007-1.177.014-2.376-.008-3.558-.029-1.627-.674-3.428-2.062-4.634-2.316-2.013-6.062-3.3-9.342-1.685-.715.352-1.328.907-1.728 1.27l-.063.057-.063.056a4.3 4.3 0 01-.477.348l-.002.002-.215.145c-.254.173-.625.432-.951.783v-2.37z" fill="#2C2C2C"/><path d="M166.526 293.128a3.287 3.287 0 00-1.609-.73 3.168 3.168 0 00-1.803.286l-.025.012c-.181.084-.559.259-.876.545a2.122 2.122 0 00-.715 1.603v.016a1.8 1.8 0 00-.069.187c-.223.726.017 1.367.325 1.822.358.529.884.819 1.292.977.431.167.893.251 1.325.277.432.027.895-.002 1.333-.106.413-.097.947-.296 1.374-.716.479-.472.601-1.052.618-1.452a3.238 3.238 0 00-.156-1.085 4.292 4.292 0 00-.377-.859 2.87 2.87 0 00-.637-.777zm-2.291 7.572c.841 0 1.523.672 1.523 1.5 0 2.998.023 5.994.047 8.998v.028c.023 3.007.046 6.023.046 9.044 0 .828-.681 1.5-1.522 1.5a1.512 1.512 0 01-1.523-1.5c0-3.01-.024-6.016-.047-9.027v-.011c-.023-3.006-.046-6.017-.046-9.032 0-.828.681-1.5 1.522-1.5zm9.156.863c0-.829-.681-1.5-1.522-1.5s-1.523.671-1.523 1.5v5.727c0 1.021.073 2.025.141 2.969l.002.027c.071.97.136 1.879.136 2.788 0 .631-.042 1.257-.089 1.939l-.002.024c-.046.66-.095 1.377-.095 2.114v2.757c0 .828.682 1.5 1.523 1.5.841 0 1.523-.672 1.523-1.5v-2.757c0-.628.042-1.251.089-1.934l.001-.02c.046-.662.096-1.381.096-2.123 0-1.026-.073-2.034-.142-2.981l-.002-.021c-.055-.764-.108-1.49-.127-2.206 1.116-2.029 2.647-3.597 4.495-3.936.937-.171 2.113-.18 2.866.037.518.149.784.33 1.264.803.109.107.238.319.353.742.096.35.15.712.215 1.143l.049.32c.212 1.358.376 2.581.376 3.843 0 .463.005.907.01 1.342v.004c.01.83.019 1.623-.009 2.44-.026.725-.076 1.452-.127 2.209l-.035.503a42.868 42.868 0 00-.119 2.863c0 .829.682 1.5 1.523 1.5.841 0 1.523-.671 1.523-1.5 0-.866.051-1.747.112-2.666l.032-.461.001-.019c.052-.759.106-1.546.133-2.326.031-.884.021-1.802.011-2.675-.005-.417-.01-.825-.01-1.214 0-1.015-.088-1.989-.212-2.937.102-.094.192-.203.268-.326.249-.409.642-.794 1.202-1.237.163-.128.373-.286.603-.458l.005-.003c.413-.309.886-.663 1.245-.972.707-.61 1.791-.914 2.977-.914.579 0 1.252.226 1.795.64.537.409.841.916.898 1.42.275 2.436.369 4.858.369 7.356 0 .609-.023 1.221-.046 1.863l-.001.014c-.023.629-.047 1.29-.047 1.955 0 .308-.035.626-.083 1.038l-.004.036c-.044.378-.099.847-.099 1.332 0 .828.682 1.499 1.523 1.499.841 0 1.523-.671 1.523-1.499 0-.299.035-.611.083-1.026l.003-.026c.045-.382.1-.858.1-1.354 0-.607.022-1.218.046-1.861v-.012c.023-.63.047-1.291.047-1.959 0-2.571-.096-5.109-.387-7.687-.167-1.48-1.022-2.67-2.061-3.461-1.033-.787-2.351-1.267-3.659-1.267-1.619 0-3.527.401-4.983 1.655-.312.27-.593.478-.916.716a30.36 30.36 0 00-1.104.852c-.194-.52-.49-1.075-.969-1.546-.699-.689-1.393-1.225-2.565-1.562-1.368-.392-3.062-.328-4.276-.106-1.562.287-2.87 1.04-3.947 2.003v-1.421z" fill="#2C2C2C"/><path fill-rule="evenodd" clip-rule="evenodd" d="M210.97 303.334c-.953 0-1.653.063-2.403.323-.156.054-.332.153-.628.35l-.119.081-.003.002c-.252.17-.61.413-.989.599-.799.394-1.592 1.081-2.398 1.875a1.54 1.54 0 01-2.154 0 1.485 1.485 0 010-2.121c.835-.822 1.921-1.811 3.19-2.436.175-.086.331-.191.582-.36l.184-.123c.319-.213.771-.505 1.325-.697 1.221-.423 2.317-.492 3.413-.492 1.51 0 2.895.359 4.185 1.472.887.764 1.391 1.654 1.798 2.455l.027.051.044.084c.21.392.613 1.145.613 2.029 0 .33.062.673.159 1.177l.009.048c.088.452.204 1.051.204 1.685 0 .298.035.611.083 1.025l.004.03c.044.38.1.852.1 1.34v4.316c0 .365.004.744.057 1.077.021.131.045.226.066.289a2.182 2.182 0 00.491.148c.092.015.15.018.171.018.283 0 .559.031.747.052l.031.004c.218.024.343.036.453.036.841 0 1.523.672 1.523 1.5s-.682 1.499-1.523 1.499c-.298 0-.582-.031-.776-.053l-.019-.002a4.24 4.24 0 00-.436-.036c-.449 0-.942-.093-1.371-.227-.409-.128-.95-.351-1.376-.729-.7-.62-.907-1.51-.99-2.036a7.26 7.26 0 01-.075-.708 12.556 12.556 0 00-.343.266 2.777 2.777 0 00-.225.204l-.038.042-.016.019c-.351.599-.928.898-1.148 1.011l-.018.01-.158.08c-.052.027-.085.043-.13.069l-.007.003a7.284 7.284 0 01-.694.572l-.072.053c-.188.139-.31.23-.421.328-.622.551-1.512.844-1.915.971-.09.028-.14.048-.213.077a8.628 8.628 0 01-.345.13 3.67 3.67 0 01-1.099.235c-.093.004-.197.01-.334.019l-.077.005c-.164.01-.361.021-.564.026-.366.008-.928.002-1.455-.171-.897-.295-1.614-.606-2.457-1.258-.496-.384-.788-.868-.952-1.143l-.066-.111c-.153-.259-.197-.332-.255-.394-.613-.652-.711-1.456-.732-1.928a7.548 7.548 0 01.008-.688l.007-.126v-.008c.007-.133.011-.223.011-.308 0-.78.28-1.534.44-1.965l.025-.066.028-.077.02-.058c.187-.52.481-1.341 1.333-1.993.478-.367.967-.557 1.338-.684.161-.055.284-.094.387-.127a4.11 4.11 0 00.449-.161c.641-.281 1.291-.377 1.804-.429.265-.027.466-.042.642-.055.237-.017.429-.031.668-.067.926-.137 1.849-.133 2.65-.129h.182l.168.001h3.354a9.503 9.503 0 00-.145-.889l-.008-.044c-.088-.454-.205-1.056-.205-1.695a.56.56 0 00-.056-.208 3.75 3.75 0 00-.119-.252l-.086-.167-.001-.002-.046-.089a5.08 5.08 0 01-.054-.105c-.364-.718-.654-1.173-1.079-1.539-.621-.536-1.241-.73-2.18-.73zm4.18 8.719h-3.555l-.381-.001c-.818-.002-1.489-.004-2.167.096-.321.048-.734.081-1.063.107a18.98 18.98 0 00-.386.033c-.415.042-.683.099-.88.186-.306.134-.666.249-.903.325l-.003.001c-.069.022-.127.04-.17.055-.258.088-.378.15-.466.217a.468.468 0 00-.144.172c-.026.05-.057.118-.098.222-.032.08-.06.157-.095.254l-.051.138c-.197.533-.281.81-.281 1.006 0 .169-.01.355-.017.499v.003l-.004.083a4.503 4.503 0 00-.008.418c.002.049.006.086.009.112.267.308.467.653.582.851l.047.081a2.833 2.833 0 00.186.279.136.136 0 00.021.022c.482.373.852.545 1.537.77.014.003.133.025.423.018.137-.003.281-.011.442-.021l.066-.004h.003l.011-.001.159-.01.237-.011.004-.002a3.222 3.222 0 00.181-.056l.069-.025.072-.028.064-.024.003-.001.075-.029a7.52 7.52 0 01.387-.138 4.96 4.96 0 00.543-.2c.082-.036.147-.07.197-.099a.824.824 0 00.066-.044c.216-.192.453-.367.627-.496l.067-.05a4.19 4.19 0 00.423-.343c.217-.214.449-.355.601-.442.088-.049.197-.105.28-.147l.102-.052.048-.025c.265-.392.611-.701.858-.904.217-.18.469-.365.648-.497l.145-.107c.381-.287.681-.578 1.1-.99a1.51 1.51 0 01.389-.278v-.923z" fill="#2C2C2C"/><path d="M225.053 291.899c.841 0 1.523.672 1.523 1.5 0 1.151.023 2.307.046 3.479l.001.009v.008c.023 1.162.046 2.339.046 3.516 0 .549.06 1.111.131 1.767l.004.031c.067.622.145 1.333.145 2.06 0 .313.007.656.014 1.017v.01c.016.829.035 1.748-.023 2.599l-.055.774c-.064.868-.123 1.671-.123 2.505 0 .449-.023.954-.045 1.419v.004c-.011.239-.022.468-.029.672-.022.667-.012 1.235.074 1.73.159.922.147 1.85.107 2.667-.014.308-.032.59-.048.856v.003c-.031.493-.059.933-.059 1.383 0 .828-.681 1.5-1.522 1.5a1.512 1.512 0 01-1.523-1.5c0-.541.037-1.14.07-1.69.015-.244.03-.478.04-.694.037-.763.035-1.428-.068-2.022-.138-.8-.139-1.612-.115-2.33.01-.301.023-.572.035-.828v-.002c.02-.408.038-.778.038-1.168 0-.953.069-1.897.134-2.782l.002-.022.048-.675c.049-.722.035-1.411.019-2.165v-.006c-.008-.396-.017-.81-.017-1.255 0-.553-.06-1.116-.131-1.772l-.004-.035c-.067-.62-.144-1.329-.144-2.051 0-1.149-.023-2.303-.047-3.475v-.015a178.004 178.004 0 01-.046-3.522c0-.828.681-1.5 1.522-1.5zm11.623 8.258c-1.415 0-3.417.287-4.782 1.631-.035.035-.088.08-.216.19l-.007.006a7.124 7.124 0 00-.426.388c-.245.247-.822.864-.822 1.761 0 .21-.017.43-.042.723l-.001.019c-.022.27-.05.606-.05.955v.023c0 .36 0 .925.089 1.487.088.55.293 1.332.886 1.95.287.3.653.537.918.693.29.171.587.318.821.423l.507.227c.592.266 1.199.539 1.795.795l.023.01.032.015.165.074.069.032c.323.149.782.36 1.143.483.306.105.63.156.803.183l.052.008c.175.028.224.042.224.042.253.109.489.156.664.181.162.022.319.03.408.035h.013l.134.008c.392.15.778.213 1.013.251l.021.004c.31.05.421.072.508.103.198.072.428.147.635.215l.205.067c.275.09.519.176.738.271.485.209.604.361.62.39.348.628.375 1.271.14 1.762-.362.757-.808 1.197-1.522 1.51a8.54 8.54 0 01-1.26.425c-.057.014-.137.022-.447.034l-.022.001c-.248.01-.688.028-1.14.167-.15.046-.437.071-.869.019a7.49 7.49 0 01-1.225-.271c-.363-.11-.592-.244-.999-.481-.14-.082-.3-.175-.494-.284-.083-.047-.223-.162-.464-.43a6.15 6.15 0 01-.099-.112l-.085-.099c-.185-.213-.43-.496-.635-.697-.2-.198-.546-.729-.76-1.15a1.534 1.534 0 00-2.043-.67 1.49 1.49 0 00-.681 2.012c.257.505.778 1.385 1.331 1.928.124.123.22.234.348.384.091.106.199.231.345.394.28.311.693.741 1.232 1.044.09.05.187.108.292.169.463.274 1.073.634 1.817.859.481.146 1.1.302 1.748.381.627.076 1.407.095 2.15-.133.031-.01.1-.023.379-.034l.056-.002c.228-.009.634-.024 1.04-.129a11.503 11.503 0 001.722-.584c1.438-.63 2.395-1.622 3.041-2.974.724-1.516.498-3.175-.222-4.476-.516-.931-1.425-1.421-2.072-1.701-.42-.181-.989-.367-1.379-.495l-.141-.047a5.29 5.29 0 01-.223-.076c-.381-.139-.774-.202-1.009-.24l-.057-.009c-.286-.047-.38-.071-.434-.093a2.565 2.565 0 00-.661-.172 4.615 4.615 0 00-.396-.033l-.017-.001a4.474 4.474 0 01-.115-.007c-.336-.131-.665-.184-.843-.213l-.083-.013-.122-.02a2.213 2.213 0 00-.072-.013l-.035-.008-.034-.008-.012-.003-.006-.001-.004-.002c-.215-.073-.397-.158-.632-.267-.158-.074-.342-.16-.576-.26-.572-.247-1.151-.507-1.738-.77l-.525-.236a5.39 5.39 0 01-.654-.35l-.05-.034-.026-.018-.048-.037a1.224 1.224 0 01-.098-.36c-.049-.309-.052-.658-.052-1.046 0-.216.017-.439.041-.731l.002-.025c.016-.189.034-.41.043-.644l.075-.068.132-.115.033-.028c.092-.079.229-.196.345-.31.492-.484 1.461-.753 2.629-.753 1.28 0 2.619.29 3.485.88.184.126.41.26.563.35l.123.074c.165.101.251.166.314.229.253.249.534.534.774.821.261.312.377.514.406.595a1.53 1.53 0 001.946.908 1.494 1.494 0 00.922-1.917c-.211-.584-.605-1.112-.922-1.492a14.989 14.989 0 00-.972-1.036 4.605 4.605 0 00-.857-.653c-.115-.071-.2-.121-.271-.163a4.924 4.924 0 01-.293-.182c-1.569-1.07-3.607-1.413-5.218-1.413z" fill="#2C2C2C"/><path fill-rule="evenodd" clip-rule="evenodd" d="M44.741 293.483c.841 0 1.523.672 1.523 1.5 0 1.138.044 2.274.09 3.442v.015c.046 1.154.093 2.342.093 3.541 0 .572.022 1.144.045 1.75v.012l.02.517a3.16 3.16 0 01.647-.348c.169-.07.24-.095.285-.112a.86.86 0 00.115-.048c.043-.02.103-.051.178-.09.311-.159.866-.445 1.345-.582.292-.084.546-.179.854-.294l.388-.143a8.41 8.41 0 011.683-.45c1.536-.223 3.221-.222 4.811.144 1.602.368 3.042 1.438 3.835 2.852.193.345.377.615.59.93.126.186.262.387.417.628.379.588.774 1.288 1.016 2.175.398 1.462.708 2.942.312 4.735-.247 1.122-.821 2.32-1.72 3.205a22 22 0 01-1.976 1.744 4.07 4.07 0 01-.644.393c-.114.058-.178.088-.23.113-.054.026-.094.045-.164.082a2.229 2.229 0 00-.18.113l-.01.006-.132.086c-.153.1-.423.274-.745.396l-.178.068c-.94.358-2.4.915-3.761.915l-.233.002c-.222.002-.5.006-.74-.003a3.51 3.51 0 01-1.13-.249l-.102-.038a9.536 9.536 0 00-.104-.04 1.374 1.374 0 00-.202-.069c-.567-.124-1.027-.403-1.329-.606-.148-.099-.29-.203-.404-.286l-.02-.015c-.128-.093-.218-.159-.3-.212a5.005 5.005 0 00-.568-.301l-.12-.058a5.939 5.939 0 01-1.242-.769c-.017.453-.032.886-.032 1.32 0 .828-.681 1.5-1.523 1.5a1.512 1.512 0 01-1.522-1.5c0-.596.023-1.181.046-1.734v-.018c.024-.567.045-1.102.045-1.639 0-1.687-.089-3.337-.18-5.042v-.004c-.03-.554-.06-1.113-.088-1.68-.042-.872-.03-1.786-.017-2.64.005-.383.01-.754.01-1.104 0-.572-.022-1.145-.044-1.75l-.001-.013a48.058 48.058 0 01-.047-1.849c0-1.137-.044-2.271-.09-3.44v-.012a88.831 88.831 0 01-.093-3.546c0-.828.682-1.5 1.523-1.5zm2 19.6c.15.126.276.283.37.468.134.263.329.656.456 1.106l.029.034c.043.049.09.098.165.175l.02.022c.076.078.187.193.293.32.2.242.443.476.705.682.125.099.283.187.565.323l.099.048a8 8 0 01.93.505c.154.101.304.21.422.296l.002.002c.129.094.229.167.327.233.184.123.262.152.273.156.2.044.376.102.511.151l.038.013.046.018.173.066.066.025c.108.041.152.051.163.054.165.006.306.004.48.002a20.1 20.1 0 01.374-.003c.76 0 1.73-.361 2.846-.783.011-.007.055-.031.157-.098l.063-.041.167-.109a4.407 4.407 0 01.586-.324l.048-.024.08-.038.065-.033c.116-.058.154-.084.162-.091a18.614 18.614 0 001.692-1.497c.413-.406.75-1.053.898-1.721.237-1.071.088-1.979-.278-3.321-.127-.467-.342-.873-.647-1.348-.078-.121-.174-.263-.28-.42l-.004-.006-.001-.002a19.098 19.098 0 01-.815-1.284c-.375-.667-1.096-1.206-1.86-1.382-1.147-.263-2.438-.277-3.676-.097-.34.05-.667.15-1.075.298l-.276.102c-.337.126-.749.279-1.165.399-.168.048-.305.118-.53.234-.132.068-.296.153-.515.257-.13.062-.255.112-.342.145l-.084.032-.127.05a4.6 4.6 0 00-.035.015 6.549 6.549 0 00-.315.342l-.052.06c-.13.148-.296.339-.475.52l-.083.082-.017.016c-.052.051-.105.1-.148.141l-.06.057a2.76 2.76 0 00-.182.185c-.061.312-.22.587-.44.796l.012.303c.026.533.055 1.07.084 1.611v.003c.04.752.082 1.511.115 2.275z" fill="#2C2C2C"/><path d="M66.067 301.923a1.532 1.532 0 00-1.914-.738 1.493 1.493 0 00-.874 1.938c.09.232.21.415.306.544a3.79 3.79 0 00.318.371l.004.005.044.047.025.029.006.006c.155.261.275.491.367.723.155.391.352.731.506.989l.083.139c.124.209.212.356.29.514.183.376.38.739.565 1.076l.084.154.002.003c.157.285.303.552.442.821.409.793.778 1.56 1.135 2.368l.092.208c.261.592.55 1.246.877 1.87.264.502.463.903.612 1.331l.042.134c.091.296.278.902.59 1.379.493.751.9 1.632 1.262 2.555.03.077.053.153.094.286l.04.135c.045.142.108.343.2.557a5.33 5.33 0 01-.328.561 8.174 8.174 0 00-.607 1.08l-.04.081c-.14.288-.24.492-.36.686-.178.288-.347.583-.5.853l-.052.09c-.173.303-.331.576-.496.833-.33.513-.642.888-1.006 1.157-.43.318-.988.465-1.688.418-.275-.019-.517-.151-1.224-.546a6.846 6.846 0 01-.221-.127 2.12 2.12 0 01-.14-.092 1.533 1.533 0 00-1.84-.748 1.495 1.495 0 00-.964 1.897c.208.614.66 1.007.916 1.204.277.213.573.378.733.467l.013.008.15.085c.506.29 1.355.775 2.368.844 1.257.086 2.585-.169 3.725-1.011.783-.579 1.33-1.295 1.752-1.953.211-.329.403-.662.576-.965l.05-.087c.158-.277.3-.526.45-.766.204-.331.37-.675.5-.94l.043-.09a5.37 5.37 0 01.382-.694 9.39 9.39 0 00.654-1.141l.103-.207c.131-.263.238-.478.365-.695.13-.225.27-.434.439-.686l.15-.225c.222-.334.479-.734.695-1.185.12-.25.256-.502.407-.782l.045-.084c.135-.249.283-.523.423-.801.263-.527.445-1.086.586-1.521l.005-.014c.017-.053.033-.104.05-.152.164-.502.295-.852.475-1.144.525-.853.902-1.756 1.227-2.563l.122-.303c.286-.715.539-1.345.852-1.939a4.31 4.31 0 00.29-.729l.004-.015a2.56 2.56 0 01.102-.296l.023-.046c.133-.273.284-.581.421-.896.084-.192.181-.347.346-.609l.056-.089.088-.142c.34-.549.657-1.135.946-1.67v-.001c.09-.167.178-.329.263-.482.4-.729.124-1.639-.616-2.033a1.535 1.535 0 00-2.064.606l-.305.562c-.278.515-.535.989-.823 1.454l-.09.144c-.174.275-.418.659-.6 1.078-.11.254-.234.507-.375.795l-.014.028c-.127.26-.21.524-.256.674l-.011.035a1.788 1.788 0 01-.089.251c-.39.742-.704 1.526-.984 2.226l-.117.291c-.324.804-.621 1.498-1 2.115-.382.62-.603 1.268-.77 1.774l-.056.174c-.151.461-.26.797-.418 1.111a25.31 25.31 0 01-.38.719l-.044.082c-.12.221-.248.459-.373.708a14.326 14.326 0 00-.98-1.781c-.064-.098-.086-.166-.144-.35a16.088 16.088 0 00-.166-.506c-.227-.656-.519-1.227-.788-1.74a27.621 27.621 0 01-.791-1.691l-.091-.206a46.061 46.061 0 00-1.213-2.53c-.158-.307-.326-.611-.482-.896l-.08-.147a23.225 23.225 0 01-.502-.953 10.395 10.395 0 00-.427-.764l-.062-.103a4.152 4.152 0 01-.298-.567 8.093 8.093 0 00-.6-1.186 2.814 2.814 0 00-.292-.396 6.46 6.46 0 00-.169-.187l-.025-.028-.032-.035z" fill="#2C2C2C"/></svg>