<svg width="104" height="33" fill="none" xmlns="http://www.w3.org/2000/svg"><path fill-rule="evenodd" clip-rule="evenodd" d="M89.236 3.34c.132-.145.34-.014.271.171a8.09 8.09 0 01-.19.464.775.775 0 01-.018.036.77.77 0 00.256 1.055.762.762 0 001.053-.242c.108-.176.231-.48.337-.762.115-.309.239-.676.346-1.03a9.77 9.77 0 00.255-.988 2.07 2.07 0 00.044-.45.973.973 0 00-.085-.381.809.809 0 00-.763-.477c-.823.023-1.488.467-1.978.899-.356.313-.698.697-.971 1.003-.096.107-.183.204-.259.286a.766.766 0 00.045 1.082.766.766 0 001.083-.03c.12-.129.232-.255.344-.38.077-.086.153-.172.23-.256zm6.94 8.888c.124.043.139.208.036.285-.278.207-.577.443-.863.67-.204.161-.401.318-.581.455a.762.762 0 00-.134 1.073.77.77 0 001.076.147c.232-.177.44-.342.641-.502.258-.205.507-.402.786-.61l.01-.006.207-.117.022-.012c.134-.075.306-.17.473-.27.171-.104.367-.23.528-.364a1.65 1.65 0 00.257-.26.964.964 0 00.21-.574.886.886 0 00-.294-.657 1.288 1.288 0 00-.3-.203 3.106 3.106 0 00-.5-.186 8.683 8.683 0 00-.602-.151c-.6-.197-1.182-.411-1.782-.632a41.685 41.685 0 00-.466-.17.758.758 0 00-.978.454.775.775 0 00.468.983l.45.165c.439.162.884.325 1.337.482zM86.985 6.34c.312.29.332.775.045 1.083-1.344 1.44-2.918 2.709-4.428 3.926-.499.4-.99.797-1.464 1.191-.516.43-1.126.763-1.659 1.054l-.132.072c-.338.185-.175.587.205.522l1.935-.337c1.922-.337 3.855-.675 5.765-.96a60.11 60.11 0 004.596-.872.777.777 0 01.926.575.756.756 0 01-.564.918 61.649 61.649 0 01-4.713.893c-1.92.288-3.796.617-5.683.947l-1.916.334c-.157.027-.17.244-.019.294l.025.008c.575.19 1.177.39 1.771.627.63.253 1.241.565 1.817.858.118.06.233.12.347.177.693.349 1.344.657 2.018.86a18.23 18.23 0 012.343.884c.803.371 1.63.838 2.218 1.386.311.29.331.775.045 1.083a.766.766 0 01-1.083.03c-.407-.378-1.058-.763-1.809-1.11a16.866 16.866 0 00-2.139-.807c-.814-.245-1.569-.607-2.27-.96l-.372-.19c-.574-.292-1.112-.566-1.671-.79-.548-.22-1.111-.406-1.702-.602h-.003a29.32 29.32 0 01-1.797-.638 39.254 39.254 0 01-1.176-.494.72.72 0 00-.34-.062l-.253.017c-.314.02-.623.04-.93.07-.802.077-1.431.213-1.84.476a.772.772 0 01-1.061-.233.76.76 0 01.22-1.058c.738-.476 1.692-.63 2.513-.71.168-.016.337-.03.504-.042a.203.203 0 00.14-.077c.268-.325.577-.544.823-.712l.097-.066c.213-.145.368-.25.512-.388.534-.512 1.195-.88 1.771-1.196l.104-.057c.564-.308 1.049-.574 1.447-.905.516-.43 1.034-.848 1.549-1.262 1.488-1.2 2.941-2.37 4.205-3.726a.766.766 0 011.083-.03zm5.36 14.142a.766.766 0 011.082-.03c.344.32.705.695 1 1.127.038.054.087.12.153.209l.043.057c.082.11.18.243.273.383.092.137.19.298.27.466.074.159.157.38.168.627a.923.923 0 01-.183.584 1.21 1.21 0 01-.276.267c-.162.115-.349.2-.493.258a5.772 5.772 0 01-.423.148l-.131.04-.018.006-.051.016c-.153.055-.311.113-.474.174-.701.262-1.487.555-2.296.694a.777.777 0 01-.893-.624.755.755 0 01.614-.885c.656-.113 1.274-.343 1.963-.599.178-.066.361-.134.55-.202l.121-.04.025-.006a12.579 12.579 0 00.254-.08.003.003 0 00.001-.005 7.743 7.743 0 00-.228-.318l-.035-.048a8.59 8.59 0 01-.195-.267 5.405 5.405 0 00-.777-.87.766.766 0 01-.045-1.082zM21.776 6.644c.192-.046.29.18.13.294a8.105 8.105 0 01-.419.277.77.77 0 01-.035.02.77.77 0 00-.38 1.016.762.762 0 001.007.391c.188-.084.46-.267.706-.44.268-.191.578-.425.865-.657a9.75 9.75 0 00.766-.675 2.2 2.2 0 00.29-.348.973.973 0 00.143-.363.809.809 0 00-.363-.823c-.694-.443-1.494-.45-2.14-.368-.471.06-.97.185-1.368.284-.14.035-.266.067-.375.091a.766.766 0 00-.571.921.766.766 0 00.913.583c.17-.039.336-.08.498-.12.112-.029.223-.057.333-.083zm.749 11.252c.077.104-.003.25-.132.256-.346.015-.725.042-1.09.069-.259.019-.51.037-.736.05a.762.762 0 00-.714.812.77.77 0 00.807.727c.292-.017.556-.037.814-.056.328-.024.645-.048.992-.063l.011.001.238.02.025.002c.153.014.348.031.543.042.2.01.433.016.641-.004.103-.01.231-.028.358-.07a.963.963 0 00.496-.358.886.886 0 00.127-.708 1.289 1.289 0 00-.134-.336 3.086 3.086 0 00-.309-.435 8.536 8.536 0 00-.413-.464c-.386-.5-.747-1.004-1.12-1.524l-.289-.402a.758.758 0 00-1.064-.174.775.775 0 00-.166 1.076l.28.39c.272.38.549.765.835 1.15zM18.229 7.861a.766.766 0 01-.572.92c-1.92.437-3.936.602-5.869.76-.637.052-1.266.103-1.88.163-.669.066-1.36-.002-1.964-.06a93.43 93.43 0 00-.15-.015c-.383-.037-.475.387-.123.547.594.27 1.191.539 1.79.808 1.778.802 3.567 1.608 5.308 2.445a60.07 60.07 0 004.291 1.862.777.777 0 01.443.995.756.756 0 01-.982.443 61.574 61.574 0 01-4.4-1.91c-1.75-.84-3.487-1.623-5.234-2.41-.59-.265-1.18-.53-1.772-.8-.145-.065-.278.107-.181.233l.016.02c.37.481.756.984 1.113 1.515.378.563.71 1.164 1.02 1.73l.189.342c.376.677.742 1.298 1.185 1.844.447.55.98 1.28 1.442 2.049.456.758.878 1.61 1.056 2.393a.766.766 0 01-.571.92.766.766 0 01-.914-.583c-.123-.542-.445-1.226-.871-1.935a16.87 16.87 0 00-1.317-1.87c-.536-.659-.957-1.383-1.338-2.07l-.201-.365c-.311-.564-.602-1.093-.938-1.593a28.8 28.8 0 00-1.07-1.453l-.002-.002a29.375 29.375 0 01-1.128-1.538c-.13-.194-.436-.651-.695-1.068v-.002a.72.72 0 00-.248-.241l-.218-.129c-.271-.16-.538-.317-.81-.465-.706-.386-1.303-.628-1.788-.64A.772.772 0 01.1 7.914a.76.76 0 01.775-.752c.879.021 1.755.43 2.48.825.147.08.295.165.44.248.048.028.105.03.158.015.405-.117.783-.125 1.081-.126h.118c.257 0 .445 0 .642-.034.729-.123 1.483-.057 2.137.006l.117.011c.64.062 1.19.115 1.706.064.669-.065 1.332-.12 1.99-.173 1.905-.156 3.765-.308 5.572-.72a.766.766 0 01.914.584zm-3.513 14.71a.766.766 0 01.913.582c.104.458.192.972.194 1.495 0 .066.004.148.009.259l.003.07c.006.138.012.303.011.47a3.64 3.64 0 01-.04.538 1.656 1.656 0 01-.212.613.922.922 0 01-.479.381 1.21 1.21 0 01-.379.066 2.42 2.42 0 01-.553-.064 5.75 5.75 0 01-.564-.155l-.018-.006-.05-.016a40.66 40.66 0 00-.491-.122c-.727-.177-1.541-.376-2.29-.715a.777.777 0 01-.387-1.02.755.755 0 011.005-.386c.606.275 1.247.432 1.96.608.185.045.375.092.57.142.04.01.09.025.121.035l.024.008a10.232 10.232 0 00.256.076c.002 0 .003 0 .003-.002a7.657 7.657 0 00-.01-.392c0-.02 0-.039-.002-.06a8.9 8.9 0 01-.01-.33 5.402 5.402 0 00-.155-1.155.766.766 0 01.57-.92zM44.677 5.519c.011-.197.256-.226.319-.039a8.09 8.09 0 01.144.48.83.83 0 01.008.04.77.77 0 00.863.659.762.762 0 00.666-.852c-.027-.204-.122-.518-.218-.803a19.17 19.17 0 00-.378-1.018 9.778 9.778 0 00-.424-.93 2.202 2.202 0 00-.25-.377.973.973 0 00-.306-.242.809.809 0 00-.893.11c-.625.536-.862 1.3-.97 1.942-.08.468-.105.982-.125 1.392-.007.143-.013.273-.02.384-.03.42.29.784.715.814a.766.766 0 00.822-.706 23.1 23.1 0 00.029-.511c.005-.116.01-.23.018-.343zm10.987 2.538c.123-.044.239.075.207.2-.086.335-.17.707-.25 1.064-.056.253-.111.499-.164.719a.762.762 0 00.57.918.77.77 0 00.93-.563c.068-.284.126-.542.182-.794.07-.318.139-.625.224-.958a12.687 12.687 0 01.094-.242l.01-.024c.057-.142.13-.324.197-.508a4.47 4.47 0 00.182-.615c.02-.1.04-.229.036-.363a.963.963 0 00-.199-.577.886.886 0 00-.641-.327 1.287 1.287 0 00-.36.031c-.179.04-.363.11-.506.17a8.646 8.646 0 00-.564.262c-.59.224-1.178.424-1.783.63l-.469.16a.758.758 0 00-.473.97c.14.397.58.607.982.469l.453-.155c.443-.15.892-.304 1.342-.467zm-10.85 1.21c.426.03.746.393.717.813-.138 1.965-.563 3.941-.971 5.838-.135.625-.267 1.242-.387 1.846-.13.66-.396 1.303-.626 1.863l-.058.14c-.146.356.234.566.488.276.43-.49.86-.985 1.292-1.48 1.282-1.47 2.57-2.95 3.875-4.374a60.089 60.089 0 003.024-3.569.777.777 0 011.081-.136c.337.257.4.736.14 1.068a61.677 61.677 0 01-3.1 3.66c-1.312 1.432-2.563 2.868-3.822 4.313L45.19 20.99c-.105.12.02.297.17.24l.024-.009c.567-.215 1.16-.439 1.771-.627.649-.2 1.32-.343 1.953-.477.129-.027.256-.054.38-.082.758-.164 1.458-.334 2.11-.6a18.43 18.43 0 012.377-.788c.858-.217 1.795-.375 2.596-.319.425.03.745.394.716.814a.766.766 0 01-.822.705c-.555-.039-1.303.072-2.104.275-.789.2-1.57.473-2.17.719-.787.322-1.602.516-2.37.682l-.408.087c-.63.134-1.22.26-1.796.438a28.09 28.09 0 00-1.7.603l-.003.001c-.576.218-1.177.445-1.798.636-.224.068-.75.228-1.223.355h-.003a.718.718 0 00-.302.167l-.187.172c-.231.213-.459.423-.679.64-.574.565-.978 1.066-1.13 1.527a.771.771 0 01-.97.488.76.76 0 01-.496-.96c.275-.835.919-1.556 1.507-2.135.12-.118.243-.235.365-.35a.203.203 0 00.06-.147c.005-.421.106-.786.192-1.071l.034-.113a3.78 3.78 0 00.153-.624c.093-.733.375-1.436.624-2.044l.045-.11c.244-.594.454-1.105.555-1.614.13-.658.27-1.31.41-1.955.4-1.868.794-3.693.923-5.542a.766.766 0 01.822-.705zm13.066 7.617a.766.766 0 01.822-.705 6.9 6.9 0 011.487.247c.063.019.142.039.25.066l.069.017c.133.035.293.076.453.126.158.05.336.112.503.193.158.076.362.195.525.381.17.194.219.413.226.569a1.21 1.21 0 01-.047.382 2.429 2.429 0 01-.22.51 5.721 5.721 0 01-.313.495l-.01.016-.03.044c-.084.139-.17.284-.258.434-.38.644-.807 1.367-1.348 1.984a.777.777 0 01-1.087.077.755.755 0 01-.08-1.074c.439-.5.775-1.068 1.15-1.701.096-.164.196-.332.3-.504a2.71 2.71 0 01.07-.106l.014-.02a10.94 10.94 0 00.146-.225 7.81 7.81 0 00-.378-.106l-.058-.015a10.337 10.337 0 01-.32-.085 5.405 5.405 0 00-1.15-.186.766.766 0 01-.716-.814z" fill="#2C2C2C"/></svg>