<svg width="98" height="33" fill="none" xmlns="http://www.w3.org/2000/svg"><path fill-rule="evenodd" clip-rule="evenodd" d="M18.235 3.34c.133-.145.341-.014.272.171a8.09 8.09 0 01-.19.464.775.775 0 01-.018.036.77.77 0 00.256 1.055.762.762 0 001.053-.242c.108-.176.231-.48.337-.762.115-.309.239-.676.346-1.03a9.77 9.77 0 00.255-.988 2.07 2.07 0 00.044-.45.973.973 0 00-.085-.381.809.809 0 00-.763-.477c-.823.023-1.488.467-1.978.899-.356.313-.698.697-.971 1.003-.096.107-.183.204-.259.286a.766.766 0 00.045 1.082.766.766 0 001.083-.03c.12-.129.232-.255.344-.38.077-.086.153-.172.23-.256zm6.942 8.888c.123.043.138.208.035.285-.278.207-.577.443-.863.67-.204.161-.401.318-.581.455a.762.762 0 00-.134 1.073.77.77 0 001.076.147c.232-.177.44-.342.641-.502.258-.205.507-.402.786-.61l.01-.006.207-.117.022-.012c.134-.075.306-.17.473-.27.171-.104.367-.23.529-.364a1.65 1.65 0 00.256-.26.964.964 0 00.21-.574.886.886 0 00-.294-.657 1.288 1.288 0 00-.3-.203 3.106 3.106 0 00-.5-.186 8.683 8.683 0 00-.602-.151c-.6-.197-1.182-.411-1.782-.632l-.465-.17a.758.758 0 00-.979.454.775.775 0 00.468.983l.45.165c.439.162.884.325 1.337.482zM15.984 6.34c.312.29.332.775.045 1.083-1.344 1.44-2.918 2.709-4.428 3.926-.499.4-.99.797-1.464 1.191-.516.43-1.126.763-1.659 1.054l-.132.072c-.338.185-.175.587.205.522a704.3 704.3 0 001.935-.337c1.922-.337 3.855-.675 5.765-.96a60.11 60.11 0 004.596-.872.777.777 0 01.926.575.756.756 0 01-.564.918 61.649 61.649 0 01-4.712.893c-1.921.288-3.797.617-5.684.947l-1.916.334c-.157.027-.17.244-.019.294l.025.008c.575.19 1.178.39 1.771.627.63.253 1.242.565 1.817.858.117.06.233.12.348.177.691.349 1.342.657 2.016.86.679.203 1.529.507 2.344.884.803.371 1.63.838 2.218 1.386.311.29.331.775.045 1.083a.766.766 0 01-1.083.03c-.407-.378-1.058-.763-1.809-1.11a16.866 16.866 0 00-2.139-.807c-.814-.245-1.569-.607-2.27-.96l-.372-.19c-.574-.292-1.112-.566-1.671-.79-.548-.22-1.111-.406-1.702-.602h-.003a29.31 29.31 0 01-1.797-.638 39.193 39.193 0 01-1.174-.493l-.002-.001a.72.72 0 00-.34-.062l-.253.017c-.314.02-.623.04-.93.07-.802.077-1.432.213-1.84.476a.772.772 0 01-1.061-.233.76.76 0 01.22-1.058c.738-.476 1.692-.63 2.513-.71.168-.016.337-.03.504-.042a.203.203 0 00.14-.077c.268-.325.577-.544.823-.712l.097-.066a3.78 3.78 0 00.512-.388c.534-.512 1.195-.88 1.771-1.196l.104-.057c.564-.308 1.049-.574 1.447-.905.516-.43 1.034-.848 1.549-1.262 1.488-1.2 2.941-2.37 4.205-3.726a.766.766 0 011.083-.03zm5.36 14.142a.766.766 0 011.082-.03c.344.32.705.695 1 1.127.038.054.087.12.153.209l.043.057c.082.11.18.243.273.383.092.137.19.298.27.466.074.159.158.38.168.627a.923.923 0 01-.182.584 1.21 1.21 0 01-.277.267c-.162.115-.348.2-.493.258a5.772 5.772 0 01-.423.148l-.131.04-.018.006-.051.016c-.153.055-.311.113-.474.174-.701.262-1.487.555-2.296.694a.777.777 0 01-.893-.624.755.755 0 01.614-.885c.655-.113 1.274-.343 1.963-.599.178-.066.361-.134.55-.202l.121-.04.025-.006a12.579 12.579 0 00.254-.08.003.003 0 00.001-.005 7.743 7.743 0 00-.228-.318l-.035-.048a8.59 8.59 0 01-.194-.267 5.405 5.405 0 00-.778-.87.766.766 0 01-.045-1.082zM90.655 6.917c.184-.07.31.142.164.276a8.087 8.087 0 01-.38.327.808.808 0 01-.032.023.77.77 0 00-.25 1.057.76.76 0 001.048.262c.176-.107.423-.322.645-.526.243-.223.52-.493.776-.76.253-.262.501-.537.676-.765.082-.106.179-.242.244-.381.028-.06.09-.2.097-.378a.809.809 0 00-.464-.771c-.744-.354-1.538-.26-2.17-.097-.46.117-.939.304-1.32.452-.134.052-.256.1-.36.138a.766.766 0 00-.453.984c.146.4.584.608.98.465.164-.06.322-.122.478-.182.108-.042.214-.084.32-.124zm2.15 11.07c.09.094.028.249-.099.27a37.66 37.66 0 00-1.073.205c-.254.052-.502.101-.724.142a.762.762 0 00-.606.895.77.77 0 00.891.62c.288-.053.547-.105.8-.157.323-.065.634-.128.977-.186h.011c.025-.002.095-.006.238-.011h.025c.154-.006.35-.014.544-.027.2-.015.432-.038.636-.084.101-.023.226-.057.347-.115a.963.963 0 00.447-.416.886.886 0 00.037-.72 1.287 1.287 0 00-.175-.316 3.098 3.098 0 00-.36-.393 8.58 8.58 0 00-.469-.408 54.034 54.034 0 01-1.301-1.372l-.337-.364a.758.758 0 00-1.078-.038.775.775 0 00-.03 1.088l.326.351c.318.343.64.691.972 1.037zm-5.518-9.42a.766.766 0 01-.452.986c-1.85.673-3.83 1.089-5.728 1.487-.626.132-1.243.261-1.844.398-.656.148-1.35.168-1.957.185l-.15.005c-.385.011-.423.443-.054.558.623.193 1.249.385 1.876.578a238.38 238.38 0 015.573 1.761 59.58 59.58 0 004.49 1.31c.41.103.662.52.564.933a.755.755 0 01-.919.562 61.551 61.551 0 01-4.604-1.344 229.913 229.913 0 00-5.494-1.736l-1.859-.572c-.151-.047-.262.14-.15.253l.018.018c.427.431.873.882 1.294 1.363.446.511.85 1.067 1.23 1.59l.229.315c.458.625.898 1.195 1.407 1.682a18.41 18.41 0 011.686 1.852c.547.695 1.072 1.487 1.347 2.242a.766.766 0 01-.452.985.766.766 0 01-.979-.465c-.19-.522-.595-1.16-1.107-1.81a16.873 16.873 0 00-1.54-1.69c-.614-.588-1.122-1.254-1.586-1.887l-.246-.337c-.379-.522-.734-1.01-1.13-1.464a28.85 28.85 0 00-1.243-1.308l-.002-.002a29.391 29.391 0 01-1.312-1.384 39.36 39.36 0 01-.822-.973l-.001-.001a.72.72 0 00-.276-.21l-.232-.1c-.29-.124-.573-.247-.861-.36-.75-.295-1.372-.46-1.855-.41a.772.772 0 01-.84-.69.76.76 0 01.676-.842c.874-.09 1.794.206 2.562.508.157.062.314.126.468.191a.203.203 0 00.16-.005c.386-.167.76-.222 1.056-.26l.117-.015c.255-.033.44-.056.633-.114.707-.213 1.464-.242 2.12-.261l.118-.004c.643-.019 1.195-.035 1.7-.15.656-.148 1.307-.285 1.953-.42 1.87-.394 3.698-.777 5.439-1.411a.766.766 0 01.979.464zm-1.645 15.035a.766.766 0 01.979.464c.16.441.311.94.38 1.459.008.065.021.146.04.255l.012.07c.023.136.05.299.07.465.02.165.034.352.028.538a1.66 1.66 0 01-.134.635.922.922 0 01-.428.438 1.21 1.21 0 01-.368.112 2.43 2.43 0 01-.556.006 5.753 5.753 0 01-.58-.083l-.017-.004-.053-.009-.502-.06c-.743-.085-1.576-.18-2.36-.423a.777.777 0 01-.513-.963.755.755 0 01.949-.509c.635.197 1.29.273 2.021.358.189.021.383.044.582.07.041.005.092.014.125.02l.026.004.12.021.143.023a.003.003 0 00.003-.003 7.69 7.69 0 00-.069-.446 8.347 8.347 0 01-.052-.326 5.4 5.4 0 00-.298-1.128.766.766 0 01.452-.984zM42.76 8.488c-.04-.192.187-.285.298-.122a8.053 8.053 0 01.267.424.707.707 0 01.019.036.77.77 0 001.008.404.762.762 0 00.414-.998c-.08-.19-.257-.467-.425-.716a18.21 18.21 0 00-.637-.88 9.777 9.777 0 00-.657-.782 2.198 2.198 0 00-.341-.298.973.973 0 00-.36-.15.809.809 0 00-.831.344c-.459.683-.483 1.482-.416 2.131.048.472.162.974.252 1.374.032.14.06.267.083.376.084.412.49.678.907.593a.766.766 0 00.604-.9 22.792 22.792 0 00-.11-.5l-.074-.336zm11.267-.49c.106-.075.25.009.253.138.007.346.026.726.044 1.091.013.26.026.511.033.737.014.42.37.748.796.732a.77.77 0 00.744-.79c-.01-.292-.023-.557-.036-.814a30.9 30.9 0 01-.04-.994v-.011l.026-.237.002-.025c.018-.153.04-.348.055-.542.015-.2.026-.433.011-.641a1.652 1.652 0 00-.063-.36.964.964 0 00-.345-.504.886.886 0 00-.706-.143c-.142.03-.261.086-.339.127-.16.085-.32.202-.441.298a8.537 8.537 0 00-.474.403c-.508.374-1.021.724-1.549 1.084l-.41.28a.758.758 0 00-.197 1.06.775.775 0 001.072.19l.396-.27c.386-.264.778-.531 1.168-.808zm-10.131 4.065a.766.766 0 01.907.592c.393 1.93.51 3.95.624 5.885.038.639.075 1.269.12 1.883.051.67-.032 1.36-.105 1.963l-.018.15c-.045.382.377.483.544.135l.85-1.77a238.83 238.83 0 012.565-5.251 60.054 60.054 0 001.96-4.248.777.777 0 011.005-.42.755.755 0 01.42.992 61.597 61.597 0 01-2.01 4.355c-.88 1.731-1.702 3.45-2.529 5.177-.279.584-.558 1.168-.84 1.754-.07.143.1.28.228.186l.02-.015c.49-.358 1.002-.733 1.54-1.078.571-.366 1.18-.683 1.754-.981l.345-.18c.686-.361 1.315-.712 1.871-1.143.56-.434 1.302-.95 2.082-1.395.768-.438 1.629-.84 2.416-1a.766.766 0 01.907.592.766.766 0 01-.603.9c-.545.11-1.236.417-1.955.827a16.99 16.99 0 00-1.9 1.273c-.671.52-1.404.925-2.1 1.29-.124.066-.248.13-.37.193-.571.298-1.107.577-1.614.902-.497.318-.975.668-1.477 1.036l-.002.002c-.496.363-1.016.743-1.563 1.092a39.53 39.53 0 01-1.086.671.72.72 0 00-.247.241l-.134.216c-.165.267-.329.53-.483.798-.403.698-.657 1.288-.68 1.773a.772.772 0 01-.806.73.76.76 0 01-.734-.793c.042-.878.47-1.745.882-2.46.084-.146.171-.291.258-.434a.203.203 0 00.019-.158c-.109-.408-.108-.786-.102-1.084 0-.04.002-.08.003-.118.005-.257.01-.444-.02-.642-.106-.731-.022-1.484.056-2.136l.014-.118c.076-.638.142-1.187.103-1.704-.05-.67-.09-1.334-.128-1.993-.112-1.908-.222-3.771-.591-5.587a.766.766 0 01.604-.9zm14.625 3.85a.766.766 0 01.603-.9c.461-.094.977-.17 1.5-.16.066.002.147 0 .258-.003l.071-.001a9.31 9.31 0 01.47 0c.166.005.354.018.536.051.173.032.402.092.609.227a.93.93 0 01.37.488c.047.144.057.28.056.38 0 .199-.04.4-.076.551a5.795 5.795 0 01-.168.56l-.006.018-.017.05c-.044.157-.088.32-.133.489-.194.722-.412 1.532-.768 2.272a.777.777 0 01-1.028.364.755.755 0 01-.363-1.014c.288-.6.46-1.236.652-1.946.05-.183.1-.372.155-.566a2.55 2.55 0 01.039-.12l.008-.024.038-.116c.015-.044.03-.09.044-.138 0-.002 0-.003-.003-.003a7.75 7.75 0 00-.39 0l-.06.001c-.11.003-.23.005-.33.003a5.402 5.402 0 00-1.16.129.766.766 0 01-.907-.592z" fill="#2C2C2C"/></svg>