<svg width="19" height="22" fill="none" xmlns="http://www.w3.org/2000/svg"><path fill-rule="evenodd" clip-rule="evenodd" d="M7.752 2.138c-.707.128-1.235.355-1.58.7-.2.199-.332.549-.35 1.147-.015.519.058 1.065.133 1.627l.034.253c.073.563.3 1.08.631 1.411.074.074.142.145.208.214.138.143.267.277.423.412a1.568 1.568 0 00.255.187c.75.024 1.497-.01 2.289-.047.308-.015.623-.03.947-.041l.227-.048c.255-.054.476-.1.708-.167a5.215 5.215 0 001.462-.669c.458-.314.692-.629.76-.899.104-.418.072-.805-.005-1.424a4.206 4.206 0 00-.225-.915 2.014 2.014 0 00-.177-.366.529.529 0 00-.091-.115c0-.001 0 0 0 0a5.713 5.713 0 01-.739-.646 12.09 12.09 0 00-.105-.103c-.215-.208-.346-.305-.47-.356C11.476 2.044 10.81 2 9.966 2c-.743 0-1.51.01-2.215.138zm4.757 7.484a7.083 7.083 0 001.763-.856c.652-.448 1.331-1.122 1.566-2.063.206-.821.116-1.55.04-2.157a6.199 6.199 0 00-.34-1.378c-.169-.445-.468-1.047-.999-1.415a3.126 3.126 0 01-.407-.361 25.014 25.014 0 00-.186-.183c-.25-.24-.607-.564-1.103-.767C11.845.034 10.835 0 9.968 0c-.734 0-1.669.006-2.572.17-.901.163-1.886.502-2.64 1.255-.73.73-.91 1.704-.933 2.501-.02.697.078 1.42.152 1.969l.03.228c.116.885.484 1.85 1.201 2.567l.112.116c.154.16.394.409.625.609.16.139.356.29.575.413a1.915 1.915 0 00.985.261 1 1 0 00.878.522c.54 0 1.243-.115 1.793-.362.241-.109.504-.183.82-.255.253-.008.502-.013.747-.013a1 1 0 00.768-.359zm-3.635 4.35c-.977 0-1.765.004-2.56.203a12.798 12.798 0 01-.833.172c-.204.038-.396.074-.586.116-.454.099-.779.207-.996.345-.79.5-1.173 1.188-1.369 2.06-.189.842-.187 1.777-.185 2.823v.316a1 1 0 11-2 0v-.331c-.004-1.004-.007-2.17.234-3.246.28-1.25.905-2.46 2.25-3.312.526-.333 1.136-.5 1.64-.61a22.138 22.138 0 01.746-.146c.235-.044.436-.083.613-.127 1.054-.264 2.07-.264 2.998-.264h5.669c.644 0 1.323.069 1.937.4.646.348 1.087.913 1.398 1.643.84 1.971.817 4.15.798 6.027-.003.276-.006.545-.006.806a1 1 0 11-2 0c0-.292.002-.579.004-.862.014-1.913.027-3.63-.636-5.186-.186-.437-.364-.59-.508-.668-.175-.094-.454-.16-.987-.16h-5.62z" fill="#2C2C2C"/></svg>