<svg width="19" height="20" fill="none" xmlns="http://www.w3.org/2000/svg"><path fill-rule="evenodd" clip-rule="evenodd" d="M9.312 2.01c-.588-.015-1.078-.027-1.578.063l-.004.001a.599.599 0 00-.09.186c-.084.251-.114.554-.15.924l-.014.143c-.058.576-.114 1.146-.166 1.714.173-.006.358-.029.593-.058l.022-.003c.254-.032.574-.072.91-.072.907 0 1.821-.094 2.797-.195l.02-.002.222-.023a17.769 17.769 0 00-.037-.204 14.168 14.168 0 00-.143-.6 7.61 7.61 0 01-.167-.771c-.06-.4-.124-.596-.292-.832a.45.45 0 00-.056-.035 1.53 1.53 0 00-.314-.117 3.215 3.215 0 00-.774-.106c-.28 0-.538-.007-.78-.013zm4.562 2.515a9.727 9.727 0 00-.243-1.14 5.726 5.726 0 01-.126-.57c-.089-.586-.23-1.126-.663-1.725C12.452.551 11.81.313 11.39.2a5.205 5.205 0 00-1.299-.177c-.164 0-.35-.005-.548-.01-.65-.017-1.447-.038-2.166.093-.98.178-1.432.925-1.631 1.514-.166.49-.217 1.043-.248 1.384l-.012.124c-.063.63-.126 1.264-.183 1.902a22.265 22.265 0 01-1.01-.083l-.022-.003a16.493 16.493 0 00-1.654-.105l-.1-.008a5.828 5.828 0 00-.358-.017 2.411 2.411 0 00-.49.039c-.121.024-.55.114-.818.523a1.362 1.362 0 00-.204.581c-.017.139-.016.27-.012.363.004.09.01.178.016.237a23.887 23.887 0 01.007.095v7.452c0 .116 0 .24-.002.368-.007 1.024-.016 2.383.397 3.52.215.592.74.974 1.084 1.18.385.23.825.405 1.184.482.406.088.82.087 1.149.075.162-.006.293-.013.411-.02a7.91 7.91 0 01.462-.017H7.69c.99 0 1.933-.167 2.787-.324l.149-.028c.82-.151 1.556-.288 2.303-.318.28-.012.525-.06.72-.105.082-.018.148-.034.205-.048.1-.024.175-.042.27-.06a3.94 3.94 0 01.478-.04h.006c.203-.01.485-.024.782-.089a3.017 3.017 0 01.437-.04c.18-.011.442-.026.695-.078.271-.055.63-.168.942-.446.334-.296.52-.692.58-1.132.03-.223.066-.457.102-.697.083-.548.17-1.13.223-1.706.085-.933.032-1.922-.014-2.808-.015-.278-.03-.546-.039-.8l-.018-.52c-.048-1.405-.1-2.9-.323-4.355a1.56 1.56 0 00-.418-.864 1.624 1.624 0 00-.692-.413c-.19-.06-.38-.087-.497-.104l-.026-.004c-.127-.019-.195-.029-.258-.044a6.063 6.063 0 00-1.44-.162 17.1 17.1 0 00-.769.018zm-1.783 2.151l-.253.026-.027.003c-.95.099-1.958.203-2.976.203-.2 0-.406.025-.684.06l-.02.002a7.3 7.3 0 01-.914.072h-.064a38.142 38.142 0 00-.077 2.347 1 1 0 11-2 0c0-.7.022-1.393.059-2.083-.846.089-1.695.083-2.477.075v7.094c-.004 1.069-.007 2.026.26 2.795a1.276 1.276 0 00.245.185c.22.131.457.218.58.245.153.033.36.041.654.03.078-.002.176-.008.283-.013.214-.012.463-.025.663-.025H7.69c.784 0 1.562-.132 2.425-.291l.178-.033c.79-.147 1.66-.308 2.555-.345.1-.004.206-.021.356-.055l.116-.028c.127-.03.295-.07.446-.098.26-.047.514-.06.697-.068l.046-.003c.209-.01.34-.02.459-.046a4.56 4.56 0 01.715-.08c.182-.011.3-.02.393-.034.034-.241.07-.47.103-.694.078-.518.151-1.001.198-1.517.07-.777.03-1.558-.015-2.406a58.3 58.3 0 01-.063-1.47c-.045-1.319-.09-2.594-.26-3.834a4.617 4.617 0 01-.427-.078 4.072 4.072 0 00-.968-.105c-.186 0-.371.004-.557.01.017.355.023.71.017 1.066a5.953 5.953 0 01-.037.529l-.003.03a3.806 3.806 0 00-.027.377c0 .172-.009.49-.205.803a1.696 1.696 0 01-.445.452l-.017.013A1 1 0 0112.043 8.3c.007-.134.02-.258.03-.36.017-.169.029-.28.03-.389a14.4 14.4 0 00-.012-.874zm-9.184 10.58l.001.002v-.002z" fill="#2C2C2C"/></svg>