<svg width="336" height="38" fill="none" xmlns="http://www.w3.org/2000/svg"><path fill-rule="evenodd" clip-rule="evenodd" d="M91.09 6.198c.133-.145.34-.014.272.171a8.09 8.09 0 01-.19.464l-.018.036a.77.77 0 00.256 1.055.762.762 0 001.053-.242c.108-.176.23-.48.336-.762a18.2 18.2 0 00.347-1.03 9.77 9.77 0 00.255-.988c.024-.131.049-.297.044-.45a.973.973 0 00-.086-.381.83.83 0 00-.261-.32.808.808 0 00-.502-.157c-.823.023-1.488.467-1.977.899-.356.313-.699.697-.972 1.003a18.68 18.68 0 01-.258.286.766.766 0 00.044 1.082.766.766 0 001.083-.03c.12-.129.233-.255.344-.38.077-.086.153-.172.23-.256zm6.941 8.888c.123.043.138.208.035.285a37.51 37.51 0 00-.863.67c-.204.162-.401.318-.58.455a.762.762 0 00-.135 1.073.77.77 0 001.076.148c.232-.178.44-.343.642-.503.257-.205.506-.402.785-.61l.01-.006.207-.117.022-.012c.135-.075.306-.17.473-.27.172-.104.368-.23.529-.364.079-.066.175-.153.256-.26a.963.963 0 00.21-.573.886.886 0 00-.293-.658 1.304 1.304 0 00-.3-.202 3.104 3.104 0 00-.5-.187 8.574 8.574 0 00-.602-.151c-.6-.197-1.183-.411-1.783-.632-.154-.056-.308-.114-.465-.17a.758.758 0 00-.978.454.775.775 0 00.468.983l.45.165c.439.162.884.325 1.336.482zM88.84 9.198c.311.29.331.775.044 1.083-1.343 1.44-2.918 2.709-4.428 3.926-.498.401-.99.797-1.463 1.191-.517.43-1.127.763-1.659 1.054l-.133.072c-.337.185-.174.587.206.522.643-.111 1.288-.224 1.934-.337 1.922-.336 3.855-.675 5.765-.96a60.06 60.06 0 004.596-.872.777.777 0 01.926.575.756.756 0 01-.563.918 61.552 61.552 0 01-4.713.893c-1.92.288-3.797.616-5.684.947-.636.112-1.274.223-1.916.334-.156.027-.17.244-.019.294l.025.008c.576.19 1.178.39 1.771.627.63.253 1.242.565 1.818.858.117.06.233.12.347.177.692.349 1.343.657 2.017.86.678.203 1.528.508 2.344.884.803.371 1.63.838 2.218 1.386.311.29.33.775.044 1.083a.766.766 0 01-1.083.03c-.407-.378-1.057-.763-1.808-1.11a16.877 16.877 0 00-2.14-.807c-.814-.245-1.569-.607-2.27-.96l-.372-.19c-.574-.292-1.112-.566-1.67-.79a28.754 28.754 0 00-1.702-.601l-.003-.001a29.297 29.297 0 01-1.797-.638 39.467 39.467 0 01-1.175-.493l-.002-.001a.719.719 0 00-.34-.061l-.253.016c-.314.02-.622.04-.93.07-.802.077-1.431.213-1.84.476a.772.772 0 01-1.06-.233.76.76 0 01.219-1.058c.738-.476 1.693-.63 2.514-.71.168-.016.337-.03.504-.042a.203.203 0 00.14-.077c.268-.325.576-.544.822-.712l.098-.066c.212-.145.367-.25.512-.388.533-.512 1.195-.88 1.77-1.196l.104-.057c.564-.309 1.05-.574 1.448-.905.516-.43 1.034-.848 1.548-1.262 1.488-1.2 2.942-2.37 4.206-3.726a.766.766 0 011.083-.03zm5.359 14.142a.766.766 0 011.083-.03c.343.32.704.696 1 1.127.037.054.086.12.153.209l.042.057c.082.11.18.243.273.383.092.138.19.298.27.466.074.159.158.38.168.627a.923.923 0 01-.182.584 1.21 1.21 0 01-.277.267c-.161.115-.348.2-.493.258a5.695 5.695 0 01-.422.148l-.132.04-.017.006-.052.015c-.152.055-.31.115-.474.175-.7.262-1.486.555-2.296.694a.777.777 0 01-.893-.624.755.755 0 01.614-.885c.656-.113 1.275-.343 1.964-.599.178-.066.36-.134.55-.202a2.64 2.64 0 01.12-.039l.025-.007a12.579 12.579 0 00.254-.08c.002-.001.003-.003.002-.005a7.882 7.882 0 00-.228-.318l-.036-.048a8.713 8.713 0 01-.194-.267 5.405 5.405 0 00-.778-.87.766.766 0 01-.044-1.082zM249.662 8.206c.133-.145.34-.014.271.171a7.248 7.248 0 01-.19.464.341.341 0 01-.018.036.77.77 0 00.257 1.055.762.762 0 001.053-.243c.108-.175.231-.48.336-.761.115-.309.239-.676.347-1.03a9.94 9.94 0 00.255-.988c.024-.132.049-.297.044-.451a.98.98 0 00-.086-.38.81.81 0 00-.763-.477c-.823.023-1.488.467-1.977.899-.356.313-.699.697-.972 1.003a17.42 17.42 0 01-.258.286.766.766 0 00.044 1.082.766.766 0 001.083-.03c.119-.129.233-.255.344-.38.077-.086.153-.172.23-.256zm6.941 8.888c.123.043.138.208.035.285-.278.207-.577.443-.863.67-.204.161-.401.318-.581.455a.763.763 0 00-.134 1.073.77.77 0 001.076.147c.232-.177.44-.342.641-.502.258-.205.507-.402.786-.61l.01-.006.207-.117.022-.012c.135-.075.306-.17.473-.27.172-.104.368-.23.529-.364.079-.066.175-.153.256-.26a.964.964 0 00.209-.574.887.887 0 00-.292-.657 1.286 1.286 0 00-.301-.203 3.057 3.057 0 00-.499-.186 8.492 8.492 0 00-.603-.151 54.631 54.631 0 01-1.782-.632l-.465-.17a.758.758 0 00-.978.454.774.774 0 00.467.983l.45.165c.439.161.885.325 1.337.482zm-9.193-5.888c.312.29.332.775.045 1.083-1.343 1.44-2.918 2.709-4.428 3.925-.498.402-.99.798-1.463 1.192-.517.43-1.127.763-1.659 1.053l-.133.073c-.337.185-.175.587.206.521.642-.11 1.288-.223 1.934-.336a238.5 238.5 0 015.765-.96 60.035 60.035 0 004.596-.872.777.777 0 01.926.575.755.755 0 01-.564.918 61.509 61.509 0 01-4.712.893c-1.921.287-3.797.616-5.684.947l-1.916.334c-.156.027-.17.244-.019.294l.025.008c.576.19 1.178.389 1.771.627.63.253 1.242.565 1.817.858l.348.177c.692.349 1.343.657 2.017.86a18.47 18.47 0 012.344.884c.803.37 1.63.838 2.217 1.386.312.29.332.775.045 1.083a.766.766 0 01-1.083.03c-.407-.379-1.057-.763-1.808-1.11a16.91 16.91 0 00-2.14-.807c-.814-.245-1.569-.607-2.27-.96l-.372-.19c-.574-.292-1.112-.566-1.671-.79a28.663 28.663 0 00-1.702-.602h-.002a29.226 29.226 0 01-1.797-.639 39.08 39.08 0 01-1.175-.492l-.002-.002a.718.718 0 00-.34-.06l-.253.016c-.314.02-.622.04-.93.07-.802.077-1.431.212-1.839.475a.772.772 0 01-1.062-.232.761.761 0 01.22-1.058c.738-.476 1.693-.63 2.514-.71.167-.016.336-.03.503-.042a.201.201 0 00.14-.077c.269-.325.577-.544.823-.712l.097-.066c.213-.145.368-.25.513-.389.533-.51 1.194-.88 1.77-1.195l.104-.057c.564-.309 1.049-.574 1.447-.906.516-.43 1.035-.847 1.549-1.261 1.488-1.2 2.942-2.37 4.205-3.726a.766.766 0 011.083-.031zm5.359 14.142a.767.767 0 011.084-.031c.343.32.704.696 1 1.128.037.054.086.12.152.209l.043.056c.082.111.18.244.273.383.092.138.191.299.269.467.075.159.159.38.169.627a.921.921 0 01-.182.584 1.22 1.22 0 01-.277.267 2.42 2.42 0 01-.493.258 5.528 5.528 0 01-.423.148l-.131.04-.018.006-.051.015c-.153.055-.311.114-.474.175-.701.262-1.487.555-2.296.694a.777.777 0 01-.893-.625.755.755 0 01.614-.884c.656-.113 1.274-.343 1.963-.6l.551-.202c.039-.014.088-.028.121-.038l.024-.008a7.782 7.782 0 00.254-.08c.002 0 .002-.003.001-.004a7.747 7.747 0 00-.263-.366 7.657 7.657 0 01-.194-.267 5.407 5.407 0 00-.778-.87.767.767 0 01-.045-1.082zM21.776 6.822c.192-.046.29.18.13.294a8.105 8.105 0 01-.419.277.776.776 0 01-.035.02.77.77 0 00-.38 1.017.762.762 0 001.007.39c.188-.084.46-.266.706-.44.268-.191.578-.425.865-.657a9.75 9.75 0 00.766-.675 2.2 2.2 0 00.29-.348.973.973 0 00.143-.363.809.809 0 00-.363-.823c-.694-.443-1.494-.45-2.14-.367-.471.06-.97.184-1.368.284-.14.034-.266.066-.375.09a.766.766 0 00-.571.921.766.766 0 00.913.583c.17-.038.336-.08.498-.12.112-.029.223-.056.333-.083zm.749 11.253c.077.104-.003.25-.132.255-.346.015-.725.043-1.09.07-.259.018-.51.037-.736.05a.762.762 0 00-.714.812.77.77 0 00.807.726 51.7 51.7 0 00.814-.055c.328-.025.645-.048.992-.063h.011l.238.02.025.002c.153.014.348.032.543.042.2.011.433.017.641-.003a1.66 1.66 0 00.358-.071.964.964 0 00.496-.357.886.886 0 00.127-.709 1.291 1.291 0 00-.134-.336 3.09 3.09 0 00-.309-.434 8.464 8.464 0 00-.413-.464c-.386-.5-.747-1.005-1.12-1.525l-.289-.402a.758.758 0 00-1.064-.173.775.775 0 00-.166 1.075l.28.39c.272.38.549.766.835 1.15zM18.229 8.039a.766.766 0 01-.572.92c-1.92.437-3.936.602-5.869.76-.637.052-1.266.103-1.88.164-.669.065-1.36-.002-1.964-.061l-.15-.015c-.383-.036-.475.388-.123.547.594.27 1.191.539 1.79.809 1.778.801 3.567 1.607 5.308 2.444a60.07 60.07 0 004.291 1.862.777.777 0 01.443.996.756.756 0 01-.982.442 61.665 61.665 0 01-4.4-1.909 230.011 230.011 0 00-5.234-2.41c-.59-.265-1.18-.531-1.772-.8-.145-.066-.278.106-.181.232l.016.02c.37.482.756.985 1.113 1.515.378.563.71 1.165 1.02 1.731l.189.341c.376.678.742 1.298 1.185 1.845.447.55.98 1.278 1.442 2.048.456.758.878 1.61 1.056 2.393a.766.766 0 01-.571.92.766.766 0 01-.914-.582c-.123-.543-.445-1.226-.871-1.935a16.862 16.862 0 00-1.317-1.87c-.536-.66-.957-1.384-1.338-2.07l-.201-.365c-.311-.565-.602-1.094-.938-1.593-.33-.49-.691-.96-1.07-1.454l-.002-.002a29.33 29.33 0 01-1.128-1.537c-.13-.195-.436-.652-.695-1.068v-.002a.719.719 0 00-.248-.242l-.218-.128c-.271-.16-.538-.317-.81-.466-.706-.386-1.303-.627-1.788-.64A.772.772 0 01.1 8.092a.76.76 0 01.775-.752c.879.022 1.755.43 2.48.825.147.081.295.165.44.249.048.028.105.03.158.015.405-.118.783-.126 1.081-.127h.118c.257 0 .445 0 .642-.033.729-.124 1.483-.058 2.137.005l.117.012c.64.061 1.19.114 1.706.064.669-.066 1.332-.12 1.99-.174 1.905-.156 3.765-.308 5.572-.719a.766.766 0 01.914.583zm-3.513 14.71a.766.766 0 01.913.582c.104.459.192.972.194 1.496 0 .065.004.147.009.258l.003.07c.006.139.012.304.011.471a3.64 3.64 0 01-.04.537 1.656 1.656 0 01-.212.613.921.921 0 01-.479.381c-.143.051-.28.064-.379.066-.199.004-.4-.03-.553-.064a5.746 5.746 0 01-.433-.115l-.13-.04-.018-.006-.052-.015c-.157-.04-.321-.081-.49-.122-.727-.178-1.541-.377-2.29-.716a.777.777 0 01-.387-1.019.755.755 0 011.005-.387c.606.275 1.247.433 1.96.608.185.045.375.092.57.142.04.01.09.026.121.036l.024.007.117.036c.045.014.091.028.139.04.002.001.003 0 .003-.002a7.658 7.658 0 00-.01-.391c0-.02 0-.04-.002-.06-.005-.11-.01-.23-.01-.33a5.4 5.4 0 00-.155-1.156.766.766 0 01.57-.92zm313.69-14.575c.185-.07.31.142.165.275a8.727 8.727 0 01-.38.327l-.032.024a.77.77 0 00-.251 1.057.76.76 0 001.048.262c.176-.108.424-.323.645-.527.243-.222.52-.493.777-.76a9.91 9.91 0 00.676-.764c.081-.106.178-.242.244-.382.028-.06.09-.2.096-.378a.813.813 0 00-.463-.771c-.744-.353-1.538-.259-2.17-.097-.46.118-.939.304-1.321.453a20.4 20.4 0 01-.36.137.766.766 0 00-.452.985c.146.4.584.608.979.464.164-.06.323-.121.478-.182l.321-.123zm2.15 11.07c.09.094.029.248-.098.27-.342.058-.715.133-1.073.205-.255.051-.502.1-.724.142a.762.762 0 00-.607.895.77.77 0 00.892.62c.287-.053.547-.106.8-.157.322-.065.633-.128.977-.187h.011c.025-.002.094-.005.238-.01l.025-.002c.153-.005.349-.012.544-.026.2-.014.432-.038.636-.084a1.59 1.59 0 00.346-.115.962.962 0 00.447-.416.885.885 0 00.038-.719 1.29 1.29 0 00-.176-.316 3.088 3.088 0 00-.36-.393 8.015 8.015 0 00-.335-.297 3.723 3.723 0 00-.133-.111c-.445-.448-.867-.904-1.302-1.373l-.337-.363a.758.758 0 00-1.078-.039.775.775 0 00-.029 1.088l.326.352c.318.343.64.691.972 1.036zm-5.518-9.42a.766.766 0 01-.451.985c-1.851.674-3.83 1.09-5.728 1.488-.626.131-1.244.26-1.845.397-.655.149-1.35.169-1.956.186l-.151.004c-.385.011-.422.444-.054.558.623.193 1.249.386 1.877.578 1.865.573 3.74 1.15 5.572 1.762 1.486.497 2.985.934 4.491 1.31.409.103.662.52.564.933a.756.756 0 01-.919.562 61.55 61.55 0 01-4.604-1.344 229.272 229.272 0 00-5.495-1.737l-1.858-.572c-.152-.047-.263.14-.151.253l.019.019c.426.43.873.881 1.293 1.363.446.51.85 1.067 1.23 1.59l.229.314c.458.626.898 1.196 1.407 1.682a18.46 18.46 0 011.687 1.852c.547.695 1.072 1.487 1.346 2.242a.766.766 0 01-.451.985.766.766 0 01-.979-.464c-.191-.523-.596-1.16-1.107-1.81a16.823 16.823 0 00-1.54-1.691c-.614-.588-1.122-1.253-1.586-1.887l-.246-.337c-.379-.521-.734-1.01-1.13-1.463-.389-.445-.806-.866-1.243-1.308l-.003-.002c-.432-.437-.885-.894-1.311-1.385-.153-.176-.514-.591-.823-.972l-.001-.002a.722.722 0 00-.275-.209l-.233-.1a28.41 28.41 0 00-.861-.36c-.749-.295-1.371-.46-1.854-.411a.772.772 0 01-.841-.69.761.761 0 01.676-.842c.874-.089 1.795.207 2.562.508.157.062.314.127.468.192a.205.205 0 00.16-.005c.387-.168.761-.223 1.056-.26l.117-.016c.255-.032.441-.056.633-.113.707-.214 1.464-.242 2.121-.262l.118-.003c.642-.02 1.195-.035 1.7-.15.655-.149 1.307-.286 1.953-.421 1.87-.393 3.697-.777 5.438-1.41a.766.766 0 01.979.463zm-1.645 15.034a.766.766 0 01.979.464c.161.442.312.94.38 1.46.008.064.022.145.041.254l.011.07c.024.136.05.3.07.466.02.164.035.352.029.537-.006.176-.032.41-.135.635a.92.92 0 01-.428.438 1.206 1.206 0 01-.367.113 2.43 2.43 0 01-.557.006 5.848 5.848 0 01-.444-.06l-.135-.024-.018-.003-.053-.01-.502-.06c-.743-.084-1.576-.18-2.36-.423a.778.778 0 01-.513-.962.756.756 0 01.949-.51c.636.197 1.291.273 2.021.358.189.022.383.044.583.07.041.005.092.014.125.02l.025.005.12.02.143.023c.002 0 .003-.001.003-.003a9.04 9.04 0 00-.068-.446 8.109 8.109 0 01-.052-.326 5.397 5.397 0 00-.299-1.127.767.767 0 01.452-.985zM42.718 3.416c.012-.197.256-.226.319-.038a8.099 8.099 0 01.144.48.834.834 0 01.009.039.77.77 0 00.863.659.762.762 0 00.666-.852c-.027-.204-.123-.518-.219-.803a17.563 17.563 0 00-.378-1.018 9.779 9.779 0 00-.424-.929 2.202 2.202 0 00-.25-.378.973.973 0 00-.305-.242.809.809 0 00-.893.11c-.625.536-.862 1.3-.971 1.943-.08.467-.104.981-.124 1.39-.007.144-.013.274-.021.385-.03.42.291.784.716.814a.766.766 0 00.822-.706c.012-.174.02-.344.028-.511.006-.116.011-.23.018-.343zm10.988 2.539c.122-.045.238.074.206.2-.085.335-.169.706-.249 1.063-.056.253-.112.5-.165.719a.762.762 0 00.571.918.77.77 0 00.93-.562 44.3 44.3 0 00.181-.795c.071-.318.14-.625.224-.958a12.723 12.723 0 01.094-.242l.01-.024c.057-.142.13-.324.197-.508.069-.188.142-.41.183-.614.02-.102.039-.23.035-.364a.963.963 0 00-.198-.577.886.886 0 00-.642-.327 1.287 1.287 0 00-.36.032 3.093 3.093 0 00-.506.169 8.635 8.635 0 00-.563.262c-.59.224-1.178.424-1.783.63l-.47.16a.758.758 0 00-.473.97c.14.397.58.607.982.469l.454-.155c.442-.15.892-.304 1.342-.466zm-10.85 1.209c.425.03.746.394.716.813-.137 1.965-.562 3.941-.97 5.838-.135.625-.268 1.242-.388 1.847-.13.659-.395 1.302-.626 1.862l-.057.14c-.146.356.233.566.488.276.43-.49.86-.984 1.291-1.48 1.282-1.47 2.571-2.95 3.876-4.374a60.089 60.089 0 003.023-3.569.777.777 0 011.082-.136c.337.257.4.736.14 1.068a61.667 61.667 0 01-3.101 3.66 225.686 225.686 0 00-3.821 4.313c-.425.487-.85.976-1.279 1.465-.104.12.021.297.17.24l.025-.009c.567-.214 1.16-.439 1.771-.627.648-.2 1.32-.343 1.952-.477a81.7 81.7 0 00.381-.081c.758-.165 1.457-.335 2.109-.602a18.43 18.43 0 012.378-.787c.857-.217 1.794-.375 2.596-.319.424.03.745.394.716.814a.766.766 0 01-.823.705c-.554-.038-1.302.072-2.104.275-.788.2-1.57.473-2.17.72-.787.321-1.602.515-2.369.681l-.408.087c-.63.135-1.221.26-1.796.438-.565.174-1.12.383-1.701.603l-.003.001c-.575.218-1.177.446-1.798.636-.223.068-.75.228-1.223.355l-.002.001a.718.718 0 00-.303.166l-.186.172c-.231.213-.459.423-.68.64-.574.565-.977 1.066-1.129 1.527a.771.771 0 01-.971.488.76.76 0 01-.495-.96c.274-.835.918-1.556 1.506-2.135.12-.118.243-.235.365-.35a.203.203 0 00.06-.147c.005-.421.107-.786.192-1.07l.034-.114a3.78 3.78 0 00.154-.624c.093-.733.374-1.436.623-2.044l.045-.11c.245-.594.454-1.105.555-1.614.13-.658.27-1.31.41-1.955.401-1.868.794-3.693.923-5.542a.766.766 0 01.822-.705zm13.065 7.617a.766.766 0 01.822-.705c.469.033.986.098 1.488.247.063.019.142.039.25.066l.068.018c.134.034.293.075.453.125.159.05.336.112.503.193.158.077.362.196.526.381.17.194.218.413.226.569a1.21 1.21 0 01-.047.382 2.429 2.429 0 01-.221.51 5.721 5.721 0 01-.312.495l-.01.016-.03.044-.259.434c-.38.645-.806 1.367-1.347 1.985a.777.777 0 01-1.087.076.755.755 0 01-.08-1.074c.438-.5.774-1.068 1.149-1.7.097-.165.196-.332.3-.505.022-.035.05-.078.07-.106l.014-.02a10.94 10.94 0 00.146-.225 7.81 7.81 0 00-.378-.106l-.058-.015a10.255 10.255 0 01-.319-.085 5.405 5.405 0 00-1.151-.186.766.766 0 01-.716-.814zM206.803 6.2c.133-.146.341-.014.272.17a8.293 8.293 0 01-.19.465.512.512 0 01-.019.035.77.77 0 00.257 1.056.761.761 0 001.053-.243c.108-.176.231-.48.336-.762.115-.308.239-.675.347-1.029.106-.348.202-.706.255-.989.024-.131.049-.296.044-.45a.98.98 0 00-.086-.381.81.81 0 00-.763-.477c-.823.024-1.488.468-1.977.9-.356.313-.699.696-.972 1.002a17.42 17.42 0 01-.258.286.766.766 0 00.044 1.083.766.766 0 001.083-.031c.12-.128.233-.255.344-.38l.23-.255zm6.941 8.888c.123.042.138.208.035.285-.278.206-.576.443-.863.67-.204.16-.401.317-.581.454a.763.763 0 00-.134 1.073.77.77 0 001.076.148c.232-.178.44-.343.642-.503a29.806 29.806 0 01.795-.615c.022-.013.082-.048.207-.117l.022-.013c.135-.074.306-.17.473-.27.172-.104.368-.23.529-.363.079-.066.175-.154.256-.26a.963.963 0 00.21-.574.886.886 0 00-.293-.658 1.305 1.305 0 00-.3-.202 3.12 3.12 0 00-.5-.187 8.492 8.492 0 00-.602-.15c-.6-.198-1.183-.412-1.783-.633a649.24 649.24 0 00-.465-.17.758.758 0 00-.978.455.774.774 0 00.468.982l.449.166c.439.161.885.325 1.337.482zM204.552 9.2c.311.29.331.775.044 1.082-1.343 1.44-2.918 2.71-4.428 3.926-.498.401-.99.797-1.463 1.191-.517.43-1.127.764-1.659 1.054l-.133.072c-.337.185-.175.588.206.522.643-.11 1.288-.224 1.934-.337a238.5 238.5 0 015.765-.96 59.987 59.987 0 004.596-.871.777.777 0 01.926.575.755.755 0 01-.564.918 61.606 61.606 0 01-4.712.893c-1.921.287-3.797.616-5.684.947-.637.111-1.274.223-1.916.333-.156.027-.17.244-.019.294l.025.008c.576.19 1.178.39 1.771.628.63.252 1.242.564 1.818.858l.347.176c.692.35 1.343.657 2.017.86a18.6 18.6 0 012.344.884c.803.371 1.63.839 2.217 1.387.312.29.332.775.045 1.082a.766.766 0 01-1.083.031c-.407-.38-1.057-.764-1.808-1.11a16.912 16.912 0 00-2.14-.808c-.814-.244-1.569-.607-2.269-.96l-.373-.19c-.574-.292-1.112-.566-1.671-.79-.548-.22-1.111-.406-1.701-.601l-.003-.001a29.36 29.36 0 01-1.797-.638 39.405 39.405 0 01-1.177-.494.719.719 0 00-.34-.061l-.253.016c-.314.02-.622.04-.93.07-.802.078-1.431.213-1.839.476a.772.772 0 01-1.062-.232.761.761 0 01.22-1.058c.738-.476 1.693-.631 2.514-.71.167-.017.337-.03.503-.043a.202.202 0 00.14-.076c.269-.325.577-.544.823-.712l.098-.067c.212-.144.367-.25.512-.388.533-.511 1.194-.88 1.771-1.196l.103-.057c.564-.308 1.049-.573 1.448-.905.516-.43 1.034-.847 1.548-1.262 1.488-1.199 2.942-2.37 4.205-3.725a.767.767 0 011.084-.031zm5.359 14.142a.766.766 0 011.083-.031c.343.32.704.696 1 1.128.037.054.086.12.152.208l.043.057c.082.11.18.244.273.383.092.138.191.298.27.466.074.16.158.38.168.627a.92.92 0 01-.182.584 1.22 1.22 0 01-.277.268 2.42 2.42 0 01-.493.257 5.767 5.767 0 01-.554.189l-.017.005-.052.016c-.153.055-.311.114-.474.175-.701.261-1.486.554-2.296.694a.777.777 0 01-.893-.625.755.755 0 01.614-.885c.656-.113 1.274-.343 1.963-.599.179-.066.362-.134.551-.202.039-.014.088-.029.121-.039l.024-.007a9.085 9.085 0 00.254-.08c.002-.001.003-.003.002-.005a8.807 8.807 0 00-.264-.366 7.656 7.656 0 01-.194-.267 5.404 5.404 0 00-.778-.869.766.766 0 01-.044-1.082zM137.489 6.824c.192-.046.29.18.129.294a8.548 8.548 0 01-.313.213 2.564 2.564 0 01-.14.083.771.771 0 00-.381 1.017.762.762 0 001.008.391c.188-.085.46-.267.706-.441.268-.19.577-.425.865-.657.283-.228.564-.47.766-.674.094-.095.208-.218.29-.349a.964.964 0 00.143-.363.812.812 0 00-.363-.823c-.694-.443-1.494-.449-2.141-.367-.471.06-.97.184-1.367.284-.139.035-.266.066-.375.091a.766.766 0 00-.571.92.766.766 0 00.913.584c.171-.04.336-.08.498-.121.112-.028.223-.056.333-.082zm.749 11.252c.077.104-.003.25-.132.255-.346.015-.726.043-1.09.07-.259.019-.51.037-.736.05a.763.763 0 00-.714.812.77.77 0 00.807.726c.292-.016.556-.036.814-.055.328-.024.644-.048.992-.063h.011l.238.02.025.003c.153.013.348.03.543.042.2.01.433.016.641-.004.103-.01.231-.029.358-.07a.964.964 0 00.496-.358.885.885 0 00.127-.708 1.297 1.297 0 00-.134-.337 3.08 3.08 0 00-.309-.434 8.375 8.375 0 00-.413-.464c-.386-.5-.747-1.005-1.12-1.524a67.52 67.52 0 00-.289-.403.757.757 0 00-1.064-.173.775.775 0 00-.166 1.076l.28.39c.272.38.549.765.835 1.149zM133.942 8.04a.767.767 0 01-.572.92c-1.921.438-3.936.602-5.869.76-.637.052-1.266.104-1.88.164-.669.065-1.36-.002-1.964-.06l-.15-.015c-.383-.037-.475.387-.123.547.594.27 1.191.538 1.789.808 1.779.802 3.568 1.608 5.309 2.444a59.27 59.27 0 004.291 1.862.776.776 0 01.443.996.755.755 0 01-.982.443 61.552 61.552 0 01-4.4-1.91 230.09 230.09 0 00-5.234-2.41c-.589-.265-1.18-.53-1.772-.8-.145-.065-.278.106-.181.233l.016.02c.369.481.755.984 1.113 1.514.378.563.709 1.165 1.021 1.731l.188.341c.376.678.742 1.299 1.185 1.845.447.55.979 1.279 1.442 2.049.456.758.878 1.609 1.056 2.392a.766.766 0 01-.571.92.767.767 0 01-.914-.582c-.123-.542-.445-1.226-.871-1.935a16.97 16.97 0 00-1.317-1.87c-.536-.66-.957-1.383-1.338-2.07a510.03 510.03 0 01-.201-.365c-.311-.565-.602-1.094-.939-1.593-.329-.49-.691-.96-1.069-1.454l-.002-.002a28.867 28.867 0 01-1.823-2.605l-.001-.002a.719.719 0 00-.247-.242l-.218-.128c-.271-.16-.538-.317-.809-.465-.707-.387-1.304-.628-1.789-.64a.77.77 0 01-.747-.788.76.76 0 01.775-.752c.879.021 1.755.43 2.479.825.148.08.296.164.44.248.048.028.106.03.159.015.405-.118.783-.126 1.081-.126h.118c.257 0 .444 0 .642-.034.728-.123 1.483-.057 2.136.006l.118.01c.64.063 1.19.116 1.706.065.668-.065 1.332-.12 1.99-.174 1.905-.155 3.765-.308 5.572-.719a.767.767 0 01.914.583zm-3.513 14.71a.766.766 0 01.913.583c.104.458.192.972.194 1.495 0 .066.004.147.009.258a15.872 15.872 0 01.014.542c-.001.165-.01.353-.039.536a1.67 1.67 0 01-.213.614.921.921 0 01-.479.38c-.143.052-.28.064-.379.066-.199.005-.4-.03-.553-.064a5.805 5.805 0 01-.433-.114l-.131-.04-.018-.006-.051-.016-.49-.122c-.727-.177-1.542-.377-2.289-.716a.777.777 0 01-.388-1.018.755.755 0 011.005-.387c.606.275 1.247.432 1.96.607.185.046.375.092.57.142.04.01.089.026.121.036l.024.008c.036.01.074.023.116.036l.14.04c.002 0 .003 0 .003-.003a7.533 7.533 0 00-.012-.45c-.005-.11-.01-.23-.011-.33a5.363 5.363 0 00-.155-1.157.767.767 0 01.572-.92zm28.003-19.333c.011-.197.256-.225.318-.038.048.14.086.264.114.362l.031.118.008.039a.77.77 0 00.863.66.762.762 0 00.666-.852c-.027-.205-.122-.518-.218-.804a18.413 18.413 0 00-.378-1.018 9.83 9.83 0 00-.424-.929 2.195 2.195 0 00-.25-.378.967.967 0 00-.306-.242.83.83 0 00-.405-.084.807.807 0 00-.488.194c-.625.536-.862 1.3-.971 1.943-.079.468-.104.981-.124 1.391-.007.143-.013.273-.021.385a.766.766 0 00.716.813.766.766 0 00.822-.706c.013-.174.021-.344.029-.51.005-.116.011-.23.018-.344zm10.987 2.539c.122-.044.239.075.207.2-.086.335-.169.707-.249 1.063-.057.254-.112.5-.165.72a.762.762 0 00.571.917.769.769 0 00.928-.562c.069-.284.127-.543.183-.795.071-.317.139-.624.224-.957a.157.157 0 01.007-.021c.009-.024.033-.089.087-.222l.009-.023c.058-.143.131-.325.198-.508.068-.189.141-.41.182-.615.02-.101.039-.23.036-.363a.964.964 0 00-.199-.578.885.885 0 00-.641-.327 1.29 1.29 0 00-.361.032c-.178.039-.362.11-.505.17a8.129 8.129 0 00-.564.261c-.59.224-1.178.424-1.783.63l-.469.16a.757.757 0 00-.473.97c.14.397.58.607.982.47l.453-.156c.443-.15.892-.303 1.342-.466zM158.57 7.165c.425.03.745.394.716.813-.138 1.965-.563 3.942-.971 5.838-.135.625-.267 1.242-.387 1.847-.131.66-.396 1.302-.627 1.862a16.8 16.8 0 01-.057.14c-.146.356.234.567.488.276.43-.49.86-.984 1.292-1.479 1.281-1.47 2.571-2.95 3.875-4.374a60.212 60.212 0 003.024-3.57.777.777 0 011.081-.136c.337.258.4.736.14 1.069a61.55 61.55 0 01-3.101 3.66 231.729 231.729 0 00-3.821 4.312c-.424.488-.85.976-1.279 1.465-.104.12.021.297.171.24l.024-.009c.567-.214 1.16-.439 1.771-.627.649-.2 1.321-.342 1.953-.477l.381-.081c.757-.164 1.457-.335 2.108-.601a18.43 18.43 0 012.378-.788c.858-.217 1.795-.374 2.596-.318.425.03.745.393.716.813a.766.766 0 01-.822.706c-.555-.04-1.303.071-2.104.274-.789.2-1.571.474-2.171.72-.787.322-1.601.515-2.369.681l-.408.088c-.63.134-1.221.26-1.796.437-.564.174-1.119.384-1.701.604h-.003c-.575.218-1.177.446-1.798.636-.223.068-.749.229-1.222.356h-.003a.716.716 0 00-.302.167l-.187.172c-.231.213-.459.422-.679.64-.574.564-.978 1.066-1.13 1.527a.771.771 0 01-.971.487.761.761 0 01-.495-.96c.275-.835.919-1.556 1.507-2.134.12-.118.243-.235.365-.35a.202.202 0 00.06-.147c.004-.422.106-.786.192-1.072l.034-.113c.074-.246.128-.425.153-.624.093-.733.375-1.436.624-2.043l.045-.11c.244-.595.454-1.106.555-1.614.13-.659.27-1.31.409-1.955.402-1.869.794-3.694.924-5.542a.766.766 0 01.822-.706zm13.064 7.618a.767.767 0 01.823-.706c.468.033.985.098 1.487.247.063.019.142.039.25.066l.068.018c.134.034.294.076.454.126.158.049.335.111.502.192.159.077.363.196.526.381a.922.922 0 01.226.57c.007.15-.02.285-.047.381a2.4 2.4 0 01-.221.51 5.41 5.41 0 01-.235.382l-.077.114-.01.015c-.028.04-.032.049-.03.044l-.258.435c-.38.644-.807 1.366-1.348 1.984a.777.777 0 01-1.087.076.756.756 0 01-.08-1.074c.439-.5.775-1.068 1.149-1.7.097-.164.196-.332.301-.504.021-.036.05-.078.069-.106l.014-.021.068-.101a4.994 4.994 0 00.079-.124 7.816 7.816 0 00-.379-.106l-.057-.015c-.107-.027-.224-.056-.319-.085a5.409 5.409 0 00-1.152-.186.767.767 0 01-.716-.813zm104.411-6.991c-.041-.193.186-.286.297-.122.083.123.153.231.206.318.026.043.047.079.061.106.012.02.017.032.019.035a.77.77 0 001.008.405.762.762 0 00.414-.999c-.081-.19-.257-.466-.425-.716a18.315 18.315 0 00-.637-.88 9.675 9.675 0 00-.657-.781 2.162 2.162 0 00-.341-.298.975.975 0 00-.36-.151.809.809 0 00-.831.344c-.459.684-.483 1.483-.416 2.132.048.472.162.973.252 1.373.032.14.061.267.083.377.084.412.49.677.907.592a.766.766 0 00.604-.9c-.035-.171-.073-.337-.109-.5a24.972 24.972 0 01-.075-.335zm11.266-.49c.107-.075.25.008.253.137.007.346.026.727.044 1.091.013.26.026.512.033.737.014.42.371.749.796.733a.77.77 0 00.745-.79c-.01-.293-.024-.557-.037-.815a30.625 30.625 0 01-.04-.994l.001-.01c.002-.025.009-.095.025-.237l.003-.025c.017-.153.039-.348.054-.543.015-.2.027-.432.011-.64a1.63 1.63 0 00-.062-.36.967.967 0 00-.346-.504.886.886 0 00-.705-.144 1.29 1.29 0 00-.34.127c-.16.085-.319.202-.441.298a8.331 8.331 0 00-.343.288c-.12.105-.14.122-.13.115-.509.374-1.022.724-1.55 1.084l-.409.28a.758.758 0 00-.197 1.06.774.774 0 001.071.19l.396-.27c.386-.263.778-.531 1.168-.808zm-10.131 4.064a.766.766 0 01.907.593c.393 1.93.511 3.948.625 5.885.037.638.074 1.268.12 1.883.05.67-.033 1.36-.106 1.962l-.018.15c-.045.382.377.483.544.136l.85-1.77a239.5 239.5 0 012.565-5.252 59.877 59.877 0 001.96-4.247.777.777 0 011.006-.42.757.757 0 01.42.992 61.53 61.53 0 01-2.01 4.355c-.881 1.73-1.703 3.449-2.53 5.177a555.57 555.57 0 01-.84 1.753c-.069.143.099.28.228.187l.021-.016a30.047 30.047 0 011.539-1.078c.572-.365 1.181-.682 1.754-.98l.345-.181c.687-.36 1.315-.712 1.872-1.143.559-.434 1.301-.95 2.081-1.394.768-.439 1.629-.84 2.416-1a.766.766 0 01.907.591.766.766 0 01-.603.9c-.545.111-1.236.417-1.955.827-.706.403-1.387.876-1.899 1.273-.672.521-1.405.925-2.1 1.29l-.37.194c-.572.297-1.107.576-1.614.9-.498.32-.976.67-1.478 1.037l-.002.002c-.496.363-1.016.743-1.563 1.092-.197.126-.662.421-1.083.67l-.002.001a.72.72 0 00-.248.242l-.133.215c-.166.267-.33.53-.484.798-.402.698-.657 1.289-.68 1.774a.772.772 0 01-.806.729.761.761 0 01-.734-.793c.042-.878.47-1.744.882-2.46.084-.145.171-.29.258-.434a.203.203 0 00.019-.158c-.109-.407-.108-.786-.102-1.083l.003-.118a3.74 3.74 0 00-.019-.643c-.106-.731-.023-1.484.055-2.136l.014-.117c.076-.638.142-1.187.103-1.704-.05-.67-.089-1.334-.128-1.994-.112-1.907-.221-3.771-.591-5.587a.767.767 0 01.604-.9zm14.625 3.85a.766.766 0 01.604-.9c.46-.094.976-.17 1.499-.16.066.002.147 0 .258-.002l.071-.002c.138-.002.303-.005.471 0 .165.005.353.018.536.052.172.031.401.091.608.226.216.142.321.34.37.488.047.144.057.28.057.38 0 .2-.04.4-.077.552-.039.16-.086.314-.124.43l-.044.13-.006.017-.017.051c-.044.157-.088.32-.133.488-.194.722-.412 1.532-.768 2.272a.777.777 0 01-1.027.364.755.755 0 01-.364-1.013c.289-.6.461-1.237.652-1.947.05-.183.101-.372.155-.565a3.76 3.76 0 01.039-.12l.008-.025.039-.115.043-.139c.001-.001-.001-.003-.002-.003a7.896 7.896 0 00-.392 0l-.06.002c-.109.002-.23.005-.33.003a5.405 5.405 0 00-1.159.128.766.766 0 01-.907-.592z" fill="#2C2C2C"/></svg>