<svg width="49" height="44" fill="none" xmlns="http://www.w3.org/2000/svg"><path d="M30.075 16.818c.934-.352 1.878-.686 2.807-1.056 2.044-.807 4.093-1.615 6.14-2.462.725-.304 1.391-.734 2.097-1.086 1.22-.604 2.926-.756 3.856.5.579.781.408 1.615-.509 1.997-1.675.7-3.36 1.368-5.053 2.024-2.925 1.138-5.86 2.263-9.022 3.475.877.296 1.53.565 2.193.73 3.93.958 7.864 1.9 11.803 2.827.912.218 1.833.404 2.75.596.612.129 1.15.49 1.496 1.007.307.434.509.869.245 1.338-.263.47-.732.964-1.43.869a68.528 68.528 0 01-2.473-.435c-5.215-1.025-10.343-2.402-15.47-3.77-.325-.087-.653-.143-1.009-.221 1.987 1.998 3.948 3.909 5.847 5.902 1.496 1.555 2.93 3.171 4.386 4.778.293.343.56.706.803 1.086a1.067 1.067 0 01-.65 1.633 2.404 2.404 0 01-2.56-.647c-1.036-1.13-2.089-2.245-3.12-3.375-1.24-1.364-2.469-2.745-3.706-4.113a5.77 5.77 0 00-.486-.4c.122.604.21 1.017.289 1.43.474 2.445.939 4.894 1.439 7.353.153.743.438 1.46.657 2.172.093.295.224.586.299.868.241.969-.32 1.65-1.316 1.738-1.145.082-1.71-.074-2.272-1.473a35.778 35.778 0 01-1.755-6.515c-.5-2.52-1.06-5.043-1.596-7.532-.035-.165-.11-.325-.232-.686-.15.504-.26.812-.33 1.134L20.686 42.01c-.127.565-.263 1.095-.807 1.386-.693.369-2.228-.309-2.632-.982-.504-.843-.329-1.633-.118-2.48.513-2.085.995-4.179 1.486-6.268a1.52 1.52 0 00-.043-.868c-.439.52-.878 1.033-1.281 1.567-1.535 2.025-3.07 4.049-4.588 6.081a36.9 36.9 0 00-1.807 2.685c-.377.616-.877.973-1.575.842-.995-.178-1.86-.973-1.903-1.737a1.36 1.36 0 01.206-.773 129.115 129.115 0 012.72-4.074c1.144-1.647 2.324-3.267 3.508-4.896 1.434-2.002 2.886-3.991 4.307-5.998.317-.455.532-.972.632-1.516-1.04.435-2.088.839-3.11 1.303-2.32 1.06-4.627 2.15-6.943 3.219-.467.235-.95.435-1.447.6-1.597.464-2.632 0-3.448-1.508.386-.617 1.044-.869 1.667-1.16 2.85-1.377 5.737-2.797 8.65-4.1 1.394-.643 2.841-1.168 4.263-1.737.358-.129.683-.335.951-.604-.925-.152-1.846-.352-2.78-.434-2.505-.27-5.01-.56-7.518-.726-2.092-.139-4.193-.152-6.29-.139a2.487 2.487 0 01-1.644-.477 2.444 2.444 0 01-.935-1.42A3.817 3.817 0 000 17.251c2.724-1.06 5.526-.677 8.29-.616 1.833.039 3.662.221 5.491.386 1.163.154 2.335.238 3.509.252-.439-.382-.825-.773-1.259-1.138-2.46-2.102-4.943-4.2-7.443-6.268-.877-.712-1.71-1.403-1.991-2.55.276-.108.557-.234.85-.33a2.168 2.168 0 012.176.274c2.005 1.564 4.07 3.04 6.04 4.67 2.193 1.802 4.337 3.7 6.645 5.676-.132-.473-.211-.868-.338-1.207-1.228-3.475-2.496-6.92-3.68-10.424-.579-1.703-1-3.475-1.526-5.312L18.176 0c1.57.287 2.193 1.277 2.61 2.606.877 2.85 1.872 5.647 2.829 8.487.065.191.17.37.337.73.356-1.19.619-2.22.965-3.223.702-2.033 1.47-4.04 2.158-6.08A2.86 2.86 0 0128.632.93a1.77 1.77 0 012.114.382c.68.634.51 1.385.246 2.115-.439 1.203-.96 2.38-1.369 3.592-.631 1.868-1.197 3.761-1.802 5.673.123 0 .197.034.215 0 1.468-1.81 2.95-3.633 4.447-5.469l2.233-2.762c.11-.135.29-.244.337-.396.351-1.085 1.39-1.133 2.233-1.433.733-.26 1.263.252 1.754.712a1.233 1.233 0 01.193 1.538c-.222.462-.494.9-.811 1.303-2.588 3.188-5.193 6.363-7.79 9.556-.237.286-.438.6-.658.899l.101.178z" fill="#2C2C2C"/></svg>