<svg width="47" height="48" fill="none" xmlns="http://www.w3.org/2000/svg"><path d="M42.825 28.411c-.678-.714-1.816-1.483-3.412-2.307-.514-.375-3.282-1.393-8.306-3.052-.755-.306-1.216-.595-1.385-.869-.227-.21-.138-.536.267-.976l3.247-2.1c.651-.525 1.059-.94 1.222-1.245.706-1.251.927-2.604.663-4.06-.363-2.208-1.773-4.143-4.228-5.805-.843-.495-1.583-.76-2.222-.796-.412-.102-1.575.031-3.49.4-.477.023-.802-.101-.976-.375-.25-.397-.237-.988.04-1.771.385-1 1.075-2.13 2.069-3.39.104-.233.108-.382.012-.45-.135-.277-1.256-.455-3.364-.533-1.54-.084-5.614-.104-12.22-.058l.788 1.001.263.236c2.358 1.908 3.183 4.133 2.474 6.677a1.05 1.05 0 01-.862.535l-3.037-.125c-.597.048-1.191.25-1.785.603-1.654 1.2-2.462 2.438-2.425 3.713-.102.496.236 1.273 1.016 2.332.352.489 1.715 1.755 4.088 3.8.541.533.982 1.05 1.325 1.553.7 1.01.901 1.926.605 2.746-.36.817-1.09 1.508-2.189 2.072-.014.125-1.682.758-5.004 1.898A8.757 8.757 0 004.14 29.19c-1.649 1.304-2.682 3.04-3.098 5.21-.344 2.638 1.421 5.74 5.296 9.304 1.63 1.634 4.749 2.637 9.356 3.01 7.94.486 14.4.35 19.378-.41 3.65-.599 6.091-1.5 7.324-2.706 1.917-1.834 3.096-4.056 3.538-6.668.349-3.385-.688-6.226-3.11-8.52zM27.08 10.261c-.208-.056-.582-.11-1.124-.16.216-.127.569-.185 1.056-.17h.022c.306.015.605.066.898.152.547.169 1.011.341 1.393.518.474.182.931.522 1.372 1.021.303.35.503.843.601 1.477.029.238.033.48.012.728-.001.101-.054.472-.162 1.113a8.595 8.595 0 00-.187-1.698c-.127-.466-.305-.839-.534-1.118-.333-.415-1.131-.922-2.395-1.521a4.792 4.792 0 00-.952-.342zm13.422 28.126a5.827 5.827 0 01-.578 1.66c.248-.739.308-2.111.18-4.117a6.219 6.219 0 00-.782-2.667c-.69-1.023-1.64-2.047-2.852-3.071-.857-.734-2.237-1.591-4.14-2.57l-.132-.08c.998.204 1.66.386 1.989.544.75.305 1.513.71 2.292 1.217a12.37 12.37 0 013.443 3.352 6.615 6.615 0 01.8 3.166c-.01.984-.083 1.84-.22 2.566z" stroke="#2C2C2C" stroke-width="2" stroke-linejoin="round"/></svg>