<svg width="64" height="51" fill="none" xmlns="http://www.w3.org/2000/svg"><path fill-rule="evenodd" clip-rule="evenodd" d="M49.608.54c.654.435 1.561 1.14 2.39 1.809a81.816 81.816 0 012.613 2.188c.72.642 1.553 1.302 2.343 1.863.343.244.686.507 1.013.757l.206.158c.395.302.77.582 1.147.829.615.402 1.203.844 1.764 1.274l.267.205c.473.362.926.71 1.39 1.038a1 1 0 01.192.176 1 1 0 011.016 1.314c-.137.412-.367.784-.564 1.076-.097.143-.197.283-.286.407l-.012.016c-.096.133-.176.246-.247.351l-.506.77a59.283 59.283 0 01-1.244 1.85c-.174.252-.392.567-.617.862-.288.377-.66.822-1.07 1.122a1.806 1.806 0 00-.525.604c-.285.548-.6 1.13-1.016 1.692-.075.102-.16.19-.211.245l-.06.062-.08.084a1.597 1.597 0 00-.016.019 1 1 0 01-1.406.554.999.999 0 01-.702-.496 1.855 1.855 0 00-.212-.181 3.426 3.426 0 00-.455-.286c-.505-.253-.898-.613-1.202-.909-.09-.087-.17-.167-.244-.241a6.247 6.247 0 00-.556-.513l-.209-.162c-.538-.417-1.132-.877-1.67-1.416a11.504 11.504 0 01-.321-.343l-.068-.074a15.282 15.282 0 00-.066-.071 519.3 519.3 0 01-.07 3.538v.004c-.05 2.29-.099 4.567-.099 6.827 0 .72-.03 1.462-.06 2.18-.014.35-.029.694-.039 1.026-.032 1.046-.03 2.047.092 3.025.074.596.096 1.186.115 1.73l.002.055c.018.535.035 1.025.088 1.508.05.446.108.904.195 1.273.067.287.074.576.078.75l.001.049c.006.209.016.279.029.32.109.35.12.7.116.953a10.6 10.6 0 01-.012.343v.023a6.433 6.433 0 00-.01.276c0 .162.018.332.044.562l.003.024c.023.208.053.475.053.75 0 .325.04.66.091 1.068l.003.021c.048.384.104.836.104 1.302 0 .587.024 1.167.05 1.772v.009c.024.595.05 1.214.05 1.846a.998.998 0 01-.397.798 1 1 0 01-1 1h-2.133c-.615 0-1.235.087-1.938.189l-.03.004c-.672.096-1.423.204-2.193.204-1.282 0-2.561-.025-3.828-.05h-.003c-1.271-.024-2.53-.049-3.786-.049h-4.442c-.814 0-1.63.039-2.468.084l-.33.018c-.726.04-1.471.08-2.217.097-.376.008-.787.026-1.21.044a46.23 46.23 0 01-1.91.055c-.431 0-.868.044-1.363.094l-.023.003c-.472.048-1 .102-1.54.102H14.99a1 1 0 01-.806-1.592v-2.193c0-.278-.039-.575-.09-.955l-.003-.024a9.003 9.003 0 01-.105-1.207c0-.927-.071-1.837-.146-2.791l-.001-.016c-.074-.938-.151-1.921-.151-2.936 0-.453-.044-.906-.094-1.411l-.003-.029a15.714 15.714 0 01-.101-1.563v-3.06c0-.93-.048-1.846-.098-2.793l-.001-.014c-.05-.933-.1-1.896-.1-2.88 0-.882.028-1.782.055-2.66l.012-.39c.03-1.01.054-1.984.033-2.912-.01-.438-.071-.876-.142-1.385l-.007-.054a14.931 14.931 0 01-.14-1.314 2.92 2.92 0 01-.206.128s-.028.016-.087.083a3.725 3.725 0 00-.266.355c-.166.237-.461.657-.892.927-.188.118-.369.278-.633.511l-.024.021c-.248.22-.581.512-.975.731-.098.055-.186.142-.376.331l-.215.213c-.263.257-.73.702-1.385.833a.995.995 0 01-1.03-.427l-.069-.103c-.366-.55-.667-1.005-1.047-1.384-.302-.304-.546-.532-.833-.734a2.207 2.207 0 01-.436-.421 6.576 6.576 0 01-.22-.293l-.032-.044a2.313 2.313 0 00-.133-.173c-.408-.203-.656-.52-.804-.735-.064-.094-.126-.195-.171-.268-.01-.014-.017-.028-.025-.04a2.08 2.08 0 00-.112-.169 3.065 3.065 0 00-.305-.323l-.128-.12a13.264 13.264 0 01-.322-.308 13.711 13.711 0 01-1.017-1.183c-.189-.24-.369-.395-.628-.617-.115-.099-.246-.211-.4-.35a1 1 0 01-.22-1.203.995.995 0 01.232-.495c.133-.153.245-.3.375-.47.062-.08.127-.166.201-.26.212-.27.466-.577.79-.86.404-.352.697-.634.995-1.008.33-.413.72-.757 1.059-1.045l.221-.186c.263-.222.488-.41.695-.618.703-.704 1.417-1.393 2.282-2.02.264-.19.498-.423.771-.716l.136-.146a11.739 11.739 0 011.095-1.07c.404-.358.79-.699 1.16-1.06.096-.093.194-.195.306-.31l.027-.028c.1-.105.212-.22.326-.333.245-.243.543-.52.887-.74l.179-.114c.207-.132.407-.258.595-.406.218-.17.288-.272.303-.294a.998.998 0 01.236-.386 1 1 0 01.917-.6c.316 0 .65-.065 1.093-.162l.086-.02c.393-.086.883-.195 1.384-.214.849-.033 1.687.008 2.508.099 1.19.133 2.399.12 3.667.107.388-.004.782-.008 1.182-.008H33.1c.623 0 1.228.025 1.81.05h.005c.59.025 1.153.05 1.724.05.625 0 1.24-.036 1.876-.08l.379-.026a50.26 50.26 0 011.575-.093c.274-.01.55-.046.883-.09l.1-.012a9.57 9.57 0 011.221-.097c.308 0 .614-.022.964-.048h.011c.336-.025.712-.052 1.103-.052.517 0 1.036-.045 1.604-.095L46.379.2a19.517 19.517 0 011.745-.102c.048 0 .095.004.14.01a1 1 0 011.343.431zm-1.881 1.568c-.382.015-.774.05-1.196.087l-.014.001c-.286.025-.585.052-.893.072-.062.317-.127.688-.181.997l-.068.38a2.896 2.896 0 01-.296.807 8.484 8.484 0 01-.16.289l-.019.034c-.041.073-.074.13-.103.184-.048.09-.087.184-.152.343l-.007.018c-.062.152-.15.366-.277.582a3.967 3.967 0 00-.199.407l-.03.066a8.15 8.15 0 01-.24.513c-.219.417-.482.839-.742 1.214l-.132.192c-.477.69-.97 1.405-1.51 2.1-.19.246-.405.432-.564.566l-.116.096a3.635 3.635 0 00-.265.233 4.477 4.477 0 01-1.115.79c-.257.129-.485.267-.749.426a29.35 29.35 0 01-.464.277c-.447.26-.98.54-1.591.693-.341.085-.657.193-1.015.314-.132.045-.27.092-.417.14a8.86 8.86 0 01-1.47.372l-.033.024a1.136 1.136 0 01-.353.167 1.232 1.232 0 01-.329.043.589.589 0 00-.161.025 6.43 6.43 0 01-.312.069l-.013.002c-.476.096-1.105.222-1.718.222a4.7 4.7 0 00-.596.055l-.02.002c-.23.03-.529.07-.842.07h-.137c-.434.001-.99.003-1.522-.094a7.533 7.533 0 01-2.346-.826 5.812 5.812 0 00-.725-.324l-.156-.06c-.235-.09-.506-.193-.764-.311a1.217 1.217 0 00-.221-.064l-.178-.044-.006-.002c-.184-.046-.583-.147-.907-.425a5.924 5.924 0 01-.494-.49 2.064 2.064 0 00-.291-.27c-.53-.367-.863-.87-1.098-1.262-.086-.144-.158-.27-.222-.381a4.706 4.706 0 00-.376-.593c-.31-.394-.57-.83-.775-1.291-.11-.246-.156-.495-.182-.632l-.005-.024a1.304 1.304 0 00-.055-.235 12.47 12.47 0 00-.259-.543c-.095-.19-.202-.407-.299-.632-.195-.453-.378-1.002-.378-1.642 0-.038-.013-.138-.061-.313a7.945 7.945 0 00-.16-.49l-.005-.014c-.185-.53-.215-1.083-.218-1.523a13.646 13.646 0 00-.986.001c-.316.012-.644.084-1.089.182l-.028.007-.13.028v5.863c0 .286.023.594.055.94l.024.243c.026.27.054.563.072.85.048.742.041 1.614-.288 2.46a3.46 3.46 0 00-.035.29 11.63 11.63 0 00-.028.523c-.01.284-.007.55-.004.842.003.16.005.328.005.51v3.203c0 .45.058.903.13 1.424l.012.088c.067.48.142 1.022.155 1.579a57.31 57.31 0 01-.033 3.017l-.012.396c-.027.88-.054 1.746-.054 2.596 0 .927.048 1.842.098 2.788v.01c.05.935.1 1.9.1 2.889v3.059c0 .44.044.887.095 1.394l.001.013c.049.488.103 1.033.103 1.596 0 .93.07 1.84.146 2.795l.001.02c.074.937.15 1.917.15 2.928 0 .283.04.584.09.963l.005.03c.047.348.104.769.104 1.193V49h4.213c.43 0 .865-.044 1.36-.094l.02-.002a14.959 14.959 0 011.546-.103c.599 0 1.155-.024 1.734-.05.426-.019.864-.038 1.341-.049a66.57 66.57 0 002.15-.094l.335-.018a47.95 47.95 0 012.575-.087H35.9c1.276 0 2.553.025 3.818.05h.007c1.272.025 2.532.05 3.792.05.615 0 1.235-.088 1.938-.19l.03-.003c.672-.097 1.423-.205 2.193-.205h1.529a48.68 48.68 0 00-.048-1.57v-.01a43.772 43.772 0 01-.05-1.845c0-.33-.041-.668-.092-1.076l-.004-.027c-.047-.381-.103-.83-.103-1.288 0-.154-.018-.319-.043-.552l-.002-.015a6.877 6.877 0 01-.054-.77c0-.127.005-.257.01-.364v-.017c.006-.108.01-.198.011-.286a1.201 1.201 0 00-.026-.332c-.104-.334-.112-.659-.118-.853v-.007c-.007-.237-.01-.323-.027-.396-.117-.5-.186-1.066-.236-1.51a21.419 21.419 0 01-.098-1.636l-.003-.08a17.403 17.403 0 00-.1-1.55c-.142-1.133-.14-2.257-.107-3.335.012-.378.027-.744.042-1.104.029-.692.056-1.36.056-2.04 0-2.283.05-4.58.1-6.863v-.007c.05-2.29.099-4.568.099-6.83 0-.885-.1-1.802-.206-2.758l-.064-.592a20.842 20.842 0 00-.126-.925l-.066-.443a10.925 10.925 0 01-.133-1.542c0-1.075-.025-2.161-.05-3.262-.016-.733-.033-1.472-.042-2.212zM13.29 4.028v4.548c0 .385.031.77.065 1.127l.026.275c.026.263.05.508.066.757.042.667.01 1.189-.163 1.622a2.12 2.12 0 00-.115.453c-.02.13-.034.265-.044.387-.018.225-.026.45-.031.576l-.002.032c-.012.333-.008.691-.004 1.015.002.147.004.287.004.415v.907a.995.995 0 00-.37.38.763.763 0 01-.059.069 3.514 3.514 0 01-.254.24 3.72 3.72 0 01-.487.37c-.47.263-.78.702-.95.943a6.854 6.854 0 01-.026.036c-.226.32-.302.404-.358.44a6.65 6.65 0 00-.919.727c-.263.232-.445.383-.624.483-.245.137-.449.31-.604.455-.094.087-.206.2-.298.292a4.692 4.692 0 00-.022.023 7.829 7.829 0 00-.81-.973 8.258 8.258 0 00-1.083-.948.724.724 0 01-.047-.053 3.26 3.26 0 01-.136-.183l-.05-.068a3.877 3.877 0 00-.3-.375 1.79 1.79 0 00-.543-.407.781.781 0 01-.065-.085c-.034-.05-.065-.1-.109-.171l-.036-.059a3.941 3.941 0 00-.232-.341 4.988 4.988 0 00-.505-.545l-.184-.173a8.13 8.13 0 01-.231-.22c-.276-.277-.58-.65-.858-1.004a5.603 5.603 0 00-.637-.672 62.921 62.921 0 01.198-.256c.187-.24.35-.428.53-.586.447-.39.84-.761 1.243-1.267.201-.251.462-.49.79-.768l.18-.152c.271-.227.582-.488.858-.764.692-.693 1.31-1.286 2.039-1.812.428-.31.77-.663 1.06-.971l.164-.177a9.391 9.391 0 01.916-.894c.408-.361.836-.74 1.245-1.138.12-.117.239-.24.349-.354l.025-.026c.103-.108.2-.208.298-.305a3.64 3.64 0 01.56-.478l.125-.079c.116-.073.262-.165.415-.269zm6.238-1.374c.009.286.032.504.102.705l.01.029c.055.156.131.374.194.599.063.229.134.537.134.848 0 .254.07.517.214.85.073.169.157.339.255.536l.01.019c.091.185.195.394.29.612a2.936 2.936 0 01.186.659 3.3 3.3 0 00.047.21m-1.442-5.067c1.077.072 2.17.06 3.208.05.369-.004.73-.008 1.082-.008h3.064v.69c0 .058-.006.146-.018.288l-.005.068c-.01.117-.023.257-.03.395-.016.279-.036.8.16 1.245.104.232.274.5.57.687.307.194.616.215.826.202a2.77 2.77 0 00.404-.062l.026-.006a1.22 1.22 0 01.183-.029c.147-.007.277-.007.431-.008.139 0 .296-.001.499-.006.344-.01.793-.033 1.183-.145.538-.154 1.104-.148 1.825-.141.16.001.326.003.501.003.125 0 .402-.01.67-.053.125-.02.313-.057.495-.133.089-.038.235-.109.375-.238a1.09 1.09 0 00.352-.759c.026-.675.019-1.171.01-1.705l-.003-.224c.424.017.86.03 1.301.03.697 0 1.368-.04 2.012-.083l.398-.027c.508-.036.998-.07 1.498-.09.37-.014.737-.061 1.056-.103l.106-.014c.36-.046.666-.08.965-.08.313 0 .617-.018.9-.038-.038.206-.074.411-.105.587l-.06.34a1.063 1.063 0 01-.103.24c-.036.07-.076.14-.123.223l-.017.03c-.04.071-.087.153-.13.232-.101.189-.179.38-.234.515l-.015.039a2.432 2.432 0 01-.146.317 5.83 5.83 0 00-.307.618l-.034.076c-.068.155-.12.271-.177.38a9.881 9.881 0 01-.617 1.008l-.129.187c-.482.698-.943 1.367-1.448 2.016a1.792 1.792 0 01-.268.259l-.071.058c-.121.1-.29.24-.441.39a2.497 2.497 0 01-.596.416c-.327.164-.672.372-.974.554l-.347.208c-.404.234-.741.399-1.073.482-.428.107-.855.252-1.233.38-.118.04-.231.08-.338.114-.479.158-.898.274-1.325.317-.094.01-.197.03-.304.067a1.188 1.188 0 00-.293.152 5.118 5.118 0 00-.44.088l-.063.015c-.511.102-.952.185-1.34.185-.306 0-.602.039-.83.068l-.025.004a4.735 4.735 0 01-.602.055h-.118c-.47 0-.84 0-1.182-.062a5.535 5.535 0 01-1.732-.606 7.73 7.73 0 00-.975-.44l-.191-.074c-.23-.088-.425-.163-.619-.252a2.767 2.767 0 00-.432-.151 9.644 9.644 0 00-.236-.06l-.075-.018a1.747 1.747 0 01-.138-.039 4.912 4.912 0 01-.223-.226l-.088-.093a3.933 3.933 0 00-.598-.532c-.164-.113-.317-.303-.522-.646-.039-.065-.083-.143-.132-.228-.162-.284-.374-.654-.608-.953a4.112 4.112 0 01-.521-.868m2.667 3.536l.002.001h-.002zm9.693-8.571l-.235-.001h-4.217v.69a5.613 5.613 0 01-.032.537 9.403 9.403 0 00-.02.258l.075-.005c.153-.007.381-.009.593-.01.142-.002.277-.003.378-.006.336-.008.561-.032.685-.068.846-.242 1.765-.229 2.49-.219l.296.004c.002-.271-.002-.518-.007-.79a80.818 80.818 0 01-.006-.39zm.68 11.308l-.006.009.006-.008zM4.22 19.352l.003.003-.003-.003zm46.19-4.702l.003-.807c0-1.006-.116-2.053-.221-3.01l-.06-.552c-.037-.35-.093-.717-.145-1.06l-.056-.381a9.002 9.002 0 01-.113-1.258c0-1.098-.025-2.202-.05-3.296v-.012c-.009-.387-.018-.774-.025-1.158A80.181 80.181 0 0153.28 6.03c.778.694 1.67 1.4 2.515 2 .312.222.62.457.945.707l.219.167c.4.305.824.624 1.266.913.548.359 1.085.762 1.644 1.19l.258.197c.471.362.962.738 1.46 1.09l.007.005-.125.176-.006.008c-.092.128-.194.27-.288.41-.185.28-.364.553-.54.823a55.16 55.16 0 01-1.033 1.542l-.178.256c-.169.244-.347.501-.541.755-.271.356-.499.603-.662.722-.45.33-.85.78-1.118 1.296-.249.479-.478.898-.749 1.285a5.4 5.4 0 00-.738-.459c-.214-.107-.425-.282-.702-.552l-.167-.166c-.225-.224-.506-.505-.8-.733l-.213-.166c-.55-.427-1.037-.805-1.48-1.248-.064-.065-.14-.15-.246-.264l-.085-.092a11.451 11.451 0 00-.486-.506 4.596 4.596 0 00-.613-.51 2.446 2.446 0 00-.412-.226z" fill="#2C2C2C"/></svg>