<svg width="54" height="49" fill="none" xmlns="http://www.w3.org/2000/svg"><path d="M50.687 4.816l.914-.404a.75.75 0 00-.006-.014l-.908.418zm-7.19-3.7l.186.983h.001l-.187-.983zM31.269 16.951l-.482.876a1 1 0 001.462-.676l-.98-.2zm-11.327-.419l-.999-.051a1 1 0 001.278 1.011l-.28-.96zM18.795 6.099l.894-.45a3.723 3.723 0 00-.007-.012l-.887.462zm-5.062-3.373l.084-.997h-.016l-.068.997zM6.518 7.344l-.828-.56-.002.002.83.558zM2.017 31.991l-.963.269.963-.27zm14.867 14.86l-.263.965a.945.945 0 00.018.005l.245-.97zm6.745.79l-.01-1h-.004l.014 1zm15.188-2.726l.338.941h.002l-.34-.94zm10.815-11.55l-.929-.37.93.37zm2.078-8.182l-.99-.146c0 .01-.002.02-.003.029l.993.117zm-36.836 1.621a1 1 0 00-1.748.971l1.748-.97zm-.395.198l.059.998-.059-.998zm-.124 1.811a1 1 0 10.632-1.897l-.632 1.897zm19.84-1.713a1 1 0 00-1.99-.2l1.99.2zm-1.134.805l-.707.707.707-.707zm.714-1.617a1 1 0 100 2v-2zm-10.849 5.856a1 1 0 10-1.988.221l1.988-.22zm-.03.542l.145-.99-.145.99zm1.911-.548l-.765-.644.765.644zm.884-2.907l-.991.128.991-.129zm-4.477 1.016l-.97-.242.97.242zm.718 3.103a1 1 0 100-2v2zm1.746-.508a1 1 0 10-1.958-.408l1.958.408zm-1.996 1.723l.856.517-.856-.517zm-1.55 2.577l-.867-.497.868.497zm-1.787 1.917a1 1 0 102 0h-2zm5.91-5.755a1 1 0 00-1.962.393l1.962-.393zm-.582.697l.727-.687-.727.687zm1.134 1.32l-.768.64.768-.64zm1.512 2.034l.858-.514-.858.514zm-.394 1.48a1 1 0 001.79-.894l-1.79.894zm-17.34-15.5a1 1 0 001.38 1.448l-1.38-1.448zm9.8.904l.776-.631-.777.63zm1.83 3.307l.964-.267-.964.267zm-.055 2.9a1 1 0 00.895-1.789l-.895 1.789zm4.65-1.56a1 1 0 001.72 1.02l-1.72-1.02zm2.005-1.098l.802.597-.802-.598zm1.416-1.88l.772.636-.771-.637zm4.045-3.12l.413.91-.413-.91zm3.802-.682l.014-1-.014 1zm1.785.578l-.47.883.47-.883zm.018.01l.47-.883-.47.883zm.82 1.684a1 1 0 101.291-1.527L38.7 24.378zm12.894-19.98a7.561 7.561 0 00-3.408-3.56l-.915 1.778a5.561 5.561 0 012.506 2.619l1.817-.837zM48.187.838a7.56 7.56 0 00-4.878-.704l.375 1.965a5.561 5.561 0 013.588.517l.915-1.778zM43.31.134c-3.407.647-6.192 2.346-8.362 5.15-2.15 2.778-3.668 6.6-4.659 11.468l1.96.399c.958-4.703 2.387-8.197 4.28-10.643 1.874-2.42 4.23-3.854 7.154-4.41L43.31.135zM31.751 16.075c-4.188-2.304-9.256-1.327-12.088-.503l.558 1.92c2.767-.804 7.133-1.554 10.566.335l.964-1.752zm-10.81.508a38.654 38.654 0 00-.259-6.647 26.86 26.86 0 00-.437-2.551c-.16-.696-.345-1.313-.556-1.735l-1.788.898c.1.198.243.621.394 1.282.146.64.287 1.443.403 2.358.232 1.83.359 4.07.245 6.293l1.998.102zM19.682 5.637a7.308 7.308 0 00-2.43-2.707l-1.11 1.664a5.309 5.309 0 011.766 1.966l1.774-.923zm-2.43-2.707a7.308 7.308 0 00-3.435-1.2l-.169 1.992c.892.076 1.75.376 2.495.872l1.109-1.664zm-3.45-1.202c-2.213-.152-5.236.814-8.112 5.055l1.656 1.122c2.55-3.762 4.94-4.276 6.318-4.182l.137-1.995zM5.687 6.786C.357 14.716-1.32 23.76 1.054 32.26l1.926-.538C.78 23.844 2.308 15.4 7.348 7.902l-1.66-1.116zM1.054 32.26C3.77 41.964 12.407 46.67 16.62 47.816l.525-1.93c-3.803-1.035-11.704-5.37-14.166-14.165l-1.926.54zm15.585 15.56a26.98 26.98 0 007.005.82l-.029-2a25.044 25.044 0 01-6.487-.758l-.49 1.939zm7 .82a47.199 47.199 0 0015.516-2.784l-.677-1.882a45.2 45.2 0 01-14.859 2.667l.02 2zm15.518-2.785c5.08-1.84 9.001-6.083 11.404-12.12l-1.858-.74c-2.246 5.644-5.81 9.38-10.227 10.98l.681 1.88zm11.404-12.119a33.326 33.326 0 002.142-8.435l-1.986-.235a31.33 31.33 0 01-2.014 7.93l1.858.74zM52.7 25.33c.074-.504.554-3.988.647-8.19.092-4.155-.188-9.203-1.746-12.727l-1.829.809c1.365 3.086 1.667 7.74 1.576 11.875a71.14 71.14 0 01-.627 7.941l1.979.292zm-39.574 2.446c.245.443.664.71 1.138.745l.146-1.995c.09.007.193.036.289.098a.53.53 0 01.175.181l-1.748.971zm1.138.745a1.54 1.54 0 00.866-.201c.21-.12.442-.314.59-.592.076-.143.156-.36.142-.625a1.124 1.124 0 00-.362-.767c-.371-.342-.846-.345-1.08-.331L14.539 28c.032-.001.008.004-.05-.009a.75.75 0 01-.344-.186.876.876 0 01-.28-.595c-.01-.2.05-.347.09-.421a.5.5 0 01.191-.211.463.463 0 01.265-.053l-.146 1.995zm.157-2.516a1.263 1.263 0 00-.752.292 1.195 1.195 0 00-.405.734c-.063.414.09.774.191.964l1.764-.943v.002l.003.006a.596.596 0 01.018.272.806.806 0 01-.275.488.74.74 0 01-.427.181l-.117-1.996zm-.966 1.99c.083.155.19.307.316.438.112.116.308.29.584.381l.632-1.897c.09.03.148.068.175.087a.36.36 0 01.052.043l.007.008-.002-.002-1.764.942zm18.75-1.093c.008-.087.03-.128-.004-.03-.017.045-.068.18-.103.291a1.99 1.99 0 00-.097.521c-.007.219.033.609.353.93l1.414-1.415a.76.76 0 01.228.592.161.161 0 01-.001.01c0-.001 0-.004.002-.007a2.454 2.454 0 01.04-.12l.047-.129c.016-.046.038-.108.057-.173.017-.06.042-.158.054-.271l-1.99-.2zm.15 1.711c.325.326.756.391.907.412.212.03.417.03.513.03v-2c-.045 0-.088 0-.131-.002a1.129 1.129 0 01-.104-.008l-.02-.004.02.007a.697.697 0 01.228.151l-1.414 1.414zm1.42.442c.883 0 1.38-.713 1.398-1.354.01-.32-.091-.68-.355-.968a1.396 1.396 0 00-1.043-.444v2a.608.608 0 01-.432-.205.628.628 0 01-.169-.44.613.613 0 01.6-.588v2zm-12.837 3.311c.097.868.862 1.135 1.132 1.206.171.046.336.067.45.08.157.017.178.017.23.024l.291-1.978a3.66 3.66 0 00-.166-.02l-.132-.014a1.255 1.255 0 01-.164-.026c-.036-.01.022-.001.105.065a.67.67 0 01.242.442l-1.988.221zm1.812 1.31c.857.126 1.98.109 2.823-.894l-1.53-1.287a.574.574 0 01-.333.21c-.147.035-.356.039-.669-.007l-.29 1.978zm2.823-.894c.407-.484.714-1.107.904-1.725.19-.616.29-1.31.206-1.954l-1.983.257c.036.284-.003.683-.134 1.109-.13.424-.326.79-.524 1.026l1.53 1.287zm1.11-3.68c-.131-1.013-.943-1.441-1.494-1.605-.553-.164-1.15-.17-1.473-.17v2c.324 0 .658.014.903.087.116.035.148.065.14.058a.212.212 0 01-.06-.112l1.984-.257zm-2.967-1.776c-1.637 0-3.066 1.054-3.473 2.68l1.94.485c.175-.699.775-1.165 1.533-1.165v-2zm-3.473 2.68a4.359 4.359 0 00-.065 1.701c.056.312.177.706.453 1.04.308.372.76.604 1.301.604v-2c.018 0 .065.005.123.033a.346.346 0 01.117.088c.029.035 0 .017-.026-.12a2.007 2.007 0 01-.019-.457c.01-.171.035-.317.057-.404l-1.94-.485zm1.477 2.43c-.035.167-.134.39-.312.69-.085.145-.178.29-.28.447-.097.15-.205.316-.302.477l1.712 1.033c.077-.127.165-.262.27-.424.1-.155.213-.33.321-.513.21-.353.445-.805.549-1.303l-1.958-.408zm-.894 1.614c-.504.836-1.056 1.715-1.561 2.596L21 37.64c.491-.857 1.008-1.677 1.538-2.557l-1.712-1.033zm-1.561 2.596c-.127.222-.352.598-.535.988-.172.365-.385.893-.385 1.426h2c0-.063.041-.25.194-.573.14-.298.31-.582.461-.847l-1.735-.994zm3.028-2.948c.078.388.31.65.421.766.064.067.128.126.166.161l.048.046.014.013.003.004h.001l1.454-1.373a2.516 2.516 0 00-.159-.154 2.06 2.06 0 01-.078-.075c-.014-.015-.003-.006.015.022a.58.58 0 01.076.197l-1.96.393zm.653.99c.37.393.707.811 1.092 1.274l1.538-1.279c-.357-.429-.75-.916-1.176-1.368l-1.454 1.374zm1.092 1.274c.545.655 1.03 1.254 1.424 1.909l1.715-1.03c-.482-.802-1.06-1.508-1.6-2.158l-1.539 1.279zm1.424 1.909c.068.114.134.248.21.417.07.151.161.364.253.548l1.79-.894c-.07-.14-.13-.279-.221-.48a6.107 6.107 0 00-.317-.62l-1.715 1.029zM9.964 24.784c1.042-.992 2.482-1.207 4.212-1.207v-2c-1.795 0-3.947.192-5.591 1.758l1.38 1.448zm4.212-1.207c1.36 0 2.721.417 3.432 1.292l1.553-1.261c-1.262-1.553-3.359-2.03-4.985-2.03v2zm3.432 1.292c.79.973 1.34 1.851 1.644 2.945l1.927-.535c-.406-1.463-1.138-2.587-2.018-3.671l-1.553 1.261zm1.644 2.945c.108.39.181.71.181.953h2c0-.55-.15-1.116-.254-1.488l-1.927.535zm.181.953c0 .142.017.378.053.596.018.108.048.253.098.395.024.07.065.172.132.278.057.093.193.284.444.41l.895-1.789a.917.917 0 01.357.32.53.53 0 01.058.117c.006.015 0 0-.01-.059a2.114 2.114 0 01-.027-.26v-.008h-2zm7.097 1.14c.299-.504.664-.955 1.087-1.522l-1.603-1.195c-.36.482-.835 1.073-1.204 1.697l1.72 1.02zm1.087-1.522c.497-.666.907-1.26 1.386-1.84L27.46 25.27c-.52.63-1.006 1.328-1.446 1.919l1.603 1.195zm1.386-1.84c1.019-1.236 2.237-2.19 3.686-2.847l-.825-1.822c-1.743.79-3.202 1.939-4.404 3.395l1.543 1.273zm3.686-2.847c1.057-.478 2.11-.61 3.375-.592l.028-2c-1.43-.02-2.806.127-4.228.77l.825 1.822zm3.375-.592c.406.005.75.153 1.329.46l.94-1.765c-.584-.31-1.307-.682-2.241-.695l-.028 2zm1.329.46l.018.01.94-1.765-.018-.01-.94 1.766zm.018.01c.531.283.936.503 1.29.802l1.291-1.527c-.542-.46-1.139-.773-1.641-1.04l-.94 1.765z" fill="#2C2C2C"/></svg>