<svg width="69" height="43" fill="none" xmlns="http://www.w3.org/2000/svg"><path d="M51.45 5.663l-.893-.45-.554 1.1 1.19.317.257-.967zm12.461 8.516l.86-.511-.004-.006-.004-.007-.852.524zm3.005 14.482l-.984-.178-.103.57.444.374.643-.765zm-.513 2.62l-.423-.905-.01.005-.011.005.444.896zm-2.419.655l-.09-.995h-.01l-.01.002.11.993zm-11.068-.072l-.11.994.014.001.014.001.082-.996zm-6.01-.51l.07-.997-.035-.003h-.035v1zm-.807.291l.499.867.027-.015.026-.018-.552-.834zm-4.104 2.475l-.499-.867-.011.007-.012.007.522.853zm-5.791 3.566l-.507-.862-.01.006-.01.006.527.85zm-3.665 2.11l-.423-.905-.017.007-.015.008.455.89zm-7.77 2.184l-.052-.999h-.003l.055.999zm-7.256-1.747l.478-.878-.002-.001-.476.88zm-4.985-2.547l.445-.896a1 1 0 00-.849-.019l.404.915zm-3.958 1.82l-.465-.886-.01.005-.008.005.483.875zm-5.13.654l-.863.507.015.026.017.025.83-.558zm-1.687-2.692l-.934.355.934-.355zm-.366-.8l-.94.339.94-.34zM1.145 35.5l1 .031v-.015l-1-.016zm.242-.62l.891.454-.891-.453zm.66-.687l-.691-.724-.007.007-.007.007.704.71zm6.45-4.367l.444.896.008-.004-.452-.892zm10.335-5.24l-.445-.896-.007.004.452.892zm1.026-1.383l.918.396.022-.05.016-.051-.956-.295zm5.424-9.607l-.766-.643-.006.008-.006.008.778.627zm3.372-3.857l-.677-.736-.006.005.683.731zM35.617 6.1l.241.97.009-.001-.25-.969zm6.011-1.237v-1h-.034l.034 1zm.953-.655l-.83-.558-.014.02-.012.02.856.518zm1.466-1.82l.705.71-.705-.71zm1.832-.873l-.098.995.049.005h.05v-1zm.44-.145l.445.895.075-.037.069-.05-.589-.808zm3.299.072l-.132.992.028.003.027.002.077-.997zm2.199 1.529l.75-.662-.005-.005-.745.667zm.073 2.11l.704.71.18-.178.073-.243-.957-.289zM20.315 23.056a1 1 0 10-.985 1.74l.985-1.74zm1.672 2.381l-.496.869.496-.869zm2.611 1.237l.394-.92-.394.92zm.04.017l.393-.92-.394.92zm4.616 1.815l.243-.97-.243.97zm5.984 1.51l-.27.963.27-.962zm11.24 1.608a1 1 0 000-2v2zM42.31 3.952a1 1 0 10-.419 1.955l.42-1.955zm1.568 1.722l-.292.956.292-.956zm1.807.38l-.141.99.141-.99zm6.568.043a1 1 0 00-.894-1.788l.894 1.788zm-4.773.747a1 1 0 00-2 0h2zm-1.008 16.623l.998.064-.998-.064zm-1.402 7.298a1 1 0 102 0h-2zM1 34.56a1 1 0 000 2v-2zm4.113 1.196l-.396.918.396-.918zm3.575.93l.36-.933-.36.933zm2.15.686l.413-.91-.413.91zm1.077.266l.229-.973-.23.973zm.54 1.08a1 1 0 100-2v2zM51.194 6.63c5.05 1.342 9.184 3.703 11.866 8.072l1.704-1.046c-3.036-4.947-7.697-7.535-13.056-8.959l-.514 1.933zm11.858 8.06c2.549 4.286 3.78 8.846 2.881 13.793l1.968.357c1.006-5.533-.4-10.58-3.13-15.172l-1.719 1.022zm3.222 14.737c.241.203.243.363.229.44-.018.097-.12.32-.522.509l.846 1.811c.844-.394 1.476-1.08 1.64-1.947.17-.888-.195-1.746-.906-2.344l-1.287 1.531zm-.314.959c-.603.3-1.358.49-2.065.555l.18 1.991c.907-.081 1.91-.326 2.774-.755l-.89-1.791zm-2.084.557c-1.956.215-3.897.357-5.828.357v2c2.027 0 4.045-.149 6.047-.37l-.22-1.987zm-5.828.357c-1.64 0-3.162-.277-5.048-.433l-.165 1.993c1.632.135 3.481.44 5.213.44v-2zm-5.021-.43c-2.001-.22-3.998-.368-6.05-.513l-.141 1.995c2.053.145 4.014.29 5.971.506l.22-1.988zm-6.12-.516c-.592 0-1.089.279-1.359.458l1.104 1.667c.07-.046.137-.082.193-.104.058-.023.077-.02.062-.02v-2zm-1.305.425c-.712.409-1.403.835-2.08 1.253-.68.42-1.344.83-2.025 1.22l.997 1.735a77.45 77.45 0 002.08-1.253c.68-.42 1.344-.83 2.025-1.222L45.6 30.78zm-4.128 2.488c-1.943 1.187-3.8 2.395-5.776 3.557l1.014 1.724c1.983-1.166 3.936-2.433 5.805-3.575l-1.043-1.706zm-5.796 3.57c-1.198.743-2.383 1.503-3.561 2.054l.846 1.812c1.314-.614 2.621-1.455 3.77-2.167l-1.055-1.7zm-3.593 2.07c-2.318 1.185-4.746 1.937-7.367 2.074l.104 1.998c2.95-.154 5.653-1.003 8.173-2.292l-.91-1.78zm-7.37 2.075c-2.422.133-4.584-.462-6.723-1.627l-.957 1.757c2.406 1.31 4.935 2.024 7.79 1.866l-.11-1.997zm-6.725-1.628c-1.631-.883-3.26-1.692-5.016-2.564l-.89 1.792c1.763.874 3.36 1.667 4.953 2.53l.953-1.758zm-5.865-2.583c-1.292.57-2.733 1.173-4.02 1.85l.931 1.77c1.207-.634 2.55-1.196 3.897-1.79l-.808-1.83zM8.087 38.63c-1.14.63-2.432.894-3.768.894v2c1.596 0 3.236-.317 4.734-1.143l-.966-1.751zm-3.768.894H4.31a.579.579 0 01-.157-.045l-.002-.001a.546.546 0 01.117.125l-1.66 1.115c.245.365.625.55.855.64.26.1.566.166.855.166v-2zm-.018.13c-.285-.486-.662-.974-.934-1.358-.296-.418-.529-.79-.68-1.184l-1.868.712c.242.637.595 1.175.916 1.628.345.486.614.827.842 1.215L4.3 39.654zm-1.613-2.542c-.083-.217-.17-.37-.218-.46a2.21 2.21 0 01-.143-.325l-1.88.68c.098.274.183.445.258.584.067.128.085.158.114.233l1.869-.712zm-.36-.785a4.09 4.09 0 01-.174-.55.971.971 0 01-.01-.246L.147 35.47c-.006.196-.01.41.043.685.048.248.135.515.257.853l1.881-.68zm-.183-.81c0-.013 0 .01-.008.05a.426.426 0 01-.026.081l.01-.018.033-.063c.03-.055.074-.133.124-.233l-1.783-.906c-.035.07-.065.124-.095.18-.026.047-.069.124-.105.202a1.583 1.583 0 00-.15.674l2 .032zm.133-.183a.295.295 0 01-.03.046l.031-.03c.061-.058.247-.224.472-.448l-1.41-1.419c-.214.213-.307.291-.44.418a1.857 1.857 0 00-.406.527l1.783.906zm.459-.418c1.81-1.729 3.917-3.058 6.204-4.194l-.889-1.792c-2.403 1.193-4.695 2.63-6.696 4.54l1.381 1.446zm6.212-4.198l5.168-2.62 5.167-2.62-.904-1.784-5.168 2.62-5.167 2.62.904 1.784zm10.328-5.236c.978-.486 1.323-1.473 1.5-1.883l-1.837-.792c-.125.29-.2.472-.302.634a.625.625 0 01-.25.25l.889 1.79zm1.537-1.984c1.048-3.401 2.945-6.418 5.247-9.274l-1.557-1.255c-2.39 2.966-4.45 6.208-5.601 9.94l1.91.589zm5.234-9.259c1.152-1.372 2.102-2.66 3.289-3.77L27.97 9.01c-1.305 1.219-2.407 2.696-3.455 3.944l1.532 1.286zm3.283-3.764c1.839-1.69 4.028-2.784 6.527-3.404l-.481-1.941c-2.778.69-5.28 1.925-7.4 3.873l1.354 1.472zm6.536-3.406c2.077-.535 3.813-1.139 5.795-1.207l-.068-1.999c-2.27.078-4.345.785-6.226 1.269l.499 1.937zm5.761-1.206c.972 0 1.528-.673 1.809-1.138l-1.712-1.034a1.1 1.1 0 01-.093.133.332.332 0 01-.05.051c-.005.005 0 0 .015-.006a.108.108 0 01.031-.006v2zm1.783-1.098c.42-.624.817-1.148 1.34-1.667l-1.409-1.42c-.65.646-1.13 1.286-1.591 1.972l1.66 1.115zm1.34-1.667c.49-.486.783-.612 1.03-.588l.197-1.99c-1.219-.121-2.099.626-2.636 1.159l1.41 1.42zm1.128-.583c.427 0 .796-.206.885-.25l-.89-1.791c-.018.01-.034.017-.049.024a2.401 2.401 0 01-.075.034c-.003.002.007-.002.027-.007a.486.486 0 01.102-.01v2zm1.029-.337c.25-.183.488-.215.881-.143.22.04.442.104.737.186.273.075.609.166.96.213L49.75.45a5.218 5.218 0 01-.689-.158c-.255-.07-.582-.166-.913-.226-.706-.128-1.567-.124-2.416.494l1.177 1.617zm2.633.261c.202.016.417.108.682.324.281.23.53.519.849.875l1.49-1.334c-.268-.3-.642-.738-1.076-1.091-.45-.366-1.041-.71-1.792-.768L49.54 2.44zm1.525 1.193c.034.037.073.097.063.29-.01.223-.082.493-.196.87l1.914.578c.106-.35.255-.845.28-1.348.027-.536-.08-1.168-.56-1.713l-1.5 1.323zm.12.74c-.098.097-.22.216-.33.356a2.8 2.8 0 00-.299.486l1.786.9c.059-.116.08-.143.087-.152a2.2 2.2 0 01.164-.171l-1.409-1.42zM19.33 24.797c.312.177.61.402.968.678.34.261.742.574 1.192.83l.992-1.736c-.31-.177-.604-.402-.965-.68-.342-.262-.748-.576-1.203-.833l-.985 1.74zm2.16 1.509c.879.502 1.852.918 2.713 1.287l.788-1.838c-.882-.378-1.747-.75-2.51-1.186l-.991 1.737zm2.713 1.287l.04.017.787-1.839-.039-.016-.788 1.838zm.04.017c1.393.597 3.107 1.45 4.768 1.866l.485-1.94c-1.454-.364-2.908-1.097-4.466-1.765l-.788 1.839zm4.768 1.866c2.023.505 3.998.953 5.955 1.503l.542-1.925c-1.994-.56-4.047-1.027-6.012-1.519l-.485 1.94zm5.955 1.503c.657.185 1.317.289 1.915.38.618.093 1.164.172 1.69.304l.485-1.94c-.638-.16-1.29-.253-1.875-.342-.604-.091-1.15-.18-1.673-.327l-.542 1.925zm3.605.684c1.414.353 2.842.326 4.163.228 1.38-.102 2.553-.267 3.742-.267v-2c-1.281 0-2.683.183-3.89.273-1.263.093-2.432.1-3.53-.175l-.485 1.94zm3.32-25.756c.171.037.359.12.652.268.256.13.634.33 1.042.455l.584-1.912c-.205-.063-.404-.167-.727-.33-.286-.144-.681-.34-1.133-.436l-.419 1.955zm1.694.723c.663.203 1.321.323 1.958.414l.283-1.98a10.91 10.91 0 01-1.657-.346l-.584 1.912zm1.958.414c1.134.162 2.23.253 3.391.253v-2c-1.051 0-2.052-.082-3.108-.233l-.283 1.98zm3.391.253c1.553 0 2.547-.814 3.318-1.2L51.36 4.31c-1.264.632-1.5.988-2.424.988v2zm-3.455-.453v10.244h2V6.844h-2zm0 10.244c0 2.197.128 4.245-.006 6.314l1.996.13c.139-2.148.01-4.416.01-6.444h-2zm-.006 6.314c-.153 2.382-.404 4.89-.404 7.363h2c0-2.388.24-4.755.4-7.234l-1.996-.128zM1 36.56c.344 0 .712-.021 1.06-.042.36-.021.705-.042 1.045-.049.702-.013 1.239.043 1.612.205l.793-1.836c-.787-.34-1.688-.382-2.443-.368-.388.007-.777.031-1.124.052-.358.02-.668.038-.943.038v2zm3.717.114c.673.29 1.386.43 1.988.546.638.123 1.156.22 1.624.4l.718-1.867c-.668-.257-1.38-.384-1.965-.497-.623-.12-1.128-.226-1.572-.418l-.793 1.836zm3.612.946c.398.152.832.265 1.178.36.375.102.67.19.917.302l.827-1.82c-.409-.187-.848-.31-1.215-.411-.395-.108-.708-.19-.989-.298L8.33 37.62zm2.095.662c.265.12.537.185.741.227.259.053.355.064.52.103l.459-1.947c-.179-.042-.461-.092-.575-.115a1.606 1.606 0 01-.318-.089l-.827 1.821zm1.262.33l.156.038c.043.01.106.026.176.039.159.028.298.03.438.03v-2c-.134 0-.12-.005-.091 0 .005 0 .002 0-.04-.01l-.181-.044-.458 1.947z" fill="#2C2C2C"/></svg>