<svg width="180" height="31" fill="none" xmlns="http://www.w3.org/2000/svg"><path d="M114.955 0c.803 0 1.455.639 1.455 1.426 0 1.208.024 2.42.048 3.646l.001.01c.024 1.219.049 2.454.049 3.688 0 .584.064 1.18.139 1.866l.003.03c.071.652.152 1.39.152 2.144 0 .335.007.698.015 1.079v.01c.017.865.036 1.814-.024 2.699-.019.276-.038.544-.058.807-.067.911-.129 1.758-.129 2.636 0 .469-.025.992-.048 1.477v.001c-.012.252-.023.494-.03.712-.024.701-.014 1.308.079 1.84.165.951.153 1.91.112 2.763-.016.317-.034.61-.051.888-.033.522-.062.99-.062 1.467 0 .788-.652 1.426-1.455 1.426-.804 0-1.456-.638-1.456-1.426 0-.562.039-1.181.074-1.756.016-.256.031-.504.042-.734.039-.802.038-1.51-.073-2.149-.143-.823-.144-1.661-.119-2.411.01-.31.024-.592.037-.86.02-.432.039-.825.039-1.238 0-.992.073-1.973.141-2.9l.001-.004v-.003l.002-.02v-.008l.001-.018c.017-.23.034-.457.049-.68.052-.763.037-1.496.02-2.29v-.012c-.008-.411-.018-.839-.018-1.296 0-.587-.063-1.185-.138-1.87l-.004-.035c-.071-.651-.152-1.387-.152-2.135 0-1.205-.024-2.415-.048-3.642v-.014a179.65 179.65 0 01-.05-3.688c0-.787.652-1.426 1.456-1.426z" fill="#2C2C2C"/><path fill-rule="evenodd" clip-rule="evenodd" d="M4.671 23.116A119.113 119.113 0 014.3 24.65a42.28 42.28 0 01-.464 1.78c-.132.45-.309.909-.46 1.297l-.12.315c-.182.483-.306.872-.358 1.243-.11.78-.844 1.326-1.64 1.218a1.43 1.43 0 01-1.243-1.608c.097-.69.314-1.317.51-1.84l.161-.42c.14-.361.257-.665.351-.99.154-.527.288-1.073.429-1.643l.096-.388c.083-.335.165-.684.25-1.042.294-1.24.614-2.589 1.065-3.844.552-1.537.995-2.91 1.212-4.398.29-1.993.72-3.994 1.438-5.95.108-.294.213-.567.313-.827.296-.766.544-1.411.676-2.109.22-1.163.59-2.304 1.194-3.368.369-.652.977-.97 1.45-1.128.477-.159.979-.212 1.396-.23a13 13 0 011.198.013l.31.016c.206.011.35.02.468.02l.091-.001c.294-.002.774-.005 1.224.104a2.678 2.678 0 011.605 1.096c.67.955 1.356 2.083 1.647 3.46.068.322.165.633.287 1.02l.049.156c.136.434.294.957.38 1.529.18 1.181.429 2.387.688 3.6.134.626.2 1.312.257 1.899.017.18.034.35.051.506.082.74.187 1.314.401 1.793a25.57 25.57 0 011.42 4.178c.088.354.215.71.371 1.133l.048.128c.139.373.299.804.428 1.25.417 1.444.641 2.868.808 4.28.02.181.06.364.116.621l.048.223c.07.33.161.785.161 1.252 0 .788-.651 1.427-1.455 1.427s-1.455-.639-1.455-1.427c0-.145-.03-.345-.1-.67l-.033-.152a10.055 10.055 0 01-.174-.946c-.158-1.347-.36-2.599-.716-3.83-.098-.34-.221-.67-.365-1.058l-.046-.124-.09-.245h-3.344c-.414 0-.883-.015-1.324-.03-.273-.008-.536-.016-.767-.02-.669-.013-1.265.001-1.807.082-.652.097-1.32.087-1.85.08l-.133-.003c-.604-.007-1.042-.001-1.422.075-.7.14-1.405.158-2.021.148-.246-.003-.451-.01-.639-.016l-.199.83zM9.377 5.965c.162-.86.415-1.637.783-2.334.11-.027.281-.052.525-.063.286-.012.599-.003.922.013l.213.011c.24.013.507.028.71.028h.101c.145 0 .247 0 .345.003.047.002.083.005.11.008.585.84.993 1.577 1.162 2.374.098.465.24.913.357 1.286l.046.148c.134.427.233.771.285 1.112.193 1.272.458 2.55.717 3.765.098.457.142.912.195 1.453.02.21.042.434.069.675.087.792.227 1.73.628 2.63.289.647.551 1.34.78 2.043h-2.492c-.39 0-.749-.012-1.134-.024-.28-.01-.573-.02-.903-.025-.721-.014-1.51-.003-2.297.113-.405.06-.843.055-1.438.047H8.99c-.577-.008-1.314-.015-2.045.132-.352.07-.76.094-1.244.092.533-1.499 1.02-3.023 1.268-4.718.273-1.873.665-3.67 1.295-5.386.071-.194.152-.402.237-.622.315-.814.692-1.788.876-2.761zM27.43 8.647c.804 0 1.456.638 1.456 1.426v2.872c.034-.036.063-.07.09-.104.363-.452.828-.776 1.14-.989l.223-.15c.241-.161.392-.262.524-.38l.133-.12c.423-.38 1.052-.947 1.785-1.306 3.379-1.656 7.256-.341 9.667 1.743 1.423 1.231 2.09 3.076 2.12 4.748.022 1.235.015 2.487.007 3.718v.004c-.003.607-.007 1.208-.007 1.8 0 1.213-.025 2.43-.05 3.629v.003c-.024 1.202-.048 2.384-.048 3.552 0 .788-.651 1.426-1.455 1.426s-1.455-.638-1.455-1.426c0-1.197.024-2.404.049-3.597v-.015c.025-1.203.049-2.392.049-3.572 0-.628.003-1.248.007-1.863v-.005c.008-1.21.015-2.4-.007-3.603-.019-1.043-.445-2.062-1.136-2.66-1.876-1.622-4.49-2.287-6.44-1.33-.348.17-.674.46-1.17.902l-.092.083a8.378 8.378 0 01-.912.674l-.135.09c-.31.21-.443.326-.508.407a6.539 6.539 0 01-.782.788l-.046.04c-.245.22-.374.343-.465.463a4.24 4.24 0 01-.495.535l-.051.048-.035.033a4.31 4.31 0 00-.152.146l-.009.014-.051.091-.008.014a6.428 6.428 0 01-.094.164c-.037.063-.1.168-.191.288v4.725c0 .684.065 1.366.14 2.127l.003.03c.072.731.15 1.538.15 2.369 0 .08.01.216.03.46l.002.03c.017.213.038.48.048.748.01.276.011.603-.027.92-.033.285-.115.74-.395 1.152a1.473 1.473 0 01-2.018.395 1.41 1.41 0 01-.48-1.85 3.367 3.367 0 00.012-.512c-.008-.21-.026-.425-.043-.652l-.003-.031a8.936 8.936 0 01-.036-.66c0-.683-.065-1.365-.14-2.126l-.003-.028c-.072-.732-.15-1.54-.15-2.372v-11.88c0-.788.65-1.426 1.454-1.426zm-1.1 19.735l.002-.01-.003.01zM51.592.927a2.899 2.899 0 011.416.644c.235.19.416.449.54.662.136.233.26.505.347.788.087.276.154.609.14.95-.014.34-.116.793-.486 1.154-.347.34-.797.514-1.179.604a4.34 4.34 0 01-1.237.097 4.135 4.135 0 01-1.222-.253c-.373-.144-.809-.391-1.098-.816-.266-.392-.44-.89-.27-1.442.027-.088.061-.17.1-.247a1.669 1.669 0 01.565-1.397c.27-.242.599-.395.792-.484l.017-.008a2.774 2.774 0 011.575-.252zm.266 2.827l.075-.046a.908.908 0 01.006.026l-.054.014-.01.002-.017.004zm74.077-2.184a2.896 2.896 0 00-1.416-.643 2.774 2.774 0 00-1.575.252l-.017.008c-.193.09-.523.242-.792.484a1.669 1.669 0 00-.565 1.397c-.039.077-.073.16-.1.247-.171.551.004 1.05.27 1.442.289.425.725.672 1.098.816.388.15.815.228 1.222.253a4.34 4.34 0 001.237-.097c.382-.09.832-.263 1.179-.604.37-.361.472-.815.486-1.153a2.805 2.805 0 00-.14-.951 3.874 3.874 0 00-.347-.788 2.43 2.43 0 00-.54-.662zm-1.075 2.138a.93.93 0 01-.075.046 2.175 2.175 0 00.081-.02l-.002-.01-.002-.007-.002-.01z" fill="#2C2C2C"/><path d="M50.953 9.223c.804 0 1.456.638 1.456 1.426 0 3.147.024 6.293.049 9.446v.001c.024 3.153.049 6.312.049 9.478 0 .787-.652 1.426-1.456 1.426-.803 0-1.455-.639-1.455-1.426 0-3.153-.024-6.302-.049-9.455v-.007c-.024-3.15-.049-6.304-.049-9.463 0-.788.652-1.426 1.455-1.426zm74.383 1.426c0-.788-.652-1.426-1.456-1.426-.803 0-1.455.638-1.455 1.426 0 3.157.025 6.31.049 9.46v.026c.025 3.148.049 6.29.049 9.438 0 .787.652 1.426 1.455 1.426.804 0 1.456-.639 1.456-1.426 0-3.166-.025-6.325-.049-9.477v-.001c-.025-3.154-.049-6.3-.049-9.447zM58.99 8.551c.803 0 1.454.639 1.454 1.426v1.818c1.162-1.099 2.593-1.968 4.322-2.283 1.264-.23 3.022-.295 4.431.107 1.202.344 1.911.889 2.636 1.6.548.536.862 1.183 1.058 1.773.15-.128.3-.25.446-.364.333-.263.614-.47.872-.66.344-.253.648-.477.979-.76 1.495-1.283 3.463-1.699 5.145-1.699 1.342 0 2.698.49 3.761 1.297 1.069.81 1.942 2.023 2.113 3.527.305 2.693.406 5.345.406 8.034 0 .697-.025 1.387-.05 2.048v.011a53.597 53.597 0 00-.048 1.955c0 .51-.058 1.002-.105 1.403l-.002.025c-.051.433-.09.768-.09 1.09 0 .788-.65 1.427-1.454 1.427-.804 0-1.455-.639-1.455-1.426 0-.5.056-.983.103-1.38l.004-.036c.05-.431.089-.771.089-1.103 0-.695.025-1.384.05-2.045v-.012c.024-.673.048-1.316.048-1.957 0-2.62-.099-5.162-.389-7.72-.065-.575-.412-1.139-1.001-1.586-.595-.45-1.334-.7-1.98-.7-1.269 0-2.448.323-3.229.993-.376.322-.864.686-1.296 1.007-.244.182-.47.35-.648.49-.594.468-1.024.883-1.3 1.333a1.432 1.432 0 01-.318.364 23.6 23.6 0 01.231 3.124c0 .41.005.838.01 1.276.01.913.022 1.869-.01 2.792a72.657 72.657 0 01-.14 2.43l-.001.012-.034.492c-.065.962-.119 1.89-.119 2.802 0 .788-.651 1.426-1.455 1.426-.803 0-1.455-.639-1.455-1.426 0-1.013.06-2.02.125-2.99l.035-.512v-.013c.055-.793.108-1.557.135-2.32.03-.859.02-1.696.01-2.568v-.016c-.005-.45-.011-.909-.011-1.385 0-1.334-.174-2.624-.397-4.048l-.05-.323v-.007c-.07-.452-.128-.841-.231-1.217-.124-.453-.27-.704-.41-.842-.515-.505-.816-.712-1.393-.877-.822-.235-2.085-.224-3.083-.042-2.012.367-3.653 2.059-4.835 4.198a1.478 1.478 0 01-.012.021c.02.77.076 1.548.136 2.365l.001.02c.073.993.15 2.044.15 3.113 0 .772-.052 1.521-.1 2.216l-.002.018c-.05.715-.095 1.373-.095 2.036v2.887c0 .788-.651 1.426-1.455 1.426-.803 0-1.455-.638-1.455-1.426v-2.887c0-.767.052-1.513.1-2.206l.002-.023c.049-.714.094-1.374.094-2.04 0-.959-.069-1.916-.143-2.93l-.002-.027c-.072-.99-.149-2.038-.149-3.101V9.977c0-.787.652-1.426 1.455-1.426zm94.841 1.426c0-.787-.651-1.426-1.455-1.426-.803 0-1.455.639-1.455 1.426v5.999c0 1.063.077 2.11.149 3.101l.002.026c.074 1.015.143 1.972.143 2.93 0 .667-.045 1.327-.094 2.04l-.002.024c-.048.693-.1 1.439-.1 2.206v2.887c0 .788.652 1.426 1.455 1.426.804 0 1.456-.638 1.456-1.426v-2.887c0-.663.045-1.321.094-2.036l.001-.018a31.26 31.26 0 00.101-2.216c0-1.07-.077-2.12-.15-3.113l-.001-.02a50.206 50.206 0 01-.136-2.365l.012-.021c1.182-2.14 2.823-3.831 4.835-4.198.998-.182 2.261-.193 3.083.042.577.165.878.372 1.393.877.141.138.286.389.41.842.103.376.162.765.23 1.217l.051.33c.224 1.424.397 2.714.397 4.048 0 .481.006.945.011 1.399.01.873.02 1.71-.01 2.57-.027.763-.08 1.527-.134 2.32l-.036.525c-.065.97-.125 1.977-.125 2.99 0 .788.651 1.426 1.455 1.426s1.455-.639 1.455-1.426c0-.913.054-1.84.119-2.802l.029-.427.005-.065v-.012c.055-.795.112-1.616.141-2.43.032-.923.021-1.878.01-2.792v-.003c-.005-.436-.01-.864-.01-1.273 0-1.079-.097-2.113-.231-3.124.123-.1.231-.222.318-.364.276-.45.706-.865 1.3-1.333a32.9 32.9 0 01.648-.49c.432-.322.92-.685 1.296-1.007.781-.67 1.96-.992 3.229-.992.646 0 1.385.248 1.98.7.589.446.936 1.01 1.001 1.586.29 2.558.389 5.1.389 7.72 0 .64-.024 1.283-.048 1.956l-.001.012c-.024.66-.049 1.35-.049 2.045 0 .332-.038.672-.089 1.103l-.004.035c-.047.398-.103.882-.103 1.38 0 .788.651 1.427 1.455 1.427.803 0 1.455-.639 1.455-1.426 0-.323.038-.658.088-1.091l.003-.025c.047-.401.105-.892.105-1.403 0-.64.023-1.282.048-1.955v-.011h.001c.024-.661.049-1.352.049-2.048 0-2.689-.101-5.341-.406-8.035-.171-1.503-1.044-2.716-2.113-3.526-1.063-.807-2.419-1.297-3.761-1.297-1.682 0-3.65.416-5.145 1.698-.331.284-.635.507-.979.761-.258.19-.539.398-.872.66-.146.114-.295.236-.446.364-.196-.59-.51-1.237-1.058-1.774-.725-.71-1.434-1.255-2.636-1.599-1.409-.402-3.167-.338-4.431-.107-1.729.315-3.16 1.184-4.322 2.283V9.977z" fill="#2C2C2C"/><path fill-rule="evenodd" clip-rule="evenodd" d="M100.132 11.69c-1.01 0-1.765.066-2.577.346-.183.064-.382.177-.695.384l-.13.088c-.267.18-.634.426-1.022.617-.864.423-1.713 1.158-2.562 1.99a1.476 1.476 0 01-2.058 0 1.406 1.406 0 010-2.017c.878-.86 2.006-1.881 3.319-2.525a5.35 5.35 0 00.632-.388l.002-.002.106-.07.081-.055c.336-.222.798-.518 1.361-.713 1.263-.435 2.397-.507 3.543-.507 1.561 0 2.982.368 4.307 1.505.911.781 1.431 1.693 1.857 2.528l.078.146c.222.415.626 1.169.626 2.055 0 .362.068.735.17 1.26l.009.047c.093.475.213 1.09.213 1.74 0 .323.038.659.088 1.09l.004.03c.047.4.104.887.104 1.39v4.52c0 .381.004.789.062 1.15.028.176.063.298.094.374l.004.009.03.016c.067.033.157.069.265.102.231.072.433.098.518.098.29 0 .573.031.771.053l.032.004c.228.025.368.039.493.039.804 0 1.455.638 1.455 1.426 0 .788-.651 1.426-1.455 1.426-.306 0-.597-.032-.802-.055l-.018-.002a4.632 4.632 0 00-.476-.039c-.453 0-.957-.093-1.398-.23-.421-.131-.967-.357-1.394-.734-.696-.614-.908-1.503-.995-2.047a8.3 8.3 0 01-.089-1.006l-.119.087-.001.001c-.167.122-.317.232-.475.362a2.83 2.83 0 00-.249.225c-.049.05-.069.079-.073.084v.001l.001-.002c-.348.596-.927.894-1.157 1.013l-.016.008-.07.036-.043.022-.049.024c-.058.03-.096.049-.146.077a.636.636 0 00-.024.014 7.35 7.35 0 01-.73.598l-.075.056a6.743 6.743 0 00-.452.351c-.628.554-1.536.853-1.962.987-.097.03-.155.053-.237.085-.078.03-.178.07-.356.134-.253.09-.658.222-1.111.238-.1.003-.213.01-.357.02l-.08.004c-.172.01-.377.023-.587.027-.383.009-.952.001-1.481-.172-.934-.305-1.672-.624-2.54-1.293-.5-.384-.795-.87-.967-1.157l-.073-.122c-.156-.263-.21-.355-.284-.432-.609-.644-.71-1.443-.73-1.927a7.677 7.677 0 01.014-.837c.008-.145.013-.246.013-.34 0-.79.286-1.559.455-2.012l.024-.066a3.6 3.6 0 00.051-.14v-.001c.198-.546.494-1.367 1.355-2.023.484-.37.981-.563 1.365-.694.162-.055.289-.095.398-.13.191-.06.326-.103.494-.176.653-.285 1.319-.383 1.854-.438.27-.027.48-.042.665-.056.255-.019.465-.035.72-.072.962-.142 1.922-.138 2.765-.134h4.062c-.016-.31-.078-.646-.166-1.097l-.008-.042c-.093-.477-.213-1.096-.213-1.752a.711.711 0 00-.071-.271 4.522 4.522 0 00-.195-.402h-.001l-.13-.252c-.385-.757-.701-1.254-1.17-1.657-.686-.588-1.375-.8-2.391-.8zm4.546 9.126h-4.293c-.86-.003-1.578-.005-2.303.102-.333.049-.755.082-1.098.11-.164.012-.31.024-.42.035-.442.045-.742.107-.971.207-.313.136-.678.252-.928.332l-.193.063c-.276.093-.42.165-.531.25-.163.123-.197.184-.457.887-.205.552-.305.868-.305 1.103 0 .173-.01.365-.018.517l-.004.089a5.02 5.02 0 00-.008.45c.004.088.012.143.018.175.283.317.496.682.622.897l.051.088c.164.274.226.335.253.356.525.404.931.591 1.663.83a.713.713 0 00.131.019c.096.008.216.01.364.008.147-.004.301-.012.47-.023l.07-.004c.14-.009.298-.019.442-.024h-.001.004c.016-.004.081-.018.223-.068l.222-.084.079-.03c.11-.042.251-.095.398-.14a5.58 5.58 0 00.588-.216c.196-.088.29-.154.314-.175.222-.196.465-.375.649-.51l.071-.053c.214-.159.353-.267.46-.373.215-.21.446-.351.603-.439.106-.06.244-.13.332-.174l.065-.033a3.5 3.5 0 00.085-.045c.268-.405.63-.728.894-.945.225-.185.484-.375.672-.512l.157-.116c.41-.307.732-.618 1.173-1.05.135-.133.291-.234.457-.303v-1.2z" fill="#2C2C2C"/><path d="M137.373 8.647c-1.476 0-3.533.3-4.927 1.666-.041.04-.1.09-.227.199l-.015.013c-.118.1-.281.24-.44.398-.254.256-.823.866-.823 1.744 0 .227-.019.463-.044.769l-.001.018c-.024.283-.053.63-.053.99v.021c0 .379 0 .96.092 1.538.091.566.3 1.35.894 1.966.288.299.658.539.934.7.3.176.608.328.85.435l.519.232.016.007c.621.278 1.259.563 1.885.832.081.034.191.085.319.143.34.156.805.37 1.177.496a5 5 0 00.819.184h.002l.055.01c.189.03.249.046.26.05h.002-.001c.253.11.492.157.669.182.165.022.324.03.418.035h.013c.091.006.137.008.167.011a5.1 5.1 0 001.059.263l.02.004c.321.052.454.076.56.115.206.075.445.152.662.222l.219.071c.29.095.552.187.788.289.519.222.682.397.723.471.385.691.422 1.413.151 1.976-.394.822-.888 1.31-1.675 1.652-.412.18-.874.33-1.348.453-.078.02-.18.028-.501.04l-.021.002c-.261.01-.708.028-1.164.168-.187.057-.513.081-.977.025a8.028 8.028 0 01-1.314-.289c-.4-.12-.658-.27-1.093-.523a40.74 40.74 0 00-.508-.291c-.109-.061-.27-.197-.526-.48l-.202-.23a13.205 13.205 0 00-.653-.715c-.228-.223-.6-.796-.827-1.24a1.47 1.47 0 00-1.952-.639 1.413 1.413 0 00-.651 1.914c.268.525.808 1.43 1.372 1.982.135.132.241.255.38.416.096.112.208.241.356.405.293.324.714.758 1.259 1.064.098.054.203.116.315.182h.001c.488.287 1.109.651 1.873.882.502.151 1.144.313 1.815.393.65.079 1.447.097 2.2-.134.053-.016.144-.03.437-.041l.058-.003a5.011 5.011 0 001.064-.13c.585-.15 1.201-.348 1.789-.604 1.479-.644 2.46-1.657 3.127-3.044.738-1.538.51-3.227-.23-4.557-.519-.932-1.437-1.429-2.11-1.718a18.337 18.337 0 00-1.423-.51 12.563 12.563 0 01-.403-.134 5.704 5.704 0 00-1.036-.245l-.059-.01c-.299-.048-.414-.075-.49-.106a2.602 2.602 0 00-.658-.17 5.1 5.1 0 00-.405-.034h-.017a8.695 8.695 0 01-.147-.01 4.118 4.118 0 00-.88-.223l-.013-.002a3.01 3.01 0 01-.397-.075 6.729 6.729 0 01-.688-.29 22.457 22.457 0 00-.593-.267c-.603-.258-1.213-.53-1.832-.807l-.551-.246a6.01 6.01 0 01-.561-.287 3.084 3.084 0 01-.233-.15c-.049-.035-.072-.055-.078-.06l-.001-.002c-.01-.015-.082-.127-.133-.447-.054-.337-.057-.713-.057-1.118 0-.233.019-.473.044-.777l.002-.025c.018-.214.038-.464.047-.726.067-.067.15-.14.267-.24l.034-.028c.098-.083.238-.202.356-.318.559-.549 1.629-.83 2.869-.83 1.363 0 2.806.305 3.751.946.19.129.418.264.579.359h.001c.055.033.103.06.137.082.177.108.278.182.357.26.267.261.566.563.823.87.278.33.413.558.453.666a1.462 1.462 0 001.859.864 1.418 1.418 0 00.881-1.823c-.214-.587-.614-1.125-.945-1.52a15.644 15.644 0 00-1.013-1.074 4.755 4.755 0 00-.876-.664l-.279-.167c-.118-.07-.206-.12-.32-.198-1.617-1.097-3.728-1.454-5.408-1.454z" fill="#2C2C2C"/></svg>