<svg width="335" height="321" fill="none" xmlns="http://www.w3.org/2000/svg"><path d="M25.5 226.3c4.745-.1 8.778-1.879 12.906-3.49 2.297-.897 3.869-2.873 2.817-5.144-.507-1.094-1.086-2.176-1.4-3.107-.73-2.171-1.628-4.199-2.985-6.125-2.197-3.121-5.273-6.743-9.037-8.387-5.703-2.492-11.812 2.543-13.89 6.874-.462.962-.518 2.736-1.585 3.314-1.453.787-3.85 2.134-3.99 3.866-.233 2.904 3.112 5.815 5.42 7.365 3.312 2.226 7.53 4.922 11.744 4.834zm11.22-40.608c-.954 2.142-2.864 5.765-5.228 7.409-.723.503-1.658-.112-1.729-1.017-.304-3.865-.045-8.623 3.688-10.439 2.887-1.405 4.122 2.132 3.269 4.047zm-17.041 1.787c1.306-2.185.942-4.495.63-6.972-.04-.324-.297-.601-.612-.727-.88-.351-2.007-1.018-2.685-.845-3.369.858-3.265 5.216-1.708 7.712 1.193 1.911 3.17 2.848 4.375.832zm-11.621 9.642c.95-2.509-.559-6.267-1.034-8.783-.588-1.23-2.205-1.064-3.397-.633-2.593.937-3.175 3.376-2.147 5.93.815 2.022 5.188 7.156 6.578 3.486zm42.194-.345c-2.83-2.102-6.345-1.075-8.956.429-1.819 1.047-2.775 3.33-1.5 5.171 1.58 2.282 4.505 3.237 7.767 2.778 3.636-.511 6.09-5.85 2.689-8.378zm53.522-55.966c4.034 2.501 8.386 3.206 12.725 4.103 2.414.499 4.809-.302 5.164-2.779.17-1.194.274-2.417.518-3.368.57-2.219.92-4.409.832-6.764-.144-3.814-.751-8.527-3.012-11.956-3.426-5.197-11.292-4.302-15.393-1.802-.911.556-1.924 2.013-3.134 1.917-1.647-.131-4.392-.308-5.451 1.068-1.777 2.309-.557 6.573.534 9.13 1.566 3.671 3.635 8.229 7.217 10.451zm31.523-27.945c-1.966 1.277-5.541 3.275-8.418 3.366-.881.028-1.33-.997-.897-1.795 1.85-3.406 4.658-7.256 8.778-6.746 3.186.394 2.296 4.034.537 5.175zm-15.265-7.784c2.286-1.121 3.238-3.256 4.326-5.504.142-.293.078-.666-.118-.943-.546-.774-1.128-1.947-1.792-2.171-3.292-1.116-5.578 2.595-5.631 5.538-.041 2.252 1.107 4.115 3.215 3.08zm-14.996 1.756c2.163-1.586 2.944-5.56 3.916-7.93.177-1.35-1.27-2.092-2.505-2.38-2.685-.627-4.501 1.102-5.029 3.804-.418 2.139.453 8.827 3.618 6.506zm35.574 22.695c-1.227-3.304-4.735-4.358-7.744-4.519-2.096-.112-4.141 1.282-4.074 3.519.082 2.775 2.016 5.17 5.001 6.562 3.328 1.552 8.293-1.589 6.817-5.562zM100.516 268.71c2.903 3.756 6.732 5.941 10.482 8.301 2.087 1.313 4.61 1.401 5.81-.795.578-1.058 1.103-2.167 1.665-2.973 1.31-1.878 2.406-3.808 3.147-6.044 1.201-3.623 2.282-8.25 1.365-12.254-1.389-6.067-9.071-7.984-13.787-7.079-1.048.201-2.507 1.211-3.607.697-1.496-.7-4.005-1.826-5.479-.908-2.474 1.54-2.823 5.961-2.697 8.738.182 3.987.523 8.982 3.101 12.317zm39.311-15.133c-2.288.507-6.336 1.127-9.063.204-.835-.283-.896-1.4-.212-1.995 2.925-2.544 6.904-5.165 10.584-3.245 2.847 1.485.738 4.582-1.309 5.036zm-11.572-12.638c2.533-.25 4.173-1.916 5.979-3.64.236-.226.306-.597.22-.925-.241-.916-.376-2.219-.918-2.662-2.693-2.198-6.134.478-7.214 3.215-.827 2.096-.404 4.243 1.933 4.012zm-14.662-3.608c2.582-.728 4.705-4.177 6.444-6.056.64-1.203-.456-2.405-1.512-3.107-2.295-1.527-4.602-.545-6.043 1.802-1.14 1.857-2.666 8.427 1.111 7.361zm25.375 33.718c.007-3.524-2.909-5.74-5.671-6.945-1.924-.839-4.328-.25-5.049 1.869-.894 2.628.078 5.548 2.387 7.898 2.574 2.62 8.325 1.416 8.333-2.822zM11.73 306.188c2.02 4.295 5.286 7.257 8.436 10.373 1.754 1.734 4.198 2.366 5.845.482.793-.909 1.546-1.878 2.27-2.542 1.685-1.551 3.172-3.197 4.38-5.22 1.956-3.277 4.013-7.561 3.984-11.668-.044-6.224-7.128-9.759-11.928-9.896-1.067-.03-2.71.64-3.673-.1-1.31-1.007-3.515-2.65-5.153-2.073-2.748.968-4.046 5.209-4.523 7.948-.686 3.931-1.433 8.881.361 12.696zm41.654-6.265c-2.344 0-6.43-.272-8.893-1.763-.754-.456-.572-1.56.225-1.993 3.406-1.85 7.858-3.548 11.036-.877 2.457 2.066-.271 4.634-2.368 4.633zM44.82 285.08c2.528.304 4.49-.967 6.626-2.26.279-.169.428-.517.414-.855-.036-.947.114-2.247-.32-2.797-2.153-2.729-6.092-.862-7.739 1.577-1.26 1.867-1.312 4.054 1.02 4.335zm-13.533-6.696c2.678-.152 5.498-3.06 7.602-4.518.885-1.037.075-2.446-.803-3.36-1.911-1.989-4.376-1.529-6.29.45-1.516 1.566-4.427 7.65-.509 7.428zm17.477 38.412c.77-3.44-1.598-6.235-4.034-8.009-1.697-1.235-4.171-1.181-5.334.732-1.441 2.372-1.124 5.434.622 8.227 1.946 3.115 7.82 3.185 8.746-.95zM216.98 131.04c4.746-.099 8.779-1.878 12.906-3.49 2.297-.896 3.869-2.873 2.818-5.144-.507-1.094-1.086-2.176-1.399-3.107-.731-2.171-1.63-4.199-2.986-6.125-2.197-3.12-5.274-6.743-9.037-8.387-5.703-2.491-11.813 2.544-13.89 6.874-.462.962-.518 2.736-1.586 3.315-1.452.787-3.85 2.133-3.989 3.865-.233 2.905 3.112 5.816 5.419 7.366 3.313 2.225 7.53 4.922 11.744 4.833zm11.22-40.607c-.953 2.141-2.863 5.764-5.227 7.408-.723.503-1.658-.112-1.729-1.017-.304-3.864-.045-8.622 3.688-10.439 2.887-1.405 4.122 2.132 3.268 4.048zm-17.04 1.787c1.305-2.186.942-4.495.63-6.973-.041-.324-.298-.6-.612-.726-.88-.352-2.007-1.018-2.686-.846-3.368.858-3.264 5.216-1.707 7.713 1.193 1.91 3.17 2.848 4.375.832zm-11.621 9.641c.95-2.508-.559-6.267-1.034-8.783-.588-1.23-2.205-1.063-3.397-.632-2.593.937-3.176 3.376-2.147 5.93.814 2.021 5.187 7.156 6.578 3.485zm42.194-.344c-2.829-2.103-6.345-1.076-8.956.428-1.819 1.048-2.775 3.331-1.501 5.171 1.58 2.282 4.506 3.237 7.767 2.779 3.637-.511 6.091-5.851 2.69-8.378zm53.522-55.967c4.034 2.501 8.386 3.207 12.724 4.104 2.415.499 4.81-.302 5.164-2.78.171-1.194.275-2.416.519-3.368.57-2.218.92-4.409.831-6.763-.143-3.814-.751-8.528-3.011-11.957-3.427-5.196-11.293-4.301-15.393-1.801-.911.555-1.925 2.012-3.135 1.916-1.647-.131-4.391-.308-5.45 1.069-1.778 2.309-.557 6.572.534 9.13 1.566 3.67 3.634 8.229 7.217 10.45zm31.523-27.944c-1.966 1.276-5.541 3.274-8.418 3.365-.881.028-1.33-.997-.897-1.794 1.849-3.407 4.658-7.256 8.778-6.747 3.186.395 2.296 4.034.537 5.176zm-15.265-7.784c2.285-1.122 3.238-3.257 4.326-5.504.142-.294.077-.667-.118-.943-.546-.774-1.129-1.947-1.792-2.172-3.292-1.116-5.578 2.596-5.631 5.538-.041 2.253 1.107 4.115 3.215 3.08zm-14.996 1.756c2.163-1.586 2.944-5.56 3.915-7.93.178-1.351-1.269-2.092-2.504-2.38-2.685-.627-4.502 1.1-5.03 3.804-.418 2.138.454 8.827 3.619 6.506zm35.574 22.695c-1.228-3.304-4.735-4.358-7.744-4.52-2.096-.111-4.141 1.282-4.075 3.52.083 2.774 2.016 5.17 5.002 6.561 3.328 1.553 8.293-1.589 6.817-5.561zm-40.094 139.178c2.902 3.756 6.731 5.94 10.481 8.3 2.087 1.314 4.611 1.402 5.811-.795.578-1.058 1.103-2.167 1.665-2.973 1.31-1.878 2.405-3.807 3.147-6.043 1.201-3.623 2.282-8.251 1.365-12.255-1.39-6.067-9.071-7.984-13.787-7.079-1.048.202-2.507 1.212-3.607.698-1.497-.7-4.005-1.827-5.48-.909-2.473 1.54-2.823 5.962-2.696 8.739.181 3.987.523 8.981 3.101 12.317zm39.311-15.134c-2.288.507-6.337 1.127-9.064.204-.834-.282-.896-1.399-.211-1.995 2.925-2.543 6.904-5.165 10.584-3.244 2.847 1.485.738 4.582-1.309 5.035zm-11.572-12.637c2.533-.25 4.173-1.917 5.979-3.641.236-.225.305-.597.219-.924-.24-.917-.375-2.219-.918-2.662-2.693-2.198-6.134.477-7.214 3.215-.826 2.095-.403 4.242 1.934 4.012zm-14.662-3.608c2.582-.728 4.705-4.177 6.444-6.056.639-1.204-.456-2.405-1.512-3.107-2.296-1.528-4.602-.545-6.043 1.801-1.141 1.857-2.666 8.427 1.111 7.362zm25.375 33.718c.007-3.525-2.909-5.741-5.672-6.946-1.923-.838-4.327-.25-5.048 1.87-.895 2.627.078 5.548 2.387 7.897 2.574 2.62 8.324 1.417 8.333-2.821zM203.21 210.928c2.021 4.296 5.287 7.257 8.437 10.373 1.753 1.734 4.198 2.367 5.845.482.793-.908 1.546-1.877 2.269-2.542 1.685-1.55 3.172-3.197 4.38-5.219 1.957-3.277 4.014-7.561 3.985-11.668-.044-6.225-7.128-9.759-11.928-9.896-1.067-.031-2.711.639-3.673-.1-1.31-1.008-3.515-2.651-5.153-2.073-2.748.968-4.046 5.209-4.524 7.947-.685 3.932-1.433 8.882.362 12.696zm41.654-6.264c-2.343-.001-6.43-.272-8.892-1.763-.754-.457-.572-1.561.225-1.994 3.406-1.85 7.858-3.548 11.035-.876 2.458 2.066-.271 4.633-2.368 4.633zm-8.563-14.844c2.528.305 4.489-.967 6.626-2.259.279-.169.427-.517.414-.855-.037-.947.114-2.248-.32-2.798-2.154-2.729-6.092-.862-7.739 1.577-1.261 1.867-1.312 4.055 1.019 4.335zm-13.533-6.696c2.678-.152 5.497-3.059 7.602-4.517.885-1.037.075-2.447-.804-3.361-1.911-1.988-4.375-1.528-6.29.451-1.515 1.566-4.426 7.65-.508 7.427zm17.477 38.412c.769-3.44-1.598-6.234-4.034-8.008-1.697-1.236-4.171-1.181-5.334.732-1.442 2.371-1.124 5.433.621 8.227 1.946 3.115 7.821 3.185 8.747-.951z" stroke="#2C2C2C" stroke-width="2" stroke-linecap="round"/></svg>