<svg width="133" height="20" fill="none" xmlns="http://www.w3.org/2000/svg"><path d="M92.097 8.858s.338 1.654.414 2h-1.484l.711-1.933c-.008.013.147-.405.236-.663l.123.596zm4.707-6.724v15.644a2.134 2.134 0 01-2.134 2.134H73.337a2.134 2.134 0 01-2.134-2.134V2.134A2.134 2.134 0 0173.337 0H94.67a2.135 2.135 0 012.134 2.134zM77.98 13.298l2.81-6.897H78.9l-1.746 4.711-.191-.955-.623-3.174c-.102-.44-.417-.565-.808-.582h-2.876l-.03.137a7.04 7.04 0 011.874.76l1.592 6h1.888zm4.197.01l1.12-6.907H81.51l-1.115 6.906h1.781zm6.217-2.258c.009-.787-.471-1.387-1.498-1.88-.626-.316-1.008-.53-1.008-.854.008-.294.325-.596 1.026-.596a3.06 3.06 0 011.329.262l.16.076.245-1.494a4.442 4.442 0 00-1.6-.294c-1.765 0-3.005.943-3.014 2.284-.013.992.889 1.543 1.565 1.876.689.337.925.56.925.857-.01.463-.56.675-1.072.675-.71 0-1.093-.11-1.675-.368l-.236-.112-.249 1.552c.418.19 1.192.36 1.992.368 1.875.004 3.097-.924 3.11-2.355v.003zm6.275 2.257l-1.44-6.906h-1.382c-.427 0-.751.125-.934.573l-2.653 6.334h1.875s.306-.854.374-1.035h2.293c.054.245.214 1.035.214 1.035h1.653zM8.28 10.054c0 .542-.43.955-.977.955-.409 0-.711-.231-.711-.667 0-.542.422-.977.965-.977.413 0 .724.253.724.689zM3.579 7.898H3.37c-.067 0-.134.045-.143.12l-.191 1.188.365-.014c.489 0 .866-.066.955-.631.102-.596-.275-.663-.778-.663zm12.623 0H16c-.08 0-.134.045-.143.12l-.186 1.188.355-.014c.578 0 .978-.134.978-.8-.005-.471-.426-.494-.804-.494zm9.4-5.764v15.644a2.134 2.134 0 01-2.134 2.134H2.134A2.134 2.134 0 010 17.778V2.134A2.134 2.134 0 012.134 0h21.333a2.134 2.134 0 012.134 2.134zM5.703 8.15c0-.933-.72-1.245-1.542-1.245H2.383a.234.234 0 00-.231.21l-.729 4.537c-.013.089.054.177.143.177h.844c.12 0 .232-.128.245-.253l.2-1.183c.045-.32.587-.208.8-.208 1.271 0 2.049-.756 2.049-2.036v.001zm3.743.391H8.6c-.169 0-.178.245-.187.365-.257-.377-.63-.445-1.053-.445-1.089 0-1.92.956-1.92 2.01 0 .866.542 1.43 1.409 1.43.4 0 .897-.217 1.177-.528-.026.09-.04.182-.045.276 0 .102.045.177.143.177h.765c.12 0 .222-.129.244-.253l.454-2.858c.014-.085-.054-.174-.142-.174zm1.8 4.352l2.83-4.116c.023-.023.023-.045.023-.076 0-.075-.066-.155-.142-.155h-.854a.254.254 0 00-.2.111l-1.177 1.734-.49-1.666a.27.27 0 00-.244-.178h-.831c-.076 0-.143.08-.143.155 0 .054.867 2.525.943 2.76-.12.169-.911 1.271-.911 1.405 0 .08.066.142.142.142h.854a.262.262 0 00.2-.115v-.001zm7.08-4.743c0-.933-.72-1.245-1.543-1.245h-1.765a.246.246 0 00-.244.21l-.72 4.533c-.01.089.057.177.142.177h.911c.089 0 .155-.066.178-.142l.2-1.289c.045-.32.587-.209.8-.209 1.262 0 2.04-.755 2.04-2.035zm3.741.391h-.845c-.168 0-.177.245-.19.365-.246-.377-.623-.445-1.054-.445-1.09 0-1.92.956-1.92 2.01 0 .866.542 1.43 1.408 1.43.414 0 .912-.217 1.178-.528-.014.066-.045.208-.045.276 0 .102.045.177.143.177h.768c.12 0 .223-.129.245-.253l.454-2.858c.013-.085-.053-.174-.142-.174zm2.111-1.48c0-.088-.066-.155-.142-.155h-.822c-.067 0-.134.054-.143.12l-.72 4.623-.013.022c0 .08.067.155.156.155h.733c.111 0 .223-.129.231-.253l.72-4.498v-.014zm-4 2.303a.961.961 0 00-.964.977c0 .432.31.667.72.667a.948.948 0 00.964-.955c.005-.436-.306-.69-.72-.69zm28.856-1.035c0 .765-.467 1.205-1.29 1.205h-1.08v-2.41h1.086c.817 0 1.284.436 1.284 1.205zm2.11 2.782c0 .369.32.609.823.609.64 0 1.12-.404 1.12-.974v-.342l-1.045.066c-.59.04-.897.259-.897.641zm10.058-8.977v15.644a2.134 2.134 0 01-2.133 2.134H37.735a2.134 2.134 0 01-2.133-2.134V2.134A2.134 2.134 0 0137.735 0H59.07a2.134 2.134 0 012.133 2.134zm-19.92 5.252c.374.032.747-.186.983-.462.231-.285.382-.666.342-1.054-.329.014-.737.218-.973.503-.214.245-.396.64-.352 1.013zm2.694 3.312c-.009-.01-.871-.338-.88-1.334-.009-.831.68-1.231.711-1.254-.391-.577-.996-.64-1.205-.653-.542-.031-1.004.306-1.262.306-.262 0-.654-.293-1.08-.284a1.595 1.595 0 00-1.355.827c-.583 1.004-.151 2.488.413 3.306.276.404.61.849 1.045.831.413-.017.578-.266 1.075-.266.503 0 .645.266 1.08.262.454-.009.734-.404 1.014-.809.306-.462.435-.906.445-.933h-.001zm6.018-2.373c0-1.183-.823-1.991-1.996-1.991h-2.276v6.062h.943v-2.071h1.302c1.191 0 2.027-.818 2.027-2zm4 1.053c0-.876-.703-1.44-1.778-1.44-1 0-1.738.573-1.765 1.355h.849c.071-.374.418-.618.889-.618.577 0 .897.267.897.765v.334l-1.173.07c-1.094.067-1.684.517-1.684 1.294 0 .787.609 1.307 1.484 1.307.591 0 1.137-.298 1.386-.774h.018v.729h.871V9.378h.006zm4.542-1.383h-.955l-1.107 3.583h-.017L55.35 7.995h-.99l1.594 4.414-.084.266c-.142.454-.377.631-.795.631a4.457 4.457 0 01-.276-.013v.729c.054.017.289.022.36.022.92 0 1.351-.351 1.729-1.414l1.648-4.635zm69.731 8.849c0 .303-.205.522-.498.522-.302 0-.498-.232-.498-.522 0-.29.196-.523.498-.523.293 0 .498.233.498.523zm-13.813-.523c-.316 0-.498.233-.498.523 0 .29.182.522.498.522.288 0 .484-.219.484-.522-.004-.29-.196-.523-.484-.523zm5.222-.013c-.24 0-.387.156-.422.388h.848c-.04-.254-.195-.388-.426-.388zm4.791.013c-.302 0-.485.233-.485.523 0 .29.183.522.485.522s.498-.219.498-.522c0-.29-.196-.523-.498-.523zm4.707 1.166c0 .013.013.022.013.049 0 .013-.013.022-.013.049-.014.013-.014.022-.023.035-.013.014-.022.023-.049.023-.013.013-.022.013-.048.013-.014 0-.023 0-.049-.013-.014 0-.023-.014-.036-.023-.013-.013-.022-.022-.022-.035-.013-.023-.013-.036-.013-.05 0-.022 0-.035.013-.048 0-.023.013-.036.022-.05.013-.013.022-.013.036-.022.022-.013.035-.013.049-.013.022 0 .035 0 .048.013.023.014.036.014.049.023.014.008.009.026.023.049zm-.098.062c.022 0 .022-.013.035-.013.014-.014.014-.023.014-.036 0-.013 0-.022-.014-.036-.013 0-.022-.013-.049-.013h-.071v.156h.036v-.062h.013l.049.062h.036l-.049-.058zm3.329-15.406v15.714A2.14 2.14 0 01130.271 20h-21.333a2.138 2.138 0 01-2.133-2.143V2.143c0-1.183.955-2.143 2.133-2.143h21.333a2.14 2.14 0 012.134 2.143zm-22.756 6.232c0 3.415 2.76 6.183 6.156 6.183a6.178 6.178 0 003.4-1.031c-3.24-2.647-3.218-7.643 0-10.29a6.142 6.142 0 00-3.4-1.032c-3.396-.004-6.156 2.768-6.156 6.17zm9.956 4.857c3.133-2.455 3.12-7.24 0-9.71-3.12 2.47-3.134 7.26 0 9.71zm-6.325 3.406c0-.388-.253-.643-.653-.656-.205 0-.422.063-.569.29-.107-.183-.289-.29-.542-.29a.563.563 0 00-.471.241v-.196h-.365v1.638h.365c0-.844-.111-1.348.4-1.348.453 0 .364.455.364 1.348h.351c0-.817-.111-1.348.4-1.348.454 0 .365.446.365 1.348h.364v-1.027h-.009zm1.996-.611h-.351v.196a.64.64 0 00-.52-.24c-.458 0-.809.365-.809.86 0 .5.351.862.809.862.231 0 .4-.084.52-.24v.205h.351v-1.643zm1.8 1.143c0-.67-1.018-.366-1.018-.679 0-.254.529-.214.822-.049l.147-.29c-.418-.273-1.342-.268-1.342.366 0 .638 1.017.37 1.017.67 0 .28-.6.258-.92.035l-.155.282c.498.339 1.449.267 1.449-.335zm1.573.415l-.098-.304c-.169.094-.542.197-.542-.183v-.74h.582v-.331h-.582v-.5h-.364v.5h-.338v.326h.338v.745c0 .786.769.643 1.004.487zm.591-.598h1.222c0-.724-.328-1.01-.773-1.01-.471 0-.809.353-.809.862 0 .916 1.005 1.067 1.502.634l-.168-.268c-.347.286-.872.26-.974-.218zm2.627-.96c-.205-.09-.516-.08-.676.196v-.196h-.364v1.638h.364v-.924c0-.518.423-.45.569-.375l.107-.34zm.471.817c0-.51.516-.674.92-.375l.169-.29c-.516-.407-1.453-.183-1.453.67 0 .883.995 1.062 1.453.669l-.169-.29c-.409.29-.92.116-.92-.384zm2.964-.817h-.364v.196c-.369-.49-1.329-.214-1.329.62 0 .858.996 1.103 1.329.621v.206h.364v-1.643zm1.498 0c-.106-.054-.489-.13-.675.196v-.196h-.351v1.638h.351v-.924c0-.491.4-.46.569-.375l.106-.34zm1.791-.665h-.351v.861c-.364-.486-1.329-.227-1.329.62 0 .867 1 1.099 1.329.621v.206h.351v-2.308zm.338-3.353v.205h.036v-.205h.084v-.036h-.204v.036h.084zm.293 5.527c0-.023 0-.05-.013-.072-.013-.013-.022-.035-.035-.049-.014-.013-.036-.022-.049-.035-.023 0-.049-.014-.071-.014-.014 0-.036.014-.063.014a.26.26 0 00-.049.035c-.022.014-.035.036-.035.05-.013.022-.013.048-.013.07 0 .014 0 .036.013.063 0 .014.013.036.035.05.014.013.023.022.049.035a.123.123 0 00.063.013c.022 0 .048 0 .071-.013.013-.013.035-.022.049-.036.013-.013.022-.035.035-.049.013-.027.013-.049.013-.062zm.143-5.567h-.063l-.071.156-.071-.156h-.062v.24h.036v-.182l.071.156h.049l.062-.156v.183h.049v-.241zm.195-3.594c0-3.402-2.76-6.174-6.155-6.174a6.176 6.176 0 00-3.4 1.031c3.204 2.647 3.253 7.656 0 10.29a6.161 6.161 0 003.4 1.032c3.395.004 6.155-2.764 6.155-6.179z" fill="#2C2C2C"/></svg>