<svg width="1377" height="760" fill="none" xmlns="http://www.w3.org/2000/svg"><path d="M223.767 59.976c.236 11.229 4.446 20.774 8.26 30.54 2.122 5.435 6.799 9.156 12.174 6.667 2.59-1.2 5.151-2.57 7.355-3.31 5.137-1.729 9.937-3.856 14.496-7.066 7.386-5.2 15.958-12.479 19.85-21.384 5.897-13.497-6.02-27.954-16.269-32.87-2.278-1.093-6.476-1.226-7.845-3.751-1.863-3.438-5.05-9.112-9.149-9.441-6.874-.552-13.764 7.365-17.432 12.824-5.268 7.838-11.649 17.818-11.44 27.79zm96.108 26.551c-5.068-2.257-13.643-6.777-17.533-12.37-1.191-1.712.265-3.923 2.406-4.092 9.146-.72 20.408-.106 24.708 8.727 3.325 6.831-5.047 9.754-9.581 7.735zm-4.229-40.325c5.172 3.09 10.639 2.23 16.503 1.492.766-.096 1.422-.705 1.719-1.449.832-2.082 2.41-4.749 2.001-6.355-2.03-7.971-12.345-7.726-18.253-4.04-4.524 2.822-6.741 7.502-1.97 10.352zm-22.82-27.499c5.938 2.249 14.834-1.322 20.788-2.447 2.912-1.39 2.517-5.217 1.498-8.038-2.219-6.137-7.99-7.515-14.036-5.08-4.784 1.926-16.937 12.275-8.25 15.565zm.817 99.846c4.975-6.694 2.545-15.014-1.015-21.193-2.479-4.303-7.882-6.567-12.238-3.551-5.401 3.739-7.661 10.662-6.577 18.38 1.21 8.606 13.847 14.412 19.83 6.364zM123.391 237.492c-8.889 6.869-14.06 15.93-19.645 24.804-3.109 4.938-3.318 10.91 1.881 13.749 2.505 1.368 5.129 2.61 7.036 3.94 4.446 3.101 9.012 5.693 14.304 7.447 8.575 2.842 19.527 5.401 29.003 3.231 14.361-3.289 18.898-21.465 16.755-32.625-.477-2.48-2.867-5.934-1.65-8.536 1.656-3.542 4.323-9.478 2.149-12.967-3.645-5.852-14.109-6.68-20.681-6.381-9.436.43-21.257 1.238-29.152 7.338zm35.817 93.025c-1.2-5.415-2.666-14.994-.482-21.448.668-1.975 3.312-2.12 4.721-.5 6.02 6.922 12.225 16.337 7.68 25.046-3.516 6.736-10.846 1.746-11.919-3.098zm29.911-27.385c.592 5.995 4.535 9.876 8.616 14.149.533.559 1.413.724 2.188.52 2.169-.57 5.252-.888 6.3-2.172 5.202-6.373-1.13-14.516-7.609-17.071-4.96-1.957-10.041-.955-9.495 4.574zm8.539-34.694c1.723 6.109 9.886 11.133 14.333 15.249 2.849 1.513 5.692-1.08 7.354-3.578 3.615-5.433 1.29-10.891-4.264-14.301-4.395-2.698-19.945-6.308-17.423 2.63zm-79.803 60.046c8.342.017 13.587-6.885 16.438-13.421 1.986-4.552.592-10.241-4.424-11.947-6.219-2.116-13.131.186-18.692 5.648-6.201 6.091-3.353 19.7 6.678 19.72zM34.69 27.39C24.524 32.174 17.514 39.9 10.14 47.357 6.036 51.504 4.539 57.289 9 61.186c2.149 1.877 4.442 3.658 6.016 5.37 3.669 3.988 7.565 7.507 12.353 10.365 7.756 4.63 17.895 9.498 27.616 9.43 14.732-.104 23.096-16.868 23.42-28.227.073-2.525-1.513-6.414.238-8.69 2.383-3.1 6.272-8.319 4.906-12.195-2.292-6.503-12.329-9.575-18.81-10.705-9.305-1.622-21.02-3.39-30.05.857zm14.827 98.57c.001-5.546.643-15.216 4.173-21.044 1.08-1.783 3.693-1.353 4.718.534 4.378 8.06 8.397 18.594 2.074 26.113-4.89 5.816-10.966-.641-10.965-5.603zm35.131-20.264c-.72 5.981 2.29 10.623 5.348 15.678.4.661 1.223 1.012 2.023.981 2.242-.087 5.32.269 6.622-.758 6.459-5.096 2.039-14.416-3.733-18.312-4.418-2.984-9.596-3.105-10.26 2.411zm15.848-32.025c.36 6.338 7.241 13.01 10.692 17.99 2.454 2.093 5.791.176 7.954-1.902 4.706-4.522 3.617-10.354-1.066-14.885-3.707-3.585-18.107-10.474-17.58-1.203zM9.584 115.028c8.141 1.821 14.756-3.782 18.954-9.546 2.924-4.015 2.796-9.87-1.732-12.621-5.614-3.412-12.86-2.66-19.472 1.47-7.372 4.605-7.538 18.507 2.25 20.697zM1206.03 490.212c8.11 7.774 17.84 11.546 27.44 15.756 5.34 2.342 11.28 1.665 13.32-3.895.99-2.68 1.83-5.459 2.86-7.541 2.41-4.855 4.3-9.754 5.26-15.247 1.54-8.899 2.46-20.108-1.09-29.157-5.37-13.713-24.02-15.509-34.74-11.739-2.39.838-5.45 3.713-8.2 2.895-3.75-1.113-10.02-2.872-13.15-.207-5.25 4.471-4.52 14.941-3.26 21.395 1.82 9.268 4.36 20.837 11.56 27.74zm86.74-49.184c-5.18 1.988-14.44 4.856-21.15 3.651-2.05-.368-2.58-2.961-1.19-4.594 5.96-6.977 14.36-14.506 23.64-11.301 7.18 2.479 3.33 10.466-1.3 12.244zm-31.51-25.524c5.85-1.472 9.1-5.946 12.73-10.613.47-.61.5-1.505.19-2.241-.89-2.061-1.66-5.062-3.08-5.908-7.07-4.201-14.19 3.266-15.76 10.05-1.21 5.194.53 10.071 5.92 8.712zm-35.58-3.308c5.79-2.609 9.56-11.424 12.97-16.43 1.08-3.041-1.91-5.468-4.62-6.742-5.91-2.771-10.97.336-13.52 6.332-2.02 4.745-3.3 20.656 5.17 16.84zm71.18 70.024c-1.21-8.252-8.82-12.416-15.7-14.268-4.8-1.29-10.22.93-11.17 6.143-1.17 6.463 2.13 12.956 8.35 17.647 6.94 5.23 19.98.4 18.52-9.522zm-36.28 204.492c-1.43 11.143 1.32 21.206 3.65 31.43 1.29 5.69 5.37 10.061 11.05 8.392 2.74-.804 5.47-1.781 7.76-2.189 5.34-.951 10.4-2.347 15.38-4.849 8.07-4.054 17.63-9.989 22.79-18.224 7.83-12.479-1.81-28.54-11.22-34.916-2.09-1.417-6.22-2.169-7.2-4.869-1.33-3.676-3.64-9.759-7.65-10.689-6.71-1.561-14.7 5.253-19.13 10.112-6.37 6.976-14.16 15.906-15.43 25.802zm91.11 40.452c-4.68-2.981-12.49-8.717-15.51-14.825-.93-1.869.84-3.841 2.98-3.692 9.15.638 20.2 2.908 23.14 12.28 2.28 7.248-6.43 8.904-10.61 6.237zm1.78-40.514c4.66 3.82 10.19 3.776 16.1 3.912.77.018 1.51-.487 1.91-1.179 1.13-1.937 3.09-4.342 2.92-5.991-.83-8.185-11.06-9.465-17.45-6.691-4.89 2.124-7.77 6.425-3.48 9.949zm-18.49-30.571c5.54 3.101 14.86.882 20.91.648 3.09-.945 3.27-4.789 2.67-7.73-1.28-6.397-6.78-8.613-13.12-7.097-5.02 1.199-18.57 9.642-10.46 14.179zm-13.97 98.889c5.91-5.888 4.74-14.476 2.13-21.114-1.81-4.623-6.82-7.66-11.58-5.32-5.89 2.902-9.15 9.417-9.22 17.212-.08 8.691 11.56 16.3 18.67 9.222zM1049.3 600.869c-3.81 10.57-3.3 20.991-3.25 31.477.03 5.835 3.07 10.985 8.98 10.586 2.84-.193 5.72-.555 8.05-.458 5.41.226 10.66-.041 16.06-1.405 8.76-2.211 19.37-5.938 26.2-12.86 10.34-10.49 4.4-28.259-3.4-36.52-1.74-1.836-5.61-3.465-5.98-6.313-.51-3.877-1.45-10.317-5.15-12.092-6.22-2.977-15.49 1.947-20.87 5.731-7.73 5.433-17.26 12.467-20.64 21.854zm80.18 59.215c-3.92-3.923-10.31-11.214-11.93-17.831-.5-2.025 1.65-3.568 3.71-2.959 8.8 2.603 19.09 7.211 19.93 16.998.66 7.57-8.2 7.301-11.71 3.792zm10.51-39.17c3.72 4.738 9.13 5.892 14.87 7.304.75.184 1.58-.149 2.12-.737 1.53-1.647 3.96-3.572 4.15-5.218.96-8.17-8.75-11.636-15.59-10.31-5.23 1.015-8.98 4.591-5.55 8.961zm-11.44-33.851c4.74 4.226 14.32 4.078 20.28 5.16 3.22-.256 4.22-3.97 4.28-6.97.13-6.524-4.76-9.878-11.28-9.77-5.15.085-20.21 5.396-13.28 11.58zm-35.04 93.527c7.05-4.468 7.76-13.107 6.65-20.153-.77-4.906-5-8.955-10.15-7.699-6.38 1.557-10.97 7.212-12.72 14.808-1.96 8.47 7.75 18.417 16.22 13.044z" stroke="#2C2C2C" stroke-width="4" stroke-linecap="round"/></svg>