<svg width="1233" height="376" fill="none" xmlns="http://www.w3.org/2000/svg"><path d="M142.014 122.835c2.992.027 6.011-.111 8.469.008 1.253.06 13.432 1.58 14.131-.334.788-2.154-9.307-9.67-10.391-10.506-8.892-6.853-19.564-10.115-30.36-12.639-2.91-.68-5.989-1.08-8.855-1.964-.321-.1-1.047-.34-.819-.588.949-1.034 5.671-.264 6.745-.29 6.133-.144 12.315-.946 18.249-2.524 1.221-.324 12.545-3.433 7.991-6.685-4.701-3.356-13.187-3.905-18.629-4.495-10.47-1.136-21.116-.63-31.629-.627-3.135 0-12.47.846-9.403.195 5.632-1.196 10.5-3.91 14.543-8.041 3.824-3.907.893-4.235-3.507-4.417-5.94-.246-11.72.342-17.557 1.372-5.848 1.242-11.869 2.086-17.66 3.581m78.682 47.954c-2.944-.027-5.863-.212-8.196-.956-3.073-.981 3.009-.149 8.196.956zm0 0c1.982.422 3.833.884 4.993 1.3 14.544 5.219 31.608 14.116 40.275 27.611 2.611 4.065-1.636 3.29-4.665 2.722-6.33-1.186-12.431-3.281-18.667-4.834-.403-.1-1.487-.315-1.245.022 1.14 1.589 4.328 3.108 5.795 4.069 9.136 5.989 18.838 11.734 26.83 19.242 6.281 5.9 11.163 13.357 14.04 21.474.515 1.454 2.68 5.889-.483 5.575-9.379-.931-18.434-8.035-26.31-12.702-.372-.22.726.472 1.061.745 4.147 3.367 7.823 7.299 11.326 11.311 9.276 10.623 18.235 22.157 25.629 34.185 1.894 3.081 6.802 10.624-.591 10.136-8.501-.561-16.093-5.836-22.94-10.404-4.742-3.164-1.812.477-.235 3.306 4.157 7.459 6.961 15.433 8.697 23.785.473 2.278 2.083 7.947-.891 9.542-5.759 3.089-10.645-9.611-11.755-12.676-3.817-10.537-6.572-21.105-11.592-31.207-.805-1.62-1.228-3.553-2.546-4.793-.153-.145-.25.364-.26.574-.155 3.115.234 6.232.353 9.347.201 5.271.363 9.972.32 15.243-.031 3.63.352 9.232-1.394 12.731-2.653 5.315-9.836-4.635-10.822-6.154-5.062-7.804-8.238-17.203-9.426-26.402-.536-4.147-.316-8.356-1.187-12.46-.666-3.133-.035 6.414-.358 9.601-.262 2.596-.526 17.114-4.397 18.046-4.271 1.027-9.326-17.727-10.011-19.836-3.088-9.502-5.119-19.276-7.703-28.915-1.383-5.159-1.047 1.296-1.519 3.475-.931 4.287-2.845 11.428-8.827 9.945-9.58-2.376-11.757-14.933-13.154-22.984l-.039-.228c-1.665-9.592-2.268-19.312-4.186-28.866-.109-.548-.353-5.711-1.76-3.714-3.975 5.641-8.398 9.933-14.34 13.576-7.072 4.334-10.509 2.169-12.113-6.019-1.948-9.944-1.047-20.822-.124-30.836.016-.176 1.615-11.369.522-11.438-.84-.053-1.29 1.09-1.858 1.711-2.435 2.657-4.817 5.243-7.69 7.452-2.193 1.687-7.713 6.295-8.917 1.339-1.299-5.346-.518-11.404.877-16.639.704-2.646 1.813-5.138 2.59-7.755.683-2.306-2.327-.653-3.295-.305-5.417 1.947-14.088 6.431-18.894.964-4.843-5.51-1.365-13.548 3.14-17.917 5.578-5.409 12.158-8.116 19.063-9.899M164.39 189.802c-14.705-23.084-34.074-43.26-52.666-63.148-16.14-17.266-32.483-34.319-48.392-51.773M8.241 7.751c9.35 12.524 18.556 25.034 28.628 37.018 8.605 10.24 17.465 20.24 26.462 30.112M10.22 9.621a5.79 5.79 0 00-.174-1.05m0 0a6.278 6.278 0 00-.02-.075m.02.076c-.02.168-.07.336-.154.504-.354.704-.958.878-1.686.632-.41-.139-.838-.397-.953-.82m2.793-.316l.009-.1m-.03.024a6.117 6.117 0 00-.264-.758m.265.758c-.833.687-1.87.743-2.773.392m2.773-.392l.029-.024m-.294-.734a6.53 6.53 0 00-.063-.144m.063.144c-.214 1.056-1.987 1.563-2.537.53m2.537-.53c.007-.03.011-.06.015-.09m-.078-.054a7.517 7.517 0 00-.729-1.256m.73 1.256l.077.053m-.078-.053c-.483-.323-1.045-.554-1.533-.554m.804-.702c-.327-.46-.702-.894-1.105-1.307M8.97 6.338a2.573 2.573 0 01-.804.702m.804-.702l.04-.057M7.863 5.03a14.098 14.098 0 00-.094-.095m.094.095l.015-.021m-.015.021c-.491.73-.807 1.69-.806 2.445m.712-2.54a20.02 20.02 0 00-1.33-1.209m1.33 1.209l.109.074m-.109-.074c-.79-.524-1.65-.797-2.243-.43m.913-.779l-.243-.2m.243.2c-.17.132-.35.186-.508.1m.508-.1c.023-.018.047-.037.07-.058m-.313-.143a39.317 39.317 0 00-.313-.254m.313.254l.05-.047m-.05.047a2.865 2.865 0 00-.265.301m-.048-.555c-1.099-.857-2.536-1.406-3.54-.065-1.24 1.658 1.16 3.989 2.625 4.317.15.033.306.058.465.074m.45-4.326c.066.022.13.053.171.079.065.041.129.084.192.127m-.363-.206c-.151-.049-.312-.047-.226.181.076.199.17.317.274.374m-.498 3.77c.076.008.153.014.23.017m-.23-.016c-.684-1.006-.991-2.16-.055-2.983.047-.041.097-.078.148-.11m-.093 3.093c.59.868 1.461 1.626 2.055 1.966.683.39 2.017.921 2.81.544.448-.214.656-.95.466-1.384a2.097 2.097 0 00-.402-.574m-4.699-.536c.458.022.938-.026 1.394-.138m-1.394.138a2.836 2.836 0 01-.474-1.902c.048-.424.166-.836.337-1.206m.137 3.108a3.406 3.406 0 001.589 1.274m-.196-1.412a4.69 4.69 0 00.378-.109m-.377.11c0 .258.037.493.116.686.016.037.032.072.05.105m.211-.901c.26-.087.507-.197.73-.327m-.73.327a.564.564 0 01.257-.238 1.2 1.2 0 01.473-.09m-.73.328c-.145.239-.196.593-.211.901M9.007 6.28c.033-.05.064-.1.091-.152m-.09.152c.275.335.56.705.763 1.093M9.007 6.28c-.139-.17-.276-.33-.398-.48a22.313 22.313 0 00-.58-.683m1.07 1.01c.292-.545.292-1.228-.187-2.027a4.102 4.102 0 00-.02-.033m.206 2.06c.358.43.607.863.667 1.204l.006.042M9.1 6.13a6.388 6.388 0 00-1.07-1.01m.864-1.051c-.6-.983-1.307-1.227-1.942-1.02m1.942 1.02c.243-.113.498-.16.758-.115 1.82.308 1.627 3.002.712 4.197m-1.47-4.082c-.369.172-.708.502-.991.908m-.953-1.93c-.25.08-.487.23-.704.431m.704-.43a2.009 2.009 0 01-.441.621m.44-.622c.108-.231.167-.466.144-.638-.035-.272-.799-.343-1.046-.409m.2 1.478c.088.062.175.125.262.191m-.578.158c-.154.202-.291.43-.405.679m1.726 4.382a.86.86 0 01-.03-.19 4.82 4.82 0 01.001-.43m2.83.204a1.941 1.941 0 00.308-.322m-.307.322a1.837 1.837 0 00-.108-.698m.416.376a3.734 3.734 0 00-.416-.376M7.902 4.976a4.265 4.265 0 00-.023.034m.023-.034l.127.142m-.127-.142A10.626 10.626 0 006.51 3.67m1.369 1.34c.05.036.1.072.15.11m1.747 2.528c.01-.088.01-.179-.004-.273m.004.273c.058.041.115.083.17.127m-.174-.4c.069.131.128.265.175.4M1128.17 329.246c2.25 1.019 4.46 2.173 6.35 2.938.96.389 10.61 3.47 10.47 5.166-.16 1.91-10.33 4.109-11.43 4.366-9.04 2.114-18.17.882-27.13-.955-2.42-.495-4.86-1.262-7.32-1.586-.27-.037-.9-.106-.81.161.35 1.116 4.15 2.172 4.95 2.565 4.55 2.242 8.9 5.001 12.8 8.262.8.67 8.21 6.969 3.67 7.855-4.69.915-11.24-1.619-15.52-3.062-8.24-2.778-16.04-6.863-23.92-10.52-2.35-1.09-9.05-4.978-6.98-3.417 3.81 2.866 6.52 6.62 8.11 11.163 1.52 4.297-.79 3.527-4.16 2.135-4.53-1.879-8.66-4.334-12.68-7.146-3.95-2.976-8.17-5.71-11.99-8.859m75.59-9.066c-2.22-1.004-4.47-1.878-6.47-2.123-2.65-.324 2.2 1.159 6.47 2.123zm0 0c1.63.368 3.18.661 4.19.748 12.71 1.093 28.58.268 39.75-6.968 3.37-2.18-.08-3.068-2.55-3.69-5.15-1.299-10.45-1.829-15.66-2.818-.34-.064-1.23-.278-.93-.45 1.41-.81 4.32-.855 5.76-1.075 8.92-1.372 18.18-2.363 26.77-5.287 6.75-2.297 13-6.263 17.97-11.428.89-.925 4.05-3.541 1.57-4.402-7.35-2.554-16.6-.306-24.12.5-.35.038.71-.106 1.05-.197 4.28-1.115 8.4-2.824 12.41-4.653 10.64-4.843 21.35-10.489 31.06-17.053 2.49-1.682 8.78-5.704 3.07-7.904-6.56-2.529-14.08-1.162-20.8-.073-4.65.754-1.19-.992.97-2.593 5.7-4.22 10.57-9.301 14.77-15.041 1.14-1.566 4.31-5.311 2.64-7.557-3.25-4.348-11.31 3.599-13.21 5.541-6.51 6.675-12.24 13.744-19.5 19.671-1.17.951-2.15 2.272-3.57 2.756-.17.056-.06-.364 0-.527.97-2.419 2.34-4.651 3.51-6.976 1.98-3.934 3.73-7.448 5.52-11.466 1.24-2.767 3.47-6.889 3.37-10.153-.14-4.96-8.98.1-10.24.911-6.5 4.167-12.14 10.202-16.22 16.775-1.84 2.964-3.13 6.236-5.21 9.051-1.58 2.148 2.2-4.884 3.06-7.416.71-2.063 5.54-13.181 2.96-15.235-2.84-2.265-13.13 10.221-14.37 11.585-5.61 6.144-10.52 12.86-15.8 19.283-2.83 3.437-.34-1.348.06-3.167.79-3.58 1.84-9.669-3.16-10.622-8-1.526-13.99 7.253-17.83 12.883l-.11.159c-4.57 6.706-8.39 13.879-13.14 20.469-.27.377-2.24 4.214-2.61 2.208-1.02-5.666-2.85-10.463-6.04-15.296-3.79-5.751-7.12-5.301-11.16.36-4.91 6.876-8 15.451-10.78 23.377-.05.139-2.73 9.196-3.58 8.869-.65-.252-.59-1.277-.8-1.946-.9-2.864-1.79-5.657-3.17-8.333-1.06-2.044-3.6-7.463-6.22-4.117-2.83 3.609-4.35 8.481-5.12 12.942-.38 2.255-.42 4.533-.74 6.79-.29 1.989-1.97-.313-2.58-.914-3.38-3.361-8.32-9.782-13.82-7.3-5.54 2.5-5.72 9.814-3.86 14.699 2.3 6.047 6.3 10.391 10.85 14.146m115.57-52.149c-19.02 12.42-40.53 21.01-61.36 29.651-18.08 7.503-36.24 14.772-54.21 22.498m-64.554 31.832c11.348-6.261 22.584-12.562 34.284-18.163 10-4.785 20.11-9.3 30.27-13.669m-62.422 31.096a4.785 4.785 0 01-.494.737m0 0l-.041.05m.041-.05c.043-.135.065-.28.06-.437-.021-.657-.414-1-1.045-1.066-.356-.037-.765.011-.998.291m1.983 1.212a1.243 1.243 0 01-.028.079m-.013-.029a5.153 5.153 0 01-.461.484m.461-.484c-.386-.811-1.145-1.214-1.942-1.262m1.942 1.262l.013.029m-.474.455l-.097.087m.097-.087c.205-.877-.948-1.878-1.718-1.285m1.718 1.285a1.025 1.025 0 01-.021.074m-.076.013a6.216 6.216 0 01-.983.701m.983-.701l.076-.013m-.076.013c-.475.078-.976.058-1.341-.112m.358.813a8.999 8.999 0 01-1.28.608m1.28-.608a2.154 2.154 0 00-.358-.813m.358.813l.01.057m-1.29.551a4.434 4.434 0 01-.104.04m.104-.04l.003.022m-.003-.022c-.116-.725-.019-1.564.243-2.137m-.347 2.177c-.463.175-.94.323-1.416.455m1.416-.455l.107-.018m-.107.018c-.774.123-1.512.032-1.83-.453m.414.908l-.251.069m.251-.069c-.082-.159-.198-.263-.346-.252m.346.252a.727.727 0 01.032.069m-.283 0l-.229.06-.094.024m.323-.084c.007.018.013.036.021.053m-.021-.053a2.443 2.443 0 01-.095-.321m-.228.405c-1.121.269-2.388.186-2.675-1.182-.355-1.69 2.251-2.626 3.463-2.365.124.026.249.062.374.105m-1.162 3.442a.725.725 0 00.155 0 4.13 4.13 0 00.189-.031m-.344.031c-.131-.016-.25-.073-.106-.216.125-.125.236-.182.334-.189m.934-3.037c.06.021.119.043.178.067m-.178-.067c-.861.526-1.491 1.296-1.075 2.246a.873.873 0 00.073.135m1.002-2.381c.744-.454 1.659-.727 2.222-.779.647-.059 1.831.002 2.294.564.262.318.162.949-.13 1.213a1.714 1.714 0 01-.501.296m-3.707-1.227a4.1 4.1 0 01.997.59m-.997-.59a2.38 2.38 0 00-1.015 1.28c-.11.339-.164.693-.165 1.034m1.18-2.314a2.801 2.801 0 011.633-.415m-.636 1.005c.085.068.167.14.245.214m-.245-.214c.09-.197.199-.362.325-.481.025-.023.049-.044.074-.063m-.154.758c.164.157.311.326.434.502m-.434-.502a.477.477 0 00.11.27.972.972 0 00.324.232m-.434-.502c-.026-.232.058-.519.154-.758m.648 2.13c.008.049.013.098.016.147m-.016-.147c.323-.159.665-.341.952-.565m-.952.565c-.163.08-.321.154-.465.225-.217.108-.441.215-.672.317m1.153-.395c.03.516-.207 1.035-.843 1.476l-.026.018m.869-1.494c.416-.202.753-.444.916-.682l.02-.03m-.936.712a5.223 5.223 0 01-1.153.395m.284 1.099c-.791.537-1.405.477-1.81.099m1.81-.099c.142.17.317.293.528.35 1.471.399 2.259-1.714 1.988-2.94m-2.516 2.59c-.217-.26-.357-.628-.428-1.035m-1.382 1.134a1.586 1.586 0 01-.377-.572m.377.572c0-.216-.039-.446-.115-.625m.115.625c0 .213-.037.412-.114.535-.121.194-.717-.017-.926-.053m.663-1.054a4.86 4.86 0 00.262-.053m-.378-.321a2.972 2.972 0 01-.068-.656m2.813-2.729a.714.714 0 00-.088.135 3.858 3.858 0 00-.149.326m2.192.83a1.608 1.608 0 01.119.351m-.119-.351a1.527 1.527 0 01-.323.492m.442-.141a2.97 2.97 0 01-.442.141m-2.502 1.414l-.006-.033m.006.033l.144-.064m-.144.064a8.807 8.807 0 01-1.497.509m1.491-.542l.15-.031m2.186-1.313a.939.939 0 01-.097.206m.097-.206c.058-.011.115-.023.172-.037m-.269.243c.097-.076.187-.156.269-.243" stroke="#2C2C2C" stroke-width="4" stroke-linecap="round"/></svg>