<svg width="23" height="21" fill="none" xmlns="http://www.w3.org/2000/svg"><path fill-rule="evenodd" clip-rule="evenodd" d="M12.244 2.187c-1.72-.412-4-.103-5.78.53-1.365.486-2.49 1.012-3.218 1.956-.565.732-.89 1.39-1.066 2.062-.178.68-.218 1.43-.146 2.367.103 1.345.512 2.418 1.37 3.395.543.619 1.39.893 2.525 1.149 2.11.475 4.69.393 6.858-.197a3.26 3.26 0 01.386-.309c.19-.131.44-.275.58-.357l.094-.054c.131-.08.254-.153.369-.222.616-.368 1.016-.607 1.314-1.026 1.186-1.67.849-3.795-.015-5.978-.707-1.784-1.574-2.909-3.271-3.316zm3.955 11.419a4.47 4.47 0 00.961-.967c1.823-2.565 1.116-5.593.214-7.872C16.559 2.71 15.323.87 12.71.242c-2.222-.532-4.915-.12-6.915.59-1.395.498-3.02 1.178-4.132 2.62C.962 4.359.5 5.255.246 6.228c-.253.966-.289 1.955-.206 3.027.132 1.72.682 3.219 1.861 4.562 1.02 1.16 2.485 1.531 3.59 1.78 2.332.525 5.112.464 7.534-.143a1 1 0 00.948-.272 13.006 13.006 0 00.625-.223 6.53 6.53 0 00.433.277c.121.074.213.13.304.194 1.941 1.355 3.932 2.946 5.187 4.765a1 1 0 101.646-1.136c-1.47-2.132-3.716-3.892-5.688-5.27a6.474 6.474 0 00-.281-.183z" fill="#2C2C2C"/></svg>