<svg width="25" height="25" fill="none" xmlns="http://www.w3.org/2000/svg"><mask id="a" fill="#fff"><rect width="25" height="25" rx="1.2"/></mask><rect width="25" height="25" rx="1.2" stroke="#2C2C2C" stroke-width="3.4" mask="url(#a)"/><path d="M7.507 6.534a1.048 1.048 0 00-.685.134h-.018c-.478.281-.91.636-1.277 1.051-.306.354-.472.711-.515 1.055-.026.205-.009.41.052.607l.022.013a15.096 15.096 0 001.343 2.9 17.065 17.065 0 002.591 3.542l.03.043.048.036.03.035.035.03a17.309 17.309 0 003.55 2.603c1.475.802 2.369 1.182 2.905 1.34v.008c.158.047.301.069.445.069.458-.034.89-.22 1.23-.527a5.08 5.08 0 001.039-1.282v-.009c.257-.484.17-.942-.201-1.252a15.475 15.475 0 00-2.4-1.722c-.57-.31-1.15-.122-1.386.192l-.502.632c-.257.314-.724.27-.724.27l-.013.009c-3.485-.89-4.414-4.418-4.414-4.418s-.044-.48.279-.725l.628-.505c.3-.245.51-.824.187-1.396a15.065 15.065 0 00-1.718-2.4.955.955 0 00-.563-.335l.002.002zM13.396 5a.638.638 0 000 1.276c1.613 0 2.954.527 4.013 1.537a5.67 5.67 0 011.248 1.924c.28.72.407 1.486.375 2.254a.638.638 0 001.274.054 6.838 6.838 0 00-.46-2.77 6.944 6.944 0 00-1.536-2.366l-.012-.012C16.982 5.64 15.317 5 13.395 5z" fill="#000"/><path d="M13.35 7.098a.638.638 0 000 1.276h.022c1.164.082 2.011.47 2.605 1.107.608.656.923 1.471.9 2.48a.638.638 0 001.275.03c.031-1.325-.395-2.466-1.24-3.378v-.001c-.864-.926-2.049-1.417-3.476-1.512l-.02-.002h-.065z" fill="#000"/><path d="M13.328 9.235a.638.638 0 10-.067 1.274c.534.028.874.188 1.089.404.215.218.375.565.405 1.11a.638.638 0 101.274-.068c-.041-.766-.28-1.443-.773-1.94-.493-.497-1.166-.74-1.928-.78z" fill="#000"/></svg>