<svg width="773" height="375" viewBox="0 0 773 375" fill="none" xmlns="http://www.w3.org/2000/svg">
<path fill-rule="evenodd" clip-rule="evenodd" d="M469.145 134.066C466.543 100.291 458.33 68.6549 437.815 37.1835C424.308 16.4627 402.441 2.0287 376.963 0.0744199C367.386 -0.66016 360.964 4.15091 356.886 9.75638C353.933 13.8171 351.737 19.0171 350.109 22.8729C349.773 23.6684 349.461 24.4067 349.172 25.066C346.227 31.7773 342.63 38.2156 338.778 45.0512L338.389 45.7422L338.386 45.7478C334.715 52.2601 330.824 59.1624 327.533 66.4542C326.338 69.1025 325.047 71.8258 323.724 74.6152L323.722 74.6209C320.854 80.6686 317.839 87.0268 315.337 93.6048C313.002 99.7415 311.405 105.722 310.311 111.629C308.672 109.595 306.952 107.596 305.191 105.672C298.95 98.8535 291.56 92.2917 284.507 88.3845C279.193 85.4407 274.359 81.2421 268.646 76.2714L268.593 76.2256C263.178 71.5142 256.897 66.0502 249.581 62.1877C231.767 52.7839 213.87 44.4028 194.154 38.3015C183.509 35.0073 166.766 30.0546 154.249 29.5745C153.901 29.5611 153.468 29.5216 152.78 29.4587C152.282 29.4132 151.649 29.3553 150.817 29.2863C149.15 29.1479 146.997 29.001 144.846 29.0366C142.882 29.0692 140.036 29.2531 137.384 30.2549C134.57 31.3176 129.941 34.2756 129.694 40.4237C129.466 46.0957 129.544 52.0066 129.618 57.6134C129.653 60.2798 129.687 62.8782 129.687 65.3512C129.687 80.2457 132.822 94.3289 136.504 107.636C137.812 112.363 139.158 116.9 140.477 121.347C142.986 129.805 145.399 137.941 147.278 146.455C147.731 148.512 148.233 150.67 148.785 152.905C141.924 151.373 134.769 150.991 128.072 150.995C122.678 150.999 117.249 151.263 112.196 151.513L111.929 151.527C106.892 151.776 102.274 152.004 98.0241 152.004C96.3015 152.004 94.2289 151.796 91.4792 151.52L90.5348 151.425C87.6032 151.133 83.9711 150.794 80.5263 150.936C77.2481 151.072 72.7306 151.67 68.8847 154.386C64.398 157.554 62.3582 162.447 62.3582 167.82C62.3582 181.299 65.9367 193.587 69.2412 204.582L69.6317 205.881C72.1745 214.331 74.4828 222.003 75.598 229.746C70.5556 231.13 65.1585 232.756 59.8501 234.684C51.1436 237.847 42.0401 242.042 34.9937 247.791C31.913 250.305 28.3418 252.002 23.6712 254.084L22.8564 254.446C18.603 256.336 13.3643 258.663 8.54953 262.264C7.80809 262.818 7.19697 263.185 6.40391 263.661L6.07916 263.857L6.07477 263.859C5.67716 264.099 4.9407 264.542 4.23401 265.08C3.55834 265.594 2.23142 266.686 1.24299 268.477C-1.46703 273.385 0.952561 277.768 1.94751 279.279C2.97999 280.848 4.49561 282.454 5.83352 283.841C10.8027 288.995 16.4284 294.02 21.7962 298.816L21.8006 298.82C23.1622 300.036 24.5071 301.238 25.8204 302.423C32.5013 308.451 38.5571 314.21 43.3263 320.263C50.931 329.914 61.2335 339.06 71.9879 345.347C77.5873 348.62 82.8831 352.287 88.4936 356.173C90.149 357.319 91.832 358.485 93.5585 359.665C97.3554 362.26 101.309 364.886 105.458 367.355C104.363 368.047 103.34 368.735 102.401 369.38C100.758 370.509 98.9733 371.803 97.3469 372.983L97.3454 372.984L97.336 372.991C96.4137 373.659 95.5418 374.292 94.7746 374.836C94.6972 374.892 94.6203 374.946 94.5439 375H165.794C154.991 371.126 144.199 366.303 133.264 361.415L133.237 361.403L133.219 361.395C130.459 360.162 127.69 358.924 124.909 357.697C117.616 354.478 110.753 350.096 103.531 345.159C102.013 344.121 100.466 343.05 98.8938 341.961C93.1908 338.009 87.1521 333.825 80.9074 330.175C72.1546 325.058 63.5053 317.406 57.1949 309.397C51.4282 302.079 44.3992 295.468 37.6542 289.382C36.1911 288.062 34.7472 286.771 33.3262 285.501L33.3093 285.486C29.1721 281.788 25.2281 278.263 21.5738 274.694C24.1555 273.132 27.065 271.835 30.6133 270.253L30.8694 270.139C35.4225 268.11 41.0344 265.586 46.1623 261.403C50.9502 257.496 57.8933 254.112 65.8871 251.209C73.7792 248.342 82.0806 246.156 89.2594 244.367C93.9173 243.205 98.7784 241.645 103.282 240.2C105.433 239.51 107.503 238.846 109.429 238.264C115.789 236.343 121.592 234.963 127.388 234.749C133.954 234.506 140.415 232.602 145.807 230.918C146.269 230.773 146.723 230.631 147.17 230.49L148.069 230.207C152.841 228.702 156.809 227.451 160.641 226.863C169.91 225.441 178.757 225.01 188.314 224.908C185.583 232.319 183.483 239.579 182.02 246.23C181.254 249.708 180.451 253.205 179.642 256.727C175.981 272.667 172.203 289.117 171.283 306.65C170.922 313.541 171.98 320.474 172.879 326.359C173.009 327.211 173.136 328.04 173.254 328.844C174.258 335.657 174.793 341.168 173.812 346.319C172.69 352.209 174.191 357.943 176.216 362.778C177.934 366.883 180.327 371.022 182.868 375H204.116C203.987 374.812 203.857 374.625 203.729 374.438C202.075 372.043 200.5 369.76 199.104 367.644C196.162 363.187 193.89 359.343 192.491 356.002C191.062 352.59 190.944 350.628 191.14 349.601C192.728 341.265 191.713 333.136 190.704 326.287C190.57 325.377 190.437 324.492 190.306 323.627L190.305 323.616L190.303 323.606C189.391 317.548 188.636 312.537 188.896 307.569C189.729 291.699 193.088 277.037 196.718 261.19L196.72 261.182L196.744 261.075C199.723 261.379 202.669 261.66 205.583 261.938C223.343 263.633 239.919 265.214 255.394 271.148C270.1 276.787 281.316 283.409 291.7 294.246C302.949 305.986 314.777 325.548 318.63 341.11C318.387 341.764 318.219 342.456 318.136 343.18C317.993 344.432 317.466 345.965 316.332 348.448C316.147 348.854 315.933 349.309 315.701 349.802C314.737 351.85 313.459 354.568 312.599 357.238L312.147 358.639C310.386 364.099 308.652 369.477 307.129 375H325.483C326.593 371.299 327.817 367.5 329.117 363.467L329.391 362.617C329.874 361.117 330.512 359.755 331.387 357.885L331.393 357.871C331.694 357.229 332.023 356.525 332.383 355.736C333.581 353.114 335.091 349.572 335.616 345.532C336.494 343.821 336.819 341.812 336.406 339.782C332.352 319.862 317.895 296.126 304.452 282.097C291.84 268.935 278.204 261.052 261.725 254.733C243.763 247.845 224.041 245.988 205.984 244.287L205.982 244.287C204.229 244.122 202.491 243.958 200.773 243.791C203.789 232.645 208.622 220.157 215.153 208.833C222.993 195.24 232.792 184.161 244.006 178.488C254.08 173.393 266.842 167.877 279.906 163.834C293.094 159.753 305.953 157.375 316.453 158.025C335.291 159.192 354.586 166.125 374.376 173.235C377.316 174.292 380.267 175.352 383.229 176.398C384.952 177.007 386.729 177.694 388.561 178.404C399.851 182.775 413.254 187.963 429.147 180.404C444.664 173.025 470.61 171.213 488.733 173.423C530.086 178.464 566.43 194.717 589.574 229.07C591.363 231.726 592.973 234.505 594.42 237.389C567.306 235.865 540.406 240.242 514.775 248.177C491.133 255.497 473.416 271.011 457.453 286.218L456.858 286.785C449.455 293.83 440.354 302.489 438.005 316.468C436.702 324.223 436.508 331.912 436.33 338.996C436.283 340.877 436.236 342.716 436.171 344.502C436.126 345.712 436.329 346.875 436.734 347.94C436.744 352.227 437.904 356.459 439.016 359.749C440.198 363.246 441.704 366.703 442.823 369.273L442.826 369.279C443.022 369.73 443.207 370.154 443.375 370.545C444 371.995 444.543 373.477 445.029 375H463.333C462.353 371.143 461.152 367.252 459.581 363.605C459.457 363.318 459.333 363.03 459.207 362.741L458.938 362.121C457.812 359.53 456.651 356.859 455.73 354.132C454.572 350.705 454.27 348.495 454.395 347.403C454.562 345.941 454.359 344.522 453.861 343.239C453.909 341.7 453.948 340.209 453.986 338.753L453.986 338.744C454.165 331.864 454.322 325.788 455.4 319.374C456.704 311.616 461.539 306.65 469.637 298.934C485.493 283.829 500.638 270.969 520.005 264.973C546.638 256.727 574.085 252.774 601.192 255.565C606.662 276.115 606.714 299.491 605.211 321.046C604.961 324.644 603.901 328.484 602.319 332.884C601.623 334.82 600.871 336.745 600.074 338.785L600.073 338.789L599.755 339.602C598.861 341.895 597.919 344.333 597.084 346.794C593.876 356.249 592.13 365.908 590.631 375H693.296C698.988 373.048 704.805 371.035 710.477 368.832C726.022 362.794 741.627 354.92 754.547 341.007C758.356 336.905 764.825 327.343 768.924 317.836C770.967 313.098 772.779 307.574 772.982 302.295C773.19 296.884 771.64 289.952 764.871 285.981C751.763 278.293 738.466 272.588 724.195 267.506C718.244 265.386 712.938 262.613 707.015 259.517L706.899 259.457C706.151 259.066 705.392 258.669 704.621 258.268C700.726 256.244 696.576 254.145 692.052 252.271C692.551 251.518 693.105 250.595 693.557 249.582C693.744 249.162 694.402 248.135 695.79 246.485C696.717 245.383 697.629 244.389 698.567 243.368L698.582 243.351C698.992 242.904 699.408 242.452 699.832 241.982C703.96 237.408 707.124 231.613 709.616 226.31C711.392 222.531 713.043 218.508 714.471 215.027C715.034 213.657 715.562 212.371 716.049 211.217C720.737 200.114 723.702 188.868 723.702 176.158C723.702 170.947 723.415 165.679 723.144 160.69L723.143 160.685L723.143 160.681C723.028 158.568 722.916 156.505 722.829 154.519L722.826 154.435C722.784 153.482 722.701 151.547 722.278 149.574C721.9 147.809 720.893 144.143 717.607 141.523C713.84 138.518 709.01 137.538 706.17 137.036C705.042 136.837 703.827 136.657 702.805 136.506L702.798 136.505C702.418 136.449 702.066 136.397 701.755 136.349C700.418 136.144 699.61 135.99 699.094 135.847C694.057 134.452 688.721 134.421 684.216 134.673C681.465 134.826 678.309 135.153 675.632 135.43C674.203 135.577 672.911 135.711 671.891 135.797C668.844 136.052 665.901 136.021 662.523 135.985H662.521C661.256 135.971 659.93 135.957 658.514 135.957C652.463 135.957 647.221 137.846 643.386 139.252L643.001 139.393C642.068 139.735 641.215 140.049 640.421 140.33C639.314 130.194 637.445 119.904 634.702 109.238C633.652 105.154 629.988 91.5195 625.413 78.8056C623.144 72.5008 620.522 66.0531 617.741 61.0497C616.369 58.5815 614.736 56.0536 612.817 54.0269C611.142 52.2593 607.783 49.307 602.943 49.307C595.06 49.307 586.541 52.231 579.431 55.1567C575.743 56.6742 572.127 58.3278 568.848 59.8406L567.822 60.3142C564.898 61.6646 562.32 62.855 560.021 63.8201C543.385 70.8046 528.777 80.5197 514.76 89.8416L513.439 90.72C506.639 95.2406 501.168 101.209 496.477 106.683C495.304 108.051 494.19 109.375 493.112 110.656L493.107 110.663L493.106 110.663C489.637 114.785 486.544 118.46 483.099 121.723C480.953 123.756 478.435 125.945 475.611 128.393L475.371 128.601C473.38 130.327 471.26 132.164 469.145 134.066ZM366.724 28.8847L366.721 28.8895C366.292 29.8954 365.834 30.9682 365.331 32.1151C361.982 39.7472 357.958 46.9163 354.154 53.6666L353.913 54.0939C350.132 60.8035 346.58 67.1053 343.617 73.6712C342.124 76.9793 340.676 80.03 339.28 82.9684C336.587 88.6379 334.088 93.9007 331.828 99.842C326.678 113.379 325.764 126.051 325.609 141.262C344.54 143.764 363.491 150.599 380.594 156.768C383.491 157.812 386.335 158.838 389.117 159.82C391.624 160.706 393.89 161.547 395.968 162.319L395.97 162.32L395.971 162.321C407.218 166.498 412.945 168.626 421.554 164.531C430.004 160.512 440.293 157.92 450.857 156.46C451.007 155.927 451.209 155.4 451.467 154.886C451.765 154.291 452.082 153.701 452.415 153.116C451.534 114.117 444.87 80.2758 423.027 46.768C412.181 30.1288 395.033 19.0992 375.61 17.6094C373.811 17.4714 372.745 17.9083 371.164 20.0821C369.514 22.3496 368.314 25.1591 366.724 28.8847ZM675.325 245.306C675.094 245.623 674.834 245.986 674.563 246.385C673.935 246.158 673.295 245.923 672.636 245.681C672.232 245.533 671.822 245.382 671.404 245.23C667.835 243.925 663.777 242.489 659.275 241.519C650.766 239.684 641.763 239.614 633.445 239.909C630.035 240.03 626.853 240.203 623.802 240.369C625.598 237.108 627.481 233.662 629.257 230.144C633.164 222.406 636.879 213.713 638.287 204.59C640.733 188.737 641.971 173.594 641.614 158.398C644.234 157.699 646.594 156.824 648.551 156.099L648.554 156.098L649.048 155.915L649.473 155.758C653.388 154.323 655.95 153.544 658.514 153.544C659.497 153.544 660.554 153.556 661.66 153.568C665.265 153.608 669.413 153.654 673.37 153.321C675.159 153.171 676.756 153.002 678.299 152.839C680.565 152.599 682.719 152.371 685.203 152.232C689.094 152.014 692.134 152.172 694.374 152.792C695.989 153.24 697.706 153.522 699.075 153.732C699.283 153.764 699.485 153.794 699.68 153.823C699.956 153.865 700.221 153.904 700.478 153.942C701.398 154.078 702.218 154.199 703.097 154.354C703.988 154.511 704.67 154.665 705.186 154.799C705.194 154.951 705.201 155.111 705.209 155.282C705.313 157.681 705.438 159.967 705.56 162.193C705.82 166.95 706.065 171.433 706.065 176.158C706.065 185.953 703.822 194.852 699.794 204.392C699.17 205.869 698.562 207.35 697.954 208.832C696.593 212.151 695.226 215.485 693.646 218.847C691.376 223.675 689.091 227.593 686.722 230.217C686.581 230.374 686.422 230.548 686.248 230.738C686.131 230.866 686.007 231.001 685.878 231.142L685.822 231.203C684.808 232.307 683.467 233.768 682.276 235.184C680.746 237.003 678.733 239.577 677.476 242.357L677.462 242.38C677.421 242.446 677.295 242.647 677.021 243.028C676.813 243.317 676.578 243.63 676.281 244.023L676.216 244.11C675.95 244.463 675.635 244.881 675.325 245.306ZM657.938 369.5L657.835 369.5C655.913 369.5 654.134 370.114 652.685 371.155C650.395 371.669 647.691 372.098 644.697 372.424C639.231 373.019 633.572 373.197 629.244 373.197C625.756 373.197 620.433 373.243 615.164 373.816C613.162 374.034 610.871 374.354 608.535 374.877C609.878 367.004 611.36 359.595 613.791 352.431C614.487 350.382 615.298 348.272 616.193 345.977L616.506 345.175L616.511 345.161C617.298 343.149 618.14 340.993 618.921 338.82C620.692 333.896 622.388 328.267 622.806 322.265C624.158 302.868 624.512 279.959 619.926 258.181C621.771 258.094 623.623 257.995 625.45 257.897C628.44 257.737 631.362 257.581 634.073 257.485C642.044 257.202 649.254 257.351 655.548 258.708C658.756 259.4 661.823 260.459 665.335 261.742C665.592 261.836 665.852 261.931 666.115 262.028L666.533 262.182C669.631 263.32 673.156 264.616 676.897 265.624C683.805 267.486 689.866 270.432 696.468 273.863C696.974 274.126 697.484 274.393 697.999 274.662L698.788 275.076C704.613 278.126 711.065 281.504 718.263 284.068C731.631 288.829 743.664 294.008 755.351 300.803C755.365 300.992 755.372 301.258 755.358 301.621C755.277 303.725 754.432 306.92 752.721 310.89C749.311 318.798 743.881 326.607 741.605 329.058C731.323 340.132 718.58 346.81 704.076 352.444C698.302 354.687 692.427 356.701 686.333 358.789L686.33 358.79C685.746 358.991 685.16 359.191 684.571 359.393C684.013 359.585 683.453 359.777 682.891 359.971C682.405 360.138 681.917 360.306 681.428 360.476C673.724 363.139 665.759 366.002 657.938 369.5ZM472.931 154.959C479.373 154.948 485.486 155.309 490.874 155.966C535.471 161.403 577.323 179.348 604.214 219.263C606.328 222.4 608.227 225.656 609.931 229.006C611.162 226.744 612.362 224.496 613.504 222.235C617.143 215.028 619.87 208.296 620.855 201.916C625.595 171.194 625.452 144.073 617.617 113.606C616.62 109.727 613.114 96.7014 608.812 84.7451C606.642 78.7148 604.399 73.325 602.315 69.5748C601.694 68.4591 601.164 67.6272 600.738 67.0317C596.847 67.4874 591.9 69.0513 586.159 71.4137C582.847 72.7764 579.529 74.2909 576.254 75.802L575.212 76.2829C572.348 77.6057 569.47 78.935 566.865 80.0287C551.799 86.354 538.417 95.2511 524.001 104.835L523.222 105.353C518.582 108.438 514.432 112.803 509.885 118.109C508.965 119.183 508.014 120.313 507.036 121.477C503.452 125.741 499.489 130.455 495.246 134.474C492.767 136.822 489.944 139.272 487.182 141.666L487.027 141.8C484.263 144.196 481.517 146.576 478.894 149.009C476.662 151.078 474.659 153.062 472.931 154.959ZM308.001 138.564C307.991 139.201 307.982 139.838 307.975 140.477C297.045 141.1 285.523 143.681 274.678 147.037C260.48 151.431 246.791 157.359 236.027 162.804C220.532 170.642 208.572 184.967 199.864 200.066C198.578 202.296 197.351 204.562 196.186 206.85C188.964 201.566 182.773 192.971 177.607 182.342C171.286 169.334 167.129 154.577 164.503 142.676C162.497 133.585 159.768 124.368 157.15 115.528L157.149 115.527C155.876 111.229 154.63 107.02 153.506 102.958C149.958 90.1356 147.324 77.8629 147.324 65.3512C147.324 62.3718 147.286 59.5173 147.248 56.7329V56.73C147.202 53.3075 147.157 49.9882 147.187 46.6637C147.883 46.6985 148.611 46.7508 149.354 46.8124C149.681 46.8396 150.061 46.8738 150.463 46.9099L150.483 46.9118C151.55 47.0078 152.769 47.1175 153.571 47.1483C163.344 47.5231 177.807 51.6572 188.926 55.098C207.164 60.7419 223.975 68.5701 241.328 77.7307C246.571 80.4985 251.379 84.589 257.051 89.5232L257.639 90.0358C262.891 94.6077 268.958 99.8899 275.941 103.758C280.649 106.366 286.555 111.4 292.164 117.528C297.738 123.617 302.392 130.1 304.905 135.113C305.636 136.571 306.72 137.739 308.001 138.564ZM152.396 172.613C153.197 173.012 154.029 173.278 154.868 173.42C156.829 178.98 159.104 184.596 161.735 190.011C164.729 196.172 168.302 202.315 172.571 207.885C167.784 208.213 162.942 208.716 157.959 209.48C152.666 210.293 147.244 212.011 142.599 213.483L142.595 213.485C141.889 213.709 141.201 213.927 140.533 214.135C135.06 215.845 130.663 217.029 126.735 217.174C118.658 217.472 111.136 219.373 104.316 221.432C101.747 222.208 99.3693 222.974 97.083 223.709L97.0782 223.711L97.0724 223.713L97.0704 223.713C95.5899 224.19 94.1476 224.654 92.7167 225.101C91.3152 216.703 88.9219 208.77 86.7034 201.417L86.6976 201.397C86.5089 200.772 86.3216 200.151 86.1362 199.534C82.8722 188.673 80.135 178.898 80.0006 168.61C80.327 168.567 80.7409 168.529 81.2574 168.508C83.2882 168.424 85.7498 168.622 88.7792 168.925C89.0269 168.949 89.2807 168.975 89.5397 169.001L89.7507 169.023C92.3075 169.283 95.3424 169.591 98.0241 169.591C102.719 169.591 107.721 169.344 112.589 169.102L113.07 169.079C118.177 168.826 123.187 168.586 128.084 168.582C138.082 168.575 146.337 169.592 152.396 172.613ZM599.899 66.0054C599.819 65.926 599.779 65.8999 599.779 65.8999C599.779 65.8999 599.794 65.9159 599.823 65.942C599.842 65.9593 599.867 65.981 599.899 66.0054ZM755.315 300.508C755.3 300.434 755.285 300.408 755.285 300.408C755.285 300.408 755.286 300.422 755.292 300.445C755.297 300.461 755.304 300.483 755.315 300.508Z" fill="#2C2C2C"/>
<path d="M266.192 324.87L266.119 324.947C263.69 327.52 262.49 330.775 262.49 334.868C262.49 340.12 265.483 345.536 268.703 348.747C271.113 351.149 274.534 351.349 276.506 351.349C277.64 351.349 278.767 351.268 279.684 351.2L279.773 351.193C280.72 351.123 281.384 351.073 281.914 351.073C285.731 351.073 289.5 349.497 292.315 347.137C295.123 344.782 297.458 341.219 297.458 336.956C297.458 334.059 296.653 330.336 294.977 327.218C294.84 326.963 294.693 326.704 294.535 326.445C294.348 325.774 293.991 325.14 293.462 324.612C293.285 324.436 293.071 324.174 292.681 323.664L292.586 323.539C292.256 323.106 291.791 322.496 291.271 321.93C290.051 320.602 288.033 318.97 284.963 318.97C284.365 318.97 283.708 318.937 282.902 318.895L282.843 318.892C282.089 318.853 281.213 318.807 280.33 318.802C279.609 318.797 278.801 318.816 277.949 318.907C275.971 318.788 273.753 318.903 271.669 319.715C269.271 320.649 267.376 322.375 266.192 324.87Z" fill="#2C2C2C"/>
<path d="M473.908 324.947L473.981 324.87C475.165 322.375 477.06 320.649 479.458 319.715C481.542 318.903 483.76 318.788 485.738 318.907C486.59 318.816 487.399 318.797 488.119 318.802C489.002 318.807 489.878 318.853 490.631 318.892L490.691 318.895C491.497 318.937 492.154 318.97 492.752 318.97C495.823 318.97 497.84 320.602 499.061 321.93C499.58 322.496 500.045 323.106 500.375 323.539L500.471 323.664C500.861 324.174 501.074 324.436 501.251 324.612C501.78 325.14 502.138 325.774 502.324 326.445C502.482 326.704 502.629 326.963 502.766 327.218C504.443 330.336 505.247 334.059 505.247 336.956C505.247 341.219 502.913 344.782 500.104 347.137C497.29 349.497 493.52 351.073 489.703 351.073C489.174 351.073 488.514 351.122 487.571 351.192L487.566 351.193L487.562 351.193L487.474 351.2C486.556 351.268 485.429 351.349 484.295 351.349C482.324 351.349 478.902 351.149 476.493 348.747C473.273 345.536 470.279 340.12 470.279 334.868C470.279 330.775 471.479 327.52 473.908 324.947Z" fill="#2C2C2C"/>
</svg>
