<svg width="104" height="33" viewBox="0 0 104 33" fill="none" xmlns="http://www.w3.org/2000/svg">
<path fill-rule="evenodd" clip-rule="evenodd" d="M89.2355 3.34033C89.3683 3.19479 89.5762 3.32644 89.5072 3.51141C89.4553 3.65061 89.4077 3.77043 89.3676 3.86389C89.3475 3.91057 89.3307 3.94755 89.3172 3.97526C89.3067 3.99698 89.3007 4.00796 89.2991 4.01088C89.2991 4.01091 89.2991 4.01091 89.2991 4.01088C89.079 4.36938 89.1937 4.84194 89.5552 5.06637C89.9168 5.2908 90.3884 5.18213 90.6085 4.82363C90.7164 4.64794 90.8393 4.3441 90.9445 4.06188C91.0596 3.7534 91.1839 3.38627 91.2914 3.03276C91.3973 2.6844 91.4939 2.32659 91.5462 2.04406C91.5706 1.91255 91.5953 1.74726 91.5905 1.5931C91.5884 1.52738 91.5801 1.37458 91.5047 1.21255C91.4633 1.12339 91.3853 0.996477 91.2434 0.892331C91.0899 0.779752 90.9115 0.730762 90.7416 0.735629C89.9186 0.759205 89.2539 1.20344 88.7644 1.63475C88.4084 1.94835 88.0659 2.33202 87.7927 2.63795C87.6973 2.74478 87.6104 2.84212 87.5343 2.9237C87.2476 3.23122 87.2675 3.71591 87.5789 4.00629C87.8903 4.29667 88.3752 4.28278 88.662 3.97527C88.7812 3.84744 88.8943 3.72068 89.0056 3.59603C89.0826 3.50967 89.1588 3.42432 89.2355 3.34033ZM96.1766 12.2282C96.2996 12.2708 96.3149 12.4364 96.2116 12.5133C95.9338 12.72 95.6352 12.9564 95.3488 13.1831C95.145 13.3444 94.9475 13.5008 94.768 13.6382C94.4339 13.8938 94.3739 14.3742 94.6339 14.7111C94.8939 15.0481 95.3755 15.1141 95.7096 14.8585C95.9418 14.6808 96.1493 14.5161 96.3512 14.3558C96.609 14.1511 96.8577 13.9537 97.137 13.7458C97.1363 13.7464 97.1392 13.7447 97.1466 13.7404C97.1682 13.7279 97.2286 13.693 97.354 13.6232L97.3759 13.611C97.5105 13.5362 97.6818 13.441 97.8489 13.3403C98.0205 13.2369 98.2165 13.1108 98.3775 12.9772C98.457 12.9113 98.5522 12.8238 98.6339 12.7174C98.7031 12.6271 98.84 12.4253 98.8432 12.1435C98.8471 11.798 98.6466 11.5753 98.5504 11.4861C98.4439 11.3873 98.3286 11.3228 98.2501 11.2835C98.0873 11.2021 97.8999 11.1408 97.7509 11.0971C97.5934 11.051 97.4361 11.0127 97.3179 10.9847C97.1624 10.948 97.1369 10.9422 97.1482 10.9459C96.5485 10.7489 95.9657 10.5346 95.3657 10.314C95.212 10.2574 95.0571 10.2005 94.9005 10.1433C94.5013 9.99755 94.0635 10.2012 93.9225 10.5983C93.7816 10.9953 93.991 11.4354 94.3902 11.5811C94.5394 11.6356 94.6893 11.6908 94.8401 11.7462C95.279 11.9076 95.7244 12.0714 96.1766 12.2282ZM86.9842 6.34017C87.2956 6.63055 87.3155 7.11524 87.0288 7.42276C85.6854 8.86337 84.1109 10.1318 82.6005 11.3486C82.1023 11.7499 81.611 12.1457 81.1374 12.5401C80.6207 12.9703 80.0106 13.3032 79.4785 13.5935C79.4337 13.618 79.3894 13.6421 79.3458 13.666C79.0085 13.8507 79.1711 14.2531 79.5514 14.1877C80.1941 14.077 80.8394 13.9641 81.4859 13.8509C83.4078 13.5145 85.3406 13.1763 87.2509 12.8903C88.8005 12.6583 90.3345 12.3679 91.8469 12.0194C92.2582 11.9246 92.6727 12.1819 92.7728 12.5941C92.8728 13.0063 92.6204 13.4173 92.2091 13.5121C90.6576 13.8696 89.0847 14.1673 87.4965 14.4051C85.5757 14.6926 83.6995 15.0215 81.8127 15.3521C81.176 15.4637 80.5382 15.5755 79.897 15.686C79.7405 15.713 79.7264 15.9299 79.878 15.9799L79.9025 15.9881C80.4783 16.1782 81.0805 16.3771 81.674 16.6154C82.3034 16.8681 82.9155 17.18 83.4912 17.4734C83.6085 17.5332 83.7244 17.5922 83.8385 17.6499C84.5305 17.999 85.1815 18.3071 85.8555 18.5096C86.5338 18.7134 87.3838 19.0174 88.1993 19.3941C89.0023 19.765 89.8295 20.2324 90.4171 20.7803C90.7285 21.0707 90.7484 21.5554 90.4617 21.8629C90.1749 22.1704 89.69 22.1843 89.3786 21.8939C88.9718 21.5145 88.3213 21.1299 87.5704 20.783C86.8321 20.4419 86.052 20.1625 85.431 19.9759C84.6169 19.7314 83.862 19.3689 83.1611 19.0153C83.0351 18.9517 82.9112 18.8886 82.789 18.8263C82.2146 18.5339 81.6766 18.2599 81.1178 18.0356C80.5698 17.8156 80.0067 17.6296 79.4161 17.4345L79.4133 17.4336C78.8295 17.2408 78.2185 17.0389 77.6163 16.7957C77.3997 16.7082 76.8896 16.5017 76.442 16.3026C76.4413 16.3023 76.4406 16.302 76.4399 16.3017C76.3329 16.2541 76.2162 16.2327 76.1 16.2404C76.0152 16.246 75.9308 16.2514 75.8469 16.2568C75.5329 16.2769 75.2243 16.2966 74.9163 16.3265C74.1145 16.4043 73.4855 16.5397 73.0774 16.8026C72.7237 17.0305 72.2484 16.9264 72.0159 16.5701C71.7833 16.2138 71.8816 15.7402 72.2353 15.5123C72.9739 15.0364 73.9283 14.8816 74.7493 14.802C74.917 14.7857 75.0862 14.7722 75.253 14.7601C75.3084 14.7561 75.3575 14.7259 75.3927 14.6834C75.6614 14.3585 75.97 14.1394 76.2157 13.9714C76.2496 13.9483 76.282 13.9262 76.3132 13.905C76.526 13.7604 76.681 13.655 76.8254 13.5166C77.359 13.0053 78.0201 12.6362 78.5961 12.3207C78.631 12.3016 78.6656 12.2827 78.6999 12.264C79.2639 11.9555 79.7487 11.6904 80.1472 11.3585C80.6632 10.9289 81.1815 10.5112 81.6957 10.0969C83.1838 8.89772 84.6374 7.72633 85.9011 6.37119C86.1879 6.06368 86.6728 6.04978 86.9842 6.34017ZM92.3432 20.4822C92.63 20.1746 93.1149 20.1607 93.4263 20.4511C93.7699 20.7716 94.1309 21.1474 94.4269 21.5792C94.464 21.6334 94.5128 21.6988 94.5791 21.7878C94.5925 21.8057 94.6066 21.8247 94.6215 21.8446C94.7038 21.9553 94.8018 22.0882 94.8949 22.2276C94.987 22.3654 95.0854 22.5257 95.1642 22.6937C95.2388 22.8527 95.3225 23.0737 95.3327 23.3206C95.3433 23.5788 95.2426 23.7791 95.1505 23.905C95.0608 24.0275 94.955 24.1144 94.8738 24.1722C94.712 24.2874 94.5255 24.3718 94.3808 24.43C94.2275 24.4916 94.0745 24.5419 93.9582 24.5783C93.9084 24.5939 93.8626 24.6077 93.8268 24.6185L93.8091 24.6239C93.7619 24.6382 93.7533 24.6411 93.7579 24.6395C93.605 24.6945 93.4467 24.7535 93.2837 24.8143C92.583 25.0757 91.7971 25.3688 90.9879 25.5083C90.5716 25.5801 90.1717 25.3004 90.0947 24.8836C90.0176 24.4668 90.2926 24.0707 90.7088 23.9989C91.3645 23.8858 91.983 23.656 92.6721 23.4C92.8503 23.3337 93.0333 23.2658 93.2228 23.1976C93.2615 23.1837 93.3111 23.1687 93.3432 23.1589L93.3676 23.1516C93.4034 23.1408 93.4415 23.1292 93.4838 23.116C93.5287 23.102 93.5752 23.087 93.6218 23.0711C93.6235 23.0705 93.6242 23.0685 93.6232 23.067C93.5536 22.9628 93.4759 22.8568 93.3954 22.7487C93.3838 22.7331 93.3718 22.717 93.3597 22.7007C93.2939 22.6127 93.222 22.5163 93.1655 22.4339C92.9605 22.1348 92.6908 21.8473 92.3878 21.5647C92.0764 21.2744 92.0564 20.7897 92.3432 20.4822Z" fill="#2C2C2C"/>
<path fill-rule="evenodd" clip-rule="evenodd" d="M21.7765 6.6439C21.9682 6.59815 22.0662 6.82386 21.9052 6.93811C21.784 7.02409 21.6774 7.09648 21.5917 7.15124C21.5488 7.17859 21.5141 7.19971 21.4874 7.21508C21.4665 7.22711 21.4554 7.23286 21.4524 7.23436C21.4524 7.23437 21.4524 7.23437 21.4524 7.23436C21.0689 7.40723 20.8982 7.86258 21.0713 8.2514C21.2443 8.64023 21.6954 8.81529 22.0789 8.64241C22.2669 8.55769 22.5393 8.37539 22.7849 8.20106C23.0534 8.01052 23.3625 7.77666 23.6501 7.54463C23.9334 7.31597 24.2144 7.07425 24.4164 6.86994C24.5104 6.77484 24.6237 6.65198 24.7064 6.52176C24.7416 6.46624 24.8206 6.33516 24.8493 6.15878C24.8651 6.06173 24.8719 5.91294 24.813 5.74702C24.7493 5.56765 24.6292 5.42689 24.4859 5.33545C23.7919 4.89256 22.9924 4.88655 22.3451 4.9683C21.8745 5.02774 21.3755 5.15264 20.9777 5.25223C20.8388 5.28701 20.7122 5.3187 20.6034 5.34344C20.1934 5.4367 19.9376 5.84887 20.032 6.26405C20.1264 6.67922 20.5354 6.94019 20.9454 6.84692C21.1158 6.80815 21.2806 6.76686 21.4427 6.72625C21.555 6.69811 21.6659 6.67031 21.7765 6.6439ZM22.5246 17.8962C22.6024 18.0005 22.5221 18.1461 22.3934 18.1517C22.0474 18.1666 21.6676 18.1944 21.3033 18.221C21.0441 18.24 20.7928 18.2583 20.5671 18.2711C20.1472 18.2948 19.8276 18.6585 19.8534 19.0834C19.8791 19.5082 20.2404 19.8334 20.6604 19.8096C20.9523 19.7931 21.2165 19.7735 21.4736 19.7543C21.8019 19.7298 22.1186 19.7062 22.4664 19.6912C22.4655 19.6913 22.4688 19.6915 22.4774 19.6921C22.5023 19.6939 22.5718 19.6989 22.7147 19.7117L22.7398 19.7139C22.8931 19.7277 23.0883 19.7452 23.2831 19.7558C23.4832 19.7667 23.7162 19.7724 23.9244 19.7524C24.0272 19.7425 24.1552 19.7237 24.2825 19.6815C24.3905 19.6458 24.6171 19.5557 24.7781 19.3244C24.9755 19.0408 24.9347 18.7439 24.9053 18.616C24.8727 18.4745 24.8135 18.3563 24.7707 18.2798C24.6818 18.1209 24.5612 17.9649 24.4624 17.8451C24.3581 17.7185 24.2495 17.5983 24.1674 17.5088C24.0594 17.3911 24.0416 17.372 24.0488 17.3814C23.6635 16.8815 23.3017 16.3767 22.9294 15.8571C22.8339 15.7239 22.7378 15.5898 22.6404 15.4545C22.3921 15.1096 21.9155 15.0321 21.5758 15.2814C21.2361 15.5307 21.1621 16.0123 21.4104 16.3572C21.5032 16.4861 21.5963 16.616 21.6898 16.7465C21.9622 17.1266 22.2387 17.5124 22.5246 17.8962ZM18.2287 7.86051C18.3231 8.27569 18.0673 8.68786 17.6573 8.78112C15.7366 9.21803 13.7214 9.38264 11.7883 9.54055C11.1507 9.59264 10.522 9.644 9.90849 9.70416C9.2394 9.76978 8.54768 9.70232 7.94435 9.64349C7.89354 9.63853 7.84335 9.63364 7.79386 9.62889C7.41102 9.59216 7.31945 10.0164 7.67082 10.1759C8.26471 10.4455 8.86196 10.7147 9.46036 10.9843C11.2392 11.7859 13.0281 12.5921 14.769 13.4288C16.1813 14.1076 17.6134 14.7293 19.0603 15.2907C19.4538 15.4434 19.6521 15.8892 19.5033 16.2864C19.3544 16.6836 18.9147 16.8817 18.5212 16.729C17.0369 16.1531 15.5685 15.5156 14.1211 14.8199C12.3705 13.9785 10.6338 13.1964 8.88716 12.4098C8.29782 12.1444 7.70735 11.8785 7.11483 11.6096C6.97025 11.544 6.8367 11.7155 6.93399 11.8421L6.94972 11.8626C7.31915 12.3434 7.70556 12.8463 8.06264 13.3768C8.44137 13.9395 8.7724 14.5414 9.0838 15.1077C9.14726 15.2231 9.20991 15.337 9.27198 15.4488C9.6482 16.1264 10.0137 16.7471 10.4574 17.2932C10.904 17.8429 11.4364 18.5721 11.8993 19.3419C12.3551 20.0999 12.7768 20.9512 12.955 21.7346C13.0495 22.1498 12.7937 22.562 12.3837 22.6552C11.9737 22.7485 11.5647 22.4875 11.4703 22.0724C11.3469 21.5299 11.025 20.8463 10.5987 20.1374C10.1796 19.4405 9.69127 18.771 9.28234 18.2677C8.74634 17.608 8.32549 16.884 7.94443 16.1977C7.87588 16.0742 7.80885 15.9524 7.74272 15.8323C7.43191 15.2676 7.14078 14.7387 6.80459 14.2392C6.47484 13.7493 6.11355 13.279 5.73463 12.7859L5.73279 12.7835C5.3582 12.2959 4.9662 11.7856 4.60471 11.2461C4.47467 11.052 4.16876 10.5946 3.91036 10.1785C3.90995 10.1778 3.90955 10.1772 3.90914 10.1765C3.84736 10.077 3.76286 9.99376 3.66237 9.93482C3.58905 9.89182 3.51625 9.84889 3.44378 9.80616C3.17278 9.64637 2.90635 9.48928 2.63479 9.34094C1.92788 8.95479 1.33143 8.71337 0.846144 8.70158C0.425477 8.69137 0.0907991 8.33823 0.0986192 7.91283C0.106439 7.48743 0.453798 7.15086 0.874465 7.16108C1.75289 7.18241 2.62932 7.59058 3.35321 7.986C3.50114 8.06681 3.64872 8.15062 3.79348 8.23439C3.84152 8.26218 3.89912 8.26483 3.9521 8.24941C4.35694 8.13161 4.73536 8.12372 5.03297 8.12286C5.07396 8.12274 5.1132 8.12273 5.15093 8.12271C5.40822 8.12262 5.5956 8.12256 5.79291 8.0892C6.52153 7.96603 7.27584 8.03211 7.9296 8.09483C7.96918 8.09863 8.00841 8.10242 8.04731 8.10617C8.68719 8.16793 9.23722 8.22101 9.7533 8.1704C10.4216 8.10486 11.085 8.05058 11.7431 7.99673C13.6479 7.84087 15.5085 7.68862 17.3153 7.27764C17.7253 7.18438 18.1342 7.44534 18.2287 7.86051ZM14.7159 22.5702C15.1259 22.477 15.5349 22.7379 15.6293 23.1531C15.7335 23.6113 15.8209 24.125 15.8232 24.6485C15.8234 24.7142 15.827 24.7957 15.8319 24.9066C15.8329 24.9289 15.8339 24.9525 15.835 24.9774C15.841 25.1152 15.8473 25.2802 15.846 25.4479C15.8447 25.6136 15.8361 25.8014 15.8069 25.9847C15.7793 26.1582 15.7244 26.388 15.594 26.598C15.4578 26.8175 15.262 26.9266 15.115 26.979C14.972 27.0299 14.8356 27.0424 14.736 27.0446C14.5374 27.049 14.3356 27.014 14.1833 26.9808C14.0218 26.9457 13.8671 26.9013 13.7504 26.8661C13.7004 26.851 13.6548 26.8367 13.6191 26.8255L13.6015 26.82C13.5544 26.8053 13.5456 26.8029 13.5503 26.8042C13.3929 26.7637 13.2288 26.7236 13.0599 26.6824C12.3333 26.5048 11.5186 26.3058 10.7707 25.9665C10.386 25.792 10.2124 25.3359 10.3828 24.9479C10.5533 24.5598 11.0033 24.3866 11.388 24.5611C11.9938 24.8359 12.6347 24.9933 13.3486 25.1687C13.5332 25.2141 13.7227 25.2606 13.9178 25.3107C13.9577 25.321 14.0071 25.3364 14.0392 25.3464L14.0635 25.354C14.0991 25.3652 14.1372 25.3771 14.1796 25.3899C14.2246 25.4035 14.2715 25.4172 14.319 25.4303C14.3207 25.4308 14.3224 25.4295 14.3224 25.4276C14.3234 25.3024 14.3187 25.1711 14.3128 25.0364C14.312 25.0169 14.3111 24.997 14.3102 24.9766C14.3053 24.8668 14.3 24.7467 14.2995 24.6468C14.298 24.2841 14.2364 23.8949 14.1445 23.4908C14.0501 23.0757 14.3059 22.6635 14.7159 22.5702Z" fill="#2C2C2C"/>
<path fill-rule="evenodd" clip-rule="evenodd" d="M44.6766 5.5185C44.6883 5.32179 44.9327 5.29328 44.9955 5.48044C45.0427 5.62128 45.0812 5.74433 45.1088 5.84223C45.1226 5.89113 45.1328 5.93048 45.1397 5.96048C45.1452 5.98399 45.1475 5.99627 45.1481 5.99957C45.2026 6.4167 45.5891 6.71178 46.0114 6.65864C46.4336 6.6055 46.7317 6.22428 46.6772 5.80714C46.6504 5.60271 46.5547 5.28924 46.4589 5.00368C46.3542 4.69156 46.2197 4.32802 46.0808 3.98564C45.9439 3.64824 45.7938 3.30939 45.6567 3.05689C45.5928 2.93936 45.508 2.79537 45.4073 2.67858C45.3643 2.62879 45.2617 2.51529 45.1011 2.4368C45.0128 2.39361 44.8723 2.34403 44.6965 2.35244C44.5063 2.36154 44.3369 2.43574 44.2079 2.54645C43.5832 3.08267 43.3461 3.84624 43.2371 4.48949C43.1579 4.95719 43.1331 5.47095 43.1134 5.8806C43.1065 6.02365 43.1002 6.15401 43.0924 6.26528C43.0631 6.68473 43.3836 7.04884 43.8083 7.07854C44.2331 7.10825 44.6012 6.79229 44.6305 6.37284C44.6427 6.19848 44.6509 6.02878 44.6589 5.8619C44.6644 5.74628 44.6699 5.63202 44.6766 5.5185ZM55.6642 8.05747C55.7866 8.01323 55.9027 8.13222 55.8708 8.25703C55.785 8.59248 55.7017 8.96412 55.6218 9.32054C55.565 9.57414 55.5099 9.82003 55.4568 10.0397C55.3581 10.4486 55.6137 10.8597 56.0279 10.9579C56.442 11.0562 56.8578 10.8044 56.9566 10.3955C57.0252 10.1113 57.0828 9.85268 57.1388 9.60105C57.2096 9.28311 57.2779 8.97632 57.363 8.64312C57.3648 8.63603 57.3671 8.62905 57.3697 8.62222C57.3786 8.59893 57.4035 8.53378 57.4571 8.40068L57.4665 8.37738C57.524 8.23459 57.5972 8.05277 57.6637 7.86935C57.732 7.68099 57.805 7.45959 57.846 7.25449C57.8663 7.15326 57.8853 7.02529 57.8817 6.89117C57.8788 6.77751 57.8581 6.53458 57.6832 6.31351C57.4689 6.04253 57.1729 5.99566 57.042 5.98685C56.8971 5.97711 56.7668 5.99955 56.6812 6.01842C56.5034 6.05758 56.3192 6.12785 56.1759 6.18773C56.0245 6.25102 55.8781 6.32019 55.7686 6.37287C55.6247 6.44216 55.6013 6.45373 55.6123 6.44953C55.0223 6.67376 54.4345 6.87402 53.8294 7.08015C53.6743 7.13299 53.5181 7.18621 53.3604 7.24031C52.9585 7.37824 52.7464 7.81208 52.8867 8.20932C53.0271 8.60656 53.4667 8.81677 53.8687 8.67884C54.0189 8.62728 54.1702 8.57577 54.3222 8.52398C54.7649 8.37321 55.2141 8.22018 55.6642 8.05747ZM44.8149 9.2666C45.2396 9.2963 45.5602 9.66041 45.5308 10.0799C45.3934 12.0449 44.9681 14.0214 44.56 15.9176C44.4254 16.543 44.2927 17.1597 44.1728 17.7644C44.0421 18.4239 43.7774 19.0665 43.5466 19.627C43.5271 19.6742 43.5079 19.7208 43.489 19.7668C43.3431 20.1227 43.7228 20.3331 43.9771 20.0429C44.407 19.5524 44.8374 19.0585 45.2686 18.5637C46.5505 17.0928 47.8397 15.6136 49.1443 14.1891C50.2026 13.0336 51.212 11.8426 52.168 10.62C52.428 10.2875 52.9121 10.2266 53.2492 10.4839C53.5863 10.7413 53.6489 11.2195 53.3889 11.5521C52.4081 12.8063 51.3731 14.0275 50.2885 15.2118C48.9767 16.6441 47.7256 18.0803 46.4673 19.5247C46.0428 20.0121 45.6174 20.5004 45.1886 20.9898C45.084 21.1092 45.2095 21.2867 45.3589 21.2302L45.383 21.221C45.9501 21.0065 46.5433 20.7821 47.1545 20.5937C47.8027 20.394 48.4746 20.2512 49.1067 20.1169C49.2355 20.0896 49.3627 20.0626 49.4877 20.0355C50.2452 19.8714 50.945 19.7011 51.5962 19.4343C52.2516 19.1658 53.1036 18.8672 53.9744 18.6467C54.8318 18.4296 55.7688 18.2722 56.5702 18.3283C56.995 18.358 57.3155 18.7221 57.2862 19.1416C57.2568 19.561 56.8887 19.877 56.464 19.8473C55.9091 19.8085 55.1615 19.9188 54.3597 20.1218C53.5712 20.3214 52.7891 20.5952 52.1891 20.841C51.4025 21.1633 50.5878 21.3567 49.8205 21.5229C49.6825 21.5528 49.5466 21.5818 49.4124 21.6103C48.782 21.7445 48.1914 21.8702 47.6161 22.0475C47.0517 22.2214 46.497 22.4312 45.9153 22.6513L45.9125 22.6523C45.3374 22.8699 44.7356 23.0975 44.1146 23.2875C43.8912 23.3558 43.3648 23.5163 42.8917 23.6433L42.8895 23.6439C42.7763 23.6742 42.6722 23.731 42.5867 23.8102C42.5244 23.8679 42.4622 23.9252 42.4003 23.9822C42.169 24.1954 41.9415 24.405 41.721 24.622C41.1468 25.187 40.7432 25.6881 40.5915 26.1492C40.4601 26.549 40.0252 26.7672 39.6203 26.6366C39.2153 26.5061 38.9936 26.0762 39.1251 25.6765C39.3996 24.8418 40.0439 24.1209 40.6318 23.5424C40.7519 23.4241 40.8749 23.3071 40.9969 23.1928C41.0374 23.1548 41.0566 23.1004 41.0572 23.0453C41.0615 22.6237 41.1635 22.2591 41.2487 21.974C41.2605 21.9347 41.2718 21.8972 41.2827 21.861C41.3571 21.6147 41.4112 21.4353 41.4364 21.2368C41.5292 20.5037 41.8107 19.8008 42.0598 19.1931C42.0749 19.1563 42.0899 19.1199 42.1048 19.0837C42.349 18.4891 42.5589 17.9779 42.6597 17.4692C42.7903 16.8106 42.9303 16.1598 43.0691 15.5143C43.4709 13.6459 43.8635 11.8207 43.9927 9.97231C44.022 9.55286 44.3901 9.2369 44.8149 9.2666ZM57.8795 16.8844C57.9088 16.465 58.2769 16.149 58.7017 16.1787C59.1704 16.2115 59.6875 16.2764 60.1892 16.4257C60.2521 16.4445 60.3312 16.4646 60.4388 16.492C60.4605 16.4975 60.4833 16.5034 60.5075 16.5095C60.6411 16.5437 60.8009 16.5854 60.961 16.6351C61.1192 16.6842 61.2966 16.7469 61.4636 16.8278C61.6216 16.9045 61.8257 17.0235 61.989 17.209C62.1598 17.403 62.2076 17.622 62.2152 17.7778C62.2226 17.9294 62.1951 18.0636 62.1684 18.1596C62.1151 18.3509 62.0233 18.5339 61.9475 18.6702C61.8671 18.8146 61.7799 18.9499 61.7123 19.0514C61.6834 19.0948 61.6565 19.1344 61.6355 19.1653L61.6252 19.1806C61.5975 19.2215 61.5927 19.2291 61.5952 19.225C61.511 19.364 61.4251 19.5095 61.3367 19.6592C60.9566 20.3034 60.5304 21.0257 59.9893 21.6434C59.711 21.9612 59.2242 21.9955 58.902 21.72C58.5798 21.4446 58.5442 20.9638 58.8225 20.646C59.2609 20.1455 59.5969 19.5777 59.9713 18.945C60.0682 18.7814 60.1676 18.6134 60.2719 18.4412C60.2933 18.406 60.3223 18.3632 60.3412 18.3354L60.3555 18.3143C60.3765 18.2834 60.3989 18.2504 60.4234 18.2135C60.4491 18.175 60.4754 18.1346 60.5013 18.0936C60.502 18.0925 60.5021 18.091 60.5017 18.0897C60.5012 18.0884 60.5001 18.0875 60.4988 18.0871C60.3798 18.0502 60.2535 18.0169 60.1236 17.9837C60.1047 17.9789 60.0854 17.9739 60.0656 17.9689C59.9591 17.9418 59.8426 17.9122 59.7468 17.8837C59.3992 17.7803 59.0088 17.7266 58.5955 17.6977C58.1707 17.668 57.8502 17.3039 57.8795 16.8844Z" fill="#2C2C2C"/>
</svg>
