<svg width="98" height="33" viewBox="0 0 98 33" fill="none" xmlns="http://www.w3.org/2000/svg">
<path fill-rule="evenodd" clip-rule="evenodd" d="M18.2355 3.34033C18.3683 3.19479 18.5762 3.32644 18.5072 3.51141C18.4553 3.65061 18.4077 3.77043 18.3676 3.86389C18.3475 3.91057 18.3307 3.94755 18.3172 3.97526C18.3067 3.99698 18.3007 4.00796 18.2991 4.01088C18.2991 4.01091 18.2991 4.01091 18.2991 4.01088C18.079 4.36938 18.1937 4.84194 18.5552 5.06637C18.9168 5.2908 19.3884 5.18213 19.6085 4.82363C19.7164 4.64794 19.8393 4.3441 19.9445 4.06188C20.0596 3.7534 20.1839 3.38627 20.2914 3.03276C20.3973 2.6844 20.4939 2.32659 20.5462 2.04406C20.5706 1.91255 20.5953 1.74726 20.5905 1.5931C20.5884 1.52738 20.5801 1.37458 20.5047 1.21255C20.4633 1.12339 20.3853 0.996477 20.2434 0.892331C20.0899 0.779752 19.9115 0.730762 19.7416 0.735629C18.9186 0.759205 18.2539 1.20344 17.7644 1.63475C17.4084 1.94835 17.0659 2.33202 16.7927 2.63795C16.6973 2.74478 16.6104 2.84212 16.5343 2.9237C16.2476 3.23122 16.2675 3.71591 16.5789 4.00629C16.8903 4.29667 17.3752 4.28278 17.662 3.97527C17.7812 3.84744 17.8943 3.72068 18.0056 3.59603C18.0826 3.50967 18.1588 3.42432 18.2355 3.34033ZM25.1766 12.2282C25.2996 12.2708 25.3149 12.4364 25.2116 12.5133C24.9338 12.72 24.6352 12.9564 24.3488 13.1831C24.145 13.3444 23.9475 13.5008 23.768 13.6382C23.4339 13.8938 23.3739 14.3742 23.6339 14.7111C23.8939 15.0481 24.3755 15.1141 24.7096 14.8585C24.9418 14.6808 25.1493 14.5161 25.3512 14.3558C25.609 14.1511 25.8577 13.9537 26.137 13.7458C26.1363 13.7464 26.1392 13.7447 26.1466 13.7404C26.1682 13.7279 26.2286 13.693 26.354 13.6232L26.3759 13.611C26.5105 13.5362 26.6818 13.441 26.8489 13.3403C27.0205 13.2369 27.2165 13.1108 27.3775 12.9772C27.457 12.9113 27.5522 12.8238 27.6339 12.7174C27.7031 12.6271 27.84 12.4253 27.8432 12.1435C27.8471 11.798 27.6466 11.5753 27.5504 11.4861C27.4439 11.3873 27.3286 11.3228 27.2501 11.2835C27.0873 11.2021 26.8999 11.1408 26.7509 11.0971C26.5934 11.051 26.4361 11.0127 26.3179 10.9847C26.1624 10.948 26.1369 10.9422 26.1482 10.9459C25.5485 10.7489 24.9657 10.5346 24.3657 10.314C24.212 10.2574 24.0571 10.2005 23.9005 10.1433C23.5013 9.99755 23.0635 10.2012 22.9225 10.5983C22.7816 10.9953 22.991 11.4354 23.3902 11.5811C23.5394 11.6356 23.6893 11.6908 23.8401 11.7462C24.279 11.9076 24.7244 12.0714 25.1766 12.2282ZM15.9842 6.34017C16.2956 6.63055 16.3155 7.11524 16.0288 7.42276C14.6854 8.86337 13.1109 10.1318 11.6005 11.3486C11.1023 11.7499 10.611 12.1457 10.1374 12.5401C9.62073 12.9703 9.01062 13.3032 8.47847 13.5935C8.43365 13.618 8.38939 13.6421 8.34579 13.666C8.00845 13.8507 8.17108 14.2531 8.55137 14.1877C9.19413 14.077 9.83942 13.9641 10.4859 13.8509C12.4078 13.5145 14.3406 13.1763 16.2509 12.8903C17.8005 12.6583 19.3345 12.3679 20.8469 12.0194C21.2582 11.9246 21.6727 12.1819 21.7728 12.5941C21.8728 13.0063 21.6204 13.4173 21.2091 13.5121C19.6576 13.8696 18.0847 14.1673 16.4965 14.4051C14.5757 14.6926 12.6995 15.0215 10.8127 15.3521C10.176 15.4637 9.53817 15.5755 8.89695 15.686C8.74049 15.713 8.72636 15.9299 8.87799 15.9799L8.90252 15.9881C9.47827 16.1782 10.0805 16.3771 10.674 16.6154C11.3034 16.8681 11.9155 17.18 12.4912 17.4734C12.6085 17.5332 12.7244 17.5922 12.8385 17.6499C13.5305 17.999 14.1815 18.3071 14.8555 18.5096C15.5338 18.7134 16.3838 19.0174 17.1993 19.3941C18.0023 19.765 18.8295 20.2324 19.4171 20.7803C19.7285 21.0707 19.7484 21.5554 19.4617 21.8629C19.1749 22.1704 18.69 22.1843 18.3786 21.8939C17.9718 21.5145 17.3213 21.1299 16.5704 20.783C15.8321 20.4419 15.052 20.1625 14.431 19.9759C13.6169 19.7314 12.862 19.3689 12.1611 19.0153C12.0351 18.9517 11.9112 18.8886 11.789 18.8263C11.2146 18.5339 10.6766 18.2599 10.1178 18.0356C9.56976 17.8156 9.00668 17.6296 8.41613 17.4345L8.41326 17.4336C7.82945 17.2408 7.21846 17.0389 6.61629 16.7957C6.39968 16.7082 5.88958 16.5017 5.44203 16.3026C5.44133 16.3023 5.44063 16.302 5.43993 16.3017C5.33291 16.2541 5.21624 16.2327 5.09999 16.2404C5.01518 16.246 4.93084 16.2514 4.84688 16.2568C4.53292 16.2769 4.22426 16.2966 3.91627 16.3265C3.11453 16.4043 2.48549 16.5397 2.07742 16.8026C1.72369 17.0305 1.24842 16.9264 1.01587 16.5701C0.783323 16.2138 0.881559 15.7402 1.23529 15.5123C1.97393 15.0364 2.92827 14.8816 3.74927 14.802C3.91704 14.7857 4.08621 14.7722 4.25303 14.7601C4.30839 14.7561 4.35752 14.7259 4.39269 14.6834C4.6614 14.3585 4.97 14.1394 5.21571 13.9714C5.24955 13.9483 5.282 13.9262 5.3132 13.905C5.52599 13.7604 5.68096 13.655 5.82544 13.5166C6.35897 13.0053 7.02009 12.6362 7.59613 12.3207C7.63101 12.3016 7.66559 12.2827 7.69988 12.264C8.2639 11.9555 8.74873 11.6904 9.14721 11.3585C9.66319 10.9289 10.1815 10.5112 10.6957 10.0969C12.1838 8.89772 13.6374 7.72633 14.9011 6.37119C15.1879 6.06368 15.6728 6.04978 15.9842 6.34017ZM21.3432 20.4822C21.63 20.1746 22.1149 20.1607 22.4263 20.4511C22.7699 20.7716 23.1309 21.1474 23.4269 21.5792C23.464 21.6334 23.5128 21.6988 23.5791 21.7878C23.5925 21.8057 23.6066 21.8247 23.6215 21.8446C23.7038 21.9553 23.8018 22.0882 23.8949 22.2276C23.987 22.3654 24.0854 22.5257 24.1642 22.6937C24.2388 22.8527 24.3225 23.0737 24.3327 23.3206C24.3433 23.5788 24.2426 23.7791 24.1505 23.905C24.0608 24.0275 23.955 24.1144 23.8738 24.1722C23.712 24.2874 23.5255 24.3718 23.3808 24.43C23.2275 24.4916 23.0745 24.5419 22.9582 24.5783C22.9084 24.5939 22.8626 24.6077 22.8268 24.6185L22.8091 24.6239C22.7619 24.6382 22.7533 24.6411 22.7579 24.6395C22.605 24.6945 22.4467 24.7535 22.2837 24.8143C21.583 25.0757 20.7971 25.3688 19.9879 25.5083C19.5716 25.5801 19.1717 25.3004 19.0947 24.8836C19.0176 24.4668 19.2926 24.0707 19.7088 23.9989C20.3645 23.8858 20.983 23.656 21.6721 23.4C21.8503 23.3337 22.0333 23.2658 22.2228 23.1976C22.2615 23.1837 22.3111 23.1687 22.3432 23.1589L22.3676 23.1516C22.4034 23.1408 22.4415 23.1292 22.4838 23.116C22.5287 23.102 22.5752 23.087 22.6218 23.0711C22.6235 23.0705 22.6242 23.0685 22.6232 23.067C22.5536 22.9628 22.4759 22.8568 22.3954 22.7487C22.3838 22.7331 22.3718 22.717 22.3597 22.7007C22.2939 22.6127 22.222 22.5163 22.1655 22.4339C21.9605 22.1348 21.6908 21.8473 21.3878 21.5647C21.0764 21.2744 21.0564 20.7897 21.3432 20.4822Z" fill="#2C2C2C"/>
<path fill-rule="evenodd" clip-rule="evenodd" d="M90.6548 6.91713C90.8392 6.84776 90.9647 7.05945 90.8193 7.19294C90.7098 7.2934 90.613 7.37856 90.5348 7.44361C90.4958 7.4761 90.464 7.5014 90.4394 7.51998C90.4201 7.53454 90.4099 7.54163 90.4071 7.54349C90.4071 7.54351 90.4071 7.54351 90.4071 7.54349C90.0482 7.76298 89.9358 8.23609 90.1561 8.60022C90.3764 8.96435 90.8459 9.08161 91.2048 8.86212C91.3807 8.75456 91.6281 8.53962 91.85 8.33594C92.0926 8.11331 92.37 7.84264 92.6263 7.57645C92.8788 7.31415 93.1273 7.03919 93.3022 6.81122C93.3836 6.7051 93.4807 6.56904 93.5464 6.4295C93.5744 6.37001 93.6363 6.23009 93.6427 6.0515C93.6463 5.95324 93.6344 5.80476 93.5552 5.64751C93.4696 5.47753 93.3328 5.35288 93.1792 5.28008C92.4353 4.92747 91.6413 5.02151 91.0094 5.18357C90.5499 5.3014 90.0704 5.48773 89.6882 5.6363C89.5547 5.68818 89.433 5.73546 89.3282 5.77361C88.9331 5.91742 88.7308 6.35835 88.8765 6.75846C89.0221 7.15856 89.4605 7.36632 89.8556 7.22251C90.0198 7.16273 90.1782 7.10115 90.3339 7.04059C90.4417 6.99863 90.5484 6.95717 90.6548 6.91713ZM92.8044 17.9875C92.8946 18.0813 92.8331 18.2358 92.7061 18.2574C92.3648 18.3155 91.9914 18.3905 91.6333 18.4625C91.3785 18.5137 91.1314 18.5634 90.9092 18.6043C90.4955 18.6804 90.2239 19.0811 90.3026 19.4994C90.3813 19.9177 90.7804 20.1952 91.1941 20.1191C91.4817 20.0662 91.7414 20.0136 91.994 19.9625C92.3167 19.8971 92.6279 19.8341 92.9712 19.7757C92.9703 19.7759 92.9735 19.7757 92.9822 19.7752C93.0071 19.7739 93.0767 19.7702 93.2201 19.765L93.2452 19.7641C93.399 19.7585 93.5949 19.7515 93.7895 19.7376C93.9894 19.7234 94.2213 19.7 94.4254 19.6541C94.5261 19.6314 94.6507 19.5967 94.7718 19.5389C94.8744 19.49 95.088 19.3723 95.2188 19.1226C95.3792 18.8166 95.3016 18.5271 95.2564 18.4039C95.2063 18.2676 95.1329 18.1577 95.0808 18.0872C94.9727 17.9407 94.8336 17.801 94.7206 17.6944C94.6012 17.5819 94.4785 17.4762 94.3858 17.3977C94.264 17.2944 94.2439 17.2777 94.2522 17.2861C93.8074 16.8383 93.3853 16.3827 92.9509 15.9138C92.8396 15.7936 92.7274 15.6725 92.6139 15.5505C92.3244 15.2394 91.8418 15.2221 91.536 15.5119C91.2302 15.8017 91.2169 16.2888 91.5064 16.5999C91.6146 16.7162 91.7232 16.8334 91.8324 16.9513C92.1501 17.2943 92.4727 17.6425 92.8044 17.9875ZM87.287 8.56793C87.4326 8.96804 87.2303 9.40897 86.8352 9.55278C84.9842 10.2265 83.0055 10.6418 81.1073 11.0403C80.4812 11.1717 79.8638 11.3013 79.2627 11.4377C78.6071 11.5865 77.9124 11.6061 77.3064 11.6232C77.2554 11.6246 77.205 11.6261 77.1553 11.6275C76.7708 11.639 76.7331 12.0714 77.1016 12.1857C77.7246 12.3789 78.3508 12.5712 78.9782 12.7639C80.8433 13.3367 82.719 13.9128 84.5509 14.5252C86.037 15.022 87.5356 15.4598 89.0413 15.8358C89.4509 15.9381 89.7034 16.3555 89.6054 16.7682C89.5074 17.1809 89.096 17.4325 88.6864 17.3302C87.1417 16.9445 85.6051 16.4956 84.0821 15.9864C82.24 15.3706 80.4191 14.8118 78.5878 14.2499C77.9699 14.0602 77.3508 13.8703 76.7293 13.6776C76.5777 13.6306 76.4666 13.8174 76.579 13.9309L76.5971 13.9493C77.0238 14.3801 77.4701 14.8307 77.8907 15.3124C78.3368 15.8233 78.7406 16.3791 79.1203 16.902C79.1977 17.0085 79.2741 17.1137 79.3497 17.2168C79.8077 17.8421 80.2479 18.4122 80.7565 18.8986C81.2684 19.3881 81.8877 20.0449 82.4433 20.7508C82.9904 21.4458 83.5153 22.2377 83.79 22.9927C83.9357 23.3928 83.7334 23.8337 83.3383 23.9775C82.9432 24.1213 82.5048 23.9136 82.3592 23.5135C82.1689 22.9907 81.764 22.3527 81.2524 21.7028C80.7494 21.0637 80.1812 20.4605 79.7126 20.0123C79.0982 19.4249 78.5902 18.7592 78.1262 18.1259C78.0428 18.012 77.9611 17.8996 77.8804 17.7886C77.5014 17.2673 77.1464 16.7789 76.7504 16.3254C76.362 15.8806 75.9447 15.4592 75.5071 15.0173L75.5049 15.0151C75.0723 14.5783 74.6196 14.121 74.1934 13.631C74.0401 13.4547 73.6794 13.039 73.371 12.6585C73.3705 12.6579 73.37 12.6573 73.3696 12.6567C73.2958 12.5657 73.2016 12.4937 73.0945 12.4478C73.0164 12.4143 72.9388 12.3808 72.8615 12.3475C72.5727 12.2229 72.2887 12.1003 72.0007 11.9871C71.251 11.6924 70.6291 11.5275 70.1461 11.5765C69.7275 11.619 69.3513 11.3105 69.3058 10.8874C69.2604 10.4644 69.5629 10.087 69.9816 10.0446C70.8558 9.95585 71.7763 10.2512 72.544 10.553C72.7009 10.6146 72.8578 10.6793 73.0119 10.7443C73.063 10.7659 73.1205 10.7613 73.1711 10.7394C73.5581 10.5719 73.9325 10.5167 74.2277 10.4787C74.2683 10.4734 74.3073 10.4685 74.3447 10.4638C74.6 10.4315 74.7859 10.408 74.9775 10.3502C75.685 10.1369 76.4416 10.1081 77.0981 10.0886C77.1378 10.0874 77.1772 10.0862 77.2163 10.0851C77.8589 10.0663 78.4112 10.0502 78.9169 9.93543C79.5717 9.78683 80.2231 9.65 80.8694 9.51425C82.7397 9.12139 84.5667 8.73761 86.3079 8.10388C86.703 7.96007 87.1413 8.16783 87.287 8.56793ZM85.6416 23.6015C86.0367 23.4577 86.4751 23.6655 86.6207 24.0656C86.7814 24.5071 86.9324 25.0059 87.0001 25.525C87.0086 25.5901 87.0223 25.6705 87.041 25.7799C87.0448 25.802 87.0488 25.8252 87.053 25.8498C87.0761 25.9857 87.103 26.1487 87.1227 26.3152C87.1422 26.4797 87.1571 26.6672 87.1511 26.8527C87.1453 27.0283 87.1196 27.2631 87.0166 27.4878C86.9089 27.7226 86.7282 27.8554 86.589 27.9257C86.4534 27.9942 86.3197 28.0236 86.2211 28.0383C86.0247 28.0674 85.8201 28.0579 85.6648 28.0441C85.5002 28.0294 85.3411 28.0048 85.2209 27.9844C85.1695 27.9756 85.1224 27.9672 85.0856 27.9606L85.0675 27.9573C85.0188 27.9486 85.0099 27.9474 85.0147 27.948C84.8535 27.9275 84.6856 27.9083 84.5129 27.8885C83.7698 27.8032 82.9366 27.7076 82.1522 27.4646C81.7487 27.3395 81.5193 26.9088 81.6399 26.5024C81.7605 26.096 82.1853 25.8679 82.5888 25.993C83.2243 26.1899 83.8797 26.2659 84.61 26.3506C84.7988 26.3725 84.9927 26.395 85.1925 26.4203C85.2334 26.4255 85.2843 26.4346 85.3174 26.4405L85.3425 26.445C85.3792 26.4516 85.4185 26.4587 85.4621 26.4661C85.5085 26.474 85.5568 26.4817 85.6055 26.4887C85.6073 26.489 85.6088 26.4875 85.6086 26.4857C85.5939 26.3613 85.5728 26.2316 85.5501 26.0987C85.5469 26.0795 85.5435 26.0598 85.54 26.0397C85.5215 25.9314 85.5011 25.8129 85.4882 25.7138C85.4413 25.3542 85.3316 24.9757 85.1898 24.5863C85.0442 24.1862 85.2465 23.7453 85.6416 23.6015Z" fill="#2C2C2C"/>
<path fill-rule="evenodd" clip-rule="evenodd" d="M42.7607 8.48825C42.7194 8.29558 42.9473 8.20279 43.0578 8.36636C43.141 8.48945 43.2109 8.59776 43.2637 8.68471C43.2901 8.72814 43.3104 8.76334 43.3251 8.79039C43.3367 8.81158 43.3422 8.8228 43.3436 8.82583C43.3436 8.82585 43.3436 8.82585 43.3436 8.82583C43.5076 9.21322 43.9589 9.39427 44.3516 9.23022C44.7443 9.06618 44.9297 8.61916 44.7657 8.23177C44.6853 8.04192 44.5093 7.76542 44.3406 7.51586C44.1563 7.24307 43.9296 6.92868 43.7042 6.63588C43.4821 6.34734 43.2469 6.06093 43.0473 5.85426C42.9544 5.75806 42.8341 5.64197 42.7059 5.55636C42.6512 5.51986 42.5219 5.43792 42.3462 5.40518C42.2496 5.38716 42.101 5.37692 41.9338 5.43203C41.753 5.49161 41.6095 5.6084 41.5148 5.74955C41.0561 6.43322 41.0317 7.23236 41.0986 7.88134C41.1472 8.35321 41.2607 8.85491 41.3511 9.25494C41.3827 9.39464 41.4114 9.52193 41.4337 9.63123C41.5175 10.0433 41.9237 10.3085 42.3409 10.2236C42.7582 10.1387 43.0284 9.73586 42.9446 9.32383C42.9098 9.15255 42.8723 8.98685 42.8354 8.8239C42.8098 8.71101 42.7846 8.59943 42.7607 8.48825ZM54.0272 7.99857C54.1333 7.92323 54.2771 8.00685 54.2796 8.13566C54.2866 8.48184 54.3057 8.86222 54.3239 9.22703C54.3369 9.48659 54.3495 9.73827 54.3571 9.96413C54.3712 10.3845 54.7274 10.7123 55.1528 10.6963C55.5781 10.6804 55.9115 10.3266 55.8974 9.90622C55.8876 9.61398 55.874 9.34938 55.8607 9.09193C55.8438 8.76316 55.8275 8.44606 55.8205 8.09794C55.8205 8.09884 55.8208 8.09558 55.8216 8.087C55.824 8.06218 55.8306 7.99274 55.8466 7.85016L55.8494 7.8252C55.8667 7.67224 55.8886 7.47747 55.9037 7.28295C55.9192 7.08318 55.9303 6.85035 55.9151 6.64174C55.9076 6.53877 55.8916 6.41038 55.8524 6.28208C55.8192 6.17335 55.7343 5.94477 55.5068 5.77847C55.2278 5.57463 54.9301 5.60857 54.8015 5.63507C54.6593 5.6644 54.5397 5.72084 54.4623 5.7619C54.3014 5.84716 54.1427 5.9641 54.0206 6.06009C53.8916 6.16154 53.769 6.26732 53.6777 6.34733C53.5575 6.45257 53.538 6.46998 53.5475 6.46298C53.0389 6.83672 52.5259 7.18679 51.998 7.54713C51.8626 7.63949 51.7263 7.73252 51.5888 7.82679C51.2384 8.06713 51.1499 8.54186 51.3913 8.88714C51.6328 9.23242 52.1126 9.3175 52.463 9.07717C52.594 8.98734 52.726 8.89728 52.8587 8.80675C53.245 8.54316 53.637 8.27565 54.0272 7.99857ZM43.8956 12.0631C44.3128 11.9782 44.719 12.2434 44.8029 12.6554C45.1956 14.5857 45.3139 16.6041 45.4274 18.5403C45.4648 19.179 45.5018 19.8087 45.5478 20.4234C45.5981 21.0938 45.5148 21.7838 45.4421 22.3856C45.436 22.4363 45.4299 22.4864 45.424 22.5357C45.3785 22.9176 45.8006 23.0189 45.9681 22.6713C46.2513 22.0838 46.5341 21.4928 46.8174 20.9008C47.6596 19.1408 48.5065 17.3709 49.383 15.6496C50.094 14.2533 50.7485 12.8358 51.3429 11.4022C51.5046 11.0123 51.9548 10.8242 52.3485 10.9822C52.7422 11.1401 52.9302 11.5842 52.7685 11.9741C52.1586 13.4449 51.4876 14.8983 50.7589 16.3293C49.8776 18.0601 49.0558 19.7784 48.2293 21.5065C47.9504 22.0896 47.671 22.6738 47.3886 23.26C47.3197 23.4031 47.4881 23.5405 47.6169 23.4462L47.6378 23.4309C48.1269 23.0726 48.6386 22.6978 49.1772 22.353C49.7484 21.9873 50.3578 21.6702 50.931 21.3719C51.0478 21.3111 51.1631 21.251 51.2763 21.1916C51.9624 20.831 52.5913 20.4799 53.1475 20.0488C53.7073 19.6149 54.4485 19.0994 55.2287 18.6543C55.9969 18.2159 56.8577 17.8139 57.645 17.6537C58.0623 17.5688 58.4685 17.834 58.5523 18.2461C58.6361 18.6581 58.3658 19.0609 57.9486 19.1458C57.4035 19.2567 56.7126 19.5629 55.9942 19.9728C55.2878 20.3758 54.6073 20.8486 54.0947 21.2459C53.4229 21.7666 52.6895 22.1707 51.9946 22.536C51.8696 22.6016 51.7463 22.6659 51.6246 22.7292C51.053 23.027 50.5175 23.3059 50.0104 23.6305C49.5131 23.949 49.0347 24.2994 48.5329 24.6669L48.5305 24.6687C48.0345 25.032 47.5153 25.4121 46.9677 25.7612C46.7707 25.8867 46.3063 26.182 45.8844 26.4308C45.8837 26.4312 45.883 26.4316 45.8824 26.432C45.7815 26.4915 45.6963 26.574 45.6351 26.6732C45.5904 26.7455 45.5458 26.8173 45.5014 26.8887C45.3355 27.156 45.1723 27.4187 45.0178 27.6868C44.6155 28.3847 44.3605 28.9754 44.3375 29.4603C44.3177 29.8807 43.957 30.2071 43.5318 30.1896C43.1067 30.172 42.7782 29.817 42.7981 29.3967C42.8396 28.519 43.2678 27.6521 43.6797 26.9375C43.7639 26.7915 43.851 26.6459 43.9381 26.5031C43.967 26.4557 43.971 26.3981 43.9568 26.3448C43.8483 25.9374 43.8491 25.5589 43.8551 25.2613C43.8559 25.2204 43.8568 25.1811 43.8576 25.1434C43.8634 24.8862 43.8677 24.6988 43.8388 24.5008C43.7324 23.7696 43.8158 23.017 43.8935 22.3648C43.8982 22.3253 43.9029 22.2862 43.9075 22.2474C43.984 21.6091 44.0497 21.0604 44.0109 20.5433C43.9607 19.8737 43.9217 19.2093 43.8829 18.5501C43.7708 16.6422 43.6613 14.7786 43.2919 12.9628C43.2081 12.5508 43.4784 12.148 43.8956 12.0631ZM58.5208 15.9125C58.437 15.5005 58.7073 15.0976 59.1245 15.0127C59.585 14.919 60.1006 14.8434 60.624 14.8532C60.6896 14.8545 60.7712 14.8527 60.8822 14.8504C60.9045 14.8499 60.9281 14.8494 60.953 14.8489C61.0909 14.8461 61.2561 14.8436 61.4236 14.8487C61.5893 14.8538 61.7769 14.8667 61.9594 14.9001C62.1322 14.9318 62.3607 14.9919 62.5677 15.127C62.784 15.2683 62.8886 15.4665 62.9376 15.6147C62.9852 15.7588 62.9946 15.8955 62.9945 15.9951C62.9943 16.1937 62.9547 16.3946 62.9181 16.5462C62.8792 16.7068 62.8313 16.8605 62.7934 16.9764C62.7771 17.0259 62.7618 17.0713 62.7498 17.1067L62.7439 17.1242C62.7281 17.1709 62.7256 17.1796 62.7269 17.1749C62.6829 17.3314 62.639 17.4946 62.5939 17.6625C62.3997 18.3848 62.182 19.1947 61.8257 19.9346C61.6424 20.3152 61.1825 20.4783 60.7984 20.299C60.4143 20.1197 60.2515 19.6658 60.4348 19.2853C60.7235 18.6858 60.8955 18.0488 61.0873 17.3391C61.1368 17.1556 61.1877 16.9671 61.2423 16.7733C61.2534 16.7337 61.27 16.6846 61.2808 16.6528L61.2889 16.6286C61.3009 16.5932 61.3137 16.5555 61.3274 16.5134C61.3421 16.4687 61.3569 16.4221 61.371 16.375C61.3715 16.3732 61.3703 16.3715 61.3685 16.3715C61.2433 16.3676 61.1119 16.3693 60.9771 16.372C60.9576 16.3724 60.9376 16.3729 60.9173 16.3733C60.8074 16.3757 60.6872 16.3783 60.5873 16.3764C60.2247 16.3696 59.8341 16.4222 59.4281 16.5048C59.0109 16.5897 58.6047 16.3245 58.5208 15.9125Z" fill="#2C2C2C"/>
</svg>
