<svg width="19" height="22" viewBox="0 0 19 22" fill="none" xmlns="http://www.w3.org/2000/svg">
<path fill-rule="evenodd" clip-rule="evenodd" d="M7.75216 2.13785C7.04517 2.26589 6.51669 2.49326 6.17106 2.83889C5.9729 3.03705 5.83969 3.38685 5.82226 3.98472C5.80712 4.50397 5.88013 5.04981 5.9553 5.6117C5.96652 5.69563 5.9778 5.77991 5.98883 5.86452C6.06236 6.42823 6.28898 6.94484 6.62027 7.27613C6.69437 7.35023 6.76242 7.42103 6.82838 7.48966C6.96628 7.63314 7.09505 7.76711 7.25085 7.90183C7.3557 7.9925 7.43668 8.04984 7.49312 8.08135C7.49808 8.08412 7.50251 8.0865 7.50643 8.08854C8.25537 8.11322 9.00296 8.0784 9.79473 8.04152C10.1031 8.02715 10.4181 8.01248 10.7425 8.00088C10.8215 7.98382 10.8966 7.96796 10.9689 7.95269C11.2242 7.89878 11.4446 7.85226 11.6766 7.78596C12.1461 7.65181 12.6944 7.4228 13.1391 7.11725C13.5968 6.80278 13.8306 6.48836 13.8981 6.21804C14.0028 5.79952 13.9709 5.41297 13.8935 4.79359C13.8613 4.53613 13.7859 4.18714 13.6687 3.87861C13.6107 3.72593 13.5498 3.60286 13.492 3.51286C13.4392 3.43069 13.405 3.40124 13.4007 3.3975C13.4001 3.39698 13.4001 3.3971 13.4007 3.3975C13.1097 3.19604 12.8454 2.93381 12.6623 2.75218C12.6234 2.71361 12.5881 2.67866 12.5571 2.6487C12.3419 2.44104 12.2115 2.3444 12.0861 2.29309C11.4774 2.0441 10.8105 2 9.96776 2C9.22413 2 8.45662 2.01027 7.75216 2.13785ZM12.5087 9.622C13.069 9.43732 13.7043 9.15547 14.2717 8.76567C14.9239 8.31752 15.6031 7.64437 15.8384 6.70311C16.0438 5.88168 15.9541 5.15354 15.8781 4.54552C15.8298 4.15919 15.7217 3.651 15.5383 3.16829C15.3691 2.7229 15.0704 2.12083 14.5391 1.75297C14.4057 1.66066 14.2998 1.5564 14.1324 1.39172C14.0778 1.33797 14.0166 1.27778 13.9458 1.20947C13.6961 0.968489 13.3387 0.644663 12.8433 0.441992C11.8451 0.033621 10.8355 0 9.96776 0C9.23423 0 8.29922 0.00624168 7.39575 0.169864C6.49482 0.333027 5.50997 0.671552 4.75684 1.42468C4.02575 2.15577 3.84635 3.12939 3.82311 3.92643C3.80281 4.62272 3.90084 5.34669 3.97505 5.89471C3.9859 5.97485 3.99624 6.05123 4.00563 6.1232C4.12102 7.00783 4.48893 7.97322 5.20606 8.69035C5.23392 8.71821 5.27226 8.75807 5.31846 8.8061C5.47178 8.96551 5.71168 9.21493 5.9427 9.41469C6.10332 9.55358 6.29883 9.70517 6.51819 9.82763C6.73143 9.94669 7.02725 10.0723 7.37548 10.0852C7.41776 10.0867 7.46013 10.0881 7.50259 10.0893C7.67222 10.4001 8.00195 10.6109 8.38093 10.6109C8.92095 10.6109 9.62419 10.496 10.1739 10.2486C10.4154 10.14 10.6775 10.0656 10.9939 9.99357C11.247 9.98572 11.4959 9.98085 11.7413 9.98085C12.0496 9.98085 12.3253 9.84134 12.5087 9.622ZM8.87417 13.9713C7.89673 13.9712 7.10866 13.9759 6.31325 14.1748C6.07184 14.2351 5.8179 14.284 5.58367 14.328C5.5492 14.3345 5.51512 14.3409 5.48139 14.3472C5.27706 14.3854 5.0854 14.4212 4.89537 14.4627C4.44073 14.5619 4.11634 14.6701 3.89881 14.8079C3.10978 15.3076 2.72567 15.9962 2.53024 16.8677C2.34132 17.7101 2.34298 18.6448 2.34484 19.6906C2.34503 19.795 2.34521 19.9004 2.34521 20.007C2.34521 20.5593 1.8975 21.007 1.34521 21.007C0.792929 21.007 0.345213 20.5593 0.345213 20.007C0.345213 19.8988 0.344861 19.7883 0.344502 19.6757C0.341301 18.6715 0.337583 17.5053 0.578708 16.43C0.859211 15.1792 1.48437 13.9696 2.82871 13.1182C3.35491 12.785 3.96536 12.6186 4.46894 12.5087C4.69081 12.4603 4.91537 12.4183 5.1181 12.3804C5.15086 12.3743 5.18304 12.3683 5.21455 12.3624C5.45017 12.3181 5.65095 12.2788 5.82818 12.2345C6.88195 11.971 7.89759 11.9712 8.82635 11.9713L14.4949 11.9713C15.1386 11.9713 15.8184 12.0398 16.4323 12.3711C17.0778 12.7195 17.5187 13.2838 17.8301 14.0143C18.6702 15.9852 18.6473 18.1648 18.6277 20.0409C18.6248 20.3167 18.6219 20.586 18.6219 20.8471C18.6219 21.3994 18.1742 21.8471 17.6219 21.8471C17.0697 21.8471 16.6219 21.3994 16.6219 20.8471C16.6219 20.5555 16.6241 20.2684 16.6262 19.9855C16.6405 18.0716 16.6533 16.3541 15.9903 14.7985C15.8042 14.3619 15.626 14.2086 15.4825 14.1312C15.3074 14.0367 15.0283 13.9713 14.4949 13.9713H8.87417Z" fill="#2C2C2C"/>
</svg>
