<svg width="336" height="38" viewBox="0 0 336 38" fill="none" xmlns="http://www.w3.org/2000/svg">
<path fill-rule="evenodd" clip-rule="evenodd" d="M91.09 6.19836C91.2228 6.05282 91.4307 6.18448 91.3617 6.36944C91.3098 6.50864 91.2622 6.62846 91.2221 6.72192C91.202 6.7686 91.1852 6.80559 91.1717 6.8333C91.1612 6.85501 91.1552 6.86599 91.1536 6.86892C91.1536 6.86894 91.1536 6.86894 91.1536 6.86892C90.9335 7.22741 91.0481 7.69997 91.4097 7.9244C91.7713 8.14884 92.2429 8.04016 92.463 7.68166C92.5709 7.50597 92.6938 7.20213 92.799 6.91991C92.9141 6.61143 93.0384 6.24431 93.1459 5.89079C93.2518 5.54243 93.3484 5.18462 93.4007 4.9021C93.4251 4.77059 93.4498 4.60529 93.445 4.45113C93.4429 4.38541 93.4346 4.23262 93.3592 4.07058C93.3178 3.98143 93.2398 3.85451 93.0978 3.75036C92.9444 3.63778 92.766 3.58879 92.5961 3.59366C91.7731 3.61724 91.1084 4.06147 90.6188 4.49278C90.2629 4.80638 89.9204 5.19005 89.6472 5.49598C89.5518 5.60281 89.4649 5.70016 89.3888 5.78173C89.1021 6.08925 89.122 6.57394 89.4334 6.86432C89.7448 7.15471 90.2297 7.14082 90.5165 6.8333C90.6357 6.70547 90.7488 6.57871 90.86 6.45407C90.9371 6.3677 91.0133 6.28236 91.09 6.19836ZM98.0311 15.0862C98.154 15.1289 98.1694 15.2944 98.0661 15.3713C97.7883 15.578 97.4897 15.8144 97.2033 16.0412C96.9995 16.2025 96.8019 16.3589 96.6225 16.4962C96.2884 16.7518 96.2284 17.2322 96.4884 17.5692C96.7484 17.9062 97.23 17.9721 97.5641 17.7165C97.7963 17.5389 98.0038 17.3741 98.2057 17.2138C98.4635 17.0091 98.7122 16.8117 98.9915 16.6038C98.9908 16.6044 98.9936 16.6027 99.0011 16.5984C99.0227 16.5859 99.083 16.551 99.2084 16.4813L99.2304 16.4691C99.3649 16.3943 99.5363 16.299 99.7034 16.1984C99.875 16.095 100.071 15.9688 100.232 15.8352C100.311 15.7693 100.407 15.6818 100.488 15.5754C100.558 15.4852 100.694 15.2834 100.698 15.0015C100.702 14.656 100.501 14.4334 100.405 14.3441C100.298 14.2453 100.183 14.1808 100.105 14.1416C99.9418 14.0601 99.7544 13.9988 99.6054 13.9552C99.4479 13.9091 99.2906 13.8707 99.1724 13.8428C99.0169 13.806 98.9914 13.8003 99.0027 13.804C98.403 13.6069 97.8202 13.3926 97.2202 13.172C97.0664 13.1155 96.9115 13.0585 96.755 13.0014C96.3558 12.8556 95.9179 13.0593 95.777 13.4563C95.6361 13.8534 95.8455 14.2934 96.2447 14.4392C96.3939 14.4936 96.5438 14.5488 96.6946 14.6042C97.1335 14.7656 97.5789 14.9294 98.0311 15.0862ZM88.8386 9.1982C89.15 9.48858 89.17 9.97327 88.8832 10.2808C87.5399 11.7214 85.9654 12.9898 84.455 14.2066C83.9568 14.608 83.4655 15.0037 82.9919 15.3982C82.4752 15.8284 81.8651 16.1612 81.333 16.4516C81.2881 16.476 81.2439 16.5001 81.2003 16.524C80.8629 16.7087 81.0256 17.1112 81.4059 17.0457C82.0486 16.935 82.6939 16.8221 83.3404 16.7089C85.2623 16.3726 87.1951 16.0343 89.1054 15.7483C90.655 15.5163 92.189 15.226 93.7014 14.8774C94.1127 14.7826 94.5272 15.0399 94.6273 15.4521C94.7273 15.8643 94.4749 16.2753 94.0636 16.3701C92.5121 16.7277 90.9392 17.0254 89.351 17.2631C87.4302 17.5507 85.554 17.8795 83.6672 18.2102C83.0305 18.3217 82.3927 18.4335 81.7514 18.544C81.595 18.571 81.5809 18.7879 81.7325 18.838L81.757 18.8461C82.3328 19.0363 82.935 19.2352 83.5285 19.4734C84.1579 19.7261 84.77 20.038 85.3457 20.3314C85.463 20.3912 85.5789 20.4503 85.693 20.5079C86.385 20.857 87.036 21.1652 87.71 21.3676C88.3883 21.5714 89.2383 21.8755 90.0538 22.2522C90.8568 22.6231 91.684 23.0904 92.2716 23.6383C92.583 23.9287 92.6029 24.4134 92.3162 24.7209C92.0294 25.0284 91.5445 25.0423 91.2331 24.7519C90.8263 24.3726 90.1758 23.9879 89.4249 23.641C88.6866 23.3 87.9065 23.0205 87.2854 22.8339C86.4714 22.5894 85.7165 22.227 85.0156 21.8733C84.8895 21.8097 84.7657 21.7466 84.6434 21.6844C84.0691 21.3919 83.5311 21.1179 82.9723 20.8936C82.4243 20.6736 81.8612 20.4876 81.2706 20.2926L81.2678 20.2916C80.6839 20.0988 80.073 19.8969 79.4708 19.6537C79.2542 19.5662 78.7441 19.3597 78.2965 19.1607C78.2958 19.1604 78.2951 19.16 78.2944 19.1597C78.1874 19.1121 78.0707 19.0907 77.9545 19.0985C77.8697 19.1041 77.7853 19.1095 77.7014 19.1148C77.3874 19.1349 77.0788 19.1547 76.7708 19.1845C75.969 19.2623 75.34 19.3977 74.9319 19.6606C74.5782 19.8885 74.1029 19.7845 73.8704 19.4282C73.6378 19.0719 73.7361 18.5983 74.0898 18.3704C74.8284 17.8945 75.7828 17.7397 76.6038 17.66C76.7715 17.6438 76.9407 17.6302 77.1075 17.6181C77.1629 17.6141 77.212 17.584 77.2472 17.5414C77.5159 17.2165 77.8245 16.9974 78.0702 16.8294C78.104 16.8063 78.1365 16.7843 78.1677 16.7631C78.3805 16.6184 78.5355 16.5131 78.6799 16.3746C79.2135 15.8633 79.8746 15.4942 80.4506 15.1787C80.4855 15.1597 80.5201 15.1407 80.5544 15.122C81.1184 14.8135 81.6032 14.5484 82.0017 14.2166C82.5177 13.7869 83.036 13.3692 83.5502 12.9549C85.0382 11.7558 86.4919 10.5844 87.7556 9.22923C88.0423 8.92171 88.5273 8.90782 88.8386 9.1982ZM94.1977 23.3402C94.4845 23.0327 94.9694 23.0188 95.2808 23.3092C95.6244 23.6296 95.9854 24.0055 96.2813 24.4373C96.3185 24.4914 96.3672 24.5568 96.4336 24.6458C96.447 24.6638 96.4611 24.6827 96.476 24.7027C96.5583 24.8133 96.6563 24.9463 96.7494 25.0857C96.8414 25.2235 96.9399 25.3837 97.0187 25.5518C97.0933 25.7108 97.177 25.9317 97.1872 26.1787C97.1978 26.4368 97.0971 26.6371 97.005 26.763C96.9153 26.8855 96.8095 26.9725 96.7283 27.0303C96.5665 27.1454 96.38 27.2299 96.2353 27.288C96.0819 27.3497 95.929 27.4 95.8127 27.4363C95.7629 27.4519 95.7171 27.4657 95.6813 27.4766L95.6636 27.4819C95.6164 27.4962 95.6078 27.4992 95.6124 27.4975C95.4595 27.5525 95.3012 27.6116 95.1382 27.6723C94.4375 27.9337 93.6516 28.2268 92.8424 28.3664C92.4261 28.4382 92.0262 28.1585 91.9492 27.7416C91.8721 27.3248 92.1471 26.9287 92.5633 26.8569C93.219 26.7439 93.8375 26.514 94.5266 26.258C94.7048 26.1918 94.8878 26.1238 95.0773 26.0556C95.116 26.0417 95.1655 26.0267 95.1977 26.017L95.2221 26.0096C95.2579 25.9988 95.296 25.9872 95.3383 25.974C95.3832 25.96 95.4297 25.945 95.4763 25.9291C95.478 25.9286 95.4787 25.9265 95.4777 25.925C95.4081 25.8209 95.3304 25.7149 95.2499 25.6067C95.2383 25.5911 95.2263 25.5751 95.2142 25.5588C95.1484 25.4707 95.0765 25.3743 95.02 25.2919C94.815 24.9928 94.5453 24.7054 94.2423 24.4228C93.9309 24.1324 93.9109 23.6477 94.1977 23.3402Z" fill="#2C2C2C"/>
<path fill-rule="evenodd" clip-rule="evenodd" d="M249.662 8.20618C249.795 8.06063 250.002 8.19229 249.933 8.37726C249.882 8.51646 249.834 8.63627 249.794 8.72973C249.774 8.77641 249.757 8.8134 249.743 8.84111C249.733 8.86282 249.727 8.8738 249.725 8.87673C249.725 8.87675 249.725 8.87675 249.725 8.87673C249.505 9.23522 249.62 9.70778 249.982 9.93221C250.343 10.1566 250.815 10.048 251.035 9.68948C251.143 9.51379 251.266 9.20994 251.371 8.92772C251.486 8.61925 251.61 8.25212 251.718 7.8986C251.824 7.55024 251.92 7.19243 251.973 6.90991C251.997 6.7784 252.022 6.61311 252.017 6.45895C252.015 6.39322 252.006 6.24043 251.931 6.07839C251.89 5.98924 251.812 5.86232 251.67 5.75818C251.516 5.6456 251.338 5.59661 251.168 5.60147C250.345 5.62505 249.68 6.06929 249.191 6.50059C248.835 6.81419 248.492 7.19786 248.219 7.50379C248.124 7.61062 248.037 7.70797 247.961 7.78954C247.674 8.09706 247.694 8.58175 248.005 8.87214C248.317 9.16252 248.801 9.14863 249.088 8.84111C249.207 8.71328 249.321 8.58652 249.432 8.46188C249.509 8.37552 249.585 8.29017 249.662 8.20618ZM256.603 17.094C256.726 17.1367 256.741 17.3022 256.638 17.3792C256.36 17.5858 256.061 17.8222 255.775 18.049C255.571 18.2103 255.374 18.3667 255.194 18.504C254.86 18.7596 254.8 19.24 255.06 19.577C255.32 19.914 255.802 19.9799 256.136 19.7244C256.368 19.5467 256.576 19.3819 256.777 19.2216C257.035 19.0169 257.284 18.8195 257.563 18.6117C257.563 18.6122 257.565 18.6106 257.573 18.6062C257.594 18.5937 257.655 18.5588 257.78 18.4891L257.802 18.4769C257.937 18.4021 258.108 18.3069 258.275 18.2062C258.447 18.1028 258.643 17.9766 258.804 17.8431C258.883 17.7771 258.979 17.6896 259.06 17.5832C259.129 17.493 259.266 17.2912 259.269 17.0093C259.273 16.6639 259.073 16.4412 258.977 16.3519C258.87 16.2531 258.755 16.1886 258.676 16.1494C258.514 16.0679 258.326 16.0066 258.177 15.963C258.02 15.9169 257.862 15.8785 257.744 15.8506C257.589 15.8139 257.563 15.8081 257.574 15.8118C256.975 15.6147 256.392 15.4004 255.792 15.1798C255.638 15.1233 255.483 15.0663 255.327 15.0092C254.928 14.8634 254.49 15.0671 254.349 15.4641C254.208 15.8612 254.417 16.3012 254.816 16.447C254.966 16.5015 255.116 16.5566 255.266 16.612C255.705 16.7734 256.151 16.9372 256.603 17.094ZM247.41 11.206C247.722 11.4964 247.742 11.9811 247.455 12.2886C246.112 13.7292 244.537 14.9976 243.027 16.2144C242.529 16.6158 242.037 17.0115 241.564 17.406C241.047 17.8362 240.437 18.169 239.905 18.4594C239.86 18.4838 239.816 18.508 239.772 18.5318C239.435 18.7166 239.597 19.119 239.978 19.0535C240.62 18.9429 241.266 18.8299 241.912 18.7168C243.834 18.3804 245.767 18.0421 247.677 17.7561C249.227 17.5241 250.761 17.2338 252.273 16.8853C252.684 16.7905 253.099 17.0478 253.199 17.46C253.299 17.8721 253.047 18.2831 252.635 18.3779C251.084 18.7355 249.511 19.0332 247.923 19.2709C246.002 19.5585 244.126 19.8873 242.239 20.218C241.602 20.3296 240.964 20.4413 240.323 20.5518C240.167 20.5788 240.153 20.7957 240.304 20.8458L240.329 20.8539C240.905 21.0441 241.507 21.243 242.1 21.4812C242.73 21.7339 243.342 22.0458 243.917 22.3393C244.035 22.3991 244.151 22.4581 244.265 22.5157C244.957 22.8649 245.608 23.173 246.282 23.3754C246.96 23.5792 247.81 23.8833 248.626 24.26C249.429 24.6309 250.256 25.0982 250.843 25.6461C251.155 25.9365 251.175 26.4212 250.888 26.7287C250.601 27.0362 250.116 27.0501 249.805 26.7598C249.398 26.3804 248.748 25.9957 247.997 25.6488C247.258 25.3078 246.478 25.0283 245.857 24.8418C245.043 24.5972 244.288 24.2348 243.587 23.8811C243.461 23.8175 243.337 23.7544 243.215 23.6922C242.641 23.3997 242.103 23.1258 241.544 22.9015C240.996 22.6814 240.433 22.4955 239.842 22.3004L239.84 22.2994C239.256 22.1066 238.645 21.9047 238.043 21.6615C237.826 21.5741 237.316 21.3675 236.868 21.1685C236.868 21.1682 236.867 21.1679 236.866 21.1675C236.759 21.1199 236.643 21.0986 236.526 21.1063C236.441 21.1119 236.357 21.1173 236.273 21.1226C235.959 21.1427 235.651 21.1625 235.343 21.1924C234.541 21.2701 233.912 21.4055 233.504 21.6684C233.15 21.8964 232.675 21.7923 232.442 21.436C232.21 21.0797 232.308 20.6061 232.662 20.3782C233.4 19.9023 234.355 19.7475 235.176 19.6679C235.343 19.6516 235.512 19.638 235.679 19.6259C235.735 19.622 235.784 19.5918 235.819 19.5493C236.088 19.2243 236.396 19.0052 236.642 18.8373C236.676 18.8141 236.708 18.7921 236.739 18.7709C236.952 18.6262 237.107 18.5209 237.252 18.3824C237.785 17.8712 238.446 17.502 239.022 17.1866C239.057 17.1675 239.092 17.1486 239.126 17.1298C239.69 16.8214 240.175 16.5562 240.573 16.2244C241.089 15.7947 241.608 15.377 242.122 14.9627C243.61 13.7636 245.064 12.5922 246.327 11.237C246.614 10.9295 247.099 10.9156 247.41 11.206ZM252.769 25.348C253.056 25.0405 253.541 25.0266 253.853 25.317C254.196 25.6374 254.557 26.0133 254.853 26.4451C254.89 26.4992 254.939 26.5646 255.005 26.6536C255.019 26.6716 255.033 26.6905 255.048 26.7105C255.13 26.8211 255.228 26.9541 255.321 27.0935C255.413 27.2313 255.512 27.3915 255.59 27.5596C255.665 27.7186 255.749 27.9395 255.759 28.1865C255.77 28.4446 255.669 28.6449 255.577 28.7708C255.487 28.8933 255.381 28.9803 255.3 29.0381C255.138 29.1532 254.952 29.2377 254.807 29.2958C254.654 29.3575 254.501 29.4078 254.384 29.4441C254.335 29.4597 254.289 29.4735 254.253 29.4844L254.235 29.4897C254.188 29.504 254.18 29.507 254.184 29.5053C254.031 29.5603 253.873 29.6194 253.71 29.6801C253.009 29.9415 252.223 30.2346 251.414 30.3742C250.998 30.446 250.598 30.1663 250.521 29.7494C250.444 29.3326 250.719 28.9365 251.135 28.8648C251.791 28.7517 252.409 28.5219 253.098 28.2658C253.277 28.1996 253.46 28.1316 253.649 28.0634C253.688 28.0495 253.737 28.0345 253.77 28.0248L253.794 28.0174C253.83 28.0066 253.868 27.9951 253.91 27.9818C253.955 27.9678 254.001 27.9528 254.048 27.937C254.05 27.9364 254.05 27.9343 254.049 27.9328C253.98 27.8287 253.902 27.7227 253.822 27.6145C253.81 27.5989 253.798 27.5829 253.786 27.5666C253.72 27.4785 253.648 27.3821 253.592 27.2997C253.387 27.0006 253.117 26.7132 252.814 26.4306C252.503 26.1402 252.483 25.6555 252.769 25.348Z" fill="#2C2C2C"/>
<path fill-rule="evenodd" clip-rule="evenodd" d="M21.7765 6.82225C21.9682 6.77649 22.0662 7.0022 21.9052 7.11646C21.784 7.20244 21.6774 7.27483 21.5917 7.32959C21.5488 7.35694 21.5141 7.37806 21.4874 7.39342C21.4665 7.40546 21.4554 7.4112 21.4524 7.41271C21.4524 7.41272 21.4524 7.41272 21.4524 7.41271C21.0689 7.58558 20.8982 8.04093 21.0713 8.42975C21.2443 8.81857 21.6954 8.99363 22.0789 8.82076C22.2669 8.73603 22.5393 8.55373 22.7849 8.37941C23.0534 8.18886 23.3625 7.95501 23.6501 7.72297C23.9334 7.49432 24.2144 7.2526 24.4164 7.04829C24.5104 6.95319 24.6237 6.83033 24.7064 6.7001C24.7416 6.64458 24.8206 6.51351 24.8493 6.33712C24.8651 6.24007 24.8719 6.09129 24.813 5.92536C24.7493 5.746 24.6292 5.60523 24.4859 5.51379C23.7919 5.07091 22.9924 5.0649 22.3451 5.14664C21.8745 5.20608 21.3755 5.33098 20.9777 5.43057C20.8388 5.46535 20.7122 5.49704 20.6034 5.52178C20.1934 5.61505 19.9376 6.02722 20.032 6.44239C20.1264 6.85757 20.5354 7.11853 20.9454 7.02527C21.1158 6.9865 21.2806 6.9452 21.4427 6.9046C21.555 6.87646 21.6659 6.84865 21.7765 6.82225ZM22.5246 18.0745C22.6024 18.1789 22.5221 18.3245 22.3934 18.33C22.0474 18.3449 21.6676 18.3727 21.3033 18.3994C21.0441 18.4183 20.7928 18.4367 20.5671 18.4494C20.1472 18.4732 19.8276 18.8368 19.8534 19.2617C19.8791 19.6866 20.2404 20.0117 20.6604 19.988C20.9523 19.9715 21.2165 19.9518 21.4736 19.9326C21.8019 19.9082 22.1186 19.8846 22.4664 19.8696C22.4655 19.8696 22.4688 19.8699 22.4774 19.8705C22.5023 19.8723 22.5718 19.8773 22.7147 19.8901L22.7398 19.8923C22.8931 19.906 23.0883 19.9235 23.2831 19.9341C23.4832 19.945 23.7162 19.9508 23.9244 19.9308C24.0272 19.9209 24.1552 19.902 24.2825 19.8599C24.3905 19.8241 24.6171 19.7341 24.7781 19.5027C24.9755 19.2192 24.9347 18.9223 24.9053 18.7944C24.8727 18.6529 24.8135 18.5347 24.7707 18.4581C24.6818 18.2993 24.5612 18.1433 24.4624 18.0235C24.3581 17.8968 24.2495 17.7767 24.1674 17.6872C24.0594 17.5694 24.0416 17.5503 24.0488 17.5597C23.6635 17.0598 23.3017 16.555 22.9294 16.0354C22.8339 15.9023 22.7378 15.7681 22.6404 15.6328C22.3921 15.288 21.9155 15.2105 21.5758 15.4597C21.2361 15.709 21.1621 16.1907 21.4104 16.5355C21.5032 16.6644 21.5963 16.7943 21.6898 16.9249C21.9622 17.305 22.2387 17.6907 22.5246 18.0745ZM18.2287 8.03886C18.3231 8.45403 18.0673 8.8662 17.6573 8.95947C15.7366 9.39637 13.7214 9.56099 11.7883 9.7189C11.1507 9.77098 10.522 9.82234 9.90849 9.88251C9.2394 9.94812 8.54768 9.88067 7.94435 9.82183C7.89354 9.81688 7.84335 9.81198 7.79386 9.80724C7.41102 9.77051 7.31945 10.1948 7.67082 10.3543C8.26471 10.6239 8.86196 10.893 9.46036 11.1627C11.2392 11.9643 13.0281 12.7704 14.769 13.6071C16.1813 14.2859 17.6134 14.9077 19.0603 15.4691C19.4538 15.6218 19.6521 16.0675 19.5033 16.4647C19.3544 16.8619 18.9147 17.0601 18.5212 16.9074C17.0369 16.3314 15.5685 15.6939 14.1211 14.9983C12.3705 14.1569 10.6338 13.3747 8.88716 12.5881C8.29782 12.3227 7.70735 12.0568 7.11483 11.7879C6.97025 11.7223 6.8367 11.8938 6.93399 12.0204L6.94972 12.0409C7.31915 12.5217 7.70556 13.0246 8.06264 13.5552C8.44137 14.1179 8.7724 14.7198 9.0838 15.286C9.14726 15.4014 9.20991 15.5153 9.27198 15.6271C9.6482 16.3047 10.0137 16.9254 10.4574 17.4716C10.904 18.0213 11.4364 18.7504 11.8993 19.5202C12.3551 20.2782 12.7768 21.1296 12.955 21.913C13.0495 22.3281 12.7937 22.7403 12.3837 22.8336C11.9737 22.9268 11.5647 22.6659 11.4703 22.2507C11.3469 21.7083 11.025 21.0246 10.5987 20.3158C10.1796 19.6188 9.69127 18.9493 9.28234 18.446C8.74634 17.7863 8.32549 17.0624 7.94443 16.376C7.87588 16.2526 7.80885 16.1308 7.74272 16.0106C7.43191 15.446 7.14078 14.917 6.80459 14.4176C6.47484 13.9276 6.11355 13.4574 5.73463 12.9642L5.73279 12.9618C5.3582 12.4743 4.9662 11.964 4.60471 11.4245C4.47467 11.2304 4.16876 10.7729 3.91036 10.3568C3.90995 10.3562 3.90955 10.3555 3.90914 10.3549C3.84736 10.2553 3.76286 10.1721 3.66237 10.1132C3.58905 10.0702 3.51625 10.0272 3.44378 9.9845C3.17278 9.82471 2.90635 9.66762 2.63479 9.51928C1.92788 9.13314 1.33143 8.89171 0.846144 8.87993C0.425477 8.86971 0.0907991 8.51658 0.0986192 8.09118C0.106439 7.66578 0.453798 7.32921 0.874465 7.33942C1.75289 7.36076 2.62932 7.76893 3.35321 8.16434C3.50114 8.24515 3.64872 8.32896 3.79348 8.41273C3.84152 8.44053 3.89912 8.44318 3.9521 8.42776C4.35694 8.30996 4.73536 8.30207 5.03297 8.3012C5.07396 8.30108 5.1132 8.30107 5.15093 8.30106C5.40822 8.30097 5.5956 8.3009 5.79291 8.26755C6.52153 8.14437 7.27584 8.21046 7.9296 8.27318C7.96918 8.27698 8.00841 8.28076 8.04731 8.28452C8.68719 8.34627 9.23722 8.39935 9.7533 8.34874C10.4216 8.28321 11.085 8.22892 11.7431 8.17507C13.6479 8.01921 15.5085 7.86697 17.3153 7.45598C17.7253 7.36272 18.1342 7.62368 18.2287 8.03886ZM14.7159 22.7486C15.1259 22.6553 15.5349 22.9163 15.6293 23.3314C15.7335 23.7896 15.8209 24.3034 15.8232 24.8268C15.8234 24.8925 15.827 24.974 15.8319 25.0849C15.8329 25.1073 15.8339 25.1308 15.835 25.1557C15.841 25.2935 15.8473 25.4586 15.846 25.6262C15.8447 25.7919 15.8361 25.9798 15.8069 26.1631C15.7793 26.3365 15.7244 26.5663 15.594 26.7763C15.4578 26.9959 15.262 27.105 15.115 27.1573C14.972 27.2083 14.8356 27.2208 14.736 27.223C14.5374 27.2273 14.3356 27.1924 14.1833 27.1592C14.0218 27.124 13.8671 27.0797 13.7504 27.0444C13.7004 27.0293 13.6548 27.015 13.6191 27.0039L13.6015 26.9984C13.5544 26.9836 13.5456 26.9813 13.5503 26.9825C13.3929 26.9421 13.2288 26.902 13.0599 26.8607C12.3333 26.6832 11.5186 26.4841 10.7707 26.1449C10.386 25.9704 10.2124 25.5143 10.3828 25.1262C10.5533 24.7381 11.0033 24.5649 11.388 24.7394C11.9938 25.0143 12.6347 25.1717 13.3486 25.3471C13.5332 25.3924 13.7227 25.439 13.9178 25.4891C13.9577 25.4993 14.0071 25.5147 14.0392 25.5248L14.0635 25.5324C14.0991 25.5435 14.1372 25.5554 14.1796 25.5682C14.2246 25.5818 14.2715 25.5956 14.319 25.6086C14.3207 25.6091 14.3224 25.6078 14.3224 25.606C14.3234 25.4807 14.3187 25.3494 14.3128 25.2147C14.312 25.1953 14.3111 25.1753 14.3102 25.155C14.3053 25.0452 14.3 24.9251 14.2995 24.8251C14.298 24.4625 14.2364 24.0732 14.1445 23.6692C14.0501 23.254 14.3059 22.8418 14.7159 22.7486Z" fill="#2C2C2C"/>
<path fill-rule="evenodd" clip-rule="evenodd" d="M328.406 8.1736C328.591 8.10423 328.716 8.31592 328.571 8.44941C328.461 8.54987 328.364 8.63503 328.286 8.70008C328.247 8.73257 328.215 8.75787 328.191 8.77645C328.172 8.79101 328.161 8.7981 328.159 8.79996C328.159 8.79998 328.159 8.79998 328.159 8.79996C327.8 9.01945 327.687 9.49256 327.908 9.85669C328.128 10.2208 328.597 10.3381 328.956 10.1186C329.132 10.011 329.38 9.79609 329.601 9.59241C329.844 9.36978 330.121 9.09911 330.378 8.83292C330.63 8.57062 330.879 8.29566 331.054 8.06769C331.135 7.96157 331.232 7.82551 331.298 7.68597C331.326 7.62648 331.388 7.48656 331.394 7.30797C331.398 7.20971 331.386 7.06123 331.307 6.90398C331.221 6.734 331.084 6.60935 330.931 6.53655C330.187 6.18394 329.393 6.27798 328.761 6.44004C328.301 6.55787 327.822 6.7442 327.44 6.89277C327.306 6.94465 327.184 6.99193 327.08 7.03008C326.685 7.17389 326.482 7.61482 326.628 8.01493C326.774 8.41503 327.212 8.62279 327.607 8.47898C327.771 8.4192 327.93 8.35762 328.085 8.29706C328.193 8.2551 328.3 8.21364 328.406 8.1736ZM330.556 19.244C330.646 19.3378 330.585 19.4923 330.458 19.5139C330.116 19.5719 329.743 19.647 329.385 19.719C329.13 19.7702 328.883 19.8199 328.661 19.8608C328.247 19.9368 327.975 20.3376 328.054 20.7559C328.133 21.1742 328.532 21.4516 328.946 21.3756C329.233 21.3227 329.493 21.2701 329.746 21.2189C330.068 21.1536 330.379 21.0906 330.723 21.0322C330.722 21.0324 330.725 21.0322 330.734 21.0317C330.759 21.0304 330.828 21.0266 330.972 21.0215L330.997 21.0205C331.15 21.015 331.346 21.0079 331.541 20.9941C331.741 20.9799 331.973 20.9564 332.177 20.9105C332.278 20.8879 332.402 20.8532 332.523 20.7954C332.626 20.7465 332.839 20.6288 332.97 20.3791C333.131 20.0731 333.053 19.7836 333.008 19.6604C332.958 19.5241 332.884 19.4142 332.832 19.3436C332.724 19.1972 332.585 19.0574 332.472 18.9509C332.353 18.8383 332.23 18.7327 332.137 18.6542C332.015 18.5509 331.995 18.5342 332.004 18.5425C331.559 18.0948 331.137 17.6392 330.702 17.1703C330.591 17.0501 330.479 16.929 330.365 16.807C330.076 16.4959 329.593 16.4786 329.287 16.7684C328.982 17.0582 328.968 17.5453 329.258 17.8564C329.366 17.9727 329.475 18.0899 329.584 18.2077C329.902 18.5508 330.224 18.899 330.556 19.244ZM325.038 9.8244C325.184 10.2245 324.982 10.6654 324.587 10.8092C322.736 11.483 320.757 11.8983 318.859 12.2968C318.233 12.4282 317.615 12.5578 317.014 12.6942C316.359 12.843 315.664 12.8626 315.058 12.8797C315.007 12.8811 314.956 12.8825 314.907 12.884C314.522 12.8955 314.485 13.3278 314.853 13.4422C315.476 13.6354 316.102 13.8277 316.73 14.0204C318.595 14.5932 320.47 15.1692 322.302 15.7817C323.788 16.2785 325.287 16.7162 326.793 17.0923C327.202 17.1945 327.455 17.612 327.357 18.0247C327.259 18.4374 326.847 18.689 326.438 18.5867C324.893 18.2009 323.357 17.7521 321.834 17.2429C319.992 16.6271 318.171 16.0683 316.339 15.5063C315.721 15.3167 315.102 15.1267 314.481 14.9341C314.329 14.8871 314.218 15.0739 314.33 15.1874L314.349 15.2057C314.775 15.6366 315.222 16.0872 315.642 16.5689C316.088 17.0798 316.492 17.6356 316.872 18.1584C316.949 18.265 317.026 18.3702 317.101 18.4733C317.559 19.0986 317.999 19.6687 318.508 20.155C319.02 20.6446 319.639 21.3014 320.195 22.0073C320.742 22.7023 321.267 23.4942 321.541 24.2492C321.687 24.6493 321.485 25.0902 321.09 25.234C320.695 25.3778 320.256 25.17 320.111 24.7699C319.92 24.2472 319.515 23.6092 319.004 22.9592C318.501 22.3201 317.933 21.717 317.464 21.2688C316.85 20.6813 316.342 20.0157 315.878 19.3824C315.794 19.2685 315.713 19.156 315.632 19.0451C315.253 18.5237 314.898 18.0354 314.502 17.5819C314.113 17.137 313.696 16.7157 313.259 16.2738L313.256 16.2716C312.824 15.8347 312.371 15.3775 311.945 14.8874C311.792 14.7111 311.431 14.2955 311.122 13.915C311.122 13.9144 311.122 13.9138 311.121 13.9132C311.047 13.8222 310.953 13.7502 310.846 13.7043C310.768 13.6708 310.69 13.6373 310.613 13.604C310.324 13.4793 310.04 13.3568 309.752 13.2436C309.003 12.9489 308.381 12.784 307.898 12.833C307.479 12.8755 307.103 12.5669 307.057 12.1439C307.012 11.7209 307.314 11.3435 307.733 11.301C308.607 11.2123 309.528 11.5077 310.295 11.8094C310.452 11.8711 310.609 11.9358 310.763 12.0008C310.814 12.0224 310.872 12.0178 310.923 11.9959C311.31 11.8284 311.684 11.7732 311.979 11.7351C312.02 11.7299 312.059 11.725 312.096 11.7202C312.351 11.688 312.537 11.6645 312.729 11.6067C313.436 11.3934 314.193 11.3646 314.85 11.345C314.889 11.3438 314.929 11.3427 314.968 11.3416C315.61 11.3228 316.163 11.3067 316.668 11.1919C317.323 11.0433 317.975 10.9065 318.621 10.7707C320.491 10.3779 322.318 9.99408 324.059 9.36035C324.454 9.21654 324.893 9.4243 325.038 9.8244ZM323.393 24.858C323.788 24.7142 324.227 24.9219 324.372 25.322C324.533 25.7636 324.684 26.2623 324.752 26.7814C324.76 26.8465 324.774 26.927 324.793 27.0364C324.796 27.0584 324.8 27.0817 324.804 27.1062C324.828 27.2422 324.854 27.4052 324.874 27.5716C324.894 27.7362 324.909 27.9237 324.903 28.1092C324.897 28.2847 324.871 28.5196 324.768 28.7443C324.66 28.9791 324.48 29.1119 324.34 29.1822C324.205 29.2506 324.071 29.2801 323.973 29.2947C323.776 29.3239 323.572 29.3144 323.416 29.3006C323.252 29.2859 323.093 29.2612 322.972 29.2408C322.921 29.2321 322.874 29.2236 322.837 29.217L322.819 29.2138C322.77 29.2051 322.761 29.2038 322.766 29.2044C322.605 29.184 322.437 29.1648 322.264 29.1449C321.521 29.0597 320.688 28.9641 319.904 28.721C319.5 28.596 319.271 28.1652 319.391 27.7589C319.512 27.3525 319.937 27.1244 320.34 27.2494C320.976 27.4463 321.631 27.5224 322.361 27.6071C322.55 27.629 322.744 27.6515 322.944 27.6768C322.985 27.6819 323.036 27.6911 323.069 27.697L323.094 27.7015C323.131 27.7081 323.17 27.7152 323.214 27.7226C323.26 27.7304 323.308 27.7382 323.357 27.7452C323.359 27.7455 323.36 27.744 323.36 27.7422C323.345 27.6178 323.324 27.4881 323.302 27.3551C323.298 27.336 323.295 27.3163 323.292 27.2962C323.273 27.1879 323.253 27.0694 323.24 26.9703C323.193 26.6107 323.083 26.2322 322.941 25.8428C322.796 25.4427 322.998 25.0018 323.393 24.858Z" fill="#2C2C2C"/>
<path fill-rule="evenodd" clip-rule="evenodd" d="M42.7181 3.4156C42.7298 3.21889 42.9742 3.19038 43.037 3.37753C43.0842 3.51838 43.1227 3.64143 43.1503 3.73932C43.1641 3.78822 43.1743 3.82757 43.1812 3.85758C43.1867 3.88109 43.189 3.89337 43.1896 3.89666C43.2441 4.3138 43.6306 4.60887 44.0529 4.55574C44.4751 4.5026 44.7732 4.12137 44.7187 3.70424C44.6919 3.49981 44.5962 3.18634 44.5004 2.90078C44.3957 2.58865 44.2612 2.22512 44.1223 1.88273C43.9854 1.54534 43.8353 1.20649 43.6982 0.953989C43.6343 0.836454 43.5495 0.692461 43.4488 0.575677C43.4058 0.525887 43.3032 0.412387 43.1426 0.33389C43.0543 0.290701 42.9138 0.241122 42.738 0.249537C42.5478 0.258633 42.3784 0.332833 42.2494 0.443543C41.6247 0.979766 41.3876 1.74334 41.2786 2.38659C41.1994 2.85428 41.1746 3.36804 41.1549 3.7777C41.148 3.92075 41.1417 4.05111 41.1339 4.16237C41.1046 4.58183 41.4251 4.94594 41.8499 4.97564C42.2746 5.00534 42.6427 4.68938 42.672 4.26993C42.6842 4.09557 42.6924 3.92587 42.7004 3.759C42.7059 3.64338 42.7114 3.52912 42.7181 3.4156ZM53.7057 5.95456C53.8281 5.91032 53.9443 6.02931 53.9123 6.15413C53.8265 6.48958 53.7432 6.86121 53.6633 7.21763C53.6065 7.47123 53.5514 7.71713 53.4983 7.9368C53.3996 8.34567 53.6552 8.75676 54.0694 8.85502C54.4835 8.95327 54.8993 8.70148 54.9981 8.29261C55.0667 8.00839 55.1243 7.74977 55.1803 7.49815C55.2511 7.1802 55.3194 6.87342 55.4045 6.54022C55.4063 6.53313 55.4086 6.52615 55.4112 6.51931C55.4201 6.49602 55.445 6.43088 55.4986 6.29777L55.508 6.27447C55.5655 6.13168 55.6387 5.94987 55.7052 5.76644C55.7735 5.57808 55.8465 5.35669 55.8875 5.15159C55.9078 5.05036 55.9268 4.92238 55.9232 4.78827C55.9203 4.67461 55.8996 4.43167 55.7247 4.2106C55.5104 3.93962 55.2144 3.89276 55.0835 3.88395C54.9386 3.8742 54.8083 3.89664 54.7227 3.91551C54.5449 3.95468 54.3607 4.02494 54.2174 4.08482C54.066 4.14811 53.9196 4.21728 53.8101 4.26997C53.6662 4.33926 53.6428 4.35083 53.6538 4.34663C53.0638 4.57086 52.476 4.77111 51.8709 4.97725C51.7158 5.03008 51.5596 5.0833 51.4019 5.13741C51 5.27534 50.7879 5.70918 50.9282 6.10641C51.0686 6.50365 51.5082 6.71386 51.9102 6.57593C52.0604 6.52438 52.2117 6.47286 52.3637 6.42108C52.8064 6.2703 53.2556 6.11728 53.7057 5.95456ZM42.8564 7.1637C43.2811 7.1934 43.6017 7.55751 43.5723 7.97696C43.4349 9.94195 43.0096 11.9185 42.6015 13.8147C42.4669 14.4401 42.3342 15.0568 42.2143 15.6615C42.0836 16.3209 41.8189 16.9636 41.5881 17.5241C41.5686 17.5713 41.5494 17.6179 41.5306 17.6639C41.3846 18.0198 41.7643 18.2302 42.0186 17.94C42.4485 17.4495 42.8789 16.9556 43.3101 16.4608C44.592 14.9899 45.8812 13.5107 47.1858 12.0862C48.2441 10.9307 49.2535 9.7397 50.2095 8.5171C50.4695 8.18457 50.9536 8.12365 51.2907 8.38104C51.6279 8.63842 51.6904 9.11664 51.4304 9.44917C50.4496 10.7034 49.4146 11.9246 48.33 13.1089C47.0182 14.5412 45.7671 15.9774 44.5088 17.4218C44.0843 17.9092 43.6589 18.3975 43.2301 18.8869C43.1255 19.0063 43.251 19.1838 43.4004 19.1273L43.4245 19.1181C43.9917 18.9036 44.5849 18.6792 45.196 18.4908C45.8442 18.2911 46.5161 18.1483 47.1482 18.014C47.2771 17.9867 47.4042 17.9597 47.5292 17.9326C48.2867 17.7685 48.9865 17.5982 49.6377 17.3314C50.2931 17.0629 51.1451 16.7643 52.0159 16.5438C52.8733 16.3267 53.8103 16.1693 54.6117 16.2254C55.0365 16.2551 55.357 16.6192 55.3277 17.0386C55.2983 17.4581 54.9302 17.7741 54.5055 17.7444C53.9506 17.7055 53.203 17.8159 52.4012 18.0189C51.6128 18.2185 50.8306 18.4923 50.2306 18.7381C49.444 19.0604 48.6293 19.2538 47.862 19.42C47.724 19.4499 47.5881 19.4789 47.4539 19.5074C46.8235 19.6416 46.233 19.7673 45.6576 19.9446C45.0932 20.1185 44.5385 20.3283 43.9568 20.5484L43.954 20.5494C43.379 20.767 42.7771 20.9946 42.1561 21.1846C41.9327 21.2529 41.4063 21.4134 40.9332 21.5404L40.931 21.541C40.8178 21.5713 40.7137 21.6281 40.6282 21.7073C40.5659 21.765 40.5037 21.8223 40.4418 21.8793C40.2105 22.0925 39.983 22.3021 39.7625 22.5191C39.1884 23.0841 38.7847 23.5852 38.633 24.0463C38.5016 24.4461 38.0667 24.6643 37.6618 24.5337C37.2568 24.4032 37.0351 23.9733 37.1666 23.5736C37.4411 22.7389 38.0854 22.018 38.6733 21.4394C38.7934 21.3212 38.9164 21.2042 39.0384 21.0899C39.0789 21.0519 39.0981 20.9975 39.0987 20.9424C39.1031 20.5208 39.205 20.1562 39.2902 19.8711C39.302 19.8318 39.3133 19.7943 39.3242 19.7581C39.3986 19.5118 39.4527 19.3324 39.4779 19.1339C39.5707 18.4008 39.8522 17.6979 40.1013 17.0902C40.1164 17.0534 40.1314 17.017 40.1463 16.9808C40.3905 16.3862 40.6004 15.875 40.7012 15.3663C40.8318 14.7077 40.9718 14.0569 41.1106 13.4114C41.5124 11.543 41.905 9.7178 42.0342 7.86941C42.0635 7.44995 42.4316 7.134 42.8564 7.1637ZM55.921 14.7815C55.9503 14.3621 56.3184 14.0461 56.7432 14.0758C57.2119 14.1086 57.729 14.1735 58.2307 14.3228C58.2936 14.3416 58.3727 14.3617 58.4803 14.3891C58.502 14.3946 58.5248 14.4004 58.549 14.4066C58.6826 14.4408 58.8424 14.4825 59.0025 14.5322C59.1607 14.5813 59.3381 14.644 59.5051 14.7249C59.6631 14.8016 59.8672 14.9206 60.0306 15.1061C60.2013 15.3 60.2491 15.519 60.2567 15.6749C60.2641 15.8265 60.2366 15.9607 60.2099 16.0567C60.1566 16.248 60.0648 16.431 59.989 16.5673C59.9086 16.7117 59.8214 16.847 59.7538 16.9485C59.7249 16.9919 59.6981 17.0315 59.6771 17.0624L59.6667 17.0777C59.639 17.1186 59.6342 17.1262 59.6367 17.1221C59.5525 17.2611 59.4666 17.4066 59.3782 17.5563C58.9981 18.2005 58.5719 18.9228 58.0308 19.5405C57.7525 19.8583 57.2657 19.8926 56.9435 19.6171C56.6213 19.3417 56.5857 18.8608 56.864 18.5431C57.3024 18.0426 57.6384 17.4748 58.0128 16.8421C58.1097 16.6785 58.2091 16.5105 58.3135 16.3383C58.3348 16.3031 58.3638 16.2603 58.3827 16.2324L58.397 16.2114C58.418 16.1805 58.4404 16.1475 58.4649 16.1106C58.4906 16.0721 58.5169 16.0317 58.5428 15.9907C58.5435 15.9896 58.5436 15.9881 58.5432 15.9868C58.5427 15.9855 58.5416 15.9846 58.5403 15.9842C58.4213 15.9473 58.295 15.914 58.1651 15.8808C58.1462 15.876 58.1269 15.871 58.1071 15.866C58.0006 15.8389 57.8841 15.8093 57.7883 15.7808C57.4407 15.6774 57.0503 15.6237 56.637 15.5948C56.2122 15.5651 55.8917 15.201 55.921 14.7815Z" fill="#2C2C2C"/>
<path fill-rule="evenodd" clip-rule="evenodd" d="M206.803 6.19971C206.936 6.05416 207.144 6.18582 207.075 6.37079C207.023 6.50999 206.975 6.6298 206.935 6.72326C206.915 6.76995 206.898 6.80693 206.885 6.83464C206.874 6.85635 206.868 6.86734 206.866 6.87026C206.866 6.87028 206.866 6.87028 206.866 6.87026C206.646 7.22875 206.761 7.70131 207.123 7.92574C207.484 8.15018 207.956 8.0415 208.176 7.68301C208.284 7.50732 208.407 7.20347 208.512 6.92125C208.627 6.61278 208.751 6.24565 208.859 5.89213C208.965 5.54377 209.061 5.18596 209.114 4.90344C209.138 4.77193 209.163 4.60664 209.158 4.45248C209.156 4.38675 209.147 4.23396 209.072 4.07192C209.031 3.98277 208.953 3.85585 208.811 3.75171C208.657 3.63913 208.479 3.59014 208.309 3.595C207.486 3.61858 206.821 4.06282 206.332 4.49412C205.976 4.80772 205.633 5.19139 205.36 5.49732C205.265 5.60415 205.178 5.7015 205.102 5.78307C204.815 6.09059 204.835 6.57529 205.146 6.86567C205.458 7.15605 205.943 7.14216 206.229 6.83464C206.349 6.70681 206.462 6.58005 206.573 6.45541C206.65 6.36905 206.726 6.2837 206.803 6.19971ZM213.744 15.0876C213.867 15.1302 213.882 15.2958 213.779 15.3727C213.501 15.5794 213.203 15.8158 212.916 16.0425C212.712 16.2038 212.515 16.3602 212.335 16.4975C212.001 16.7531 211.941 17.2335 212.201 17.5705C212.461 17.9075 212.943 17.9735 213.277 17.7179C213.509 17.5402 213.717 17.3755 213.919 17.2152C214.176 17.0105 214.425 16.813 214.704 16.6052C214.704 16.6057 214.707 16.6041 214.714 16.5998C214.736 16.5873 214.796 16.5523 214.921 16.4826L214.943 16.4704C215.078 16.3956 215.249 16.3004 215.416 16.1997C215.588 16.0963 215.784 15.9701 215.945 15.8366C216.024 15.7707 216.12 15.6832 216.201 15.5767C216.271 15.4865 216.407 15.2847 216.411 15.0029C216.415 14.6574 216.214 14.4347 216.118 14.3455C216.011 14.2467 215.896 14.1821 215.818 14.1429C215.655 14.0615 215.467 14.0002 215.318 13.9565C215.161 13.9104 215.003 13.872 214.885 13.8441C214.73 13.8074 214.704 13.8016 214.716 13.8053C214.116 13.6083 213.533 13.394 212.933 13.1734C212.779 13.1168 212.624 13.0599 212.468 13.0027C212.069 12.8569 211.631 13.0606 211.49 13.4577C211.349 13.8547 211.558 14.2947 211.958 14.4405C212.107 14.495 212.257 14.5501 212.407 14.6056C212.846 14.767 213.292 14.9308 213.744 15.0876ZM204.552 9.19954C204.863 9.48992 204.883 9.97462 204.596 10.2821C203.253 11.7227 201.678 12.9912 200.168 14.2079C199.67 14.6093 199.178 15.005 198.705 15.3995C198.188 15.8297 197.578 16.1626 197.046 16.4529C197.001 16.4773 196.957 16.5015 196.913 16.5254C196.576 16.7101 196.738 17.1125 197.119 17.047C197.762 16.9364 198.407 16.8234 199.053 16.7103C200.975 16.3739 202.908 16.0356 204.818 15.7496C206.368 15.5177 207.902 15.2273 209.414 14.8788C209.826 14.784 210.24 15.0413 210.34 15.4535C210.44 15.8657 210.188 16.2767 209.776 16.3715C208.225 16.729 206.652 17.0267 205.064 17.2645C203.143 17.552 201.267 17.8808 199.38 18.2115C198.743 18.3231 198.106 18.4349 197.464 18.5454C197.308 18.5723 197.294 18.7892 197.445 18.8393L197.47 18.8474C198.046 19.0376 198.648 19.2365 199.241 19.4747C199.871 19.7274 200.483 20.0394 201.059 20.3328C201.176 20.3926 201.292 20.4516 201.406 20.5092C202.098 20.8584 202.749 21.1665 203.423 21.369C204.101 21.5727 204.951 21.8768 205.767 22.2535C206.57 22.6244 207.397 23.0917 207.984 23.6397C208.296 23.93 208.316 24.4147 208.029 24.7223C207.742 25.0298 207.257 25.0437 206.946 24.7533C206.539 24.3739 205.889 23.9892 205.138 23.6424C204.399 23.3013 203.619 23.0219 202.998 22.8353C202.184 22.5907 201.429 22.2283 200.729 21.8747C200.602 21.811 200.479 21.748 200.356 21.6857C199.782 21.3932 199.244 21.1193 198.685 20.895C198.137 20.675 197.574 20.489 196.984 20.2939L196.981 20.293C196.397 20.1001 195.786 19.8982 195.184 19.6551C194.967 19.5676 194.457 19.361 194.009 19.162C194.009 19.1617 194.008 19.1614 194.007 19.1611C193.9 19.1135 193.784 19.0921 193.667 19.0998C193.583 19.1054 193.498 19.1108 193.414 19.1162C193.1 19.1363 192.792 19.156 192.484 19.1859C191.682 19.2636 191.053 19.3991 190.645 19.662C190.291 19.8899 189.816 19.7858 189.583 19.4295C189.351 19.0732 189.449 18.5996 189.803 18.3717C190.541 17.8958 191.496 17.741 192.317 17.6614C192.484 17.6451 192.654 17.6315 192.82 17.6195C192.876 17.6155 192.925 17.5853 192.96 17.5428C193.229 17.2179 193.537 16.9987 193.783 16.8308C193.817 16.8077 193.849 16.7856 193.881 16.7644C194.093 16.6198 194.248 16.5144 194.393 16.376C194.926 15.8647 195.587 15.4955 196.164 15.1801C196.198 15.161 196.233 15.1421 196.267 15.1233C196.831 14.8149 197.316 14.5498 197.715 14.2179C198.231 13.7882 198.749 13.3706 199.263 12.9562C200.751 11.7571 202.205 10.5857 203.468 9.23057C203.755 8.92305 204.24 8.90916 204.552 9.19954ZM209.911 23.3415C210.197 23.034 210.682 23.0201 210.994 23.3105C211.337 23.631 211.698 24.0068 211.994 24.4386C212.031 24.4928 212.08 24.5582 212.146 24.6472C212.16 24.6651 212.174 24.684 212.189 24.704C212.271 24.8146 212.369 24.9476 212.462 25.087C212.554 25.2248 212.653 25.3851 212.732 25.5531C212.806 25.7121 212.89 25.9331 212.9 26.18C212.911 26.4382 212.81 26.6385 212.718 26.7643C212.628 26.8868 212.522 26.9738 212.441 27.0316C212.279 27.1468 212.093 27.2312 211.948 27.2894C211.795 27.351 211.642 27.4013 211.526 27.4377C211.476 27.4532 211.43 27.4671 211.394 27.4779L211.377 27.4832C211.329 27.4975 211.321 27.5005 211.325 27.4988C211.172 27.5539 211.014 27.6129 210.851 27.6737C210.15 27.935 209.365 28.2281 208.555 28.3677C208.139 28.4395 207.739 28.1598 207.662 27.743C207.585 27.3262 207.86 26.9301 208.276 26.8583C208.932 26.7452 209.55 26.5154 210.239 26.2593C210.418 26.1931 210.601 26.1251 210.79 26.057C210.829 26.043 210.878 26.0281 210.911 26.0183L210.935 26.0109C210.971 26.0001 211.009 25.9886 211.051 25.9754C211.096 25.9614 211.143 25.9463 211.189 25.9305C211.191 25.9299 211.192 25.9279 211.191 25.9263C211.121 25.8222 211.043 25.7162 210.963 25.6081C210.951 25.5925 210.939 25.5764 210.927 25.5601C210.861 25.472 210.789 25.3757 210.733 25.2933C210.528 24.9941 210.258 24.7067 209.955 24.4241C209.644 24.1337 209.624 23.649 209.911 23.3415Z" fill="#2C2C2C"/>
<path fill-rule="evenodd" clip-rule="evenodd" d="M137.489 6.82359C137.681 6.77783 137.779 7.00354 137.618 7.1178C137.497 7.20378 137.39 7.27617 137.305 7.33093C137.262 7.35828 137.227 7.3794 137.2 7.39476C137.179 7.4068 137.168 7.41254 137.165 7.41405C137.165 7.41406 137.165 7.41406 137.165 7.41405C136.782 7.58692 136.611 8.04227 136.784 8.43109C136.957 8.81991 137.408 8.99497 137.792 8.8221C137.98 8.73738 138.252 8.55508 138.498 8.38075C138.766 8.19021 139.075 7.95635 139.363 7.72431C139.646 7.49566 139.927 7.25394 140.129 7.04963C140.223 6.95453 140.337 6.83167 140.419 6.70145C140.455 6.64593 140.533 6.51485 140.562 6.33846C140.578 6.24142 140.585 6.09263 140.526 5.9267C140.462 5.74734 140.342 5.60658 140.199 5.51514C139.505 5.07225 138.705 5.06624 138.058 5.14799C137.587 5.20742 137.088 5.33233 136.691 5.43192C136.552 5.46669 136.425 5.49839 136.316 5.52313C135.906 5.61639 135.65 6.02856 135.745 6.44374C135.839 6.85891 136.248 7.11987 136.658 7.02661C136.829 6.98784 136.994 6.94655 137.156 6.90594C137.268 6.8778 137.379 6.85 137.489 6.82359ZM138.238 18.0759C138.315 18.1802 138.235 18.3258 138.106 18.3314C137.76 18.3463 137.38 18.3741 137.016 18.4007C136.757 18.4196 136.506 18.438 136.28 18.4508C135.86 18.4745 135.541 18.8382 135.566 19.263C135.592 19.6879 135.953 20.0131 136.373 19.9893C136.665 19.9728 136.929 19.9531 137.187 19.934C137.515 19.9095 137.831 19.8859 138.179 19.8709C138.178 19.871 138.182 19.8712 138.19 19.8718C138.215 19.8736 138.285 19.8786 138.428 19.8914L138.453 19.8936C138.606 19.9074 138.801 19.9249 138.996 19.9355C139.196 19.9463 139.429 19.9521 139.637 19.9321C139.74 19.9222 139.868 19.9034 139.995 19.8612C140.103 19.8255 140.33 19.7354 140.491 19.5041C140.688 19.2205 140.648 18.9236 140.618 18.7957C140.586 18.6542 140.526 18.536 140.484 18.4595C140.395 18.3006 140.274 18.1446 140.175 18.0248C140.071 17.8982 139.962 17.778 139.88 17.6885C139.772 17.5708 139.754 17.5517 139.762 17.5611C139.376 17.0611 139.015 16.5564 138.642 16.0368C138.547 15.9036 138.451 15.7695 138.353 15.6342C138.105 15.2893 137.628 15.2118 137.289 15.4611C136.949 15.7104 136.875 16.192 137.123 16.5369C137.216 16.6658 137.309 16.7957 137.403 16.9262C137.675 17.3063 137.952 17.6921 138.238 18.0759ZM133.942 8.0402C134.036 8.45538 133.78 8.86755 133.37 8.96081C131.449 9.39772 129.434 9.56233 127.501 9.72024C126.864 9.77233 126.235 9.82369 125.621 9.88385C124.952 9.94947 124.261 9.88201 123.657 9.82317C123.606 9.81822 123.556 9.81333 123.507 9.80858C123.124 9.77185 123.032 10.1961 123.384 10.3556C123.978 10.6252 124.575 10.8944 125.173 11.164C126.952 11.9656 128.741 12.7717 130.482 13.6085C131.894 14.2873 133.326 14.909 134.773 15.4704C135.167 15.6231 135.365 16.0689 135.216 16.4661C135.067 16.8632 134.628 17.0614 134.234 16.9087C132.75 16.3328 131.281 15.6953 129.834 14.9996C128.083 14.1582 126.347 13.3761 124.6 12.5895C124.011 12.3241 123.42 12.0581 122.828 11.7893C122.683 11.7237 122.55 11.8951 122.647 12.0218L122.663 12.0423C123.032 12.5231 123.418 13.026 123.776 13.5565C124.154 14.1192 124.485 14.7211 124.797 15.2874C124.86 15.4027 124.923 15.5167 124.985 15.6285C125.361 16.3061 125.727 16.9268 126.17 17.4729C126.617 18.0226 127.149 18.7518 127.612 19.5216C128.068 20.2796 128.49 21.1309 128.668 21.9143C128.762 22.3295 128.507 22.7416 128.097 22.8349C127.687 22.9282 127.278 22.6672 127.183 22.252C127.06 21.7096 126.738 21.026 126.312 20.3171C125.892 19.6201 125.404 18.9507 124.995 18.4474C124.459 17.7877 124.038 17.0637 123.657 16.3774C123.589 16.2539 123.522 16.1321 123.456 16.012C123.145 15.4473 122.854 14.9184 122.517 14.4189C122.188 13.929 121.826 13.4587 121.448 12.9655L121.446 12.9632C121.071 12.4756 120.679 11.9653 120.318 11.4258C120.188 11.2317 119.882 10.7743 119.623 10.3582C119.623 10.3575 119.622 10.3569 119.622 10.3562C119.56 10.2567 119.476 10.1735 119.375 10.1145C119.302 10.0715 119.229 10.0286 119.157 9.98585C118.886 9.82606 118.619 9.66896 118.348 9.52063C117.641 9.13448 117.044 8.89306 116.559 8.88127C116.138 8.87106 115.804 8.51792 115.812 8.09252C115.819 7.66712 116.167 7.33055 116.587 7.34077C117.466 7.3621 118.342 7.77027 119.066 8.16569C119.214 8.24649 119.362 8.33031 119.506 8.41407C119.554 8.44187 119.612 8.44452 119.665 8.4291C120.07 8.3113 120.448 8.30341 120.746 8.30255C120.787 8.30243 120.826 8.30241 120.864 8.3024C121.121 8.30231 121.308 8.30225 121.506 8.26889C122.234 8.14572 122.989 8.2118 123.642 8.27452C123.682 8.27832 123.721 8.28211 123.76 8.28586C124.4 8.34761 124.95 8.4007 125.466 8.35008C126.134 8.28455 126.798 8.23027 127.456 8.17641C129.361 8.02056 131.221 7.86831 133.028 7.45733C133.438 7.36406 133.847 7.62503 133.942 8.0402ZM130.429 22.7499C130.839 22.6567 131.248 22.9176 131.342 23.3328C131.446 23.791 131.534 24.3047 131.536 24.8282C131.536 24.8938 131.54 24.9754 131.545 25.0862C131.546 25.1086 131.547 25.1322 131.548 25.1571C131.554 25.2949 131.56 25.4599 131.559 25.6275C131.558 25.7932 131.549 25.9811 131.52 26.1644C131.492 26.3379 131.437 26.5677 131.307 26.7777C131.171 26.9972 130.975 27.1063 130.828 27.1587C130.685 27.2096 130.548 27.2221 130.449 27.2243C130.25 27.2287 130.049 27.1937 129.896 27.1605C129.735 27.1254 129.58 27.081 129.463 27.0457C129.413 27.0306 129.368 27.0164 129.332 27.0052L129.314 26.9997C129.267 26.985 129.259 26.9826 129.263 26.9838C129.106 26.9434 128.942 26.9033 128.773 26.862C128.046 26.6845 127.231 26.4854 126.484 26.1462C126.099 25.9717 125.925 25.5156 126.096 25.1275C126.266 24.7394 126.716 24.5663 127.101 24.7408C127.707 25.0156 128.348 25.173 129.061 25.3484C129.246 25.3938 129.436 25.4403 129.631 25.4904C129.671 25.5007 129.72 25.5161 129.752 25.5261L129.776 25.5337C129.812 25.5449 129.85 25.5568 129.892 25.5696C129.937 25.5832 129.984 25.5969 130.032 25.61C130.034 25.6105 130.035 25.6091 130.035 25.6073C130.036 25.4821 130.032 25.3508 130.026 25.216C130.025 25.1966 130.024 25.1766 130.023 25.1563C130.018 25.0465 130.013 24.9264 130.012 24.8265C130.011 24.4638 129.949 24.0745 129.857 23.6705C129.763 23.2554 130.019 22.8432 130.429 22.7499Z" fill="#2C2C2C"/>
<path fill-rule="evenodd" clip-rule="evenodd" d="M158.432 3.41694C158.443 3.22023 158.688 3.19172 158.75 3.37888C158.798 3.51972 158.836 3.64277 158.864 3.74066C158.877 3.78956 158.888 3.82892 158.895 3.85892C158.9 3.88243 158.902 3.89471 158.903 3.89801C158.957 4.31514 159.344 4.61022 159.766 4.55708C160.188 4.50394 160.487 4.12271 160.432 3.70558C160.405 3.50115 160.31 3.18768 160.214 2.90212C160.109 2.59 159.975 2.22646 159.836 1.88407C159.699 1.54668 159.549 1.20783 159.412 0.955331C159.348 0.837797 159.263 0.693804 159.162 0.57702C159.119 0.527229 159.017 0.41373 158.856 0.335233C158.768 0.292043 158.627 0.242465 158.451 0.250879C158.261 0.259976 158.092 0.334176 157.963 0.444885C157.338 0.981109 157.101 1.74468 156.992 2.38793C156.913 2.85563 156.888 3.36939 156.868 3.77904C156.861 3.92209 156.855 4.05245 156.847 4.16372C156.818 4.58317 157.138 4.94728 157.563 4.97698C157.988 5.00668 158.356 4.69073 158.385 4.27127C158.398 4.09691 158.406 3.92722 158.414 3.76034C158.419 3.64472 158.425 3.53046 158.432 3.41694ZM169.419 5.95591C169.541 5.91166 169.658 6.03065 169.626 6.15547C169.54 6.49092 169.457 6.86256 169.377 7.21898C169.32 7.47258 169.265 7.71847 169.212 7.93815C169.113 8.34701 169.369 8.75811 169.783 8.85636C170.197 8.95462 170.613 8.70282 170.711 8.29396C170.78 8.00973 170.838 7.75111 170.894 7.49949C170.965 7.18154 171.033 6.87476 171.118 6.54156C171.12 6.53447 171.122 6.52749 171.125 6.52066C171.134 6.49736 171.158 6.43222 171.212 6.29911L171.221 6.27581C171.279 6.13302 171.352 5.95121 171.419 5.76779C171.487 5.57942 171.56 5.35803 171.601 5.15293C171.621 5.0517 171.64 4.92373 171.637 4.78961C171.634 4.67595 171.613 4.43301 171.438 4.21195C171.224 3.94096 170.928 3.8941 170.797 3.88529C170.652 3.87554 170.522 3.89799 170.436 3.91685C170.258 3.95602 170.074 4.02629 169.931 4.08617C169.779 4.14945 169.633 4.21863 169.524 4.27131C169.38 4.3406 169.356 4.35217 169.367 4.34797C168.777 4.5722 168.189 4.77246 167.584 4.97859C167.429 5.03142 167.273 5.08464 167.115 5.13875C166.713 5.27668 166.501 5.71052 166.642 6.10776C166.782 6.505 167.222 6.71521 167.624 6.57727C167.774 6.52572 167.925 6.4742 168.077 6.42242C168.52 6.27165 168.969 6.11862 169.419 5.95591ZM158.57 7.16504C158.995 7.19474 159.315 7.55885 159.286 7.97831C159.148 9.9433 158.723 11.9199 158.315 13.816C158.18 14.4415 158.048 15.0582 157.928 15.6628C157.797 16.3223 157.532 16.9649 157.301 17.5254C157.282 17.5726 157.263 17.6193 157.244 17.6653C157.098 18.0211 157.478 18.2315 157.732 17.9413C158.162 17.4508 158.592 16.9569 159.024 16.4621C160.305 14.9913 161.595 13.512 162.899 12.0876C163.957 10.9321 164.967 9.74104 165.923 8.51845C166.183 8.18591 166.667 8.125 167.004 8.38238C167.341 8.63976 167.404 9.11798 167.144 9.45051C166.163 10.7048 165.128 11.926 164.043 13.1102C162.732 14.5425 161.48 15.9787 160.222 17.4232C159.798 17.9105 159.372 18.3988 158.943 18.8882C158.839 19.0077 158.964 19.1851 159.114 19.1286L159.138 19.1195C159.705 18.9049 160.298 18.6805 160.909 18.4922C161.558 18.2924 162.23 18.1497 162.862 18.0154C162.99 17.988 163.118 17.961 163.243 17.9339C164 17.7698 164.7 17.5995 165.351 17.3328C166.007 17.0642 166.858 16.7656 167.729 16.5451C168.587 16.3281 169.524 16.1707 170.325 16.2267C170.75 16.2564 171.07 16.6205 171.041 17.04C171.012 17.4594 170.644 17.7754 170.219 17.7457C169.664 17.7069 168.916 17.8173 168.115 18.0203C167.326 18.2199 166.544 18.4936 165.944 18.7395C165.157 19.0617 164.343 19.2551 163.575 19.4214C163.437 19.4513 163.301 19.4802 163.167 19.5088C162.537 19.6429 161.946 19.7686 161.371 19.9459C160.807 20.1198 160.252 20.3297 159.67 20.5497L159.667 20.5508C159.092 20.7683 158.49 20.9959 157.869 21.1859C157.646 21.2542 157.12 21.4147 156.647 21.5417L156.644 21.5423C156.531 21.5727 156.427 21.6295 156.342 21.7086C156.279 21.7664 156.217 21.8236 156.155 21.8806C155.924 22.0938 155.696 22.3034 155.476 22.5205C154.902 23.0854 154.498 23.5865 154.346 24.0477C154.215 24.4474 153.78 24.6656 153.375 24.5351C152.97 24.4045 152.749 23.9746 152.88 23.5749C153.155 22.7402 153.799 22.0193 154.387 21.4408C154.507 21.3226 154.63 21.2055 154.752 21.0912C154.792 21.0533 154.812 20.9989 154.812 20.9437C154.816 20.5221 154.918 20.1576 155.004 19.8724C155.015 19.8332 155.027 19.7956 155.038 19.7595C155.112 19.5132 155.166 19.3338 155.191 19.1353C155.284 18.4022 155.566 17.6992 155.815 17.0916C155.83 17.0548 155.845 17.0183 155.86 16.9822C156.104 16.3875 156.314 15.8763 156.415 15.3677C156.545 14.709 156.685 14.0583 156.824 13.4127C157.226 11.5443 157.618 9.71915 157.748 7.87075C157.777 7.4513 158.145 7.13534 158.57 7.16504ZM171.634 14.7829C171.664 14.3634 172.032 14.0475 172.457 14.0772C172.925 14.1099 173.442 14.1749 173.944 14.3242C174.007 14.3429 174.086 14.363 174.194 14.3904C174.215 14.396 174.238 14.4018 174.262 14.408C174.396 14.4421 174.556 14.4838 174.716 14.5335C174.874 14.5827 175.051 14.6453 175.218 14.7263C175.377 14.8029 175.581 14.9219 175.744 15.1075C175.915 15.3014 175.962 15.5204 175.97 15.6762C175.977 15.8279 175.95 15.962 175.923 16.058C175.87 16.2493 175.778 16.4324 175.702 16.5686C175.622 16.713 175.535 16.8483 175.467 16.9498C175.438 16.9933 175.411 17.0329 175.39 17.0638L175.38 17.079C175.352 17.1199 175.348 17.1276 175.35 17.1234C175.266 17.2624 175.18 17.4079 175.092 17.5577C174.712 18.2018 174.285 18.9241 173.744 19.5419C173.466 19.8596 172.979 19.8939 172.657 19.6185C172.335 19.3431 172.299 18.8622 172.577 18.5444C173.016 18.044 173.352 17.4761 173.726 16.8435C173.823 16.6798 173.922 16.5119 174.027 16.3396C174.048 16.3044 174.077 16.2616 174.096 16.2338L174.11 16.2127C174.131 16.1818 174.154 16.1488 174.178 16.1119C174.204 16.0734 174.23 16.0331 174.256 15.9921C174.257 15.9909 174.257 15.9895 174.257 15.9882C174.256 15.9869 174.255 15.9859 174.254 15.9855C174.135 15.9486 174.008 15.9153 173.878 15.8821C173.86 15.8773 173.84 15.8724 173.821 15.8674C173.714 15.8403 173.597 15.8107 173.502 15.7821C173.154 15.6787 172.764 15.625 172.35 15.5961C171.926 15.5664 171.605 15.2023 171.634 14.7829Z" fill="#2C2C2C"/>
<path fill-rule="evenodd" clip-rule="evenodd" d="M276.045 7.79159C276.004 7.59893 276.231 7.50614 276.342 7.6697C276.425 7.7928 276.495 7.9011 276.548 7.98805C276.574 8.03149 276.595 8.06669 276.609 8.09374C276.621 8.11493 276.626 8.12615 276.628 8.12917C276.628 8.1292 276.628 8.1292 276.628 8.12917C276.792 8.51656 277.243 8.69762 277.636 8.53357C278.028 8.36952 278.214 7.9225 278.05 7.53511C277.969 7.34526 277.793 7.06877 277.625 6.8192C277.44 6.54642 277.214 6.23203 276.988 5.93922C276.766 5.65069 276.531 5.36428 276.331 5.15761C276.239 5.0614 276.118 4.94532 275.99 4.85971C275.935 4.8232 275.806 4.74126 275.63 4.70852C275.534 4.69051 275.385 4.68027 275.218 4.73538C275.037 4.79495 274.894 4.91174 274.799 5.05289C274.34 5.73656 274.316 6.53571 274.383 7.18469C274.431 7.65656 274.545 8.15825 274.635 8.55829C274.667 8.69798 274.696 8.82528 274.718 8.93458C274.802 9.34661 275.208 9.61182 275.625 9.52693C276.042 9.44205 276.313 9.03921 276.229 8.62717C276.194 8.4559 276.156 8.29019 276.12 8.12725C276.094 8.01435 276.069 7.90278 276.045 7.79159ZM287.311 7.30191C287.418 7.22657 287.561 7.3102 287.564 7.43901C287.571 7.78519 287.59 8.16556 287.608 8.53037C287.621 8.78993 287.634 9.04161 287.641 9.26748C287.655 9.68786 288.012 10.0157 288.437 9.99969C288.862 9.9837 289.196 9.62994 289.182 9.20956C289.172 8.91732 289.158 8.65273 289.145 8.39528C289.128 8.06651 289.112 7.7494 289.105 7.40128C289.105 7.40218 289.105 7.39893 289.106 7.39035C289.108 7.36552 289.115 7.29609 289.131 7.15351L289.134 7.12855C289.151 6.97559 289.173 6.78082 289.188 6.58629C289.203 6.38653 289.215 6.15369 289.199 5.94508C289.192 5.84212 289.176 5.71373 289.137 5.58543C289.103 5.47669 289.019 5.24811 288.791 5.08182C288.512 4.87798 288.214 4.91191 288.086 4.93841C287.943 4.96774 287.824 5.02419 287.746 5.06525C287.586 5.1505 287.427 5.26744 287.305 5.36343C287.176 5.46488 287.053 5.57066 286.962 5.65068C286.842 5.75591 286.822 5.77333 286.832 5.76633C286.323 6.14007 285.81 6.49014 285.282 6.85048C285.147 6.94283 285.01 7.03586 284.873 7.13014C284.523 7.37047 284.434 7.8452 284.676 8.19049C284.917 8.53577 285.397 8.62085 285.747 8.38051C285.878 8.29068 286.01 8.20062 286.143 8.11009C286.529 7.84651 286.921 7.57899 287.311 7.30191ZM277.18 11.3664C277.597 11.2815 278.003 11.5467 278.087 11.9588C278.48 13.889 278.598 15.9074 278.712 17.8436C278.749 18.4823 278.786 19.112 278.832 19.7267C278.882 20.3972 278.799 21.0871 278.726 21.689C278.72 21.7396 278.714 21.7897 278.708 21.8391C278.663 22.221 279.085 22.3223 279.252 21.9746C279.535 21.3871 279.818 20.7962 280.102 20.2041C280.944 18.4442 281.791 16.6742 282.667 14.953C283.378 13.5567 284.033 12.1392 284.627 10.7056C284.789 10.3157 285.239 10.1276 285.633 10.2855C286.026 10.4434 286.214 10.8876 286.053 11.2775C285.443 12.7482 284.772 14.2016 284.043 15.6326C283.162 17.3634 282.34 19.0817 281.513 20.8099C281.235 21.393 280.955 21.9772 280.673 22.5634C280.604 22.7064 280.772 22.8439 280.901 22.7495L280.922 22.7343C281.411 22.376 281.923 22.0012 282.461 21.6564C283.033 21.2907 283.642 20.9735 284.215 20.6752C284.332 20.6144 284.447 20.5544 284.56 20.4949C285.247 20.1343 285.875 19.7832 286.432 19.3521C286.991 18.9182 287.733 18.4028 288.513 17.9576C289.281 17.5193 290.142 17.1172 290.929 16.9571C291.346 16.8722 291.753 17.1374 291.836 17.5494C291.92 17.9615 291.65 18.3643 291.233 18.4492C290.688 18.5601 289.997 18.8662 289.278 19.2761C288.572 19.6792 287.891 20.152 287.379 20.5492C286.707 21.07 285.974 21.4741 285.279 21.8393C285.154 21.905 285.03 21.9692 284.909 22.0326C284.337 22.3303 283.802 22.6092 283.295 22.9339C282.797 23.2523 282.319 23.6027 281.817 23.9702L281.815 23.972C281.319 24.3353 280.799 24.7155 280.252 25.0645C280.055 25.1901 279.59 25.4854 279.169 25.7342C279.168 25.7346 279.167 25.7349 279.167 25.7353C279.066 25.7948 278.98 25.8774 278.919 25.9765C278.875 26.0488 278.83 26.1206 278.786 26.1921C278.62 26.4593 278.456 26.7221 278.302 26.9902C277.9 27.688 277.645 28.2788 277.622 28.7637C277.602 29.184 277.241 29.5105 276.816 29.4929C276.391 29.4753 276.062 29.1203 276.082 28.7C276.124 27.8223 276.552 26.9555 276.964 26.2409C277.048 26.0948 277.135 25.9492 277.222 25.8064C277.251 25.759 277.255 25.7015 277.241 25.6482C277.132 25.2407 277.133 24.8622 277.139 24.5647C277.14 24.5237 277.141 24.4845 277.142 24.4468C277.148 24.1895 277.152 24.0022 277.123 23.8042C277.017 23.0729 277.1 22.3203 277.178 21.6682C277.182 21.6287 277.187 21.5896 277.192 21.5507C277.268 20.9125 277.334 20.3638 277.295 19.8467C277.245 19.1771 277.206 18.5126 277.167 17.8534C277.055 15.9456 276.946 14.0819 276.576 12.2662C276.492 11.8542 276.763 11.4513 277.18 11.3664ZM291.805 15.2158C291.721 14.8038 291.991 14.401 292.409 14.3161C292.869 14.2224 293.385 14.1468 293.908 14.1566C293.974 14.1578 294.055 14.1561 294.166 14.1537C294.189 14.1533 294.212 14.1528 294.237 14.1523C294.375 14.1495 294.54 14.147 294.708 14.1521C294.873 14.1571 295.061 14.1701 295.244 14.2035C295.416 14.2351 295.645 14.2953 295.852 14.4304C296.068 14.5716 296.173 14.7699 296.222 14.918C296.269 15.0622 296.279 15.1988 296.279 15.2985C296.279 15.4971 296.239 15.698 296.202 15.8495C296.163 16.0102 296.116 16.1639 296.078 16.2797C296.061 16.3293 296.046 16.3746 296.034 16.41L296.028 16.4275C296.012 16.4743 296.01 16.483 296.011 16.4783C295.967 16.6347 295.923 16.7979 295.878 16.9658C295.684 17.6881 295.466 18.4981 295.11 19.2379C294.927 19.6185 294.467 19.7816 294.083 19.6023C293.698 19.423 293.536 18.9692 293.719 18.5886C294.008 17.9892 294.18 17.3521 294.371 16.6425C294.421 16.4589 294.472 16.2705 294.526 16.0766C294.538 16.037 294.554 15.988 294.565 15.9561L294.573 15.932C294.585 15.8966 294.598 15.8588 294.612 15.8167C294.626 15.7721 294.641 15.7255 294.655 15.6783C294.656 15.6766 294.654 15.6749 294.653 15.6748C294.527 15.671 294.396 15.6727 294.261 15.6754C294.242 15.6758 294.222 15.6762 294.201 15.6767C294.092 15.679 293.971 15.6816 293.871 15.6798C293.509 15.673 293.118 15.7256 292.712 15.8082C292.295 15.8931 291.889 15.6279 291.805 15.2158Z" fill="#2C2C2C"/>
</svg>
