<svg width="19" height="20" viewBox="0 0 19 20" fill="none" xmlns="http://www.w3.org/2000/svg">
<path fill-rule="evenodd" clip-rule="evenodd" d="M9.31158 2.00994C8.72365 1.99505 8.23353 1.98263 7.73447 2.07337C7.73279 2.07367 7.73131 2.07397 7.73002 2.07425C7.71583 2.09117 7.68019 2.14287 7.64069 2.25981C7.5557 2.51144 7.52623 2.81354 7.49009 3.18406C7.48555 3.23062 7.4809 3.27827 7.47603 3.32703C7.41845 3.90276 7.36174 4.47329 7.30992 5.04062C7.48348 5.03457 7.66782 5.01246 7.90282 4.98308L7.92514 4.98029C8.17933 4.94847 8.49925 4.90843 8.83462 4.90843C9.74204 4.90843 10.656 4.8143 11.6318 4.71299L11.6522 4.71087C11.7257 4.70323 11.7996 4.69556 11.8739 4.6879C11.8621 4.61996 11.85 4.55206 11.8374 4.48421C11.8065 4.31707 11.7636 4.15138 11.7101 3.94468C11.705 3.92493 11.6998 3.9048 11.6944 3.88426C11.6373 3.66312 11.5698 3.39645 11.527 3.11278C11.4665 2.71211 11.4026 2.51738 11.2351 2.28109C11.2269 2.27493 11.2094 2.26276 11.1789 2.24632C11.1077 2.20798 11.0024 2.16636 10.865 2.12898C10.5857 2.05294 10.2792 2.02257 10.0915 2.02257C9.81015 2.02257 9.55264 2.01605 9.31158 2.00994ZM13.8744 4.52492C13.8524 4.38962 13.8289 4.25465 13.804 4.12003C13.7594 3.87933 13.6985 3.64446 13.6477 3.44878C13.6419 3.42668 13.6363 3.40508 13.6309 3.38402C13.5736 3.16225 13.5304 2.98513 13.5046 2.81427C13.4163 2.22926 13.2757 1.68884 12.8424 1.09048C12.4518 0.551079 11.8093 0.313218 11.3902 0.19917C10.9222 0.0717983 10.4375 0.022571 10.0915 0.022571C9.9268 0.022571 9.74179 0.0177425 9.54291 0.012552C8.89352 -0.00439619 8.09628 -0.0252032 7.3767 0.105631C6.39702 0.283753 5.94462 1.03133 5.74586 1.61981C5.58048 2.10942 5.52927 2.66291 5.49767 3.00441C5.49349 3.04953 5.48966 3.09094 5.48595 3.12802C5.42295 3.75803 5.35982 4.3921 5.30261 5.03024C4.98091 5.01358 4.65032 4.9816 4.29361 4.94665L4.27131 4.94447C3.77277 4.89562 3.22037 4.8415 2.65479 4.8415C2.65614 4.8415 2.64963 4.84102 2.61651 4.8386C2.59547 4.83707 2.56368 4.83475 2.51633 4.83127C2.42407 4.82449 2.29397 4.81551 2.15906 4.81393C2.0328 4.81244 1.85207 4.81624 1.66915 4.85251C1.54792 4.87655 1.11826 4.96739 0.851063 5.37605C0.702801 5.6028 0.662359 5.83416 0.647227 5.95702C0.630113 6.09598 0.631446 6.22649 0.635119 6.32033C0.638631 6.41007 0.645886 6.49763 0.650783 6.55674C0.651124 6.56085 0.651453 6.56482 0.651768 6.56864C0.655772 6.61718 0.657317 6.64004 0.657913 6.64886C0.658269 6.65412 0.658286 6.65437 0.658286 6.65209V14.1036C0.658286 14.2204 0.657408 14.3436 0.656493 14.4721C0.649195 15.4961 0.63951 16.8551 1.05314 17.9926C1.26833 18.5844 1.79384 18.966 2.13676 19.1714C2.52189 19.402 2.96235 19.577 3.32098 19.6545C3.72693 19.7423 4.14029 19.7411 4.46989 19.7291C4.63164 19.7232 4.76335 19.7158 4.88147 19.7091C5.04694 19.6998 5.18575 19.692 5.34313 19.692H7.68938C8.67861 19.692 9.6222 19.5252 10.4765 19.3676C10.5263 19.3584 10.5758 19.3493 10.6249 19.3402C11.4452 19.1885 12.1812 19.0523 12.9284 19.0218C13.2086 19.0104 13.4532 18.9618 13.6479 18.9174C13.7298 18.8987 13.7955 18.8828 13.8532 18.8689C13.9524 18.8449 14.028 18.8266 14.1225 18.8095C14.2479 18.7867 14.3793 18.7802 14.6012 18.7692L14.607 18.769C14.8096 18.759 15.0915 18.7447 15.3894 18.6803C15.4709 18.6627 15.5838 18.6537 15.7999 18.641C15.8083 18.6405 15.8168 18.64 15.8256 18.6395C16.0065 18.6289 16.2679 18.6137 16.5213 18.5621C16.792 18.5071 17.1505 18.3936 17.463 18.1163C17.797 17.8201 17.9821 17.4237 18.0427 16.9843C18.0736 16.7606 18.1088 16.5272 18.1449 16.2874C18.2277 15.7385 18.3154 15.1562 18.3677 14.5808C18.4525 13.6483 18.4003 12.6588 18.3535 11.773C18.3388 11.4946 18.3246 11.2265 18.3154 10.9736C18.3092 10.8015 18.3032 10.6279 18.2972 10.4528C18.2488 9.04775 18.1974 7.55368 17.9735 6.09845C17.9252 5.78424 17.7959 5.4804 17.5561 5.23362C17.3271 4.9979 17.0632 4.88281 16.8637 4.82073C16.6743 4.76177 16.4835 4.73375 16.367 4.71662L16.3406 4.71275C16.2139 4.69415 16.1461 4.6842 16.0833 4.66895C15.593 4.54988 15.1115 4.50685 14.6426 4.50685C14.3855 4.50685 14.1292 4.51346 13.8744 4.52492ZM12.0911 6.67613C12.0073 6.68476 11.923 6.6935 11.8384 6.70229L11.8112 6.70511C10.8612 6.80376 9.85333 6.90843 8.83462 6.90843C8.6344 6.90843 8.42861 6.93291 8.15093 6.96763L8.13026 6.97022C7.87536 7.00212 7.55439 7.04229 7.21716 7.04229C7.19578 7.04229 7.1745 7.04247 7.15329 7.04283C7.10517 7.82469 7.07569 8.60489 7.07569 9.38876C7.07569 9.94105 6.62798 10.3888 6.07569 10.3888C5.52341 10.3888 5.07569 9.94105 5.07569 9.38876C5.07569 8.6899 5.09786 7.99562 5.13487 7.30594C4.28852 7.39465 3.44025 7.38855 2.65829 7.38127V14.1036C2.65829 14.2288 2.65788 14.3528 2.65749 14.4752C2.65401 15.5438 2.6509 16.5013 2.91884 17.2701C2.92363 17.2754 2.93011 17.2822 2.93861 17.2904C2.98433 17.3347 3.05942 17.3927 3.16424 17.4555C3.38264 17.5863 3.62046 17.673 3.74365 17.6997C3.89551 17.7325 4.10301 17.7411 4.39709 17.7304C4.47542 17.7276 4.57324 17.7224 4.67994 17.7167C4.89383 17.7053 5.1434 17.692 5.34313 17.692H7.68938C8.47336 17.692 9.251 17.5599 10.1136 17.4008C10.1728 17.3899 10.2324 17.3788 10.2925 17.3677C11.0821 17.2212 11.9512 17.0601 12.8468 17.0235C12.9466 17.0194 13.0532 17.0017 13.2032 16.9675C13.235 16.9602 13.2746 16.9507 13.3194 16.9399C13.446 16.9095 13.6139 16.8692 13.7647 16.8417C14.0241 16.7946 14.2788 16.7824 14.4624 16.7736C14.4783 16.7729 14.4937 16.7721 14.5085 16.7714C14.717 16.7611 14.8481 16.7511 14.9667 16.7255C15.2159 16.6716 15.4785 16.6563 15.6573 16.6459C15.6659 16.6454 15.6743 16.6449 15.6825 16.6444C15.8639 16.6337 15.9823 16.6255 16.0754 16.6108C16.1094 16.3696 16.1441 16.1401 16.1778 15.917C16.256 15.3993 16.329 14.9158 16.376 14.3997C16.4465 13.6233 16.4056 12.8422 16.3612 11.9942C16.3451 11.6879 16.3286 11.3729 16.3167 11.0463C16.3104 10.8712 16.3043 10.6969 16.2983 10.5234C16.2525 9.20511 16.2083 7.92995 16.0385 6.68988C15.9323 6.67452 15.7705 6.65111 15.6114 6.61246C15.3072 6.5386 14.9887 6.50685 14.6426 6.50685C14.4574 6.50685 14.272 6.51073 14.0859 6.51777C14.103 6.87164 14.109 7.22692 14.1032 7.58318C14.1 7.77888 14.0805 7.96851 14.0658 8.11202C14.0648 8.12236 14.0637 8.13247 14.0627 8.14232C14.0463 8.30406 14.0364 8.41518 14.0364 8.51868C14.0364 8.69053 14.0271 9.00808 13.8309 9.32167C13.6839 9.55675 13.4647 9.71691 13.3861 9.77436C13.3791 9.77945 13.3733 9.78373 13.3686 9.78719C12.9268 10.1186 12.3 10.029 11.9686 9.58719C11.6716 9.19113 11.7128 8.64646 12.0427 8.29916C12.0502 8.16451 12.0627 8.04104 12.073 7.93982C12.0903 7.77028 12.1017 7.65819 12.1034 7.5504C12.1082 7.25897 12.104 6.96746 12.0911 6.67613ZM2.90748 17.2565C2.90749 17.2565 2.90775 17.2569 2.90821 17.2575L2.90748 17.2565Z" fill="#2C2C2C"/>
</svg>
