<svg width="47" height="48" viewBox="0 0 47 48" fill="none" xmlns="http://www.w3.org/2000/svg">
<path d="M42.8246 28.4114C42.1465 27.6969 41.0092 26.9277 39.4132 26.1043C38.899 25.7286 36.1306 24.711 31.1069 23.0519C30.3524 22.7462 29.8907 22.4569 29.7222 22.183C29.4951 21.9724 29.5842 21.6468 29.9894 21.2068L33.2359 19.1076C33.887 18.5817 34.2948 18.1662 34.4582 17.8615C35.1643 16.6108 35.3853 15.2579 35.1206 13.8028C34.7576 11.5942 33.3484 9.65866 30.8926 7.99703C30.0505 7.50176 29.3103 7.23649 28.6714 7.20072C28.2595 7.09901 27.0963 7.23241 25.1811 7.60143C24.7045 7.62443 24.3792 7.49972 24.2051 7.22627C23.9541 6.82863 23.9679 6.23829 24.2453 5.45475C24.6297 4.4545 25.3195 3.32443 26.3138 2.06454C26.4182 1.83198 26.4222 1.68273 26.326 1.61578C26.1911 1.33824 25.0701 1.16038 22.9624 1.08218C21.4214 0.997842 17.3482 0.97842 10.7422 1.02391L11.5298 2.02518L11.7925 2.2608C14.1511 4.16879 14.9758 6.39418 14.2667 8.93799C14.0763 9.26102 13.7891 9.43939 13.4053 9.47313L10.3675 9.34791C9.77138 9.39595 9.17677 9.59733 8.58266 9.95102C6.92862 11.1511 6.12069 12.389 6.15836 13.6643C6.05553 14.16 6.39407 14.9374 7.174 15.996C7.52578 16.4846 8.88862 17.7511 11.262 19.7956C11.8032 20.3292 12.2445 20.8469 12.5867 21.3494C13.2867 22.3593 13.4883 23.2747 13.192 24.0951C12.8315 24.9123 12.102 25.6029 11.0034 26.1666C10.9891 26.2923 9.32084 26.9251 5.99851 28.0654C5.36215 28.345 4.74309 28.7191 4.14033 29.1888C2.49138 30.4937 1.45844 32.231 1.042 34.4012C0.698363 37.0395 2.46338 40.141 6.33807 43.7055C7.96767 45.339 11.0869 46.3423 15.6941 46.7154C23.6349 47.2015 30.0938 47.065 35.0717 46.305C38.7219 45.7065 41.163 44.8044 42.396 43.5992C44.3127 41.7653 45.4923 39.543 45.9342 36.9312C46.2829 33.5456 45.2464 30.7053 42.8246 28.4114ZM27.08 10.2613C26.8723 10.205 26.4976 10.1519 25.9559 10.1018C26.1723 9.97351 26.5245 9.91626 27.0123 9.93006L27.0342 9.93109C27.3401 9.94591 27.639 9.99651 27.9322 10.0834C28.479 10.2516 28.9432 10.4243 29.3246 10.6012C29.7985 10.7831 30.2562 11.123 30.6971 11.6224C30.9995 11.9725 31.1995 12.4652 31.2983 13.099C31.3268 13.3371 31.3309 13.5799 31.3095 13.8273C31.309 13.928 31.2555 14.2986 31.1476 14.94C31.1379 14.3323 31.0758 13.766 30.9613 13.2421C30.834 12.7759 30.6563 12.4033 30.4272 12.1238C30.0943 11.7092 29.2955 11.2022 28.032 10.6027C27.6573 10.431 27.3401 10.317 27.08 10.2613ZM40.5016 38.3868C40.3988 38.9521 40.2064 39.5057 39.9238 40.0469C40.1723 39.3084 40.2323 37.936 40.104 35.9304C40.048 34.9941 39.7869 34.1052 39.3216 33.2634C38.6328 32.2402 37.6823 31.2164 36.4702 30.1916C35.6128 29.4577 34.2332 28.601 32.3307 27.6218L32.1984 27.5415C33.1957 27.746 33.8585 27.9279 34.1869 28.0864C34.9363 28.3905 35.7004 28.7958 36.4788 29.3028C37.8401 30.1896 38.9881 31.3069 39.9223 32.6547C40.4584 33.6631 40.7246 34.7186 40.7216 35.8205C40.7114 36.8049 40.6386 37.6605 40.5016 38.3868Z" stroke="#2C2C2C" stroke-width="2" stroke-linejoin="round"/>
</svg>
