<svg width="69" height="43" viewBox="0 0 69 43" fill="none" xmlns="http://www.w3.org/2000/svg">
<path d="M51.4502 5.66346L50.557 5.21369L50.0031 6.31367L51.1934 6.62993L51.4502 5.66346ZM63.911 14.1786L64.7706 13.6676L64.767 13.6615L64.7633 13.6555L63.911 14.1786ZM66.9163 28.6615L65.9324 28.4826L65.8285 29.0537L66.273 29.4272L66.9163 28.6615ZM66.4032 31.2815L65.9799 30.3756L65.9691 30.3806L65.9585 30.3858L66.4032 31.2815ZM63.9843 31.9365L63.8944 30.9406L63.8845 30.9415L63.8747 30.9426L63.9843 31.9365ZM52.9161 31.8638L52.8065 32.8577L52.8201 32.8592L52.8337 32.8604L52.9161 31.8638ZM46.9056 31.3543L46.9763 30.3568L46.941 30.3543H46.9056V31.3543ZM46.0993 31.6454L46.5977 32.5124L46.625 32.4967L46.6513 32.4793L46.0993 31.6454ZM41.9946 34.1199L41.4962 33.2529L41.4846 33.2596L41.4732 33.2666L41.9946 34.1199ZM36.2039 37.6861L35.6968 36.8242L35.6866 36.8301L35.6766 36.8364L36.2039 37.6861ZM32.5389 39.7966L32.1156 38.8906L32.0995 38.8982L32.0836 38.9063L32.5389 39.7966ZM24.7692 41.98L24.717 40.9813L24.7141 40.9815L24.7692 41.98ZM17.5126 40.2333L17.9908 39.355L17.9888 39.354L17.5126 40.2333ZM12.5282 37.6861L12.9729 36.7904C12.707 36.6583 12.3961 36.6513 12.1245 36.7712L12.5282 37.6861ZM8.57009 39.5055L8.10481 38.6204L8.0959 38.625L8.08709 38.6299L8.57009 39.5055ZM3.43915 40.1605L2.57694 40.6671L2.59217 40.693L2.60893 40.718L3.43915 40.1605ZM1.75326 37.4677L0.81871 37.8235L1.75326 37.4677ZM1.38677 36.6671L0.44628 37.007L1.38677 36.6671ZM1.14524 35.5L2.14475 35.5311L2.14498 35.5237L2.1451 35.5163L1.14524 35.5ZM1.38677 34.8809L2.2781 35.3343L1.38677 34.8809ZM2.04646 34.1927L1.35592 33.4694L1.34883 33.4761L1.34188 33.4831L2.04646 34.1927ZM8.49679 29.826L8.94147 30.7217L8.949 30.7179L8.49679 29.826ZM18.832 24.5859L18.3873 23.6902L18.3798 23.694L18.832 24.5859ZM19.8582 23.2031L20.7763 23.5994L20.7978 23.5496L20.8138 23.4977L19.8582 23.2031ZM25.2823 13.5963L24.5164 12.9535L24.5099 12.9611L24.5036 12.9689L25.2823 13.5963ZM28.6541 9.73907L27.9773 9.00287L27.9713 9.00843L28.6541 9.73907ZM35.6175 6.10013L35.8584 7.07072L35.8668 7.06856L35.6175 6.10013ZM41.6281 4.8629V3.8629H41.6109L41.5938 3.86348L41.6281 4.8629ZM42.5809 4.20789L41.7507 3.65045L41.7374 3.67027L41.7251 3.69069L42.5809 4.20789ZM44.0469 2.38842L44.7515 3.09805L44.0469 2.38842ZM45.8794 1.51508L45.7806 2.51019L45.8299 2.51508H45.8794V1.51508ZM46.3192 1.36952L46.7639 2.26522L46.8395 2.22766L46.9078 2.17793L46.3192 1.36952ZM49.6177 1.4423L49.4864 2.43365L49.5139 2.43729L49.5415 2.4394L49.6177 1.4423ZM51.8167 2.97065L52.5669 2.30947L52.5617 2.30365L51.8167 2.97065ZM51.8899 5.08123L52.5945 5.79086L52.774 5.61262L52.8472 5.37047L51.8899 5.08123ZM20.3146 23.0558C19.8338 22.784 19.2237 22.9535 18.9519 23.4343C18.6802 23.9151 18.8497 24.5251 19.3305 24.7969L20.3146 23.0558ZM21.9868 25.4375L21.4906 26.3058L21.9868 25.4375ZM24.5981 26.6738L24.992 25.7547H24.992L24.5981 26.6738ZM24.6371 26.6905L25.031 25.7714L25.031 25.7714L24.6371 26.6905ZM29.2542 28.5055L29.4967 27.5353L29.2542 28.5055ZM35.2382 30.0167L34.9674 30.9793L35.2382 30.0167ZM46.4772 31.6242C47.0294 31.6242 47.4772 31.1764 47.4772 30.6242C47.4772 30.0719 47.0294 29.6242 46.4772 29.6242V31.6242ZM42.3104 3.95188C41.7703 3.83617 41.2387 4.18013 41.123 4.72016C41.0073 5.26018 41.3513 5.79177 41.8913 5.90749L42.3104 3.95188ZM43.8778 5.67389L43.5856 6.63024L43.8778 5.67389ZM45.6852 6.05359L45.5437 7.04354L45.6852 6.05359ZM52.2531 6.0975C52.747 5.85051 52.9473 5.24983 52.7003 4.75585C52.4533 4.26188 51.8526 4.06165 51.3586 4.30864L52.2531 6.0975ZM47.4797 6.84375C47.4797 6.29147 47.0319 5.84375 46.4797 5.84375C45.9274 5.84375 45.4797 6.29147 45.4797 6.84375H47.4797ZM46.4721 23.4668L47.47 23.5312L46.4721 23.4668ZM45.0696 30.7646C45.0696 31.3169 45.5173 31.7646 46.0696 31.7646C46.6219 31.7646 47.0696 31.3169 47.0696 30.7646H45.0696ZM1 34.5598C0.447715 34.5598 0 35.0076 0 35.5598C0 36.1121 0.447715 36.5598 1 36.5598V34.5598ZM5.11345 35.7557L4.71654 36.6736L5.11345 35.7557ZM8.68823 36.6861L9.04721 35.7528L8.68823 36.6861ZM10.8375 37.3717L11.2513 36.4614L10.8375 37.3717ZM11.9148 37.6383L12.1438 36.6649H12.1438L11.9148 37.6383ZM12.4555 38.7181C13.0078 38.7181 13.4555 38.2704 13.4555 37.7181C13.4555 37.1658 13.0078 36.7181 12.4555 36.7181V38.7181ZM51.1934 6.62993C56.2428 7.97158 60.3775 10.3328 63.0587 14.7016L64.7633 13.6555C61.7273 8.70862 57.066 6.12093 51.707 4.697L51.1934 6.62993ZM63.0514 14.6895C65.5995 18.9764 66.8319 23.5359 65.9324 28.4826L67.9001 28.8404C68.9064 23.307 67.5001 18.2598 64.7706 13.6676L63.0514 14.6895ZM66.273 29.4272C66.5141 29.6297 66.5164 29.7904 66.5019 29.8667C66.4835 29.9638 66.3824 30.1875 65.9799 30.3756L66.8265 32.1875C67.6701 31.7934 68.3019 31.1073 68.4668 30.2401C68.6355 29.3521 68.2713 28.4939 67.5595 27.8959L66.273 29.4272ZM65.9585 30.3858C65.3558 30.6851 64.6007 30.8768 63.8944 30.9406L64.0742 32.9325C64.9806 32.8507 65.9846 32.6058 66.8478 32.1772L65.9585 30.3858ZM63.8747 30.9426C61.9186 31.1584 59.9781 31.3004 58.0471 31.3004V33.3004C60.0742 33.3004 62.0919 33.1514 64.094 32.9305L63.8747 30.9426ZM58.0471 31.3004C56.4071 31.3004 54.885 31.0233 52.9986 30.8672L52.8337 32.8604C54.4656 32.9954 56.3153 33.3004 58.0471 33.3004V31.3004ZM53.0258 30.8698C51.0249 30.6491 49.0279 30.5023 46.9763 30.3568L46.8349 32.3518C48.8881 32.4974 50.8492 32.6418 52.8065 32.8577L53.0258 30.8698ZM46.9056 30.3543C46.3139 30.3543 45.8174 30.6328 45.5474 30.8116L46.6513 32.4793C46.7217 32.4327 46.788 32.3969 46.8441 32.3747C46.9022 32.3516 46.9208 32.3543 46.9056 32.3543V30.3543ZM45.601 30.7785C44.8888 31.1878 44.1976 31.6145 43.5217 32.0317C42.8416 32.4515 42.1768 32.8617 41.4962 33.2529L42.4929 34.9869C43.205 34.5775 43.8963 34.1508 44.5722 33.7336C45.2523 33.3138 45.9171 32.9036 46.5977 32.5124L45.601 30.7785ZM41.4732 33.2666C39.5302 34.4538 37.6725 35.6617 35.6968 36.8242L36.711 38.5479C38.6935 37.3815 40.6473 36.115 42.5159 34.9732L41.4732 33.2666ZM35.6766 36.8364C34.4788 37.5797 33.2944 38.3399 32.1156 38.8906L32.9623 40.7026C34.2757 40.0889 35.5834 39.248 36.7312 38.5357L35.6766 36.8364ZM32.0836 38.9063C29.7665 40.0915 27.3377 40.8444 24.717 40.9813L24.8214 42.9786C27.7715 42.8245 30.4737 41.9762 32.9943 40.6869L32.0836 38.9063ZM24.7141 40.9815C22.2918 41.1151 20.1295 40.5196 17.9908 39.3551L17.0344 41.1116C19.4402 42.4215 21.9691 43.136 24.8243 42.9785L24.7141 40.9815ZM17.9888 39.354C16.358 38.4707 14.7293 37.6623 12.9729 36.7904L12.0836 38.5817C13.8456 39.4565 15.4421 40.2492 17.0364 41.1126L17.9888 39.354ZM12.1245 36.7712C10.8322 37.3415 9.39057 37.9445 8.10481 38.6204L9.03538 40.3907C10.2418 39.7565 11.5855 39.1951 12.932 38.6009L12.1245 36.7712ZM8.08709 38.6299C6.94624 39.2592 5.65461 39.5244 4.31874 39.5244V41.5244C5.91483 41.5244 7.55517 41.2074 9.05309 40.3811L8.08709 38.6299ZM4.31874 39.5244C4.32272 39.5244 4.32026 39.5246 4.31128 39.5236C4.30259 39.5227 4.29046 39.5209 4.27553 39.5179C4.24446 39.5117 4.21204 39.5022 4.18418 39.4915C4.17081 39.4863 4.16092 39.4818 4.15458 39.4786C4.14805 39.4753 4.14772 39.4746 4.15246 39.4778C4.15689 39.4808 4.17055 39.4902 4.18965 39.5081C4.2085 39.5257 4.23815 39.5566 4.26937 39.6031L2.60893 40.718C2.85407 41.0831 3.23353 41.2683 3.46376 41.3572C3.72472 41.458 4.03023 41.5244 4.31874 41.5244V39.5244ZM4.30136 39.654C4.01604 39.1683 3.63922 38.6796 3.36713 38.2956C3.07149 37.8783 2.83815 37.5067 2.68782 37.1119L0.81871 37.8235C1.06141 38.461 1.41446 38.9991 1.73523 39.4518C2.07955 39.9378 2.34916 40.2794 2.57694 40.6671L4.30136 39.654ZM2.68782 37.1119C2.60517 36.8948 2.51857 36.7427 2.4704 36.6521C2.42857 36.5735 2.38618 36.4904 2.32726 36.3273L0.44628 37.007C0.545124 37.2805 0.630413 37.4518 0.704604 37.5913C0.772458 37.7189 0.790232 37.7487 0.81871 37.8235L2.68782 37.1119ZM2.32726 36.3273C2.20835 35.9982 2.16915 35.8578 2.15351 35.7765C2.14325 35.7231 2.1399 35.6872 2.14475 35.5311L0.14572 35.4689C0.139631 35.6646 0.136514 35.8786 0.189491 36.1541C0.237087 36.4017 0.324128 36.6689 0.44628 37.007L2.32726 36.3273ZM2.1451 35.5163C2.14531 35.5038 2.14585 35.5267 2.137 35.5669C2.12739 35.6106 2.11411 35.6414 2.11082 35.6485C2.11036 35.6495 2.1125 35.6448 2.12027 35.6301C2.12839 35.6147 2.13836 35.5964 2.15423 35.5674C2.18463 35.5119 2.22753 35.4337 2.2781 35.3343L0.495435 34.4276C0.45996 34.4973 0.430115 34.5518 0.399695 34.6074C0.373631 34.655 0.331281 34.7316 0.294971 34.8103C0.25329 34.9006 0.212131 35.0081 0.18377 35.1369C0.156164 35.2623 0.147075 35.3789 0.145369 35.4837L2.1451 35.5163ZM2.2781 35.3343C2.27313 35.344 2.26172 35.3629 2.24769 35.3802C2.23944 35.3903 2.24107 35.3862 2.27899 35.3502C2.34004 35.2921 2.52597 35.1258 2.75104 34.9023L1.34188 33.4831C1.12715 33.6963 1.03411 33.774 0.900709 33.9009C0.765873 34.0291 0.619842 34.183 0.495435 34.4276L2.2781 35.3343ZM2.737 34.916C4.54771 33.1873 6.65358 31.8575 8.94146 30.7217L8.05213 28.9303C5.64886 30.1234 3.35677 31.5592 1.35592 33.4694L2.737 34.916ZM8.949 30.7179C10.6715 29.8445 12.3941 28.9712 14.1166 28.0978C15.8391 27.2245 17.5617 26.3512 19.2842 25.4778L18.3798 23.694C16.6572 24.5673 14.9347 25.4407 13.2122 26.314C11.4896 27.1874 9.76711 28.0607 8.04458 28.934L8.949 30.7179ZM19.2767 25.4816C20.2548 24.996 20.5996 24.0088 20.7763 23.5994L18.9401 22.8068C18.8146 23.0976 18.7407 23.2789 18.638 23.4408C18.5503 23.5792 18.4732 23.6476 18.3873 23.6902L19.2767 25.4816ZM20.8138 23.4977C21.8623 20.097 23.7595 17.0802 26.061 14.2237L24.5036 12.9689C22.114 15.9348 20.0531 19.1769 18.9026 22.9085L20.8138 23.4977ZM26.0483 14.2392C27.1997 12.8673 28.1498 11.579 29.3369 10.4697L27.9713 9.00843C26.6662 10.228 25.5639 11.7053 24.5164 12.9535L26.0483 14.2392ZM29.3309 10.4752C31.17 8.78448 33.3588 7.69114 35.8584 7.07068L35.3766 5.12959C32.5987 5.81914 30.0964 7.05472 27.9773 9.0029L29.3309 10.4752ZM35.8668 7.06856C37.944 6.53385 39.6804 5.93017 41.6623 5.86231L41.5938 3.86348C39.3244 3.94118 37.2492 4.64752 35.3682 5.1317L35.8668 7.06856ZM41.6281 5.8629C42.6003 5.8629 43.1559 5.18989 43.4368 4.72508L41.7251 3.69069C41.6898 3.74901 41.6588 3.7925 41.6324 3.82418C41.6061 3.85575 41.5889 3.87039 41.5822 3.87541C41.5768 3.87958 41.5819 3.87473 41.5966 3.86949C41.6125 3.86385 41.625 3.8629 41.6281 3.8629V5.8629ZM43.4112 4.76533C43.8301 4.14144 44.2285 3.61733 44.7515 3.09805L43.3424 1.6788C42.6926 2.32398 42.2114 2.96433 41.7507 3.65045L43.4112 4.76533ZM44.7515 3.09805C45.2408 2.61223 45.5336 2.48567 45.7806 2.51019L45.9782 0.519975C44.7592 0.398938 43.8792 1.14572 43.3424 1.6788L44.7515 3.09805ZM45.8794 2.51508C46.3061 2.51508 46.6748 2.30946 46.7639 2.26522L45.8745 0.473828C45.8557 0.48316 45.8402 0.490864 45.8252 0.498219C45.8104 0.505431 45.7981 0.511327 45.7873 0.516355C45.765 0.526723 45.7541 0.531073 45.7504 0.532448C45.7468 0.533767 45.7567 0.529784 45.7771 0.525357C45.7981 0.520808 45.8333 0.515082 45.8794 0.515082V2.51508ZM46.9078 2.17793C47.1584 1.99546 47.3962 1.96338 47.7894 2.03495C48.0088 2.07491 48.2313 2.13895 48.5259 2.22061C48.7992 2.29635 49.1348 2.38711 49.4864 2.43365L49.7489 0.450952C49.5508 0.424722 49.3367 0.369922 49.0602 0.293279C48.805 0.222562 48.4778 0.127401 48.1475 0.0672846C47.4412 -0.0612885 46.5795 -0.0569733 45.7306 0.561116L46.9078 2.17793ZM49.5415 2.4394C49.7434 2.45482 49.9577 2.54727 50.223 2.76343C50.504 2.99235 50.753 3.28178 51.0716 3.63766L52.5617 2.30365C52.2939 2.00452 51.9199 1.56616 51.4862 1.21286C51.0369 0.846786 50.4448 0.502567 49.6938 0.445207L49.5415 2.4394ZM51.0664 3.63181C51.0996 3.66946 51.1391 3.72898 51.1294 3.92107C51.1182 4.14505 51.0467 4.41469 50.9327 4.792L52.8472 5.37047C52.9531 5.01999 53.1015 4.52545 53.1269 4.02165C53.1539 3.48595 53.0468 2.85408 52.5669 2.30949L51.0664 3.63181ZM51.1854 4.37161C51.0877 4.46863 50.9656 4.58763 50.8553 4.72839C50.7344 4.88285 50.6453 5.03829 50.557 5.21369L52.3433 6.11323C52.4016 5.99752 52.4225 5.97102 52.4298 5.96172C52.4478 5.93872 52.4723 5.91217 52.5945 5.79086L51.1854 4.37161ZM19.3305 24.7969C19.6434 24.9738 19.9403 25.1992 20.2988 25.475C20.6382 25.736 21.0415 26.0491 21.4906 26.3058L22.4829 24.5693C22.1734 24.3924 21.8789 24.1672 21.5181 23.8896C21.1763 23.6267 20.7703 23.3134 20.3146 23.0558L19.3305 24.7969ZM21.4906 26.3058C22.3696 26.808 23.3427 27.2238 24.2042 27.593L24.992 25.7547C24.1098 25.3766 23.245 25.0048 22.4829 24.5693L21.4906 26.3058ZM24.2042 27.593L24.2432 27.6097L25.031 25.7714L24.992 25.7547L24.2042 27.593ZM24.2431 27.6097C25.6373 28.2072 27.351 29.0605 29.0116 29.4756L29.4967 27.5353C28.0426 27.1718 26.5891 26.4391 25.031 25.7714L24.2431 27.6097ZM29.0116 29.4756C31.0347 29.9814 33.0095 30.4286 34.9674 30.9793L35.5089 29.054C33.5148 28.4931 31.4616 28.0266 29.4967 27.5353L29.0116 29.4756ZM34.9674 30.9793C35.6241 31.164 36.2838 31.2678 36.8824 31.3585C37.4997 31.4521 38.0461 31.5311 38.5724 31.6627L39.0574 29.7224C38.4192 29.5628 37.767 29.4698 37.182 29.3811C36.5783 29.2896 36.0318 29.2011 35.5089 29.054L34.9674 30.9793ZM38.5724 31.6627C39.9865 32.0162 41.4137 31.9888 42.7353 31.8911C44.1146 31.7891 45.2883 31.6242 46.4772 31.6242V29.6242C45.1959 29.6242 43.7942 29.8073 42.5878 29.8965C41.3237 29.99 40.1548 29.9967 39.0574 29.7224L38.5724 31.6627ZM41.8913 5.90749C42.0633 5.94434 42.2508 6.02728 42.5436 6.17482C42.8004 6.30416 43.1783 6.50579 43.5856 6.63024L44.17 4.71754C43.965 4.65489 43.7662 4.55122 43.4434 4.38864C43.1568 4.24426 42.762 4.04866 42.3104 3.95188L41.8913 5.90749ZM43.5856 6.63024C44.2492 6.83302 44.9072 6.9526 45.5437 7.04354L45.8266 5.06364C45.2379 4.97954 44.6937 4.87755 44.17 4.71754L43.5856 6.63024ZM45.5437 7.04354C46.6784 7.20563 47.7748 7.29659 48.9354 7.29659V5.29659C47.8837 5.29659 46.8828 5.21453 45.8266 5.06364L45.5437 7.04354ZM48.9354 7.29659C50.488 7.29659 51.4825 6.48277 52.2531 6.0975L51.3586 4.30864C50.0948 4.94057 49.8598 5.29659 48.9354 5.29659V7.29659ZM45.4797 6.84375V17.0879H47.4797V6.84375H45.4797ZM45.4797 17.0879C45.4797 19.2852 45.6077 21.3327 45.4741 23.4025L47.47 23.5312C47.6085 21.384 47.4797 19.1155 47.4797 17.0879H45.4797ZM45.4741 23.4025C45.3205 25.7841 45.0696 28.2912 45.0696 30.7646H47.0696C47.0696 28.377 47.3101 26.0098 47.47 23.5312L45.4741 23.4025ZM1 36.5598C1.34377 36.5598 1.71227 36.5387 2.06078 36.5182C2.41963 36.497 2.76462 36.4759 3.10476 36.4695C3.80716 36.4562 4.3437 36.5124 4.71654 36.6736L5.51036 34.8379C4.72293 34.4974 3.82177 34.4556 3.06703 34.4698C2.6786 34.4771 2.29016 34.5011 1.94295 34.5216C1.58542 34.5427 1.27525 34.5598 1 34.5598V36.5598ZM4.71654 36.6736C5.38973 36.9647 6.10341 37.1046 6.70472 37.2201C7.34319 37.3428 7.86119 37.4395 8.32925 37.6195L9.04721 35.7528C8.3788 35.4957 7.66775 35.3686 7.08212 35.2561C6.45933 35.1364 5.95387 35.0297 5.51036 34.8379L4.71654 36.6736ZM8.32925 37.6195C8.72686 37.7724 9.16089 37.8846 9.50733 37.9796C9.88152 38.0821 10.1777 38.1703 10.4236 38.2821L11.2513 36.4614C10.8424 36.2755 10.4031 36.1513 10.0359 36.0507C9.64103 35.9425 9.32784 35.8607 9.04721 35.7528L8.32925 37.6195ZM10.4236 38.2821C10.6887 38.4026 10.9613 38.4667 11.1654 38.5087C11.4239 38.5619 11.5199 38.5727 11.6857 38.6117L12.1438 36.6649C11.9653 36.6229 11.6827 36.5732 11.5686 36.5497C11.4001 36.5151 11.3062 36.4863 11.2513 36.4614L10.4236 38.2821ZM11.6857 38.6117C11.7502 38.6269 11.7937 38.638 11.8418 38.65C11.8849 38.6607 11.9478 38.6763 12.0179 38.6886C12.1766 38.7166 12.3163 38.7181 12.4555 38.7181V36.7181C12.3215 36.7181 12.3358 36.7138 12.3649 36.719C12.3702 36.7199 12.3673 36.7198 12.3245 36.7091C12.2868 36.6998 12.2244 36.6839 12.1438 36.6649L11.6857 38.6117Z" fill="#2C2C2C"/>
</svg>
