<svg width="54" height="49" viewBox="0 0 54 49" fill="none" xmlns="http://www.w3.org/2000/svg">
<path d="M50.6867 4.81619L51.6012 4.41179C51.5992 4.40713 51.5971 4.40248 51.595 4.39785L50.6867 4.81619ZM43.4969 1.11646L43.6834 2.09891L43.6844 2.09871L43.4969 1.11646ZM31.2693 16.9513L30.7872 17.8274C31.0658 17.9807 31.4007 17.9924 31.6893 17.8588C31.9779 17.7252 32.1857 17.4624 32.2492 17.1508L31.2693 16.9513ZM19.9419 16.532L18.9432 16.4809C18.9267 16.8041 19.0676 17.1153 19.3214 17.3161C19.5751 17.517 19.9104 17.5826 20.2211 17.4922L19.9419 16.532ZM18.795 6.09876L19.6886 5.64977C19.6864 5.64551 19.6842 5.64126 19.682 5.63704L18.795 6.09876ZM13.7326 2.72584L13.817 1.72942C13.8117 1.72897 13.8064 1.72856 13.8011 1.7282L13.7326 2.72584ZM6.51809 7.34433L5.69038 6.78317L5.68819 6.78642L6.51809 7.34433ZM2.01676 31.9907L1.05363 32.2597L1.05379 32.2603L2.01676 31.9907ZM16.8835 46.8512L16.6208 47.8161C16.6267 47.8177 16.6328 47.8193 16.6388 47.8208L16.8835 46.8512ZM23.6293 47.6405L23.6195 46.6406L23.615 46.6406L23.6293 47.6405ZM38.8167 44.9151L39.1552 45.856L39.1574 45.8552L38.8167 44.9151ZM49.6322 33.3657L48.7034 32.9952L48.7032 32.9959L49.6322 33.3657ZM51.7102 25.1832L50.7209 25.0373C50.7196 25.0468 50.7183 25.0562 50.7172 25.0657L51.7102 25.1832ZM14.8742 26.8041C14.6059 26.3213 13.9971 26.1473 13.5144 26.4155C13.0316 26.6838 12.8576 27.2926 13.1258 27.7753L14.8742 26.8041ZM14.4792 27.0022L14.5379 28.0005L14.4792 27.0022ZM14.3546 28.8134C14.8786 28.9881 15.4449 28.7049 15.6195 28.181C15.7942 27.657 15.511 27.0907 14.9871 26.916L14.3546 28.8134ZM34.1948 27.0995C34.2497 26.55 33.8488 26.0599 33.2992 26.005C32.7497 25.95 32.2597 26.351 32.2047 26.9005L34.1948 27.0995ZM33.0613 27.9051L32.3542 28.6122L33.0613 27.9051ZM33.7748 26.2875C33.2225 26.2875 32.7748 26.7352 32.7748 27.2875C32.7748 27.8398 33.2225 28.2875 33.7748 28.2875V26.2875ZM22.9261 32.1442C22.8651 31.5953 22.3707 31.1998 21.8218 31.2608C21.2729 31.3218 20.8774 31.8162 20.9384 32.3651L22.9261 32.1442ZM22.8959 32.6859L23.0414 31.6966L22.8959 32.6859ZM24.8073 32.1375L24.0421 31.4938V31.4938L24.8073 32.1375ZM25.6912 29.2305L24.6995 29.3591L25.6912 29.2305ZM21.2135 30.2474L20.2433 30.0049V30.0049L21.2135 30.2474ZM21.9322 33.3505C22.4845 33.3505 22.9322 32.9028 22.9322 32.3505C22.9322 31.7982 22.4845 31.3505 21.9322 31.3505V33.3505ZM23.6779 32.842C23.7906 32.3013 23.4436 31.7717 22.9029 31.6591C22.3622 31.5464 21.8326 31.8934 21.72 32.4341L23.6779 32.842ZM21.682 34.5654L22.5384 35.0818L21.682 34.5654ZM20.1327 37.1424L19.2649 36.6454L20.1327 37.1424ZM18.3447 39.0591C18.3447 39.6114 18.7924 40.0591 19.3447 40.0591C19.8969 40.0591 20.3447 39.6114 20.3447 39.0591H18.3447ZM24.2545 33.3044C24.1462 32.7629 23.6194 32.4117 23.0778 32.52C22.5362 32.6283 22.185 33.1551 22.2933 33.6967L24.2545 33.3044ZM23.6732 34.001L24.4003 33.3144L23.6732 34.001ZM24.8073 35.3214L24.0385 35.9609L24.8073 35.3214ZM26.3194 37.3553L27.1769 36.8408L26.3194 37.3553ZM25.9254 38.8354C26.1724 39.3294 26.7731 39.5296 27.2671 39.2826C27.7611 39.0356 27.9613 38.435 27.7143 37.941L25.9254 38.8354ZM8.585 23.3352C8.18507 23.7161 8.16963 24.3491 8.55052 24.749C8.93141 25.149 9.56438 25.1644 9.96431 24.7835L8.585 23.3352ZM18.3845 24.2386L19.1606 23.608L18.3845 24.2386ZM20.2152 27.5464L21.1787 27.2788V27.2788L20.2152 27.5464ZM20.1603 30.4459C20.6543 30.6929 21.2549 30.4926 21.5019 29.9987C21.7489 29.5047 21.5487 28.904 21.0547 28.657L20.1603 30.4459ZM24.8097 28.8866C24.5281 29.3617 24.6851 29.9751 25.1602 30.2567C25.6353 30.5383 26.2487 30.3813 26.5303 29.9062L24.8097 28.8866ZM26.8152 27.7875L27.6169 28.3853L26.8152 27.7875ZM28.2315 25.9075L29.0027 26.5441L28.2315 25.9075ZM32.2762 22.7874L32.6886 23.6984L32.2762 22.7874ZM36.0779 22.1058L36.0916 21.1059L36.0779 22.1058ZM37.8629 22.684L37.3929 23.5667L37.3929 23.5667L37.8629 22.684ZM37.8807 22.6935L38.3507 21.8109L38.3506 21.8108L37.8807 22.6935ZM38.7002 24.3776C39.1218 24.7344 39.7528 24.6818 40.1095 24.2602C40.4662 23.8386 40.4137 23.2076 39.9921 22.8508L38.7002 24.3776ZM51.595 4.39785C50.8884 2.86389 49.6887 1.61063 48.187 0.837891L47.2719 2.61625C48.3764 3.18459 49.2587 4.10633 49.7784 5.23453L51.595 4.39785ZM48.187 0.837891C46.6853 0.0651524 44.9681 -0.182573 43.3093 0.134211L43.6844 2.09871C44.9045 1.86572 46.1674 2.04792 47.2719 2.61625L48.187 0.837891ZM43.3103 0.134014C39.9026 0.781057 37.1184 2.47996 34.9482 5.28398C32.798 8.0621 31.2805 11.8842 30.2894 16.7518L32.2492 17.1508C33.2066 12.4485 34.6365 8.95432 36.5298 6.50811C38.4031 4.08781 40.7585 2.65428 43.6834 2.09891L43.3103 0.134014ZM31.7513 16.0751C27.5634 13.7711 22.4952 14.7482 19.6627 15.5718L20.2211 17.4922C22.9876 16.6879 27.3537 15.9385 30.7872 17.8274L31.7513 16.0751ZM20.9406 16.5831C21.0612 14.2253 20.9265 11.8672 20.682 9.93646C20.5596 8.97045 20.4085 8.10133 20.2448 7.38475C20.0858 6.68925 19.9005 6.07161 19.6886 5.64977L17.9015 6.54775C18.0009 6.74561 18.144 7.16929 18.295 7.83036C18.4413 8.47034 18.582 9.27303 18.6978 10.1877C18.9296 12.0184 19.057 14.2572 18.9432 16.4809L20.9406 16.5831ZM19.682 5.63704C19.1131 4.54408 18.2771 3.61272 17.2517 2.92953L16.1428 4.59395C16.8875 5.09017 17.4948 5.76664 17.908 6.56048L19.682 5.63704ZM17.2517 2.92953C16.2263 2.24634 15.0448 1.83351 13.817 1.72942L13.6481 3.72227C14.5398 3.79787 15.398 4.09773 16.1428 4.59395L17.2517 2.92953ZM13.8011 1.7282C11.5895 1.5762 8.56572 2.54206 5.69038 6.78318L7.3458 7.90549C9.89673 4.14287 12.2869 3.62884 13.664 3.72349L13.8011 1.7282ZM5.68819 6.78642C0.356809 14.7169 -1.32092 23.76 1.05364 32.2597L2.97988 31.7216C0.779108 23.8439 2.3078 15.3996 7.34799 7.90224L5.68819 6.78642ZM1.05379 32.2603C3.77075 41.9637 12.4074 46.6688 16.6208 47.8161L17.1462 45.8864C13.3435 44.8509 5.44238 40.5163 2.97972 31.721L1.05379 32.2603ZM16.6388 47.8208C18.9279 48.3986 21.2829 48.6741 23.6436 48.6404L23.615 46.6406C21.4289 46.6718 19.2481 46.4167 17.1282 45.8816L16.6388 47.8208ZM23.6391 48.6405C28.9307 48.5887 34.1759 47.6474 39.1552 45.856L38.4782 43.9741C33.7098 45.6896 28.6869 46.591 23.6195 46.6406L23.6391 48.6405ZM39.1574 45.8552C44.2366 44.0148 48.1584 39.7715 50.5613 33.7356L48.7032 32.9959C46.4567 38.6388 42.8928 42.3745 38.476 43.9749L39.1574 45.8552ZM50.561 33.7363C51.6408 31.0302 52.361 28.1941 52.7033 25.3007L50.7172 25.0657C50.3954 27.7855 49.7184 30.4514 48.7034 32.9952L50.561 33.7363ZM52.6996 25.329C52.7739 24.8247 53.2545 21.3412 53.3474 17.1399C53.4394 12.9837 53.1595 7.93595 51.6012 4.41179L49.7721 5.22058C51.1366 8.3066 51.4394 12.9614 51.3479 17.0957C51.2574 21.1849 50.7884 24.5798 50.7209 25.0373L52.6996 25.329ZM13.1258 27.7753C13.3715 28.2176 13.7903 28.485 14.2635 28.5198L14.4103 26.5252C14.5003 26.5318 14.6029 26.5608 14.6986 26.623C14.7941 26.685 14.8483 26.7576 14.8742 26.8041L13.1258 27.7753ZM14.2635 28.5198C14.6087 28.5452 14.9109 28.4425 15.1299 28.3186C15.3403 28.1996 15.5722 28.0054 15.7201 27.7268C15.7961 27.5836 15.876 27.367 15.8617 27.1022C15.8459 26.8113 15.7188 26.5369 15.4996 26.3347C15.1287 25.9926 14.6538 25.9902 14.4205 26.0039L14.5379 28.0005C14.5698 27.9986 14.5465 28.0038 14.4884 27.9913C14.4343 27.9797 14.2898 27.9396 14.1437 27.8049C13.9779 27.652 13.8768 27.4368 13.8646 27.2102C13.8537 27.0097 13.9145 26.8626 13.9535 26.789C14.0275 26.6497 14.1141 26.5954 14.1453 26.5778C14.1851 26.5553 14.2743 26.5152 14.4103 26.5252L14.2635 28.5198ZM14.4205 26.0039C14.1975 26.017 13.9157 26.0862 13.6691 26.296C13.4146 26.5126 13.3001 26.7916 13.2637 27.0302C13.2007 27.4443 13.3534 27.8038 13.455 27.9939L15.2189 27.0511C15.2189 27.0512 15.2192 27.0518 15.2198 27.053C15.2203 27.0542 15.2213 27.0562 15.2224 27.0592C15.2246 27.0646 15.2289 27.0759 15.2333 27.0931C15.2401 27.1191 15.26 27.2059 15.2409 27.3313C15.2196 27.4713 15.1461 27.6653 14.965 27.8193C14.7919 27.9667 14.6159 27.9959 14.5379 28.0005L14.4205 26.0039ZM13.455 27.9939C13.5379 28.149 13.6454 28.3006 13.7715 28.4319C13.8835 28.5484 14.0791 28.7216 14.3546 28.8134L14.9871 26.916C15.0765 26.9458 15.1351 26.9837 15.1623 27.0031C15.1919 27.0241 15.2083 27.0406 15.2138 27.0463C15.2201 27.0528 15.2218 27.0555 15.2208 27.0541C15.2205 27.0537 15.22 27.053 15.2195 27.0523C15.2191 27.0515 15.2188 27.0511 15.2189 27.0511L13.455 27.9939ZM32.2047 26.9005C32.2134 26.814 32.2355 26.7732 32.2008 26.8701C32.1843 26.9164 32.1332 27.0513 32.0981 27.1621C32.0625 27.2746 32.0076 27.4667 32.0007 27.6832C31.9938 27.9018 32.0337 28.2917 32.3542 28.6122L33.7684 27.198C33.9945 27.4241 34.0018 27.681 33.9997 27.7464C33.9991 27.7668 33.9974 27.7817 33.9963 27.7903C33.9957 27.7947 33.9951 27.798 33.9947 27.8C33.9946 27.8011 33.9944 27.8018 33.9943 27.8023C33.9942 27.8028 33.9942 27.8031 33.9942 27.8031C33.9942 27.8031 33.9942 27.8029 33.9943 27.8025C33.9944 27.802 33.9946 27.8013 33.9948 27.8005C33.9952 27.7987 33.9959 27.7962 33.9968 27.7928C33.9986 27.7861 34.0013 27.777 34.005 27.7653C34.0127 27.7409 34.0228 27.7118 34.0367 27.6733C34.0463 27.647 34.0703 27.5821 34.0839 27.544C34.1005 27.4976 34.1218 27.4363 34.1406 27.3712C34.1581 27.3106 34.1834 27.2132 34.1948 27.0995L32.2047 26.9005ZM32.3542 28.6122C32.6795 28.9375 33.1113 29.0032 33.2615 29.0243C33.4741 29.0542 33.6788 29.0542 33.7748 29.0542V27.0542C33.7299 27.0542 33.6871 27.0539 33.6439 27.0521C33.5999 27.0503 33.5651 27.0473 33.5397 27.0438C33.5276 27.0421 33.5212 27.0407 33.5198 27.0404C33.518 27.04 33.5257 27.0416 33.5406 27.0468C33.5549 27.0519 33.5836 27.0631 33.6207 27.0843C33.6577 27.1053 33.7115 27.1411 33.7684 27.198L32.3542 28.6122ZM33.7748 29.0542C34.6579 29.0542 35.155 28.3407 35.1734 27.6996C35.1826 27.3794 35.0817 27.0202 34.8178 26.732C34.54 26.4287 34.1587 26.2875 33.7748 26.2875V28.2875C33.6679 28.2875 33.4888 28.2422 33.3427 28.0826C33.2104 27.9381 33.1705 27.7707 33.1742 27.6421C33.1779 27.5148 33.2247 27.372 33.3373 27.2515C33.4639 27.1161 33.6323 27.0542 33.7748 27.0542V29.0542ZM20.9384 32.3651C21.0348 33.2335 21.8004 33.5004 22.0695 33.5713C22.2411 33.6166 22.4063 33.6381 22.5208 33.6509C22.6765 33.6683 22.6981 33.6676 22.7504 33.6753L23.0414 31.6966C22.9812 31.6877 22.9201 31.6814 22.8755 31.6769C22.8237 31.6716 22.7861 31.6681 22.7431 31.6633C22.6572 31.6537 22.6076 31.6448 22.5793 31.6374C22.5429 31.6278 22.6007 31.6356 22.6841 31.7019C22.7315 31.7397 22.7895 31.7983 22.8385 31.8822C22.8887 31.9682 22.9167 32.0593 22.9261 32.1442L20.9384 32.3651ZM22.7504 33.6753C23.6069 33.8013 24.7292 33.7837 25.5726 32.7813L24.0421 31.4938C23.9334 31.623 23.8311 31.6759 23.7104 31.7041C23.5634 31.7386 23.3542 31.7426 23.0414 31.6966L22.7504 33.6753ZM25.5726 32.7813C25.9804 32.2965 26.2871 31.6739 26.4772 31.056C26.6668 30.44 26.7662 29.7452 26.6829 29.1019L24.6995 29.3591C24.7363 29.6435 24.6967 30.0422 24.5657 30.4678C24.4353 30.8915 24.2399 31.2586 24.0421 31.4938L25.5726 32.7813ZM26.6829 29.1019C26.5515 28.0884 25.7398 27.6599 25.1887 27.4962C24.6359 27.332 24.0383 27.3254 23.7159 27.3254V29.3254C24.0396 29.3254 24.3738 29.3405 24.6191 29.4134C24.7354 29.4479 24.7672 29.4777 24.7593 29.4707C24.7323 29.4465 24.7043 29.3966 24.6995 29.3591L26.6829 29.1019ZM23.7159 27.3254C22.0795 27.3254 20.6499 28.3786 20.2433 30.0049L22.1836 30.49C22.3582 29.7914 22.9581 29.3254 23.7159 29.3254V27.3254ZM20.2433 30.0049C20.1415 30.4122 20.066 31.0849 20.1782 31.7063C20.2345 32.018 20.3546 32.4117 20.6305 32.7453C20.9389 33.1182 21.3909 33.3505 21.9322 33.3505V31.3505C21.9501 31.3505 21.9971 31.355 22.0554 31.3828C22.113 31.4102 22.1514 31.4462 22.1717 31.4707C22.2007 31.5057 22.1712 31.4885 22.1464 31.3509C22.1237 31.2256 22.1169 31.065 22.127 30.8935C22.1371 30.7227 22.1619 30.5767 22.1836 30.49L20.2433 30.0049ZM21.72 32.4341C21.6849 32.6025 21.586 32.8259 21.4083 33.1259C21.3228 33.2701 21.2295 33.4155 21.1284 33.5715C21.0314 33.7215 20.9227 33.8882 20.8256 34.0491L22.5384 35.0818C22.615 34.9548 22.7028 34.8198 22.8073 34.6585C22.9078 34.5032 23.021 34.3276 23.129 34.1452C23.3383 33.792 23.5742 33.3396 23.6779 32.842L21.72 32.4341ZM20.8256 34.0491C20.3216 34.885 19.7699 35.7636 19.2649 36.6454L21.0004 37.6394C21.4914 36.7821 22.0078 35.9619 22.5384 35.0818L20.8256 34.0491ZM19.2649 36.6454C19.1378 36.8674 18.9135 37.2433 18.7297 37.633C18.5576 37.9978 18.3447 38.5258 18.3447 39.0591H20.3447C20.3447 38.996 20.3863 38.809 20.5386 38.4862C20.6791 38.1883 20.8488 37.9041 21.0004 37.6394L19.2649 36.6454ZM22.2933 33.6967C22.371 34.0852 22.6033 34.3466 22.7144 34.4634C22.7778 34.53 22.8417 34.5892 22.8795 34.6243C22.9013 34.6446 22.9155 34.6578 22.9283 34.67C22.9342 34.6756 22.9385 34.6798 22.9416 34.683C22.9432 34.6845 22.9443 34.6857 22.9451 34.6865C22.9459 34.6873 22.9462 34.6877 22.9462 34.6876L24.4003 33.3144C24.3677 33.2799 24.3364 33.2493 24.3108 33.2248C24.2856 33.2007 24.26 33.1769 24.2413 33.1596C24.1981 33.1194 24.1782 33.1003 24.1634 33.0849C24.1494 33.0701 24.16 33.0789 24.1781 33.1073C24.1972 33.1372 24.2345 33.2044 24.2545 33.3044L22.2933 33.6967ZM22.9462 34.6876C23.3167 35.0799 23.6535 35.498 24.0385 35.9609L25.5761 34.682C25.2194 34.2531 24.8266 33.7658 24.4003 33.3144L22.9462 34.6876ZM24.0385 35.9609C24.5831 36.6156 25.0688 37.2146 25.4619 37.8698L27.1769 36.8408C26.6952 36.038 26.1167 35.3319 25.5761 34.682L24.0385 35.9609ZM25.4619 37.8698C25.5304 37.984 25.5959 38.1185 25.6726 38.2874C25.7412 38.4385 25.8333 38.651 25.9254 38.8354L27.7143 37.941C27.6444 37.8013 27.5853 37.6624 27.4937 37.4607C27.4102 37.2768 27.3065 37.0569 27.1769 36.8408L25.4619 37.8698ZM9.96431 24.7835C11.0056 23.7918 12.4461 23.5774 14.1759 23.5774V21.5774C12.3807 21.5774 10.2294 21.7691 8.585 23.3352L9.96431 24.7835ZM14.1759 23.5774C15.5365 23.5774 16.8971 23.9937 17.6084 24.8692L19.1606 23.608C17.8987 22.0549 15.802 21.5774 14.1759 21.5774V23.5774ZM17.6084 24.8692C18.3987 25.8419 18.9478 26.72 19.2517 27.814L21.1787 27.2788C20.7725 25.8163 20.041 24.6915 19.1606 23.608L17.6084 24.8692ZM19.2517 27.814C19.3598 28.2033 19.4331 28.5244 19.4331 28.7669H21.4331C21.4331 28.2171 21.2822 27.6513 21.1787 27.2788L19.2517 27.814ZM19.4331 28.7669C19.4331 28.9094 19.4501 29.1447 19.4865 29.3634C19.5045 29.4715 19.5337 29.6162 19.5837 29.7582C19.6085 29.8286 19.6493 29.9303 19.7156 30.0363C19.7735 30.129 19.9088 30.3201 20.1603 30.4459L21.0547 28.657C21.1703 28.7148 21.2518 28.7854 21.3041 28.8395C21.3565 28.8937 21.3911 28.9435 21.4119 28.9768C21.4513 29.04 21.4677 29.0869 21.4702 29.094C21.4757 29.1095 21.4692 29.0939 21.4594 29.035C21.4508 28.9837 21.4438 28.9242 21.4391 28.868C21.4367 28.8406 21.4352 28.8165 21.4342 28.7973C21.4338 28.7877 21.4335 28.7801 21.4333 28.7744C21.4331 28.7686 21.4331 28.7662 21.4331 28.7669H19.4331ZM26.5303 29.9062C26.8286 29.4028 27.1943 28.9519 27.6169 28.3853L26.0136 27.1896C25.6541 27.6718 25.1794 28.2627 24.8097 28.8866L26.5303 29.9062ZM27.6169 28.3853C28.1138 27.7189 28.5236 27.1246 29.0027 26.5441L27.4602 25.271C26.9402 25.9011 26.4545 26.5985 26.0136 27.1896L27.6169 28.3853ZM29.0027 26.5441C30.0217 25.3095 31.2398 24.3542 32.6886 23.6984L31.8638 21.8764C30.1211 22.6652 28.6621 23.8149 27.4602 25.271L29.0027 26.5441ZM32.6886 23.6984C33.7457 23.2199 34.7981 23.0884 36.0642 23.1057L36.0916 21.1059C34.6624 21.0863 33.2863 21.2325 31.8638 21.8764L32.6886 23.6984ZM36.0642 23.1057C36.4704 23.1113 36.8143 23.2587 37.3929 23.5667L38.3329 21.8014C37.7488 21.4904 37.026 21.1187 36.0916 21.1059L36.0642 23.1057ZM37.3929 23.5667L37.4107 23.5762L38.3506 21.8108L38.3328 21.8013L37.3929 23.5667ZM37.4107 23.5762C37.9424 23.8593 38.3473 24.079 38.7002 24.3776L39.9921 22.8508C39.4496 22.3918 38.8531 22.0783 38.3507 21.8109L37.4107 23.5762Z" fill="#2C2C2C"/>
</svg>
