<svg width="64" height="51" viewBox="0 0 64 51" fill="none" xmlns="http://www.w3.org/2000/svg">
<path fill-rule="evenodd" clip-rule="evenodd" d="M49.6077 0.540205C50.262 0.974525 51.1692 1.68036 51.9987 2.34855C53.0825 3.2216 54.1501 4.12663 54.6106 4.5373C55.3301 5.17897 56.1643 5.83921 56.9536 6.39996C57.2975 6.64431 57.6401 6.90687 57.9665 7.15706C58.036 7.21032 58.1048 7.26302 58.1727 7.31487C58.5683 7.61701 58.9436 7.89745 59.3197 8.14351C59.9346 8.54577 60.5227 8.98832 61.0841 9.41795C61.174 9.48668 61.2629 9.55495 61.3513 9.62273C61.8236 9.98513 62.2774 10.3333 62.7411 10.6606C62.8141 10.7121 62.878 10.7716 62.9327 10.8371C63.0587 10.8285 63.1884 10.8439 63.3157 10.8862C63.8398 11.0606 64.1232 11.6267 63.9489 12.1508C63.8116 12.5635 63.5824 12.9353 63.3852 13.2267C63.2882 13.3701 63.1878 13.5098 63.0988 13.6336L63.0869 13.6501C62.9914 13.783 62.9107 13.8958 62.8405 14.0013C62.6748 14.2503 62.5059 14.5087 62.3342 14.7715C61.9798 15.3138 61.6134 15.8744 61.239 16.4074C61.1944 16.4709 61.1443 16.5432 61.0899 16.6218C60.916 16.873 60.6979 17.1881 60.4728 17.483C60.1849 17.8601 59.8124 18.3048 59.4021 18.6051C59.1854 18.7638 58.9956 18.9817 58.8778 19.2086C58.5933 19.7568 58.2781 20.3393 57.8622 20.9005C57.7866 21.0025 57.7022 21.0919 57.6506 21.1461C57.6272 21.1706 57.6081 21.1904 57.5915 21.2077C57.5606 21.2398 57.538 21.2632 57.5118 21.2921C57.5054 21.2992 57.4998 21.3055 57.495 21.311C57.3327 21.7735 56.8506 22.058 56.356 21.9593C56.2606 21.9402 56.1711 21.9082 56.089 21.8654C55.8011 21.8154 55.5386 21.6404 55.3867 21.3686C55.3815 21.363 55.374 21.355 55.3637 21.3448C55.3214 21.303 55.2577 21.2488 55.1749 21.1871C55.0063 21.0617 54.8223 20.9528 54.72 20.9016C54.2154 20.6488 53.8219 20.2895 53.5181 19.9935C53.4286 19.9062 53.3482 19.8262 53.2737 19.752C53.0672 19.5464 52.9058 19.3856 52.718 19.2393C52.6494 19.1859 52.5797 19.1318 52.5091 19.077C51.9705 18.6596 51.3774 18.1998 50.8392 17.6606C50.7409 17.5621 50.6251 17.4355 50.518 17.3183C50.4948 17.293 50.472 17.2681 50.4499 17.244C50.4281 17.2202 50.4063 17.1965 50.3845 17.173C50.3656 18.3534 50.34 19.5338 50.3145 20.7108L50.3144 20.7152C50.2648 23.0051 50.2155 25.2819 50.2155 27.5417C50.2155 28.2623 50.1848 29.0042 50.1552 29.7224C50.1407 30.0718 50.1265 30.4155 50.1162 30.7485C50.0838 31.7942 50.0858 32.7952 50.2078 33.7731C50.2822 34.3694 50.3039 34.9595 50.3226 35.5029L50.3245 35.5576C50.3429 36.0934 50.3597 36.5832 50.4133 37.0664C50.4627 37.5119 50.5211 37.9701 50.6078 38.3394C50.6753 38.6264 50.682 38.9153 50.6861 39.0895C50.6865 39.1068 50.6869 39.123 50.6873 39.138C50.693 39.347 50.703 39.4165 50.7157 39.4574C50.825 39.8077 50.8351 40.1572 50.8318 40.4109C50.8302 40.5325 50.8248 40.653 50.8202 40.7537L50.8192 40.7772C50.8142 40.8896 50.8107 40.9759 50.8107 41.0527C50.8107 41.2148 50.8284 41.3846 50.8541 41.6152L50.8568 41.639C50.8801 41.8475 50.9099 42.1145 50.9099 42.3889C50.9099 42.7137 50.9504 43.0481 51.0014 43.457L51.0041 43.4783C51.0519 43.8616 51.1083 44.3138 51.1083 44.7797C51.1083 45.3667 51.1321 45.9473 51.1571 46.5517L51.1574 46.5607C51.182 47.156 51.2075 47.7747 51.2075 48.4073C51.2075 48.733 51.0518 49.0223 50.8108 49.2049C50.8108 49.7572 50.3631 50.2049 49.8108 50.2049H47.6779C47.0631 50.2049 46.4429 50.2924 45.7399 50.3935L45.7099 50.3978C45.0384 50.4944 44.2873 50.6025 43.5168 50.6025C42.2353 50.6025 40.9558 50.5774 39.6886 50.5526L39.6863 50.5526C38.415 50.5277 37.1561 50.5031 35.9002 50.5031H31.4581C30.6444 50.5031 29.828 50.542 28.9901 50.587C28.8807 50.5929 28.7708 50.5989 28.6605 50.6049C27.9336 50.6444 27.1886 50.685 26.443 50.7016C26.067 50.71 25.656 50.7276 25.233 50.7457C24.5976 50.7729 23.9351 50.8012 23.3234 50.8012C22.8916 50.8012 22.455 50.8449 21.9602 50.8954L21.9373 50.8978C21.4651 50.946 20.9367 51 20.3969 51H14.9903C14.438 51 13.9903 50.5523 13.9903 50C13.9903 49.7786 14.0622 49.574 14.184 49.4083V47.2149C14.184 46.9368 14.1452 46.6397 14.0938 46.2597L14.0907 46.2364C14.0432 45.886 13.9856 45.4602 13.9856 45.0285C13.9856 44.1021 13.9147 43.1925 13.8398 42.2376L13.8387 42.2224C13.7651 41.2839 13.688 40.3008 13.688 39.2861C13.688 38.8328 13.644 38.3803 13.5937 37.8748L13.5908 37.8462C13.5428 37.3641 13.4896 36.8292 13.4896 36.2825V33.2236C13.4896 32.2934 13.4416 31.3766 13.3918 30.4305L13.391 30.4165C13.3419 29.4829 13.2912 28.5201 13.2912 27.5365C13.2912 26.6536 13.3189 25.7539 13.3459 24.8764C13.35 24.7454 13.354 24.615 13.3579 24.4851C13.3883 23.4769 13.4122 22.5023 13.3906 21.5744C13.3805 21.1359 13.3198 20.6976 13.2494 20.1894L13.2419 20.1352C13.1863 19.7333 13.1259 19.2879 13.1026 18.8212C13.0302 18.8698 12.9605 18.9132 12.896 18.949L12.8961 18.949C12.8961 18.949 12.8682 18.9655 12.8091 19.0324C12.7449 19.105 12.6781 19.1965 12.5786 19.3369C12.5675 19.3525 12.5557 19.3693 12.5432 19.3872C12.3771 19.6237 12.0816 20.0445 11.6507 20.3142C11.4626 20.432 11.282 20.5916 11.0178 20.825L10.994 20.846C10.7456 21.0654 10.4129 21.3581 10.0191 21.5773C9.92061 21.6321 9.83292 21.7193 9.64305 21.9082C9.58274 21.9682 9.51212 22.0385 9.42758 22.1212C9.1655 22.3776 8.69789 22.8227 8.04277 22.9539C7.84671 22.9932 7.65255 22.9723 7.47948 22.9038C7.29522 22.8317 7.13049 22.7042 7.01254 22.527C6.98949 22.4923 6.9667 22.458 6.94417 22.4241C6.57839 21.8737 6.2765 21.4195 5.89726 21.0396C5.59459 20.7363 5.3509 20.5076 5.06434 20.3056C4.87083 20.1692 4.72583 20.0059 4.62773 19.8847C4.54689 19.7849 4.46702 19.6737 4.40854 19.5923C4.39696 19.5762 4.38623 19.5612 4.37648 19.5478C4.312 19.4586 4.27246 19.4076 4.24337 19.375C3.8355 19.172 3.5874 18.8557 3.43934 18.6399C3.37475 18.5458 3.31296 18.4455 3.26759 18.3719C3.25883 18.3577 3.25069 18.3444 3.24325 18.3324C3.18896 18.2449 3.15699 18.1969 3.13111 18.1635C3.05888 18.0705 2.96128 17.9689 2.82588 17.8399C2.78994 17.8057 2.74606 17.7647 2.69823 17.72C2.59566 17.6243 2.47494 17.5115 2.37553 17.4119C2.00721 17.0429 1.63858 16.5852 1.35949 16.2294C1.17046 15.9883 0.990298 15.834 0.730846 15.6117C0.615579 15.513 0.484663 15.4008 0.330364 15.2617C-0.0149319 14.9503 -0.0927205 14.453 0.11195 14.0587C0.140456 13.8816 0.21696 13.71 0.342945 13.5644C0.475966 13.4106 0.588113 13.2641 0.718013 13.0943C0.779636 13.0138 0.845254 12.9281 0.918992 12.8339C1.1307 12.5634 1.38514 12.2572 1.70937 11.9743C2.11307 11.6221 2.40613 11.3397 2.7042 10.9664C3.03455 10.5527 3.42344 10.2091 3.76289 9.92104C3.83966 9.8559 3.91324 9.79408 3.98405 9.7346C4.2475 9.51326 4.47238 9.32434 4.67928 9.11706C5.38187 8.41317 6.09551 7.72382 6.96127 7.0974C7.2249 6.90665 7.45879 6.67365 7.73215 6.38122C7.7758 6.33453 7.82122 6.28544 7.86831 6.23453C8.09847 5.98574 8.36871 5.69363 8.66809 5.42702C8.76741 5.33858 8.86553 5.25164 8.96254 5.16569C9.36701 4.80732 9.75214 4.46609 10.1237 4.10443C10.2186 4.01209 10.3173 3.9104 10.4288 3.79492C10.4377 3.78565 10.4468 3.77629 10.4559 3.76684C10.5569 3.66216 10.6679 3.54706 10.7817 3.43399C11.0267 3.19067 11.3254 2.91489 11.6686 2.69384C11.7289 2.65499 11.7886 2.61718 11.8476 2.57981C12.0555 2.44815 12.255 2.32185 12.4432 2.1743C12.6609 2.0036 12.7311 1.90198 12.7462 1.88008C12.7495 1.87535 12.7502 1.87434 12.7492 1.87715C12.7987 1.72862 12.8796 1.59941 12.982 1.49448C13.1364 1.14131 13.4888 0.894495 13.8988 0.894495C14.2151 0.894495 14.5499 0.82876 14.9918 0.731522C15.02 0.725317 15.0487 0.718946 15.0781 0.712454C15.4707 0.625524 15.9609 0.516986 16.4617 0.497691C17.3109 0.464969 18.1487 0.505567 18.9696 0.596953C20.1606 0.729529 21.3687 0.716993 22.6367 0.703835C23.0249 0.699808 23.4186 0.695722 23.8192 0.695722H33.1003C33.7226 0.695722 34.3285 0.72142 34.9093 0.746057L34.9154 0.746314C35.5046 0.771303 36.0682 0.795109 36.6385 0.795109C37.2636 0.795109 37.8791 0.759892 38.5149 0.716737C38.6399 0.708251 38.7663 0.699412 38.8937 0.690495C39.4053 0.654706 39.935 0.617651 40.469 0.597078C40.7428 0.586527 41.0193 0.550803 41.3524 0.507761C41.3853 0.50351 41.4187 0.499189 41.4528 0.494813C41.8128 0.448546 42.233 0.397563 42.6734 0.397563C42.9807 0.397563 43.2874 0.375741 43.6368 0.350474L43.6484 0.34964C43.984 0.325371 44.36 0.298177 44.7512 0.298177C45.2677 0.298177 45.7868 0.252995 46.3547 0.202691L46.379 0.200536C46.9257 0.152105 47.5205 0.0994044 48.1241 0.0994044C48.1718 0.0994044 48.2187 0.102743 48.2646 0.109197C48.401 0.0393832 48.5556 0 48.7195 0C49.106 0 49.4412 0.219272 49.6077 0.540205ZM47.7269 2.10777C47.3448 2.1231 46.9527 2.15755 46.5312 2.19489L46.5168 2.19616C46.2311 2.22147 45.9316 2.248 45.6237 2.26766C45.5623 2.58525 45.497 2.95612 45.4427 3.26451C45.4173 3.40891 45.3942 3.53961 45.3752 3.64472C45.3167 3.9669 45.1827 4.25232 45.0788 4.45178C45.024 4.55706 44.9672 4.65722 44.9194 4.74095L44.9002 4.77466C44.8586 4.84757 44.8259 4.90481 44.7967 4.95919C44.7485 5.04875 44.7099 5.14349 44.6453 5.3021L44.6379 5.32027C44.5762 5.47181 44.4884 5.68612 44.361 5.90157C44.2988 6.00673 44.2395 6.13349 44.162 6.30878C44.1527 6.32985 44.143 6.35199 44.1329 6.37502C44.0672 6.52465 43.985 6.71178 43.8925 6.88773C43.6733 7.30496 43.4098 7.72697 43.1503 8.10249C43.1062 8.16623 43.0621 8.23022 43.0178 8.2944C42.5413 8.98469 42.0484 9.69865 41.5082 10.3946C41.3173 10.6404 41.1034 10.826 40.9437 10.9598C40.9009 10.9957 40.8627 11.0273 40.8279 11.0561C40.7156 11.1491 40.6398 11.212 40.5632 11.2887C40.239 11.6135 39.8159 11.8951 39.4476 12.0796C39.1915 12.2079 38.9629 12.3462 38.6994 12.5055C38.5579 12.5911 38.4063 12.6827 38.235 12.7822C37.7882 13.0417 37.2544 13.3221 36.6438 13.475C36.3029 13.5604 35.9865 13.6678 35.629 13.7891C35.4966 13.834 35.3586 13.8808 35.2117 13.9291C34.7719 14.0738 34.2799 14.2208 33.7413 14.3012C33.7309 14.3091 33.7202 14.317 33.7092 14.3248C33.601 14.4012 33.4818 14.4568 33.3565 14.4915C33.2355 14.525 33.1228 14.5352 33.0272 14.5352C32.9718 14.5352 32.9448 14.5416 32.8659 14.5604C32.8052 14.5749 32.7136 14.5967 32.5545 14.6286L32.5409 14.6313C32.0653 14.7266 31.4361 14.8527 30.8227 14.8527C30.6573 14.8527 30.4815 14.8744 30.2271 14.9078L30.2079 14.9103C29.9779 14.9404 29.6782 14.9797 29.3647 14.9797C29.3207 14.9797 29.275 14.9799 29.2279 14.98C28.7939 14.9812 28.2384 14.9828 27.7065 14.8859C26.8912 14.7374 26.112 14.478 25.3604 14.0597C25.1532 13.9444 24.9195 13.8467 24.6352 13.7365C24.5854 13.7172 24.5331 13.6972 24.4788 13.6764C24.2438 13.5864 23.9727 13.4827 23.7153 13.3648C23.6698 13.3439 23.6222 13.3323 23.4939 13.3008C23.4468 13.2892 23.3888 13.275 23.3161 13.2566L23.3095 13.255C23.1257 13.2087 22.727 13.1083 22.4026 12.8297C22.237 12.6875 22.08 12.5212 21.9672 12.4016C21.9462 12.3793 21.9267 12.3587 21.909 12.3402C21.7742 12.199 21.6908 12.1213 21.6179 12.0707C21.0872 11.7027 20.7545 11.2002 20.52 10.8084C20.4336 10.6639 20.362 10.5386 20.2979 10.4266C20.1614 10.1877 20.0593 10.0093 19.9219 9.83399C19.6127 9.43979 19.3513 9.00398 19.1467 8.5428C19.0378 8.29738 18.9905 8.04771 18.9646 7.911C18.963 7.90247 18.9615 7.89438 18.96 7.88676C18.9278 7.71833 18.9155 7.67635 18.9049 7.65195C18.8298 7.47995 18.7445 7.30788 18.6461 7.10943L18.6458 7.10887C18.5514 6.91834 18.4441 6.7019 18.3472 6.47741C18.1516 6.02402 17.9691 5.47457 17.9691 4.83504C17.9691 4.79713 17.9563 4.69656 17.9078 4.52183C17.8634 4.36193 17.8067 4.19949 17.7483 4.0325L17.7433 4.01823C17.558 3.48785 17.5283 2.9351 17.5248 2.49458C17.1958 2.48348 16.8671 2.48355 16.5387 2.49621C16.2231 2.50837 15.8955 2.58047 15.4505 2.67843L15.4216 2.68479C15.3792 2.69412 15.3357 2.70367 15.2912 2.71332V8.57575C15.2912 8.86183 15.3146 9.16963 15.3471 9.51615C15.3544 9.59453 15.3624 9.67587 15.3705 9.75935C15.3968 10.0297 15.4253 10.3223 15.4435 10.6086C15.4906 11.3509 15.4842 12.2227 15.1548 13.0681C15.1529 13.0772 15.1499 13.093 15.1462 13.1169C15.1365 13.1794 15.1274 13.2619 15.1196 13.3587C15.1051 13.5379 15.0981 13.7213 15.0932 13.8507C15.0928 13.8614 15.0924 13.8717 15.092 13.8816C15.0811 14.1658 15.0846 14.4319 15.0884 14.7241C15.0906 14.884 15.0928 15.0518 15.0928 15.2346V18.4371C15.0928 18.8871 15.151 19.3403 15.223 19.8611C15.2271 19.8903 15.2312 19.9197 15.2353 19.9494C15.3018 20.4286 15.3772 20.9712 15.3901 21.528C15.413 22.5149 15.3873 23.5374 15.357 24.5453C15.353 24.6774 15.3489 24.8092 15.3449 24.9407C15.3178 25.8208 15.2912 26.6868 15.2912 27.5365C15.2912 28.4638 15.3392 29.3791 15.389 30.3254L15.3895 30.3354C15.4387 31.2704 15.4896 32.2358 15.4896 33.2236V36.2825C15.4896 36.7239 15.5334 37.1696 15.5839 37.6767L15.5851 37.6896C15.6337 38.1775 15.688 38.7227 15.688 39.2861C15.688 40.2155 15.7589 41.1266 15.8337 42.0813L15.8352 42.1007C15.9087 43.0378 15.9856 44.0181 15.9856 45.0285C15.9856 45.3123 16.0246 45.6131 16.0758 45.9916L16.0799 46.0219C16.1269 46.3695 16.184 46.7907 16.184 47.2149V49H20.3969C20.8265 49 21.2618 48.9564 21.757 48.9058L21.7771 48.9037C22.2503 48.8554 22.7806 48.8012 23.3234 48.8012C23.922 48.8012 24.4776 48.7766 25.0568 48.751C25.4825 48.7321 25.9209 48.7127 26.3985 48.7021C27.1094 48.6863 27.8193 48.6476 28.5485 48.608C28.6595 48.602 28.7709 48.5959 28.8829 48.5899C29.7228 48.5448 30.586 48.5031 31.4581 48.5031H35.9002C37.1765 48.5031 38.4525 48.528 39.718 48.5528L39.7254 48.553C40.9966 48.5778 42.2574 48.6025 43.5168 48.6025C44.1319 48.6025 44.7522 48.515 45.4552 48.4139L45.4855 48.4095C46.1569 48.3129 46.9077 48.2049 47.6779 48.2049H49.2066C49.202 47.6857 49.1808 47.1691 49.1588 46.6341L49.1583 46.6243C49.1338 46.0293 49.1083 45.4112 49.1083 44.7797C49.1083 44.4497 49.0676 44.1122 49.0168 43.7044L49.0133 43.6767C48.9658 43.2959 48.9099 42.8479 48.9099 42.3889C48.9099 42.2346 48.8924 42.07 48.8665 41.8368L48.8648 41.8218C48.8411 41.6096 48.8107 41.337 48.8107 41.0527C48.8107 40.9246 48.8164 40.7955 48.8212 40.6876L48.8219 40.6712C48.8268 40.5634 48.8308 40.473 48.832 40.3847C48.8345 40.1902 48.8198 40.0958 48.8065 40.0529C48.7024 39.7192 48.6935 39.394 48.6882 39.2004L48.688 39.1927C48.6815 38.9562 48.678 38.87 48.6608 38.7967C48.5436 38.2974 48.4747 37.7308 48.4255 37.2869C48.3633 36.7259 48.3441 36.167 48.3265 35.6514L48.3238 35.5718C48.3048 35.0205 48.2849 34.5155 48.2232 34.0207C48.0818 32.8876 48.0838 31.7641 48.1172 30.6865C48.1289 30.3083 48.1441 29.9421 48.159 29.5824C48.1878 28.8904 48.2155 28.2228 48.2155 27.5417C48.2155 25.2589 48.2652 22.9626 48.3148 20.6787L48.3149 20.6719C48.3645 18.3819 48.4139 16.1043 48.4139 13.8429C48.4139 12.957 48.3132 12.0405 48.2081 11.0836C48.1866 10.888 48.1649 10.6907 48.1438 10.4916C48.1118 10.1887 48.0668 9.89063 48.0179 9.56684C47.9965 9.42508 47.9743 9.27839 47.9522 9.12423C47.883 8.64232 47.8187 8.11303 47.8187 7.58158C47.8187 6.50691 47.7942 5.42095 47.7693 4.31965L47.7693 4.31929C47.7528 3.587 47.7361 2.84797 47.7269 2.10777ZM13.2912 4.02729V8.57575C13.2912 8.96069 13.3224 9.34636 13.3558 9.70286C13.3647 9.79721 13.3736 9.88873 13.3823 9.97826C13.4078 10.2406 13.4317 10.4858 13.4475 10.7352C13.4899 11.4023 13.4584 11.9235 13.2853 12.3571C13.2191 12.523 13.1873 12.6975 13.1699 12.81C13.1498 12.9393 13.136 13.0749 13.1261 13.1974C13.1079 13.4218 13.0995 13.6461 13.0947 13.7729C13.0943 13.7844 13.0939 13.795 13.0935 13.8049C13.0807 14.1381 13.0852 14.496 13.0892 14.8199C13.091 14.967 13.0928 15.1071 13.0928 15.2346V16.1422C12.9423 16.2306 12.8133 16.3593 12.7238 16.5223C12.7172 16.5307 12.6993 16.5531 12.6643 16.5905C12.6005 16.6589 12.5125 16.7428 12.4101 16.8319C12.1912 17.0224 11.9913 17.1637 11.9234 17.2015C11.4525 17.4636 11.1426 17.9029 10.9728 18.1437C10.9638 18.1565 10.9552 18.1687 10.947 18.1802C10.7208 18.4993 10.6452 18.5841 10.5893 18.6191C10.2552 18.8284 9.95658 19.093 9.72885 19.2949C9.70868 19.3128 9.68906 19.3302 9.67002 19.347C9.40725 19.5791 9.22509 19.7303 9.04644 19.8297C8.8006 19.9665 8.59725 20.1404 8.44248 20.2846C8.34832 20.3724 8.2363 20.4846 8.14391 20.5771C8.1363 20.5847 8.12883 20.5922 8.12152 20.5996C7.88523 20.2702 7.61911 19.9335 7.31277 19.6266C6.99616 19.3094 6.65641 18.9826 6.22863 18.6794C6.2234 18.6741 6.20811 18.6583 6.18203 18.6261C6.14079 18.5752 6.10231 18.5217 6.04586 18.4433C6.0309 18.4226 6.01468 18.4001 5.99682 18.3754C5.92404 18.2748 5.81957 18.1323 5.69627 18.0002C5.57887 17.8745 5.39997 17.7087 5.15347 17.5931C5.14289 17.5816 5.12138 17.5563 5.08839 17.5083C5.05407 17.4583 5.02324 17.4083 4.97901 17.3367C4.96793 17.3188 4.956 17.2994 4.94297 17.2784C4.88627 17.187 4.8068 17.0606 4.71091 16.937C4.54537 16.7238 4.36107 16.5402 4.20554 16.392C4.13522 16.325 4.07575 16.2696 4.02163 16.2192C3.93884 16.1421 3.86856 16.0767 3.79104 15.999C3.51498 15.7225 3.21029 15.3484 2.93323 14.9951C2.73547 14.743 2.51127 14.5193 2.29636 14.3233C2.31288 14.3017 2.32913 14.2805 2.34508 14.2597C2.39836 14.1901 2.44831 14.1249 2.49389 14.0667C2.68126 13.8273 2.84364 13.6389 3.0243 13.4813C3.47144 13.0911 3.86354 12.7197 4.26706 12.2144C4.46807 11.9626 4.72896 11.7243 5.05692 11.446C5.11438 11.3972 5.17499 11.3464 5.23779 11.2937C5.50827 11.0668 5.81939 10.8059 6.09479 10.53C6.7866 9.83688 7.40576 9.24441 8.13367 8.71773C8.56209 8.40775 8.90483 8.05547 9.19318 7.74701C9.25061 7.68558 9.30533 7.62655 9.35813 7.56959C9.58558 7.32421 9.77762 7.11705 9.99818 6.92063C10.0888 6.83994 10.181 6.75823 10.2744 6.67551C10.6815 6.31496 11.1101 5.9353 11.5186 5.53771C11.6389 5.42064 11.7579 5.29772 11.8678 5.18385L11.8928 5.15799C11.9965 5.05047 12.0932 4.9503 12.1912 4.85295C12.4061 4.63953 12.5866 4.48147 12.7515 4.37529C12.7872 4.35228 12.8293 4.32573 12.8762 4.29611C12.9921 4.22294 13.1378 4.13101 13.2912 4.02729ZM19.5294 2.65373C19.5375 2.94048 19.5612 3.15773 19.6314 3.35861C19.6347 3.36803 19.6381 3.37771 19.6416 3.38765C19.6961 3.54358 19.7724 3.76176 19.8349 3.98671C19.8985 4.21573 19.9691 4.52386 19.9691 4.83504C19.9691 5.08903 20.0396 5.35153 20.1835 5.68491C20.2563 5.85358 20.3403 6.02403 20.4381 6.2212L20.4473 6.23978C20.539 6.42471 20.6429 6.63444 20.7377 6.85154C20.8464 7.10026 20.8937 7.34944 20.9201 7.48865C20.9216 7.49634 20.923 7.50369 20.9243 7.51069C20.9398 7.59139 20.9491 7.63863 20.9595 7.68028C20.9642 7.69892 20.9679 7.71173 20.9708 7.72037M19.5294 2.65373C20.6063 2.72634 21.6986 2.71465 22.7368 2.70354C23.1055 2.69959 23.4673 2.69572 23.8192 2.69572H26.883V3.3861C26.883 3.44425 26.8773 3.53201 26.8653 3.67415C26.8635 3.69569 26.8615 3.71843 26.8595 3.74216C26.8495 3.85853 26.8374 3.9987 26.8297 4.13659C26.8142 4.41586 26.7935 4.93674 26.9909 5.3818C27.0938 5.61363 27.2638 5.8823 27.5596 6.06889C27.8669 6.26269 28.1764 6.28403 28.3863 6.27137C28.545 6.2618 28.7101 6.22609 28.7898 6.20884C28.7998 6.20668 28.8084 6.20481 28.8156 6.20332C28.9124 6.18302 28.9597 6.17579 28.9987 6.17397C29.1456 6.16713 29.2765 6.16666 29.4304 6.16611C29.5687 6.16562 29.7255 6.16505 29.929 6.15974C30.2729 6.15077 30.7224 6.12655 31.1122 6.01497C31.6495 5.8612 32.2157 5.86671 32.9369 5.87373C33.0961 5.87528 33.2628 5.8769 33.4384 5.8769C33.5633 5.8769 33.8402 5.86673 34.1073 5.82415C34.2326 5.80418 34.4211 5.76743 34.6026 5.69092C34.6917 5.65335 34.8383 5.58213 34.978 5.45266C35.1268 5.31476 35.3164 5.06068 35.3305 4.6944C35.3564 4.01947 35.3486 3.52253 35.3401 2.98879C35.339 2.91521 35.3378 2.84094 35.3367 2.7654C35.7613 2.78193 36.1963 2.79511 36.6385 2.79511C37.3345 2.79511 38.0058 2.7559 38.6503 2.71215C38.7845 2.70304 38.9169 2.69379 39.0481 2.68461C39.5564 2.64909 40.0465 2.61484 40.546 2.59559C40.9157 2.58135 41.2834 2.53357 41.6017 2.49222C41.6377 2.48755 41.673 2.48295 41.7077 2.4785C42.0676 2.43224 42.3742 2.39756 42.6734 2.39756C42.986 2.39756 43.2902 2.37979 43.5722 2.36019C43.5348 2.56624 43.4987 2.77143 43.4677 2.94718C43.4439 3.08241 43.4232 3.20022 43.4073 3.28759C43.4035 3.30871 43.3821 3.37988 43.3051 3.52778C43.2694 3.59619 43.2293 3.66741 43.1822 3.74995L43.1647 3.78057C43.1244 3.85118 43.0775 3.93333 43.035 4.01233C42.9337 4.20076 42.8563 4.39165 42.8014 4.52719C42.7959 4.5406 42.7907 4.55347 42.7857 4.56574C42.7228 4.72015 42.6835 4.80919 42.6396 4.88336C42.5113 5.1003 42.4107 5.32372 42.3326 5.50055C42.3208 5.52718 42.3096 5.55272 42.2988 5.57729C42.2307 5.73183 42.1795 5.84819 42.122 5.95758C41.9483 6.28817 41.7295 6.6405 41.5049 6.96549C41.4619 7.02779 41.419 7.08985 41.3763 7.15167C40.8942 7.84998 40.4326 8.51863 39.9284 9.16812C39.8753 9.23651 39.7994 9.30939 39.6595 9.42657C39.6386 9.44405 39.6149 9.46363 39.589 9.48503C39.4678 9.58501 39.2985 9.7247 39.1477 9.87576C39.0055 10.0182 38.77 10.1822 38.5519 10.2914C38.2253 10.455 37.8799 10.6634 37.5785 10.8452C37.4535 10.9206 37.3361 10.9915 37.2307 11.0527C36.8275 11.2868 36.4896 11.4519 36.1579 11.535C35.7304 11.642 35.3029 11.7872 34.9245 11.9157C34.8067 11.9557 34.6937 11.9941 34.5869 12.0292C34.108 12.1867 33.6887 12.3034 33.262 12.3461C33.1681 12.3555 33.0649 12.3753 32.9582 12.413C32.8541 12.4499 32.7555 12.5006 32.665 12.5651C32.4822 12.5921 32.3184 12.6309 32.2258 12.6529C32.1969 12.6597 32.175 12.6649 32.1616 12.6676C31.6507 12.77 31.2103 12.8527 30.8227 12.8527C30.5158 12.8527 30.2198 12.8916 29.9923 12.9214L29.9674 12.9247C29.7149 12.9578 29.5354 12.9797 29.3647 12.9797C29.3248 12.9797 29.2856 12.9798 29.247 12.9798C28.7774 12.9802 28.4065 12.9805 28.0649 12.9183C27.4385 12.8042 26.8711 12.6116 26.333 12.3121C25.9976 12.1255 25.6549 11.9868 25.358 11.8717C25.2914 11.8459 25.2279 11.8215 25.1667 11.7981C24.9376 11.7102 24.7418 11.6352 24.5481 11.5464C24.3898 11.4739 24.2353 11.4272 24.1156 11.3949C24.0444 11.3756 23.9506 11.3528 23.8802 11.3358C23.8493 11.3282 23.8229 11.3218 23.8049 11.3173C23.7355 11.2998 23.6935 11.2874 23.667 11.2782C23.6019 11.2186 23.537 11.1501 23.4445 11.0525C23.4175 11.0241 23.3881 10.9931 23.3557 10.9592C23.2125 10.8091 23.0102 10.6024 22.7577 10.4273C22.5942 10.3139 22.441 10.1236 22.2363 9.78148C22.1972 9.71615 22.1528 9.63846 22.1039 9.55281C21.9419 9.26935 21.73 8.89864 21.4956 8.59975C21.2896 8.33707 21.1132 8.04368 20.9749 7.73181L20.9749 7.73177M23.6418 11.2684C23.6419 11.2684 23.6425 11.2687 23.6438 11.2693C23.6425 11.2687 23.6418 11.2684 23.6418 11.2684ZM33.3352 2.69699C33.257 2.69617 33.1787 2.69572 33.1003 2.69572H28.883V3.3861C28.883 3.54036 28.8695 3.70813 28.8582 3.84217C28.8559 3.86994 28.8536 3.89696 28.8513 3.92339C28.8435 4.01426 28.8363 4.09805 28.8308 4.18081C28.8552 4.17891 28.8802 4.17732 28.9056 4.17614C29.0593 4.16898 29.2871 4.1671 29.4988 4.16534C29.6412 4.16417 29.7764 4.16305 29.8769 4.16042C30.2131 4.15165 30.4381 4.12763 30.5619 4.09219C31.4078 3.85006 32.3265 3.86297 33.0512 3.87316C33.1544 3.87461 33.2538 3.876 33.3484 3.8766C33.3496 3.60575 33.3456 3.35944 33.3411 3.08768C33.339 2.96426 33.3369 2.83559 33.3352 2.69699ZM34.0148 14.0055C34.0201 13.9975 34.018 14.0017 34.0092 14.0139C34.0126 14.0088 34.0146 14.0058 34.0148 14.0055ZM4.22132 19.3521C4.22131 19.352 4.22237 19.3529 4.22449 19.355C4.22239 19.3532 4.22133 19.3521 4.22132 19.3521ZM50.4119 14.6497C50.4132 14.3806 50.4139 14.1117 50.4139 13.8429C50.4139 12.8366 50.2984 11.7897 50.1928 10.8327C50.1721 10.6451 50.1518 10.461 50.1328 10.2814C50.0958 9.93176 50.0402 9.56356 49.9885 9.22107C49.9686 9.08941 49.9493 8.96154 49.9319 8.83999C49.8655 8.37791 49.8187 7.96448 49.8187 7.58158C49.8187 6.48438 49.7937 5.37963 49.7691 4.2861L49.7688 4.27418C49.7601 3.88664 49.7514 3.50048 49.7438 3.11554C50.0585 3.35873 50.3972 3.62665 50.744 3.90606C51.8109 4.76548 52.8513 5.64817 53.2795 6.02997C54.0577 6.72395 54.95 7.42985 55.7953 8.03039C56.1068 8.25172 56.4145 8.48747 56.7398 8.73672C56.8119 8.79195 56.8848 8.84784 56.9589 8.90439C57.3582 9.20937 57.783 9.52815 58.2248 9.81717C58.7728 10.1756 59.3102 10.5789 59.8688 11.0063C59.954 11.0716 60.04 11.1375 60.1265 11.2039C60.5983 11.566 61.0885 11.9421 61.5876 12.2945C61.5899 12.2961 61.5921 12.2976 61.5944 12.2992C61.5539 12.3562 61.5121 12.4143 61.4686 12.4749L61.4628 12.483C61.3706 12.6113 61.2688 12.753 61.1754 12.8933C60.9897 13.1725 60.8109 13.4462 60.6346 13.7161C60.2916 14.2409 59.9583 14.7511 59.6024 15.2578C59.544 15.3409 59.4848 15.4265 59.4244 15.5138C59.2553 15.7578 59.0771 16.0152 58.883 16.2694C58.612 16.6245 58.3843 16.8716 58.2207 16.9914C57.7709 17.3207 57.371 17.7702 57.1027 18.2873C56.8544 18.7656 56.625 19.1851 56.3544 19.572C56.0983 19.3829 55.8213 19.2164 55.6158 19.1134C55.4019 19.0063 55.1914 18.8315 54.914 18.5611C54.8627 18.5112 54.8067 18.4553 54.7468 18.3954C54.5217 18.1708 54.2408 17.8904 53.9473 17.6617C53.8751 17.6054 53.804 17.5503 53.734 17.4958C53.1847 17.0694 52.6971 16.6909 52.2547 16.2477C52.1903 16.1832 52.1131 16.0988 52.0082 15.9842C51.9817 15.9553 51.9535 15.9244 51.9233 15.8915C51.7841 15.7399 51.6161 15.5593 51.4371 15.386C51.2608 15.2154 51.0512 15.0294 50.8237 14.8763C50.7131 14.8018 50.5739 14.7182 50.4119 14.6497Z" fill="#2C2C2C"/>
</svg>
