<svg width="49" height="44" viewBox="0 0 49 44" fill="none" xmlns="http://www.w3.org/2000/svg">
<path d="M30.0753 16.8179C31.0095 16.4661 31.9525 16.1316 32.8824 15.7624C34.9263 14.9546 36.9746 14.1467 39.0229 13.2997C39.7466 12.9957 40.4133 12.5656 41.1194 12.2138C42.3388 11.6101 44.0449 11.4581 44.9748 12.7133C45.5537 13.4951 45.3827 14.3291 44.466 14.7113C42.7905 15.4106 41.1063 16.0795 39.4132 16.7354C36.4877 17.8734 33.5535 18.9983 30.3911 20.2101C31.2683 20.5055 31.9218 20.7748 32.5841 20.9398C36.514 21.8983 40.4484 22.8408 44.3871 23.7674C45.2994 23.9846 46.2204 24.1714 47.1371 24.3625C47.7495 24.4918 48.2864 24.8536 48.6328 25.3702C48.9398 25.8045 49.1416 26.2389 48.8784 26.708C48.6152 27.1771 48.1459 27.6722 47.4485 27.5767C46.6196 27.4507 45.7994 27.2987 44.9748 27.1423C39.7597 26.1173 34.6324 24.7404 29.5051 23.3722C29.1805 23.2853 28.8516 23.2289 28.4963 23.1507C30.4832 25.1487 32.4438 27.0598 34.3429 29.0534C35.8386 30.6084 37.2728 32.2242 38.729 33.8313C39.0217 34.1744 39.2899 34.5372 39.5317 34.9171C39.6273 35.0608 39.6867 35.2252 39.7047 35.3963C39.7227 35.5675 39.6989 35.7405 39.6353 35.9006C39.5716 36.0607 39.47 36.2034 39.339 36.3164C39.208 36.4295 39.0514 36.5097 38.8825 36.5503C38.4388 36.705 37.9587 36.7261 37.5028 36.6109C37.0469 36.4957 36.6357 36.2494 36.3211 35.9031C35.286 34.7738 34.2333 33.6575 33.2026 32.5282C31.9613 31.1644 30.7332 29.7831 29.4963 28.415C29.3415 28.2731 29.179 28.1397 29.0095 28.0154C29.1323 28.6191 29.22 29.0317 29.299 29.4444C29.7727 31.8897 30.2376 34.3394 30.7376 36.7978C30.8911 37.5406 31.1762 38.2573 31.3955 38.9696C31.4876 39.2649 31.6192 39.5559 31.6938 39.8383C31.935 40.8069 31.3736 41.4888 30.3779 41.5757C29.2332 41.6582 28.6674 41.5018 28.1059 40.1032C27.3169 37.9905 26.7295 35.8093 26.3515 33.588C25.8515 31.0688 25.2901 28.5453 24.755 26.0565C24.7199 25.8914 24.6453 25.7307 24.5225 25.3702C24.3734 25.874 24.2638 26.1824 24.1936 26.5038C23.024 31.6726 21.8543 36.8413 20.6847 42.01C20.5575 42.5747 20.4216 43.1046 19.8777 43.3956C19.1847 43.7648 17.6496 43.0872 17.246 42.4139C16.7416 41.5713 16.9171 40.7808 17.1276 39.9338C17.6408 37.849 18.1233 35.7554 18.6145 33.6662C18.6849 33.3785 18.6696 33.0768 18.5706 32.7975C18.132 33.3187 17.6934 33.8313 17.2899 34.3655C15.7548 36.3896 14.2196 38.4136 12.7021 40.4464C12.0617 41.3151 11.4564 42.2098 10.895 43.1306C10.5178 43.7474 10.0178 44.1036 9.3204 43.9733C8.32477 43.7952 7.46071 43.0003 7.41685 42.2359C7.40629 41.9636 7.47807 41.6944 7.62299 41.4627C8.50021 40.0945 9.40812 38.7307 10.3424 37.3886C11.4871 35.7424 12.667 34.1223 13.8512 32.4935C15.2855 30.4911 16.7373 28.5018 18.1583 26.4951C18.4747 26.0398 18.69 25.5231 18.7899 24.9793C17.7504 25.4136 16.7022 25.8176 15.6802 26.2823C13.36 27.3421 11.0529 28.4323 8.73706 29.5008C8.27024 29.7358 7.78644 29.9362 7.28965 30.1002C5.69312 30.565 4.65801 30.1002 3.8422 28.593C4.22817 27.9763 4.88608 27.7243 5.50891 27.4333C8.35985 26.0565 11.2459 24.6361 14.1582 23.3331C15.553 22.6903 17.0004 22.1647 18.4215 21.5957C18.7802 21.4672 19.1054 21.2609 19.3733 20.992C18.4478 20.84 17.5267 20.6402 16.5925 20.5576C14.0881 20.2883 11.5836 19.9973 9.07478 19.8323C6.98263 19.6933 4.8817 19.6802 2.78516 19.6933C2.19729 19.7337 1.61421 19.5645 1.14125 19.2165C0.668284 18.8684 0.336614 18.3643 0.206146 17.7952C0.151353 17.6093 0.0824406 17.4278 0 17.2522C2.72375 16.1924 5.52645 16.5747 8.28968 16.6355C10.1231 16.6746 11.952 16.857 13.781 17.022C14.9444 17.1763 16.1162 17.2604 17.2899 17.274C16.8513 16.8917 16.4653 16.5008 16.0311 16.136C13.5705 14.0337 11.088 11.9358 8.58793 9.86835C7.71071 9.15603 6.87736 8.46542 6.59665 7.31874C6.87297 7.21015 7.15368 7.08419 7.44755 6.98864C7.80158 6.83665 8.1904 6.78185 8.57319 6.83C8.95598 6.87815 9.31862 7.02747 9.62304 7.26228C11.6275 8.82592 13.6933 10.3027 15.6627 11.9315C17.8557 13.734 20.0005 15.6321 22.3076 17.6084C22.176 17.135 22.097 16.7397 21.9698 16.4009C20.7417 12.9262 19.4742 9.48179 18.2899 5.97661C17.711 4.27397 17.2899 2.50184 16.7636 0.66455L18.1759 0C19.7461 0.286669 20.3689 1.27698 20.7856 2.60608C21.6628 5.45539 22.6584 8.25259 23.6146 11.0932C23.6804 11.2843 23.7857 11.4624 23.9523 11.8229C24.3076 10.6328 24.5708 9.6034 24.9173 8.60006C25.619 6.56732 26.3866 4.56064 27.0752 2.51921C27.2151 2.1651 27.4249 1.84213 27.6922 1.56919C27.9595 1.29624 28.2791 1.07878 28.6323 0.929502C28.9776 0.752091 29.3726 0.693364 29.7553 0.762554C30.138 0.831744 30.4866 1.02493 30.7464 1.31173C31.4262 1.94587 31.2552 2.69729 30.992 3.42699C30.5534 4.63013 30.0314 5.80721 29.6235 7.01904C28.9919 8.88673 28.4261 10.7805 27.8209 12.6916C27.9437 12.6916 28.0182 12.7264 28.0358 12.6916C29.5036 10.8818 30.9861 9.05902 32.4832 7.22318L34.7158 4.46074C34.8254 4.32609 35.0052 4.2175 35.0535 4.06548C35.4044 2.97962 36.4439 2.93184 37.286 2.63214C38.0185 2.37153 38.5492 2.88406 39.0404 3.34447C39.2445 3.54077 39.3748 3.80011 39.4099 4.07966C39.445 4.35922 39.3827 4.64227 39.2334 4.88206C39.0114 5.34423 38.7393 5.78115 38.422 6.1851C35.8342 9.3732 33.2289 12.5483 30.6323 15.7407C30.3955 16.0274 30.1937 16.3401 29.9744 16.6398L30.0753 16.8179Z" fill="#2C2C2C"/>
</svg>
