<svg width="180" height="31" viewBox="0 0 180 31" fill="none" xmlns="http://www.w3.org/2000/svg">
<path d="M114.955 0C115.758 0 116.41 0.638549 116.41 1.42624C116.41 2.63379 116.434 3.8453 116.458 5.07236L116.459 5.0815C116.483 6.30088 116.508 7.53577 116.508 8.76984C116.508 9.35378 116.572 9.94969 116.647 10.6356L116.65 10.6654C116.721 11.3182 116.802 12.0565 116.802 12.8099C116.802 13.1447 116.809 13.5085 116.817 13.8888V13.8986C116.834 14.7639 116.853 15.7134 116.793 16.5979C116.774 16.8739 116.755 17.1422 116.735 17.4052C116.668 18.3161 116.606 19.1626 116.606 20.0414C116.606 20.5098 116.581 21.033 116.558 21.5183V21.5194C116.546 21.7713 116.535 22.0129 116.528 22.2313C116.504 22.9322 116.514 23.5388 116.607 24.0716C116.772 25.0221 116.76 25.9805 116.719 26.8341C116.703 27.1514 116.685 27.4443 116.668 27.722L116.668 27.7229C116.635 28.2443 116.606 28.7123 116.606 29.1889C116.606 29.9766 115.954 30.6151 115.151 30.6151C114.347 30.6151 113.695 29.9766 113.695 29.1889C113.695 28.6272 113.734 28.0077 113.769 27.4335C113.785 27.1767 113.8 26.9289 113.811 26.6994C113.85 25.8971 113.849 25.1883 113.738 24.5503C113.595 23.7272 113.594 22.8888 113.619 22.1389C113.629 21.8289 113.643 21.5471 113.656 21.2799L113.656 21.2795L113.656 21.2789C113.676 20.8472 113.695 20.4538 113.695 20.0414C113.695 19.0493 113.768 18.0683 113.836 17.1415L113.837 17.1371L113.837 17.1342L113.839 17.1137L113.839 17.1061L113.84 17.0884C113.857 16.858 113.874 16.6311 113.889 16.4082C113.941 15.6447 113.926 14.9122 113.909 14.1179L113.909 14.1159V14.1061C113.901 13.695 113.891 13.2672 113.891 12.8099C113.891 12.2226 113.828 11.6247 113.753 10.9393L113.749 10.9051L113.749 10.9045C113.678 10.2535 113.597 9.51842 113.597 8.76984C113.597 7.56534 113.573 6.35539 113.549 5.12828L113.549 5.12365V5.11418C113.524 3.89635 113.499 2.66165 113.499 1.42624C113.499 0.638549 114.151 0 114.955 0Z" fill="#2C2C2C"/>
<path fill-rule="evenodd" clip-rule="evenodd" d="M4.67147 23.1155C4.58033 23.4992 4.48747 23.8901 4.38847 24.289C4.35918 24.4071 4.32949 24.5278 4.29931 24.6505C4.15838 25.2235 4.00668 25.8403 3.83464 26.4305C3.7034 26.8807 3.52597 27.3398 3.37581 27.7283C3.33279 27.8396 3.2919 27.9454 3.25508 28.0433C3.07347 28.5261 2.94914 28.9148 2.89685 29.2863C2.78704 30.0666 2.05264 30.6119 1.25651 30.5042C0.460383 30.3966 -0.0959863 29.6768 0.0138243 28.8965C0.110983 28.2061 0.327812 27.5792 0.524455 27.0565C0.581012 26.9062 0.63454 26.7674 0.685072 26.6365C0.824725 26.2745 0.941645 25.9715 1.03629 25.6468C1.19004 25.1194 1.32439 24.5735 1.46487 24.0027C1.49637 23.8747 1.5282 23.7454 1.5606 23.6148C1.64373 23.2799 1.7265 22.9309 1.81144 22.5727C2.10536 21.3333 2.4253 19.9843 2.87603 18.7287C3.42781 17.1917 3.87077 15.8194 4.08777 14.3306C4.37822 12.3378 4.80746 10.3374 5.5259 8.38136C5.63392 8.08727 5.73931 7.8138 5.83934 7.55425C6.13472 6.7878 6.38337 6.14261 6.51512 5.4453C6.73492 4.28198 7.10521 3.14139 7.7085 2.07705C8.07797 1.42522 8.68556 1.10713 9.15939 0.949057C9.63573 0.790145 10.138 0.736874 10.5552 0.718553C10.9839 0.699726 11.4087 0.715191 11.753 0.732119C11.8705 0.737894 11.973 0.743405 12.0635 0.748273C12.2692 0.759329 12.4132 0.76707 12.5308 0.76707C12.5587 0.76707 12.5893 0.766898 12.6223 0.766712C12.9158 0.76506 13.3957 0.762358 13.8457 0.870781C14.4569 1.01804 15.0218 1.35583 15.4506 1.96703C16.1203 2.92188 16.807 4.05005 17.0976 5.42671C17.1656 5.74895 17.2633 6.05998 17.385 6.44734C17.4009 6.49776 17.4171 6.54948 17.4338 6.60269C17.5697 7.03708 17.7277 7.55994 17.8144 8.13174C17.9936 9.31328 18.2428 10.5191 18.5018 11.7317C18.6355 12.3582 18.702 13.0438 18.7589 13.6308C18.7763 13.8104 18.7928 13.9809 18.8101 14.1375C18.8916 14.8767 18.9972 15.4508 19.2111 15.9299C19.8046 17.2597 20.2872 18.7217 20.6314 20.1085C20.719 20.4618 20.8457 20.8184 21.0022 21.2405L21.0498 21.3685C21.1887 21.742 21.349 22.1728 21.4778 22.6185C21.8954 24.063 22.1193 25.4866 22.2856 26.8999C22.3069 27.0802 22.3465 27.2631 22.4022 27.5201C22.4171 27.5886 22.4331 27.6624 22.4501 27.7428C22.5204 28.0734 22.6111 28.5276 22.6111 28.9953C22.6111 29.783 21.9596 30.4216 21.1559 30.4216C20.3522 30.4216 19.7007 29.783 19.7007 28.9953C19.7007 28.8498 19.6702 28.6504 19.601 28.3245C19.5911 28.278 19.58 28.2271 19.5681 28.1727C19.5098 27.9063 19.4332 27.556 19.3945 27.2268C19.236 25.8803 19.0339 24.6284 18.6777 23.3961C18.5798 23.0573 18.457 22.7268 18.313 22.3391L18.2668 22.2145C18.2374 22.1352 18.2073 22.0536 18.1768 21.9699H14.8332C14.4192 21.9699 13.95 21.9549 13.5094 21.9409C13.236 21.9322 12.9732 21.9238 12.7418 21.9196C12.073 21.9074 11.477 21.9213 10.9347 22.0018C10.2828 22.0986 9.61538 22.089 9.08592 22.0814C9.04007 22.0807 8.99522 22.0801 8.95154 22.0795C8.3482 22.0718 7.91046 22.0777 7.52966 22.1542C6.8303 22.2948 6.12531 22.3116 5.50864 22.3025C5.26312 22.2989 5.05751 22.2926 4.87017 22.286C4.8037 22.5589 4.73804 22.8353 4.67147 23.1155ZM9.37679 5.96471C9.53913 5.10552 9.79189 4.32771 10.16 3.63136C10.2696 3.60405 10.4413 3.5789 10.6855 3.56817C10.9714 3.55562 11.284 3.56512 11.6072 3.58102C11.6738 3.58429 11.7454 3.58816 11.8195 3.59215C12.0602 3.60515 12.3269 3.61955 12.5308 3.61955L12.6312 3.61947C12.7762 3.61929 12.8777 3.61917 12.9764 3.62342C13.0235 3.62545 13.0592 3.62821 13.0859 3.631C13.6714 4.4714 14.0795 5.20809 14.2476 6.00464C14.3458 6.46954 14.4872 6.91794 14.6049 7.29138C14.6209 7.3419 14.6364 7.39116 14.6513 7.43879C14.7849 7.86605 14.884 8.21007 14.9357 8.55115C15.1287 9.82339 15.3938 11.1014 15.6532 12.3161C15.7508 12.773 15.7951 13.228 15.8478 13.7691C15.8683 13.9793 15.89 14.2027 15.9166 14.4441C16.004 15.2361 16.1436 16.1745 16.5448 17.0733C16.8338 17.7208 17.0963 18.4137 17.3259 19.1174H14.8332C14.4426 19.1174 14.0843 19.1055 13.6991 19.0927C13.4197 19.0834 13.1261 19.0737 12.7959 19.0676C12.0749 19.0545 11.2853 19.0647 10.4987 19.1815C10.094 19.2416 9.65574 19.2359 9.06115 19.2282L8.98953 19.2273C8.41344 19.2199 7.67604 19.2129 6.94485 19.3599C6.59256 19.4308 6.18473 19.4542 5.7013 19.4518C6.23439 17.9533 6.72175 16.4293 6.96885 14.734C7.24178 12.8614 7.63382 11.0638 8.26419 9.34755C8.33525 9.15409 8.4159 8.94572 8.50109 8.72562C8.81594 7.91216 9.19281 6.93846 9.37679 5.96471Z" fill="#2C2C2C"/>
<path fill-rule="evenodd" clip-rule="evenodd" d="M27.4305 8.64658C28.2341 8.64658 28.8856 9.28512 28.8856 10.0728V12.9447C28.9195 12.9091 28.9493 12.8753 28.9765 12.8413C29.3389 12.3893 29.8037 12.0648 30.1167 11.8524C30.1988 11.7967 30.2724 11.7472 30.3392 11.7025L30.3399 11.7019C30.5804 11.5406 30.7308 11.4396 30.8626 11.3222C30.9043 11.285 30.9486 11.2451 30.9955 11.2029L30.996 11.2024C31.4193 10.8211 32.0477 10.2549 32.7807 9.89573C36.1596 8.23984 40.0373 9.55457 42.4476 11.639C43.8712 12.8702 44.5374 14.7148 44.5678 16.3868C44.5904 17.6221 44.5828 18.8736 44.5754 20.1045V20.1092C44.5717 20.7156 44.5681 21.3173 44.5681 21.9093C44.5681 23.1222 44.5432 24.3395 44.5188 25.5376L44.5187 25.5384L44.5187 25.539V25.5408C44.4942 26.7426 44.47 27.9251 44.47 29.0928C44.47 29.8805 43.8185 30.519 43.0149 30.519C42.2112 30.519 41.5597 29.8805 41.5597 29.0928C41.5597 27.8956 41.5844 26.6886 41.6087 25.4956L41.609 25.4805C41.6336 24.2777 41.6577 23.0889 41.6577 21.9093C41.6577 21.2805 41.6615 20.6607 41.6653 20.0458V20.0413C41.6726 18.8315 41.6799 17.6407 41.658 16.4377C41.639 15.3946 41.2131 14.3755 40.522 13.7779C38.6463 12.1557 36.0324 11.4913 34.0822 12.4471C33.7344 12.6175 33.408 12.9086 32.9127 13.3505L32.8203 13.4329C32.5233 13.6974 32.1615 13.9385 31.9082 14.1072C31.8588 14.1402 31.8134 14.1704 31.7735 14.1975C31.4638 14.4077 31.33 14.5225 31.265 14.6036C31.0025 14.9311 30.6938 15.2053 30.4833 15.3923L30.4375 15.4329C30.1925 15.6513 30.063 15.7749 29.9723 15.8949C29.7964 16.1278 29.6028 16.3123 29.4773 16.43L29.4257 16.4783L29.391 16.5108C29.3193 16.5777 29.2759 16.6182 29.2385 16.6569L29.23 16.6713C29.2157 16.696 29.2013 16.7217 29.1786 16.7625L29.1712 16.7758C29.1472 16.819 29.114 16.8783 29.0773 16.94C29.0397 17.0031 28.9775 17.1075 28.8856 17.228V21.9528C28.8856 22.6365 28.9514 23.3194 29.026 24.0803L29.0289 24.1099C29.1006 24.8414 29.1797 25.6483 29.1797 26.4785C29.1797 26.5584 29.1891 26.6954 29.2084 26.9397L29.2107 26.9693C29.2276 27.1824 29.2486 27.449 29.2587 27.7169C29.269 27.9934 29.2701 28.3196 29.2324 28.6378C29.1988 28.9217 29.1167 29.3779 28.8373 29.7887C28.3915 30.4441 27.488 30.6212 26.8193 30.1842C26.1932 29.7751 25.9949 28.9727 26.3382 28.3341C26.3393 28.3267 26.3404 28.3184 26.3415 28.3091C26.3544 28.1996 26.3584 28.0381 26.3503 27.8217C26.3425 27.6126 26.3254 27.3968 26.3076 27.17L26.3051 27.1387C26.2892 26.9376 26.2693 26.686 26.2693 26.4785C26.2693 25.7962 26.2036 25.1141 26.129 24.353L26.1263 24.3252C26.0545 23.5931 25.9753 22.7849 25.9753 21.9528V10.0728C25.9753 9.28512 26.6268 8.64658 27.4305 8.64658ZM26.3292 28.3816C26.3292 28.3816 26.3298 28.3779 26.3318 28.3712C26.3303 28.3785 26.3292 28.3816 26.3292 28.3816Z" fill="#2C2C2C"/>
<path fill-rule="evenodd" clip-rule="evenodd" d="M51.5921 0.9272C52.131 1.00432 52.605 1.24371 53.0084 1.57055C53.2433 1.76083 53.4236 2.01957 53.5482 2.2332C53.6841 2.46619 53.8071 2.7381 53.8953 3.02054C53.9816 3.29665 54.0495 3.62962 54.035 3.97184C54.0207 4.31034 53.9187 4.76357 53.5494 5.12547C53.2024 5.46563 52.7517 5.63909 52.37 5.72893C51.971 5.82284 51.5412 5.85062 51.1331 5.82602C50.7259 5.80148 50.2988 5.7223 49.9107 5.57269C49.538 5.42903 49.1021 5.18151 48.8132 4.75673C48.547 4.36537 48.3723 3.86632 48.5426 3.31521C48.5697 3.22744 48.6042 3.14491 48.6433 3.06778C48.6403 3.02512 48.6387 2.98336 48.6387 2.9428C48.6387 2.39851 48.8722 1.9727 49.2083 1.67079C49.4771 1.42929 49.807 1.27637 49.9996 1.18707L50.0172 1.17889C50.5149 0.947838 51.0484 0.849396 51.5921 0.9272ZM51.8581 3.75374C51.8837 3.73944 51.9087 3.72409 51.9329 3.70776C51.9351 3.71672 51.9371 3.7254 51.9389 3.73379C51.9224 3.73843 51.9043 3.74312 51.8846 3.74777L51.8742 3.75017L51.8581 3.75374Z" fill="#2C2C2C"/>
<path fill-rule="evenodd" clip-rule="evenodd" d="M125.935 1.57055C125.532 1.24371 125.058 1.00432 124.519 0.9272C123.975 0.849396 123.442 0.947838 122.944 1.17889L122.927 1.18707C122.734 1.27637 122.404 1.42929 122.135 1.67079C121.799 1.9727 121.566 2.39851 121.566 2.9428C121.566 2.98336 121.567 3.02512 121.57 3.06778C121.531 3.14491 121.497 3.22744 121.47 3.31521C121.299 3.86632 121.474 4.36537 121.74 4.75673C122.029 5.18151 122.465 5.42903 122.838 5.57269C123.226 5.7223 123.653 5.80148 124.06 5.82602C124.468 5.85062 124.898 5.82284 125.297 5.72893C125.679 5.63909 126.129 5.46563 126.476 5.12547C126.846 4.76357 126.948 4.31034 126.962 3.97184C126.977 3.62962 126.909 3.29665 126.822 3.02054C126.734 2.7381 126.611 2.46619 126.475 2.2332C126.351 2.01957 126.17 1.76083 125.935 1.57055ZM124.86 3.70776C124.836 3.72409 124.811 3.73944 124.785 3.75374C124.794 3.75181 124.803 3.74982 124.812 3.74777C124.831 3.74312 124.849 3.73843 124.866 3.73379L124.864 3.72369L124.862 3.71701L124.86 3.70776Z" fill="#2C2C2C"/>
<path d="M50.9534 9.2228C51.7571 9.2228 52.4086 9.86135 52.4086 10.649C52.4086 13.7964 52.433 16.9421 52.4575 20.0954L52.4576 20.096L52.4576 20.0969C52.4821 23.2488 52.5066 26.4083 52.5066 29.5738C52.5066 30.3614 51.8551 31 51.0514 31C50.2478 31 49.5963 30.3614 49.5963 29.5738C49.5963 26.421 49.5718 23.2723 49.5473 20.1186L49.5473 20.1123C49.5228 16.9625 49.4983 13.8075 49.4983 10.649C49.4983 9.86135 50.1498 9.2228 50.9534 9.2228Z" fill="#2C2C2C"/>
<path d="M125.336 10.649C125.336 9.86135 124.684 9.2228 123.88 9.2228C123.077 9.2228 122.425 9.86135 122.425 10.649C122.425 13.8061 122.45 16.9596 122.474 20.1081L122.474 20.1186V20.1355C122.499 23.2836 122.523 26.4266 122.523 29.5738C122.523 30.3614 123.175 31 123.978 31C124.782 31 125.434 30.3614 125.434 29.5738C125.434 26.4083 125.409 23.2488 125.385 20.0969V20.096C125.36 16.9425 125.336 13.7966 125.336 10.649Z" fill="#2C2C2C"/>
<path d="M58.9893 8.55107C59.793 8.55107 60.4445 9.18962 60.4445 9.97731V11.7953C61.606 10.696 63.037 9.82714 64.7664 9.51179C66.0304 9.2813 67.7879 9.21663 69.1972 9.61949C70.3994 9.96317 71.1083 10.5076 71.8334 11.2183C72.3813 11.7554 72.6953 12.402 72.8914 12.9921C73.0415 12.8638 73.1909 12.7425 73.3369 12.6276C73.67 12.3653 73.9511 12.1582 74.2093 11.9681C74.5534 11.7146 74.8567 11.4911 75.1879 11.2071C76.6833 9.92461 78.6507 9.50932 80.3334 9.50932C81.6746 9.50932 83.0311 9.99918 84.0941 10.8056C85.163 11.6164 86.0362 12.8294 86.2066 14.3325C86.5119 17.0259 86.613 19.6783 86.613 22.3672C86.613 23.0635 86.5877 23.7539 86.5634 24.4148L86.563 24.426C86.5384 25.0987 86.515 25.7413 86.515 26.3806C86.515 26.8915 86.4574 27.3825 86.4104 27.7842L86.4075 27.809C86.3567 28.2421 86.3189 28.5768 86.3189 28.8996C86.3189 29.6873 85.6674 30.3259 84.8638 30.3259C84.0601 30.3259 83.4086 29.6873 83.4086 28.8996C83.4086 28.4007 83.4654 27.9166 83.5119 27.5193L83.5161 27.4837C83.5666 27.053 83.6046 26.7126 83.6046 26.3806C83.6046 25.686 83.6299 24.9966 83.6541 24.3363L83.6546 24.3235C83.6792 23.6509 83.7027 23.0077 83.7027 22.3672C83.7027 19.7473 83.604 17.2055 83.3141 14.6475C83.2489 14.0724 82.9019 13.5082 82.3129 13.0613C81.718 12.6101 80.9788 12.3618 80.3334 12.3618C79.0644 12.3618 77.8849 12.6844 77.1043 13.3538C76.7284 13.6762 76.2403 14.0395 75.8082 14.361C75.564 14.5427 75.3376 14.7112 75.1596 14.8514C74.5662 15.3186 74.1357 15.7341 73.86 16.1844C73.7731 16.3263 73.665 16.4481 73.5421 16.5481C73.6764 17.5587 73.7733 18.593 73.7733 19.6719C73.7733 20.0821 73.7783 20.5102 73.7833 20.9479C73.7939 21.8615 73.8049 22.817 73.7725 23.7397C73.7438 24.5539 73.6872 25.3749 73.6324 26.1696L73.6316 26.1817C73.6201 26.3471 73.6088 26.5114 73.5979 26.6741C73.533 27.6364 73.4793 28.5634 73.4793 29.4758C73.4793 30.2635 72.8278 30.902 72.0241 30.902C71.2205 30.902 70.569 30.2635 70.569 29.4758C70.569 28.4627 70.6285 27.4558 70.6939 26.4862C70.7055 26.3141 70.7172 26.1436 70.7289 25.9743L70.7298 25.9612C70.7844 25.1683 70.837 24.404 70.8639 23.6414C70.8941 22.7822 70.8842 21.945 70.8739 21.073V21.0572C70.8685 20.6074 70.863 20.1482 70.863 19.6719C70.863 18.3378 70.6895 17.0478 70.4661 15.6245C70.4486 15.5131 70.4323 15.4055 70.4165 15.3014L70.4156 15.2958L70.4153 15.2936C70.3468 14.8419 70.2878 14.453 70.1849 14.077C70.0608 13.6237 69.9159 13.373 69.7755 13.2354C69.2599 12.7301 68.9593 12.5228 68.3823 12.3579C67.5598 12.1228 66.2975 12.134 65.2987 12.3161C63.2869 12.683 61.6461 14.3749 60.464 16.5139C60.46 16.5211 60.456 16.5282 60.4519 16.5353C60.4717 17.3051 60.5281 18.0829 60.5878 18.8997L60.5892 18.9197L60.5893 18.9202C60.6618 19.9126 60.7385 20.9637 60.7385 22.0334C60.7385 22.8053 60.6866 23.5542 60.6384 24.2486L60.6372 24.2672C60.5876 24.9817 60.5425 25.6398 60.5425 26.3029V29.1902C60.5425 29.9779 59.891 30.6165 59.0873 30.6165C58.2837 30.6165 57.6322 29.9779 57.6322 29.1902V26.3029C57.6322 25.5357 57.6839 24.7896 57.7319 24.0968L57.7335 24.0738C57.783 23.3597 57.8282 22.6998 57.8282 22.0334C57.8282 21.0751 57.759 20.118 57.6849 19.1033L57.683 19.0772C57.6106 18.0867 57.5341 17.0395 57.5341 15.976V9.97731C57.5341 9.18962 58.1856 8.55107 58.9893 8.55107Z" fill="#2C2C2C"/>
<path d="M153.831 9.97731C153.831 9.18962 153.18 8.55107 152.376 8.55107C151.573 8.55107 150.921 9.18962 150.921 9.97731V15.976C150.921 17.0395 150.998 18.0867 151.07 19.0772L151.072 19.1033C151.146 20.118 151.215 21.0751 151.215 22.0334C151.215 22.6998 151.17 23.3597 151.121 24.0738L151.119 24.0968C151.071 24.7896 151.019 25.5357 151.019 26.3029V29.1902C151.019 29.9779 151.671 30.6165 152.474 30.6165C153.278 30.6165 153.93 29.9779 153.93 29.1902V26.3029C153.93 25.6398 153.975 24.9817 154.024 24.2672L154.025 24.2486C154.074 23.5542 154.126 22.8053 154.126 22.0334C154.126 20.9636 154.049 19.9123 153.976 18.9197L153.975 18.8997C153.915 18.0829 153.859 17.3051 153.839 16.5353C153.843 16.5282 153.847 16.5211 153.851 16.5139C155.033 14.3749 156.674 12.683 158.686 12.3161C159.684 12.134 160.947 12.1228 161.769 12.3579C162.346 12.5228 162.647 12.7301 163.162 13.2354C163.303 13.373 163.448 13.6237 163.572 14.077C163.675 14.453 163.734 14.8419 163.802 15.2936C163.818 15.4002 163.835 15.5103 163.853 15.6245C164.077 17.0478 164.25 18.3378 164.25 19.6719C164.25 20.153 164.256 20.6166 164.261 21.0708C164.271 21.9436 164.281 22.7815 164.251 23.6414C164.224 24.4038 164.171 25.1679 164.117 25.9605V25.961C164.105 26.1345 164.093 26.3096 164.081 26.4862C164.016 27.4558 163.956 28.4627 163.956 29.4758C163.956 30.2635 164.607 30.902 165.411 30.902C166.215 30.902 166.866 30.2635 166.866 29.4758C166.866 28.5634 166.92 27.6364 166.985 26.6741C166.994 26.533 167.004 26.3907 167.014 26.2475L167.019 26.182L167.019 26.1696C167.074 25.3749 167.131 24.5539 167.16 23.7397C167.192 22.817 167.181 21.8615 167.17 20.9479L167.17 20.9454C167.165 20.5086 167.16 20.0814 167.16 19.6719C167.16 18.593 167.063 17.5587 166.929 16.5481C167.052 16.4481 167.16 16.3263 167.247 16.1844C167.523 15.7341 167.953 15.3186 168.547 14.8514C168.725 14.7112 168.951 14.5428 169.195 14.361C169.627 14.0395 170.115 13.6763 170.491 13.3538C171.272 12.6844 172.451 12.3618 173.72 12.3618C174.366 12.3618 175.105 12.6101 175.7 13.0613C176.289 13.5082 176.636 14.0724 176.701 14.6475C176.991 17.2055 177.09 19.7473 177.09 22.3672C177.09 23.0077 177.066 23.6509 177.042 24.3235L177.041 24.3363C177.017 24.9966 176.992 25.686 176.992 26.3806C176.992 26.7126 176.954 27.053 176.903 27.4837L176.899 27.5193C176.852 27.9166 176.796 28.4008 176.796 28.8996C176.796 29.6873 177.447 30.3259 178.251 30.3259C179.054 30.3259 179.706 29.6873 179.706 28.8996C179.706 28.5768 179.744 28.2421 179.794 27.809L179.797 27.7842C179.844 27.3825 179.902 26.8915 179.902 26.3806C179.902 25.7413 179.925 25.0987 179.95 24.426L179.95 24.4148L179.951 24.4142C179.975 23.7536 180 23.0633 180 22.3672C180 19.6783 179.899 17.0259 179.594 14.3325C179.423 12.8294 178.55 11.6164 177.481 10.8056C176.418 9.99918 175.062 9.50932 173.72 9.50932C172.038 9.50932 170.07 9.92461 168.575 11.2071C168.244 11.4911 167.94 11.7145 167.596 11.9681L167.596 11.9684C167.338 12.1584 167.057 12.3656 166.724 12.6276C166.578 12.7425 166.429 12.8638 166.278 12.9921C166.082 12.402 165.768 11.7554 165.22 11.2183C164.495 10.5076 163.786 9.96317 162.584 9.61949C161.175 9.21663 159.417 9.2813 158.153 9.51179C156.424 9.82714 154.993 10.696 153.831 11.7953V9.97731Z" fill="#2C2C2C"/>
<path fill-rule="evenodd" clip-rule="evenodd" d="M100.132 11.6901C99.1221 11.6901 98.3668 11.7562 97.5551 12.0362C97.3716 12.0995 97.173 12.2125 96.8605 12.42C96.8201 12.4468 96.7762 12.4764 96.7291 12.5081C96.4632 12.6872 96.0964 12.9343 95.7082 13.1246C94.8443 13.5479 93.9952 14.2825 93.146 15.1149C92.5777 15.6719 91.6563 15.6719 91.088 15.1149C90.5198 14.5579 90.5198 13.6549 91.088 13.0979C91.9655 12.2379 93.0938 11.2166 94.4066 10.5732C94.5997 10.4786 94.7735 10.3623 95.0389 10.1847L95.0413 10.1831L95.1468 10.1125C95.1732 10.095 95.2003 10.0769 95.2285 10.0582C95.5635 9.83586 96.026 9.5396 96.5891 9.34539C97.8519 8.90992 98.9857 8.83759 100.132 8.83759C101.693 8.83759 103.114 9.20635 104.439 10.3432C105.35 11.1243 105.87 12.0355 106.296 12.8708C106.318 12.9134 106.344 12.9623 106.374 13.0171C106.596 13.4322 107 14.1859 107 15.0724C107 15.4338 107.068 15.8069 107.17 16.3319L107.179 16.3791C107.272 16.854 107.392 17.4699 107.392 18.1198C107.392 18.4422 107.43 18.7779 107.48 19.2098L107.484 19.2394C107.531 19.6381 107.588 20.1258 107.588 20.6281V25.1485C107.588 25.5304 107.592 25.9376 107.65 26.2983C107.678 26.4746 107.713 26.5971 107.744 26.6727L107.748 26.682C107.756 26.6866 107.766 26.6919 107.778 26.6976C107.845 26.7306 107.935 26.7668 108.043 26.8003C108.274 26.8723 108.476 26.8977 108.561 26.8977C108.851 26.8977 109.134 26.9292 109.332 26.9513L109.364 26.9548C109.592 26.9801 109.732 26.9938 109.857 26.9938C110.661 26.9938 111.312 27.6323 111.312 28.42C111.312 29.2077 110.661 29.8463 109.857 29.8463C109.551 29.8463 109.26 29.8139 109.055 29.7912L109.037 29.7892C108.802 29.7632 108.672 29.7502 108.561 29.7502C108.108 29.7502 107.604 29.6565 107.163 29.5195C106.742 29.3885 106.196 29.1625 105.769 28.7863C105.073 28.1725 104.861 27.2833 104.774 26.7387C104.719 26.3896 104.695 26.0381 104.685 25.7329C104.644 25.763 104.605 25.792 104.566 25.8204L104.565 25.8211C104.398 25.9433 104.248 26.0533 104.09 26.1834C103.983 26.2708 103.901 26.3456 103.841 26.4082C103.792 26.4588 103.772 26.4869 103.768 26.4924L103.768 26.4934L103.769 26.4913C103.421 27.0871 102.842 27.3854 102.612 27.5039L102.596 27.5122C102.57 27.5255 102.547 27.5373 102.526 27.5479L102.483 27.5698L102.434 27.5945C102.376 27.6237 102.338 27.6427 102.288 27.6707C102.278 27.6764 102.27 27.6811 102.264 27.6849C102.009 27.9294 101.739 28.1313 101.534 28.2829L101.459 28.3389C101.262 28.4843 101.128 28.5837 101.007 28.6903C100.379 29.2443 99.4707 29.5434 99.0446 29.6771C98.9476 29.7075 98.8903 29.7301 98.8083 29.7623C98.7304 29.7929 98.6302 29.8324 98.4524 29.8957C98.1993 29.9858 97.7942 30.1177 97.3408 30.1336C97.2404 30.1371 97.1284 30.1441 96.9843 30.1531L96.904 30.158C96.7316 30.1687 96.5272 30.1806 96.3171 30.1853C95.9342 30.1939 95.365 30.1862 94.8358 30.0133C93.9022 29.7083 93.1642 29.389 92.2951 28.7197C91.7963 28.3356 91.5013 27.8507 91.3292 27.5629C91.3026 27.5184 91.2784 27.4777 91.2563 27.4406C91.0997 27.1778 91.0451 27.0862 90.972 27.0088C90.3634 26.3646 90.2623 25.5662 90.2413 25.0824C90.23 24.8209 90.2402 24.5694 90.2498 24.3741C90.2521 24.3273 90.2542 24.2846 90.2562 24.2452C90.2637 24.0997 90.2688 23.9994 90.2688 23.9051C90.2688 23.1141 90.555 22.3461 90.724 21.8929L90.7484 21.8272C90.7648 21.783 90.7817 21.7362 90.7994 21.6872L90.7999 21.6858C90.9966 21.1403 91.2927 20.3188 92.1537 19.6625C92.6379 19.2934 93.135 19.0999 93.5194 18.9693C93.681 18.9144 93.808 18.8741 93.9168 18.8396C94.1083 18.7789 94.2434 18.7361 94.4109 18.6631C95.0645 18.3784 95.7296 18.2797 96.2652 18.2255C96.5343 18.1983 96.7442 18.1827 96.9304 18.1689C97.1847 18.1501 97.3946 18.1345 97.6502 18.097C98.6124 17.9555 99.5716 17.9594 100.415 17.9628C100.541 17.9633 100.664 17.9638 100.785 17.9638H104.477C104.461 17.6526 104.399 17.3166 104.311 16.8662L104.303 16.8237C104.21 16.3467 104.09 15.7278 104.09 15.0724C104.09 15.0208 104.079 14.9456 104.019 14.8005C103.967 14.6729 103.91 14.5637 103.824 14.3995L103.823 14.3981C103.786 14.3266 103.743 14.2448 103.693 14.1465C103.308 13.3904 102.992 12.8926 102.523 12.49C101.837 11.9016 101.148 11.6901 100.132 11.6901ZM104.678 20.8163L100.641 20.8161L100.385 20.8155C99.5251 20.8132 98.8074 20.8112 98.0819 20.9179C97.7489 20.9668 97.3272 21.0002 96.9838 21.0273C96.8202 21.0402 96.6743 21.0518 96.5642 21.0629C96.122 21.1077 95.8223 21.1698 95.5929 21.2697C95.2799 21.4061 94.915 21.5224 94.6649 21.6021L94.6643 21.6023C94.5882 21.6266 94.5223 21.6476 94.4723 21.6646C94.1959 21.7584 94.0513 21.8296 93.9405 21.9141C93.7776 22.0382 93.7443 22.0992 93.4835 22.8021C93.2786 23.3543 93.1791 23.6698 93.1791 23.9051C93.1791 24.0784 93.1692 24.2699 93.1613 24.4215C93.1597 24.4531 93.1581 24.483 93.1568 24.5106C93.1478 24.6949 93.1436 24.8371 93.149 24.9612C93.1528 25.049 93.1608 25.1044 93.1668 25.1355C93.4498 25.4526 93.6629 25.8176 93.7888 26.0333C93.8081 26.0663 93.8253 26.0958 93.8404 26.1211C94.0039 26.3945 94.0656 26.4555 94.0931 26.4767C94.6175 26.8806 95.0241 27.068 95.7561 27.3072C95.7618 27.3086 95.8013 27.3185 95.8873 27.3259C95.9827 27.3342 96.1027 27.3368 96.2506 27.3335C96.398 27.3302 96.5524 27.3216 96.7213 27.3112L96.7915 27.3068C96.9316 27.2981 97.0893 27.2882 97.2327 27.2831L97.2318 27.283C97.2318 27.283 97.233 27.2827 97.2356 27.2821C97.2517 27.2788 97.317 27.2651 97.4588 27.2146C97.5297 27.1893 97.5974 27.1634 97.6812 27.1313L97.7596 27.1014C97.8697 27.0594 98.0111 27.0063 98.1576 26.9603C98.3566 26.8979 98.5629 26.826 98.7456 26.7446C98.9421 26.657 99.0356 26.5914 99.0598 26.5701C99.2823 26.3738 99.5254 26.1947 99.709 26.0594C99.7339 26.0411 99.7577 26.0235 99.7802 26.0069C99.994 25.8485 100.133 25.7397 100.24 25.6344C100.455 25.4238 100.686 25.2827 100.843 25.195C100.949 25.1351 101.087 25.0656 101.175 25.0212C101.202 25.0076 101.225 24.9961 101.24 24.9883C101.258 24.9789 101.274 24.9705 101.288 24.9629C101.302 24.9556 101.314 24.9491 101.325 24.9431C101.593 24.5376 101.955 24.215 102.219 23.9982C102.444 23.8132 102.703 23.6234 102.891 23.4859C102.952 23.4409 103.006 23.4016 103.048 23.3698C103.458 23.0627 103.78 22.7521 104.221 22.3202C104.356 22.1874 104.512 22.0863 104.678 22.0168V20.8163Z" fill="#2C2C2C"/>
<path d="M137.373 8.64658C135.897 8.64658 133.84 8.94684 132.446 10.3132C132.405 10.353 132.346 10.403 132.219 10.5119L132.204 10.5246C132.086 10.6245 131.923 10.765 131.764 10.9234C131.51 11.1786 130.941 11.7892 130.941 12.6666C130.941 12.8936 130.922 13.1297 130.897 13.4356L130.896 13.4536C130.872 13.7372 130.843 14.0841 130.843 14.4438L130.843 14.4653C130.843 14.8436 130.843 15.4253 130.935 16.0031C131.026 16.5687 131.235 17.3531 131.829 17.9688C132.117 18.268 132.487 18.5077 132.763 18.6693C133.063 18.8449 133.371 18.9966 133.613 19.1044C133.784 19.1807 133.958 19.2582 134.132 19.3362L134.148 19.3432C134.769 19.6212 135.407 19.9064 136.033 20.1747C136.114 20.2093 136.224 20.2598 136.352 20.3185C136.692 20.4742 137.157 20.6875 137.529 20.8136C137.838 20.9183 138.166 20.9697 138.348 20.9983L138.349 20.9984L138.35 20.9985C138.37 21.0017 138.388 21.0045 138.405 21.0072C138.594 21.0378 138.654 21.0543 138.665 21.0573L138.667 21.0578L138.666 21.0573C138.919 21.1675 139.158 21.2152 139.335 21.2397C139.5 21.2624 139.659 21.2705 139.753 21.2753L139.766 21.2759C139.857 21.2806 139.903 21.2834 139.933 21.2863C140.337 21.4431 140.74 21.5085 140.992 21.5495L141.012 21.5527C141.333 21.605 141.466 21.6292 141.572 21.6678C141.778 21.7426 142.017 21.8197 142.234 21.89C142.31 21.9147 142.384 21.9386 142.453 21.9613C142.743 22.0564 143.005 22.1481 143.241 22.2497C143.76 22.4723 143.923 22.6474 143.964 22.7211C144.349 23.412 144.386 24.134 144.115 24.6971C143.721 25.5185 143.227 26.0064 142.44 26.3493C142.028 26.5287 141.566 26.6795 141.092 26.8017C141.014 26.8219 140.912 26.8297 140.591 26.8427L140.57 26.8436C140.309 26.854 139.862 26.872 139.406 27.0118C139.219 27.0691 138.893 27.0932 138.429 27.0373C137.985 26.9837 137.52 26.8705 137.115 26.7484C136.715 26.6278 136.457 26.4778 136.022 26.2247C135.876 26.1402 135.711 26.0442 135.514 25.934C135.405 25.8727 135.244 25.7372 134.988 25.4541C134.934 25.3943 134.865 25.3146 134.786 25.2244C134.593 25.0022 134.344 24.7162 134.133 24.5094C133.905 24.2861 133.533 23.713 133.306 23.2683C132.946 22.5637 132.072 22.2782 131.354 22.6304C130.635 22.9827 130.343 23.8394 130.703 24.5439C130.971 25.0694 131.511 25.9734 132.075 26.5264C132.21 26.6582 132.316 26.7809 132.455 26.942L132.455 26.9426C132.551 27.0538 132.663 27.1833 132.811 27.3467C133.104 27.6707 133.525 28.1054 134.07 28.4106C134.168 28.4655 134.273 28.5271 134.385 28.5928L134.386 28.593C134.874 28.8796 135.495 29.2444 136.259 29.4748C136.761 29.6262 137.403 29.7876 138.074 29.8684C138.724 29.9468 139.521 29.965 140.274 29.7344C140.327 29.7181 140.418 29.7046 140.711 29.6928L140.769 29.6905C141.01 29.6815 141.422 29.6661 141.833 29.5603C142.418 29.4094 143.034 29.212 143.622 28.9559C145.101 28.3118 146.082 27.2994 146.749 25.9117C147.487 24.3737 147.259 22.6852 146.519 21.3552C146 20.4231 145.082 19.926 144.409 19.6369C143.973 19.4499 143.396 19.2614 142.986 19.1278C142.815 19.0719 142.673 19.0255 142.583 18.9929C142.196 18.8522 141.796 18.7882 141.547 18.7483L141.488 18.7388C141.189 18.69 141.074 18.6628 140.998 18.6316C140.749 18.5288 140.515 18.4843 140.34 18.4614C140.182 18.4407 140.028 18.4329 139.935 18.4282L139.918 18.4274C139.868 18.4248 139.833 18.4228 139.807 18.4211C139.792 18.4201 139.78 18.4192 139.771 18.4183C139.426 18.2809 139.082 18.2256 138.891 18.1949L138.878 18.1926C138.607 18.149 138.534 18.136 138.481 18.118C138.248 18.039 138.047 17.9459 137.793 17.8281C137.626 17.7508 137.436 17.6629 137.2 17.5614C136.597 17.3028 135.987 17.0301 135.368 16.7538C135.185 16.6719 135.002 16.5898 134.817 16.5076C134.654 16.4351 134.446 16.3317 134.256 16.2207C134.162 16.1657 134.084 16.1149 134.023 16.0713C133.974 16.0364 133.951 16.0156 133.945 16.0102L133.944 16.0089C133.934 15.9939 133.862 15.8816 133.811 15.5619C133.757 15.2254 133.754 14.8488 133.754 14.4438C133.754 14.2109 133.773 13.971 133.798 13.6666L133.8 13.6417C133.818 13.4278 133.838 13.1781 133.847 12.9157C133.914 12.8487 133.997 12.7759 134.114 12.6769L134.148 12.6475C134.246 12.5646 134.386 12.4457 134.504 12.3302C135.063 11.7813 136.133 11.4991 137.373 11.4991C138.736 11.4991 140.179 11.8051 141.124 12.4463C141.314 12.5749 141.542 12.7098 141.703 12.8045L141.704 12.8049C141.759 12.8378 141.807 12.8657 141.841 12.8868C142.018 12.9951 142.119 13.0694 142.198 13.1467C142.465 13.4082 142.764 13.7104 143.021 14.0169C143.299 14.3471 143.434 14.5747 143.474 14.6833C143.744 15.4251 144.577 15.8117 145.333 15.5467C146.09 15.2818 146.485 14.4657 146.214 13.7239C146 13.1366 145.6 12.599 145.269 12.2043C144.917 11.7859 144.535 11.4033 144.256 11.1297C143.948 10.8281 143.633 10.6201 143.38 10.4659C143.265 10.3954 143.177 10.3437 143.101 10.2992C142.983 10.2298 142.895 10.1782 142.781 10.101C141.164 9.00375 139.053 8.64658 137.373 8.64658Z" fill="#2C2C2C"/>
</svg>
