<svg width="335" height="321" viewBox="0 0 335 321" fill="none" xmlns="http://www.w3.org/2000/svg">
<path d="M25.4995 226.3C30.2448 226.2 34.2784 224.421 38.4057 222.81C40.7025 221.913 42.2746 219.937 41.2229 217.666C40.716 216.572 40.1372 215.49 39.8239 214.559C39.0936 212.388 38.1946 210.36 36.8382 208.434C34.6408 205.313 31.5647 201.691 27.8013 200.047C22.098 197.555 15.9885 202.59 13.9109 206.921C13.4492 207.883 13.3928 209.657 12.3256 210.235C10.873 211.022 8.47515 212.369 8.33612 214.101C8.10293 217.005 11.4484 219.916 13.7555 221.466C17.068 223.692 21.2852 226.388 25.4995 226.3Z" stroke="#2C2C2C" stroke-width="2" stroke-linecap="round"/>
<path d="M36.7197 185.692C35.7659 187.834 33.8561 191.457 31.4923 193.101C30.769 193.604 29.8344 192.989 29.7632 192.084C29.4589 188.219 29.7185 183.461 33.451 181.645C36.3378 180.24 37.573 183.777 36.7197 185.692Z" stroke="#2C2C2C" stroke-width="2" stroke-linecap="round"/>
<path d="M19.6789 187.479C20.9846 185.294 20.6212 182.984 20.3095 180.507C20.2688 180.183 20.0115 179.906 19.6972 179.78C18.8172 179.429 17.6903 178.762 17.0117 178.935C13.6431 179.793 13.7468 184.151 15.3044 186.647C16.4969 188.558 18.4744 189.495 19.6789 187.479Z" stroke="#2C2C2C" stroke-width="2" stroke-linecap="round"/>
<path d="M8.05809 197.121C9.00845 194.612 7.49945 190.854 7.02391 188.338C6.4365 187.108 4.81942 187.274 3.62722 187.705C1.034 188.642 0.451616 191.081 1.48038 193.635C2.2945 195.657 6.66766 200.791 8.05809 197.121Z" stroke="#2C2C2C" stroke-width="2" stroke-linecap="round"/>
<path d="M50.2518 196.776C47.4229 194.674 43.9073 195.701 41.296 197.205C39.4774 198.252 38.5209 200.535 39.7953 202.376C41.3754 204.658 44.301 205.613 47.5627 205.154C51.1994 204.643 53.653 199.304 50.2518 196.776Z" stroke="#2C2C2C" stroke-width="2" stroke-linecap="round"/>
<path d="M103.774 140.81C107.808 143.311 112.16 144.016 116.499 144.913C118.913 145.412 121.308 144.611 121.663 142.134C121.833 140.94 121.937 139.717 122.181 138.766C122.751 136.547 123.101 134.357 123.013 132.002C122.869 128.188 122.262 123.475 120.001 120.046C116.575 114.849 108.709 115.744 104.608 118.244C103.697 118.8 102.684 120.257 101.474 120.161C99.8267 120.03 97.0824 119.853 96.0229 121.229C94.2457 123.538 95.4661 127.802 96.5569 130.359C98.1231 134.03 100.192 138.588 103.774 140.81Z" stroke="#2C2C2C" stroke-width="2" stroke-linecap="round"/>
<path d="M135.297 112.865C133.331 114.142 129.756 116.14 126.879 116.231C125.998 116.259 125.549 115.234 125.982 114.436C127.832 111.03 130.64 107.18 134.76 107.69C137.946 108.084 137.056 111.724 135.297 112.865Z" stroke="#2C2C2C" stroke-width="2" stroke-linecap="round"/>
<path d="M120.032 105.081C122.318 103.96 123.27 101.825 124.358 99.5772C124.5 99.2835 124.436 98.9109 124.24 98.6344C123.694 97.8601 123.112 96.6874 122.448 96.4626C119.156 95.3469 116.87 99.0584 116.817 102.001C116.776 104.253 117.924 106.116 120.032 105.081Z" stroke="#2C2C2C" stroke-width="2" stroke-linecap="round"/>
<path d="M105.036 106.837C107.199 105.251 107.98 101.277 108.952 98.9079C109.129 97.5563 107.682 96.8151 106.447 96.5271C103.762 95.9005 101.946 97.6285 101.418 100.331C101 102.47 101.871 109.158 105.036 106.837Z" stroke="#2C2C2C" stroke-width="2" stroke-linecap="round"/>
<path d="M140.61 129.532C139.383 126.228 135.875 125.174 132.866 125.013C130.77 124.901 128.725 126.295 128.792 128.532C128.874 131.307 130.808 133.702 133.793 135.094C137.121 136.646 142.086 133.505 140.61 129.532Z" stroke="#2C2C2C" stroke-width="2" stroke-linecap="round"/>
<path d="M100.516 268.71C103.419 272.466 107.248 274.651 110.998 277.011C113.085 278.324 115.608 278.412 116.808 276.216C117.386 275.158 117.911 274.049 118.473 273.243C119.783 271.365 120.879 269.435 121.62 267.199C122.821 263.576 123.902 258.949 122.985 254.945C121.596 248.878 113.914 246.961 109.198 247.866C108.15 248.067 106.691 249.077 105.591 248.563C104.095 247.863 101.586 246.737 100.112 247.655C97.6384 249.195 97.2886 253.616 97.4151 256.393C97.5967 260.38 97.9381 265.375 100.516 268.71Z" stroke="#2C2C2C" stroke-width="2" stroke-linecap="round"/>
<path d="M139.827 253.577C137.539 254.084 133.491 254.704 130.764 253.781C129.929 253.498 129.868 252.381 130.552 251.786C133.477 249.242 137.456 246.621 141.136 248.541C143.983 250.026 141.874 253.123 139.827 253.577Z" stroke="#2C2C2C" stroke-width="2" stroke-linecap="round"/>
<path d="M128.255 240.939C130.788 240.689 132.428 239.023 134.234 237.299C134.47 237.073 134.54 236.702 134.454 236.374C134.213 235.458 134.078 234.155 133.536 233.712C130.843 231.514 127.402 234.19 126.322 236.927C125.495 239.023 125.918 241.17 128.255 240.939Z" stroke="#2C2C2C" stroke-width="2" stroke-linecap="round"/>
<path d="M113.593 237.331C116.175 236.603 118.298 233.154 120.037 231.275C120.677 230.072 119.581 228.87 118.525 228.168C116.23 226.641 113.923 227.623 112.482 229.97C111.342 231.827 109.816 238.397 113.593 237.331Z" stroke="#2C2C2C" stroke-width="2" stroke-linecap="round"/>
<path d="M138.968 271.049C138.975 267.525 136.059 265.309 133.297 264.104C131.373 263.265 128.969 263.854 128.248 265.973C127.354 268.601 128.326 271.521 130.635 273.871C133.209 276.491 138.96 275.287 138.968 271.049Z" stroke="#2C2C2C" stroke-width="2" stroke-linecap="round"/>
<path d="M11.7295 306.188C13.7506 310.483 17.0161 313.445 20.1665 316.561C21.9196 318.295 24.3643 318.927 26.0108 317.043C26.8043 316.134 27.557 315.165 28.2801 314.501C29.9656 312.95 31.4525 311.304 32.6602 309.281C34.6168 306.004 36.674 301.72 36.6451 297.613C36.6013 291.389 29.5171 287.854 24.7169 287.717C23.6501 287.687 22.0067 288.357 21.0444 287.617C19.7346 286.61 17.5293 284.967 15.8911 285.544C13.1433 286.512 11.845 290.753 11.3676 293.492C10.6821 297.423 9.93453 302.373 11.7295 306.188Z" stroke="#2C2C2C" stroke-width="2" stroke-linecap="round"/>
<path d="M53.3837 299.923C51.04 299.923 46.9537 299.651 44.491 298.16C43.7373 297.704 43.919 296.6 44.7163 296.167C48.1224 294.317 52.5742 292.619 55.7516 295.29C58.2092 297.356 55.4806 299.924 53.3837 299.923Z" stroke="#2C2C2C" stroke-width="2" stroke-linecap="round"/>
<path d="M44.8206 285.08C47.3478 285.384 49.3096 284.113 51.4458 282.82C51.725 282.651 51.8735 282.303 51.8603 281.965C51.8236 281.018 51.974 279.718 51.5402 279.168C49.3867 276.439 45.4481 278.306 43.8014 280.745C42.5407 282.612 42.4893 284.799 44.8206 285.08Z" stroke="#2C2C2C" stroke-width="2" stroke-linecap="round"/>
<path d="M31.2872 278.384C33.9653 278.232 36.7845 275.324 38.8892 273.866C39.7738 272.829 38.9639 271.42 38.0855 270.506C36.1747 268.517 33.7103 268.977 31.7956 270.956C30.2803 272.522 27.3691 278.606 31.2872 278.384Z" stroke="#2C2C2C" stroke-width="2" stroke-linecap="round"/>
<path d="M48.7639 316.796C49.5336 313.356 47.1659 310.561 44.7298 308.787C43.0332 307.552 40.559 307.606 39.3963 309.519C37.9547 311.891 38.2723 314.953 40.0176 317.746C41.9636 320.861 47.8386 320.931 48.7639 316.796Z" stroke="#2C2C2C" stroke-width="2" stroke-linecap="round"/>
<path d="M216.98 131.04C221.726 130.941 225.759 129.162 229.886 127.55C232.183 126.654 233.755 124.677 232.704 122.406C232.197 121.312 231.618 120.23 231.305 119.299C230.574 117.128 229.675 115.1 228.319 113.174C226.122 110.054 223.045 106.431 219.282 104.787C213.579 102.296 207.469 107.331 205.392 111.661C204.93 112.623 204.874 114.397 203.806 114.976C202.354 115.763 199.956 117.109 199.817 118.841C199.584 121.746 202.929 124.657 205.236 126.207C208.549 128.432 212.766 131.129 216.98 131.04Z" stroke="#2C2C2C" stroke-width="2" stroke-linecap="round"/>
<path d="M228.2 90.4329C227.247 92.5742 225.337 96.1974 222.973 97.8411C222.25 98.3441 221.315 97.7291 221.244 96.8244C220.94 92.9599 221.199 88.2016 224.932 86.385C227.819 84.98 229.054 88.5173 228.2 90.4329Z" stroke="#2C2C2C" stroke-width="2" stroke-linecap="round"/>
<path d="M211.16 92.2197C212.465 90.0344 212.102 87.7247 211.79 85.2472C211.749 84.9234 211.492 84.6463 211.178 84.5207C210.298 84.169 209.171 83.5026 208.492 83.6754C205.124 84.533 205.228 88.8911 206.785 91.3876C207.978 93.2989 209.955 94.2356 211.16 92.2197Z" stroke="#2C2C2C" stroke-width="2" stroke-linecap="round"/>
<path d="M199.539 101.861C200.489 99.3527 198.98 95.5942 198.505 93.0782C197.917 91.8482 196.3 92.0147 195.108 92.4456C192.515 93.3828 191.932 95.8215 192.961 98.3759C193.775 100.397 198.148 105.532 199.539 101.861Z" stroke="#2C2C2C" stroke-width="2" stroke-linecap="round"/>
<path d="M241.733 101.517C238.904 99.4143 235.388 100.441 232.777 101.945C230.958 102.993 230.002 105.276 231.276 107.116C232.856 109.398 235.782 110.353 239.043 109.895C242.68 109.384 245.134 104.044 241.733 101.517Z" stroke="#2C2C2C" stroke-width="2" stroke-linecap="round"/>
<path d="M295.255 45.5501C299.289 48.0514 303.641 48.7566 307.979 49.6536C310.394 50.1528 312.789 49.3516 313.143 46.8741C313.314 45.6802 313.418 44.4575 313.662 43.506C314.232 41.2878 314.582 39.097 314.493 36.7427C314.35 32.9287 313.742 28.2153 311.482 24.7864C308.055 19.5899 300.189 20.4848 296.089 22.9847C295.178 23.5403 294.164 24.9974 292.954 24.9011C291.307 24.77 288.563 24.5932 287.504 25.9697C285.726 28.2786 286.947 32.5425 288.038 35.0991C289.604 38.77 291.672 43.3286 295.255 45.5501Z" stroke="#2C2C2C" stroke-width="2" stroke-linecap="round"/>
<path d="M326.778 17.6059C324.812 18.8821 321.237 20.8805 318.36 20.9714C317.479 20.9992 317.03 19.9744 317.463 19.1769C319.312 15.77 322.121 11.9208 326.241 12.4304C329.427 12.8246 328.537 16.4641 326.778 17.6059Z" stroke="#2C2C2C" stroke-width="2" stroke-linecap="round"/>
<path d="M311.513 9.82182C313.798 8.7003 314.751 6.56526 315.839 4.31767C315.981 4.02391 315.916 3.65138 315.721 3.37487C315.175 2.60056 314.592 1.42781 313.929 1.20304C310.637 0.0873466 308.351 3.79887 308.298 6.74106C308.257 8.99358 309.405 10.8564 311.513 9.82182Z" stroke="#2C2C2C" stroke-width="2" stroke-linecap="round"/>
<path d="M296.517 11.5779C298.68 9.99157 299.461 6.01745 300.432 3.64834C300.61 2.29673 299.163 1.55559 297.928 1.26752C295.243 0.640922 293.426 2.36894 292.898 5.07162C292.48 7.21038 293.352 13.8988 296.517 11.5779Z" stroke="#2C2C2C" stroke-width="2" stroke-linecap="round"/>
<path d="M332.091 34.2728C330.863 30.9686 327.356 29.9146 324.347 29.7537C322.251 29.6417 320.206 31.0352 320.272 33.2729C320.355 36.0474 322.288 38.4421 325.274 39.8344C328.602 41.3867 333.567 38.2453 332.091 34.2728Z" stroke="#2C2C2C" stroke-width="2" stroke-linecap="round"/>
<path d="M291.997 173.451C294.899 177.207 298.728 179.391 302.478 181.751C304.565 183.065 307.089 183.153 308.289 180.956C308.867 179.898 309.392 178.789 309.954 177.983C311.264 176.105 312.359 174.176 313.101 171.94C314.302 168.317 315.383 163.689 314.466 159.685C313.076 153.618 305.395 151.701 300.679 152.606C299.631 152.808 298.172 153.818 297.072 153.304C295.575 152.604 293.067 151.477 291.592 152.395C289.119 153.935 288.769 158.357 288.896 161.134C289.077 165.121 289.419 170.115 291.997 173.451Z" stroke="#2C2C2C" stroke-width="2" stroke-linecap="round"/>
<path d="M331.308 158.317C329.02 158.824 324.971 159.444 322.244 158.521C321.41 158.239 321.348 157.122 322.033 156.526C324.958 153.983 328.937 151.361 332.617 153.282C335.464 154.767 333.355 157.864 331.308 158.317Z" stroke="#2C2C2C" stroke-width="2" stroke-linecap="round"/>
<path d="M319.736 145.68C322.269 145.43 323.909 143.763 325.715 142.039C325.951 141.814 326.02 141.442 325.934 141.115C325.694 140.198 325.559 138.896 325.016 138.453C322.323 136.255 318.882 138.93 317.802 141.668C316.976 143.763 317.399 145.91 319.736 145.68Z" stroke="#2C2C2C" stroke-width="2" stroke-linecap="round"/>
<path d="M305.074 142.072C307.656 141.344 309.779 137.895 311.518 136.016C312.157 134.812 311.062 133.611 310.006 132.909C307.71 131.381 305.404 132.364 303.963 134.71C302.822 136.567 301.297 143.137 305.074 142.072Z" stroke="#2C2C2C" stroke-width="2" stroke-linecap="round"/>
<path d="M330.449 175.79C330.456 172.265 327.54 170.049 324.777 168.844C322.854 168.006 320.45 168.594 319.729 170.714C318.834 173.341 319.807 176.262 322.116 178.611C324.69 181.231 330.44 180.028 330.449 175.79Z" stroke="#2C2C2C" stroke-width="2" stroke-linecap="round"/>
<path d="M203.21 210.928C205.231 215.224 208.497 218.185 211.647 221.301C213.4 223.035 215.845 223.668 217.492 221.783C218.285 220.875 219.038 219.906 219.761 219.241C221.446 217.691 222.933 216.044 224.141 214.022C226.098 210.745 228.155 206.461 228.126 202.354C228.082 196.129 220.998 192.595 216.198 192.458C215.131 192.427 213.487 193.097 212.525 192.358C211.215 191.35 209.01 189.707 207.372 190.285C204.624 191.253 203.326 195.494 202.848 198.232C202.163 202.164 201.415 207.114 203.21 210.928Z" stroke="#2C2C2C" stroke-width="2" stroke-linecap="round"/>
<path d="M244.864 204.664C242.521 204.663 238.434 204.392 235.972 202.901C235.218 202.444 235.4 201.34 236.197 200.907C239.603 199.057 244.055 197.359 247.232 200.031C249.69 202.097 246.961 204.664 244.864 204.664Z" stroke="#2C2C2C" stroke-width="2" stroke-linecap="round"/>
<path d="M236.301 189.82C238.829 190.125 240.79 188.853 242.927 187.561C243.206 187.392 243.354 187.044 243.341 186.706C243.304 185.759 243.455 184.458 243.021 183.908C240.867 181.179 236.929 183.046 235.282 185.485C234.021 187.352 233.97 189.54 236.301 189.82Z" stroke="#2C2C2C" stroke-width="2" stroke-linecap="round"/>
<path d="M222.768 183.124C225.446 182.972 228.265 180.065 230.37 178.607C231.255 177.57 230.445 176.16 229.566 175.246C227.655 173.258 225.191 173.718 223.276 175.697C221.761 177.263 218.85 183.347 222.768 183.124Z" stroke="#2C2C2C" stroke-width="2" stroke-linecap="round"/>
<path d="M240.245 221.536C241.014 218.096 238.647 215.302 236.211 213.528C234.514 212.292 232.04 212.347 230.877 214.26C229.435 216.631 229.753 219.693 231.498 222.487C233.444 225.602 239.319 225.672 240.245 221.536Z" stroke="#2C2C2C" stroke-width="2" stroke-linecap="round"/>
</svg>
