<svg width="133" height="20" viewBox="0 0 133 20" fill="none" xmlns="http://www.w3.org/2000/svg">
<path d="M92.0975 8.8584C92.0975 8.8584 92.4351 10.512 92.5111 10.8584H91.0271L91.7383 8.9248C91.7295 8.9384 91.8847 8.52 91.9735 8.2624L92.0975 8.8584ZM96.8039 2.1336V17.7784C96.8037 18.3442 96.5789 18.8868 96.1788 19.2868C95.7787 19.6869 95.2361 19.9118 94.6703 19.912H73.3367C72.7709 19.9118 72.2284 19.6869 71.8283 19.2868C71.4282 18.8868 71.2033 18.3442 71.2031 17.7784V2.1336C71.2033 1.5678 71.4282 1.02523 71.8283 0.625151C72.2284 0.22507 72.7709 0.00021203 73.3367 0H94.6703C95.2361 0.00021203 95.7787 0.22507 96.1788 0.625151C96.5789 1.02523 96.8037 1.5678 96.8039 2.1336ZM77.9815 13.2984L80.7903 6.4008H78.9015L77.1551 11.112L76.9639 10.1568L76.3415 6.9832C76.2391 6.5432 75.9239 6.4184 75.5327 6.4008H72.6575L72.6263 6.5384C73.2848 6.69994 73.9164 6.95592 74.5015 7.2984L76.0927 13.2984H77.9815ZM82.1775 13.3072L83.2975 6.4008H81.5111L80.3959 13.3072H82.1775ZM88.3951 11.0496C88.4039 10.2632 87.9239 9.6632 86.8975 9.1696C86.2711 8.8536 85.8887 8.6408 85.8887 8.316C85.8975 8.0224 86.2135 7.72 86.9151 7.72C87.3721 7.70711 87.8262 7.79677 88.2439 7.9824L88.4039 8.0576L88.6487 6.564C88.138 6.36849 87.5956 6.26895 87.0487 6.2704C85.2839 6.2704 84.0439 7.2128 84.0351 8.5544C84.0215 9.5456 84.9239 10.0968 85.5999 10.4296C86.2887 10.7672 86.5247 10.9896 86.5247 11.2872C86.5159 11.7496 85.9647 11.9624 85.4535 11.9624C84.7423 11.9624 84.3599 11.8512 83.7775 11.5936L83.5423 11.4824L83.2935 13.0336C83.7111 13.2248 84.4847 13.3936 85.2847 13.4024C87.1599 13.4064 88.3823 12.4776 88.3959 11.0472L88.3951 11.0496ZM94.6703 13.3072L93.2303 6.4008H91.8479C91.4215 6.4008 91.0967 6.5256 90.9143 6.9744L88.2607 13.308H90.1359C90.1359 13.308 90.4423 12.4544 90.5095 12.2728H92.8031C92.8567 12.5176 93.0167 13.308 93.0167 13.308L94.6703 13.3072Z" fill="#2C2C2C"/>
<path d="M8.2808 10.0536C8.2808 10.596 7.8496 11.0088 7.3032 11.0088C6.8944 11.0088 6.592 10.7776 6.592 10.3424C6.592 9.8 7.0144 9.3648 7.5568 9.3648C7.9704 9.3648 8.2808 9.6184 8.2808 10.0536ZM3.5784 7.8984H3.3696C3.3032 7.8984 3.236 7.9432 3.2272 8.0184L3.036 9.2056L3.4008 9.192C3.8896 9.192 4.2672 9.1256 4.356 8.5608C4.4584 7.9648 4.0808 7.8984 3.5784 7.8984ZM16.2008 7.8984H16.0008C15.9208 7.8984 15.8672 7.9432 15.8584 8.0184L15.672 9.2056L16.0272 9.192C16.6048 9.192 17.0048 9.0584 17.0048 8.392C17 7.9208 16.5792 7.8984 16.2008 7.8984ZM25.6008 2.1336V17.7784C25.6006 18.3442 25.3757 18.8868 24.9756 19.2868C24.5756 19.6869 24.033 19.9118 23.4672 19.912H2.1336C1.5678 19.9118 1.02523 19.6869 0.625151 19.2868C0.225069 18.8868 0.00021203 18.3442 0 17.7784V2.1336C0.00021203 1.5678 0.225069 1.02523 0.625151 0.625151C1.02523 0.22507 1.5678 0.00021203 2.1336 0H23.4672C24.033 0.00021203 24.5756 0.22507 24.9756 0.625151C25.3757 1.02523 25.6006 1.5678 25.6008 2.1336ZM5.7032 8.1512C5.7032 7.2176 4.9832 6.9064 4.1608 6.9064H2.3832C2.32578 6.90684 2.27051 6.92835 2.22789 6.96684C2.18528 7.00532 2.15827 7.05812 2.152 7.1152L1.4232 11.6528C1.4096 11.7416 1.4768 11.8304 1.5656 11.8304H2.4104C2.5304 11.8304 2.6416 11.7016 2.6552 11.5768L2.8552 10.3944C2.9 10.0744 3.4416 10.1856 3.6552 10.1856C4.9264 10.1856 5.704 9.4304 5.704 8.1504L5.7032 8.1512ZM9.4456 8.5424H8.6008C8.432 8.5424 8.4232 8.7872 8.4144 8.9072C8.1568 8.5296 7.7832 8.4624 7.3608 8.4624C6.272 8.4624 5.4408 9.4176 5.4408 10.4712C5.4408 11.3376 5.9832 11.9024 6.8496 11.9024C7.2496 11.9024 7.7472 11.6848 8.0272 11.3736C8.00134 11.4635 7.9863 11.5561 7.9824 11.6496C7.9824 11.752 8.0272 11.8272 8.1248 11.8272H8.8896C9.0096 11.8272 9.112 11.6984 9.1344 11.5736L9.588 8.716C9.6016 8.6312 9.5344 8.5424 9.4456 8.5424ZM11.2456 12.8936L14.0768 8.7776C14.0992 8.7552 14.0992 8.7328 14.0992 8.7024C14.0992 8.6272 14.0328 8.5472 13.9568 8.5472H13.1032C13.0635 8.54877 13.0247 8.55964 12.9899 8.57896C12.9552 8.59828 12.9255 8.62549 12.9032 8.6584L11.7256 10.392L11.2368 8.7256C11.2184 8.67491 11.1853 8.6309 11.1416 8.59924C11.098 8.56758 11.0459 8.54973 10.992 8.548H10.1608C10.0848 8.548 10.0184 8.628 10.0184 8.7032C10.0184 8.7568 10.8848 11.228 10.9608 11.4632C10.8408 11.632 10.0496 12.7344 10.0496 12.868C10.0496 12.948 10.116 13.0104 10.192 13.0104H11.0456C11.0855 13.0078 11.1243 12.996 11.159 12.9761C11.1937 12.9561 11.2233 12.9284 11.2456 12.8952V12.8936ZM18.3256 8.1512C18.3256 7.2176 17.6056 6.9064 16.7832 6.9064H15.0184C14.9593 6.90593 14.902 6.92678 14.857 6.96513C14.8121 7.00349 14.7825 7.05677 14.7736 7.1152L14.0536 11.6488C14.0448 11.7376 14.1112 11.8264 14.196 11.8264H15.1072C15.196 11.8264 15.2624 11.76 15.2848 11.684L15.4848 10.3952C15.5296 10.0752 16.072 10.1864 16.2848 10.1864C17.5472 10.1864 18.3256 9.4312 18.3256 8.1512ZM22.0672 8.5424H21.2224C21.0536 8.5424 21.0448 8.7872 21.0312 8.9072C20.7864 8.5296 20.4088 8.4624 19.9776 8.4624C18.8888 8.4624 18.0576 9.4176 18.0576 10.4712C18.0576 11.3376 18.6 11.9024 19.4664 11.9024C19.88 11.9024 20.3776 11.6848 20.644 11.3736C20.6304 11.44 20.5992 11.5824 20.5992 11.6496C20.5992 11.752 20.644 11.8272 20.7416 11.8272H21.5104C21.6304 11.8272 21.7328 11.6984 21.7552 11.5736L22.2088 8.716C22.2224 8.6312 22.156 8.5424 22.0672 8.5424ZM24.1784 7.0624C24.1784 6.9736 24.112 6.9072 24.036 6.9072H23.2136C23.1472 6.9072 23.08 6.9608 23.0712 7.0272L22.3512 11.6496L22.3384 11.672C22.3384 11.752 22.4048 11.8272 22.4936 11.8272H23.2272C23.3384 11.8272 23.4496 11.6984 23.4584 11.5736L24.1784 7.076V7.0624ZM20.1784 9.3648C19.636 9.3648 19.2136 9.796 19.2136 10.3424C19.2136 10.7736 19.5248 11.0088 19.9336 11.0088C20.4672 11.0088 20.8984 10.6 20.8984 10.0536C20.9032 9.6184 20.592 9.3648 20.1784 9.3648Z" fill="#2C2C2C"/>
<path d="M49.0336 8.3288C49.0336 9.0936 48.5672 9.5336 47.7448 9.5336H46.6648V7.1248H47.7496C48.5672 7.1248 49.0336 7.56 49.0336 8.3288ZM51.1448 11.1112C51.1448 11.48 51.4648 11.72 51.9672 11.72C52.6072 11.72 53.0872 11.316 53.0872 10.7464V10.404L52.0424 10.4704C51.4512 10.5104 51.1448 10.7288 51.1448 11.1112ZM61.2024 2.1336V17.7784C61.2021 18.3442 60.9773 18.8868 60.5772 19.2868C60.1771 19.6869 59.6346 19.9118 59.0688 19.912H37.7352C37.1694 19.9118 36.6268 19.6869 36.2267 19.2868C35.8266 18.8868 35.6018 18.3442 35.6016 17.7784V2.1336C35.6018 1.5678 35.8266 1.02523 36.2267 0.625151C36.6268 0.225069 37.1694 0.00021203 37.7352 0H59.0688C59.6346 0.00021203 60.1771 0.225069 60.5772 0.625151C60.9773 1.02523 61.2021 1.5678 61.2024 2.1336ZM41.2824 7.3864C41.656 7.4176 42.0288 7.2 42.2648 6.924C42.496 6.6392 42.6472 6.2576 42.6072 5.8704C42.2784 5.884 41.8696 6.088 41.6336 6.3728C41.42 6.6176 41.2384 7.0128 41.2824 7.3864ZM43.976 10.6976C43.9672 10.6888 43.1048 10.36 43.096 9.364C43.0872 8.5328 43.776 8.1328 43.8072 8.1104C43.416 7.5328 42.8112 7.4704 42.6024 7.4568C42.06 7.4256 41.5976 7.7632 41.34 7.7632C41.0776 7.7632 40.6864 7.4696 40.26 7.4792C39.9816 7.4866 39.71 7.56678 39.4722 7.71177C39.2344 7.85676 39.0388 8.0615 38.9048 8.3056C38.3224 9.3104 38.7536 10.7944 39.3184 11.612C39.5936 12.016 39.9272 12.4608 40.3632 12.4432C40.776 12.4256 40.9408 12.1768 41.4384 12.1768C41.9408 12.1768 42.0832 12.4432 42.5184 12.4392C42.972 12.4304 43.252 12.0352 43.532 11.6304C43.8384 11.168 43.9672 10.724 43.9768 10.6968L43.976 10.6976ZM49.9936 8.3248C49.9936 7.1424 49.1712 6.3336 47.9976 6.3336H45.7224V12.396H46.6648V10.3248H47.9672C49.1584 10.3248 49.9936 9.5072 49.9936 8.3248ZM53.9936 9.3776C53.9936 8.5024 53.2912 7.9376 52.216 7.9376C51.216 7.9376 50.4784 8.5112 50.4512 9.2928H51.3C51.3712 8.9192 51.7176 8.6752 52.1888 8.6752C52.7664 8.6752 53.0864 8.9416 53.0864 9.44V9.7736L51.9128 9.8448C50.8192 9.9112 50.2288 10.3608 50.2288 11.1384C50.2288 11.9248 50.8376 12.4448 51.7128 12.4448C52.304 12.4448 52.8504 12.1472 53.0992 11.6712H53.1168V12.4H53.988V9.3776H53.9936ZM58.536 7.9952H57.5808L56.4744 11.5776H56.4568L55.3504 7.9952H54.3592L55.9544 12.4088L55.8704 12.6752C55.728 13.1288 55.4928 13.3064 55.0752 13.3064C54.983 13.3047 54.891 13.3002 54.7992 13.2928V14.0216C54.8528 14.0392 55.088 14.044 55.1592 14.044C56.0792 14.044 56.5104 13.6928 56.888 12.6304L58.536 7.9952Z" fill="#2C2C2C"/>
<path d="M128.267 16.8438C128.267 17.1473 128.062 17.3661 127.769 17.3661C127.467 17.3661 127.271 17.1339 127.271 16.8438C127.271 16.5536 127.467 16.3214 127.769 16.3214C128.062 16.3214 128.267 16.5536 128.267 16.8438ZM114.454 16.3214C114.138 16.3214 113.956 16.5536 113.956 16.8438C113.956 17.1339 114.138 17.3661 114.454 17.3661C114.742 17.3661 114.938 17.1473 114.938 16.8438C114.934 16.5536 114.742 16.3214 114.454 16.3214ZM119.676 16.308C119.436 16.308 119.289 16.4643 119.254 16.6964H120.102C120.062 16.442 119.907 16.308 119.676 16.308ZM124.467 16.3214C124.165 16.3214 123.982 16.5536 123.982 16.8438C123.982 17.1339 124.165 17.3661 124.467 17.3661C124.769 17.3661 124.965 17.1473 124.965 16.8438C124.965 16.5536 124.769 16.3214 124.467 16.3214ZM129.174 17.4866C129.174 17.5 129.187 17.5089 129.187 17.5357C129.187 17.5491 129.174 17.558 129.174 17.5848C129.16 17.5982 129.16 17.6071 129.151 17.6205C129.138 17.6339 129.129 17.6429 129.102 17.6429C129.089 17.6563 129.08 17.6562 129.054 17.6562C129.04 17.6562 129.031 17.6563 129.005 17.6429C128.991 17.6429 128.982 17.6295 128.969 17.6205C128.956 17.6071 128.947 17.5982 128.947 17.5848C128.934 17.5625 128.934 17.5491 128.934 17.5357C128.934 17.5134 128.934 17.5 128.947 17.4866C128.947 17.4643 128.96 17.4509 128.969 17.4375C128.982 17.4241 128.991 17.4241 129.005 17.4152C129.027 17.4018 129.04 17.4018 129.054 17.4018C129.076 17.4018 129.089 17.4018 129.102 17.4152C129.125 17.4286 129.138 17.4286 129.151 17.4375C129.165 17.4464 129.16 17.4643 129.174 17.4866ZM129.076 17.5491C129.098 17.5491 129.098 17.5357 129.111 17.5357C129.125 17.5223 129.125 17.5134 129.125 17.5C129.125 17.4866 129.125 17.4777 129.111 17.4643C129.098 17.4643 129.089 17.4509 129.062 17.4509H128.991V17.6071H129.027V17.5446H129.04L129.089 17.6071H129.125L129.076 17.5491ZM132.405 2.14286V17.8571C132.405 19.0402 131.449 20 130.271 20H108.938C107.76 20 106.805 19.0402 106.805 17.8571V2.14286C106.805 0.959821 107.76 0 108.938 0H130.271C131.449 0 132.405 0.959821 132.405 2.14286ZM109.649 8.375C109.649 11.7902 112.409 14.558 115.805 14.558C117.014 14.558 118.2 14.192 119.205 13.5268C115.965 10.8795 115.987 5.88393 119.205 3.23661C118.2 2.56696 117.014 2.20536 115.805 2.20536C112.409 2.20089 109.649 4.97321 109.649 8.375ZM119.605 13.2321C122.738 10.7768 122.725 5.99107 119.605 3.52232C116.485 5.99107 116.471 10.7812 119.605 13.2321ZM113.28 16.6384C113.28 16.25 113.027 15.9955 112.627 15.9821C112.422 15.9821 112.205 16.0446 112.058 16.2723C111.951 16.0893 111.769 15.9821 111.516 15.9821C111.347 15.9821 111.178 16.0446 111.045 16.2232V16.0268H110.68V17.6652H111.045C111.045 16.8214 110.934 16.317 111.445 16.317C111.898 16.317 111.809 16.7723 111.809 17.6652H112.16C112.16 16.8482 112.049 16.317 112.56 16.317C113.014 16.317 112.925 16.7634 112.925 17.6652H113.289V16.6384H113.28ZM115.276 16.0268H114.925V16.2232C114.805 16.0759 114.636 15.9821 114.405 15.9821C113.947 15.9821 113.596 16.3482 113.596 16.8438C113.596 17.3438 113.947 17.7054 114.405 17.7054C114.636 17.7054 114.805 17.6205 114.925 17.4643V17.6696H115.276V16.0268ZM117.076 17.1696C117.076 16.5 116.058 16.8036 116.058 16.4911C116.058 16.2366 116.587 16.2768 116.88 16.442L117.027 16.1518C116.609 15.8795 115.685 15.8839 115.685 16.5179C115.685 17.1562 116.702 16.8884 116.702 17.1875C116.702 17.4688 116.102 17.4464 115.782 17.2232L115.627 17.5045C116.125 17.8438 117.076 17.7723 117.076 17.1696ZM118.649 17.5848L118.551 17.2812C118.382 17.375 118.009 17.4777 118.009 17.0982V16.3571H118.591V16.0268H118.009V15.5268H117.645V16.0268H117.307V16.3527H117.645V17.0982C117.645 17.8839 118.414 17.7411 118.649 17.5848ZM119.24 16.9866H120.462C120.462 16.2634 120.134 15.9777 119.689 15.9777C119.218 15.9777 118.88 16.3304 118.88 16.8393C118.88 17.7545 119.885 17.9062 120.382 17.4732L120.214 17.2054C119.867 17.4911 119.342 17.4643 119.24 16.9866ZM121.867 16.0268C121.662 15.9375 121.351 15.9464 121.191 16.2232V16.0268H120.827V17.6652H121.191V16.7411C121.191 16.2232 121.614 16.2902 121.76 16.3661L121.867 16.0268ZM122.338 16.8438C122.338 16.3348 122.854 16.1696 123.258 16.4688L123.427 16.1786C122.911 15.7723 121.974 15.9955 121.974 16.8482C121.974 17.7321 122.969 17.9107 123.427 17.5179L123.258 17.2277C122.849 17.5179 122.338 17.3438 122.338 16.8438ZM125.302 16.0268H124.938V16.2232C124.569 15.7321 123.609 16.0089 123.609 16.8438C123.609 17.7009 124.605 17.9464 124.938 17.4643V17.6696H125.302V16.0268ZM126.8 16.0268C126.694 15.9732 126.311 15.8973 126.125 16.2232V16.0268H125.774V17.6652H126.125V16.7411C126.125 16.25 126.525 16.2812 126.694 16.3661L126.8 16.0268ZM128.591 15.3616H128.24V16.2232C127.876 15.7366 126.911 15.9955 126.911 16.8438C126.911 17.7098 127.911 17.942 128.24 17.4643V17.6696H128.591V15.3616ZM128.929 12.0089V12.2143H128.965V12.0089H129.049V11.9732H128.845V12.0089H128.929ZM129.222 17.5357C129.222 17.5134 129.222 17.4866 129.209 17.4643C129.196 17.4509 129.187 17.4286 129.174 17.4152C129.16 17.4018 129.138 17.3929 129.125 17.3795C129.102 17.3795 129.076 17.3661 129.054 17.3661C129.04 17.3661 129.018 17.3795 128.991 17.3795C128.969 17.3929 128.956 17.4018 128.942 17.4152C128.92 17.4286 128.907 17.4509 128.907 17.4643C128.894 17.4866 128.894 17.5134 128.894 17.5357C128.894 17.5491 128.894 17.5714 128.907 17.5982C128.907 17.6116 128.92 17.6339 128.942 17.6473C128.956 17.6607 128.965 17.6696 128.991 17.683C129.014 17.6964 129.04 17.6964 129.054 17.6964C129.076 17.6964 129.102 17.6964 129.125 17.683C129.138 17.6696 129.16 17.6607 129.174 17.6473C129.187 17.6339 129.196 17.6116 129.209 17.5982C129.222 17.5714 129.222 17.5491 129.222 17.5357ZM129.365 11.9688H129.302L129.231 12.125L129.16 11.9688H129.098V12.2098H129.134V12.0268L129.205 12.183H129.254L129.316 12.0268V12.2098H129.365V11.9688ZM129.56 8.375C129.56 4.97321 126.8 2.20089 123.405 2.20089C122.196 2.20089 121.009 2.56696 120.005 3.23214C123.209 5.87946 123.258 10.8884 120.005 13.5223C121.009 14.192 122.205 14.5536 123.405 14.5536C126.8 14.558 129.56 11.7902 129.56 8.375Z" fill="#2C2C2C"/>
</svg>
