<svg width="1377" height="760" viewBox="0 0 1377 760" fill="none" xmlns="http://www.w3.org/2000/svg">
<path d="M223.767 59.9758C224.003 71.2049 228.213 80.7496 232.027 90.5164C234.149 95.9515 238.826 99.6718 244.201 97.183C246.791 95.9836 249.352 94.6138 251.556 93.8724C256.693 92.1442 261.493 90.0168 266.052 86.8071C273.438 81.6073 282.01 74.3281 285.902 65.4226C291.799 51.9265 279.882 37.4691 269.633 32.5528C267.355 31.4602 263.157 31.3267 261.788 28.8015C259.925 25.3639 256.738 19.6898 252.639 19.3608C245.765 18.809 238.875 26.7256 235.207 32.1849C229.939 40.0235 223.558 50.0031 223.767 59.9758Z" stroke="#2C2C2C" stroke-width="4" stroke-linecap="round"/>
<path d="M319.875 86.5267C314.807 84.2697 306.232 79.7504 302.342 74.1569C301.151 72.4452 302.607 70.2337 304.748 70.0651C313.894 69.345 325.156 69.9594 329.456 78.7918C332.781 85.6231 324.409 88.5459 319.875 86.5267Z" stroke="#2C2C2C" stroke-width="4" stroke-linecap="round"/>
<path d="M315.646 46.2019C320.818 49.2918 326.285 48.4317 332.149 47.6942C332.915 47.5978 333.571 46.989 333.868 46.2454C334.7 44.1629 336.278 41.4963 335.869 39.8904C333.839 31.919 323.524 32.1644 317.616 35.8504C313.092 38.6723 310.875 43.3516 315.646 46.2019Z" stroke="#2C2C2C" stroke-width="4" stroke-linecap="round"/>
<path d="M292.826 18.7029C298.764 20.9518 307.66 17.3809 313.614 16.2556C316.526 14.8656 316.131 11.039 315.112 8.21784C312.893 2.08132 307.122 0.703172 301.076 3.13761C296.292 5.0641 284.139 15.4126 292.826 18.7029Z" stroke="#2C2C2C" stroke-width="4" stroke-linecap="round"/>
<path d="M293.643 118.549C298.618 111.855 296.188 103.535 292.628 97.356C290.149 93.0526 284.746 90.789 280.39 93.8047C274.989 97.5439 272.729 104.467 273.813 112.185C275.023 120.791 287.66 126.597 293.643 118.549Z" stroke="#2C2C2C" stroke-width="4" stroke-linecap="round"/>
<path d="M123.391 237.492C114.502 244.361 109.331 253.422 103.746 262.296C100.637 267.234 100.428 273.206 105.627 276.045C108.132 277.413 110.756 278.655 112.663 279.985C117.109 283.086 121.675 285.678 126.967 287.432C135.542 290.274 146.494 292.833 155.97 290.663C170.331 287.374 174.868 269.198 172.725 258.038C172.248 255.558 169.858 252.104 171.075 249.502C172.731 245.96 175.398 240.024 173.224 236.535C169.579 230.683 159.115 229.855 152.543 230.154C143.107 230.584 131.286 231.392 123.391 237.492Z" stroke="#2C2C2C" stroke-width="4" stroke-linecap="round"/>
<path d="M159.208 330.517C158.008 325.102 156.542 315.523 158.726 309.069C159.394 307.094 162.038 306.949 163.447 308.569C169.467 315.491 175.672 324.906 171.127 333.615C167.611 340.351 160.281 335.361 159.208 330.517Z" stroke="#2C2C2C" stroke-width="4" stroke-linecap="round"/>
<path d="M189.119 303.132C189.711 309.127 193.654 313.008 197.735 317.281C198.268 317.84 199.148 318.005 199.923 317.801C202.092 317.231 205.175 316.913 206.223 315.629C211.425 309.256 205.093 301.113 198.614 298.558C193.654 296.601 188.573 297.603 189.119 303.132Z" stroke="#2C2C2C" stroke-width="4" stroke-linecap="round"/>
<path d="M197.658 268.438C199.381 274.547 207.544 279.571 211.991 283.687C214.84 285.2 217.683 282.607 219.345 280.109C222.96 274.676 220.635 269.218 215.081 265.808C210.686 263.11 195.136 259.5 197.658 268.438Z" stroke="#2C2C2C" stroke-width="4" stroke-linecap="round"/>
<path d="M117.855 328.484C126.197 328.501 131.442 321.599 134.293 315.063C136.279 310.511 134.885 304.822 129.869 303.116C123.65 301 116.738 303.302 111.177 308.764C104.976 314.855 107.824 328.464 117.855 328.484Z" stroke="#2C2C2C" stroke-width="4" stroke-linecap="round"/>
<path d="M34.6898 27.3908C24.5241 32.1735 17.5141 39.9008 10.1398 47.3558C6.03603 51.5044 4.53884 57.2892 8.99938 61.1856C11.149 63.0633 13.4422 64.8445 15.016 66.5555C18.6849 70.5441 22.5815 74.0628 27.3689 76.9206C35.1248 81.5505 45.2636 86.4186 54.9847 86.3502C69.7167 86.2466 78.0814 69.4827 78.4057 58.1236C78.4778 55.5992 76.8919 51.7104 78.6429 49.4334C81.0265 46.3337 84.9155 41.1153 83.5492 37.2387C81.2575 30.7364 71.2205 27.664 64.7393 26.5343C55.4336 24.9122 43.7182 23.1432 34.6898 27.3908Z" stroke="#2C2C2C" stroke-width="4" stroke-linecap="round"/>
<path d="M49.517 125.96C49.5182 120.414 50.1603 110.744 53.6896 104.916C54.7696 103.133 57.3827 103.563 58.4076 105.45C62.7858 113.51 66.805 124.044 60.4823 131.563C55.5921 137.379 49.5159 130.922 49.517 125.96Z" stroke="#2C2C2C" stroke-width="4" stroke-linecap="round"/>
<path d="M84.6477 105.696C83.9277 111.677 86.9371 116.319 89.9961 121.374C90.3959 122.035 91.219 122.386 92.0194 122.355C94.261 122.268 97.3394 122.624 98.6406 121.597C105.1 116.501 100.68 107.181 94.9085 103.285C90.4897 100.301 85.3118 100.18 84.6477 105.696Z" stroke="#2C2C2C" stroke-width="4" stroke-linecap="round"/>
<path d="M100.496 73.6715C100.856 80.0088 107.737 86.6802 111.188 91.6606C113.642 93.7539 116.979 91.8374 119.142 89.7587C123.848 85.237 122.759 79.4054 118.076 74.8745C114.369 71.2889 99.9694 64.3999 100.496 73.6715Z" stroke="#2C2C2C" stroke-width="4" stroke-linecap="round"/>
<path d="M9.58391 115.028C17.7252 116.849 24.3396 111.246 28.5384 105.482C31.4625 101.467 31.3335 95.6119 26.8059 92.8606C21.1922 89.4493 13.9462 90.2007 7.3341 94.3308C-0.0382814 98.9358 -0.204255 112.838 9.58391 115.028Z" stroke="#2C2C2C" stroke-width="4" stroke-linecap="round"/>
<path d="M1206.03 490.212C1214.14 497.986 1223.87 501.758 1233.47 505.968C1238.81 508.31 1244.75 507.633 1246.79 502.073C1247.78 499.393 1248.62 496.614 1249.65 494.532C1252.06 489.677 1253.95 484.778 1254.91 479.285C1256.45 470.386 1257.37 459.177 1253.82 450.128C1248.45 436.415 1229.8 434.619 1219.08 438.389C1216.69 439.227 1213.63 442.102 1210.88 441.284C1207.13 440.171 1200.86 438.412 1197.73 441.077C1192.48 445.548 1193.21 456.018 1194.47 462.472C1196.29 471.74 1198.83 483.309 1206.03 490.212Z" stroke="#2C2C2C" stroke-width="4" stroke-linecap="round"/>
<path d="M1292.77 441.028C1287.59 443.016 1278.33 445.884 1271.62 444.679C1269.57 444.311 1269.04 441.718 1270.43 440.085C1276.39 433.108 1284.79 425.579 1294.07 428.784C1301.25 431.263 1297.4 439.25 1292.77 441.028Z" stroke="#2C2C2C" stroke-width="4" stroke-linecap="round"/>
<path d="M1261.26 415.504C1267.11 414.032 1270.36 409.558 1273.99 404.891C1274.46 404.281 1274.49 403.386 1274.18 402.65C1273.29 400.589 1272.52 397.588 1271.1 396.742C1264.03 392.541 1256.91 400.008 1255.34 406.792C1254.13 411.986 1255.87 416.863 1261.26 415.504Z" stroke="#2C2C2C" stroke-width="4" stroke-linecap="round"/>
<path d="M1225.68 412.196C1231.47 409.587 1235.24 400.772 1238.65 395.766C1239.73 392.725 1236.74 390.298 1234.03 389.024C1228.12 386.253 1223.06 389.36 1220.51 395.356C1218.49 400.101 1217.21 416.012 1225.68 412.196Z" stroke="#2C2C2C" stroke-width="4" stroke-linecap="round"/>
<path d="M1296.86 482.22C1295.65 473.968 1288.04 469.804 1281.16 467.952C1276.36 466.662 1270.94 468.882 1269.99 474.095C1268.82 480.558 1272.12 487.051 1278.34 491.742C1285.28 496.972 1298.32 492.142 1296.86 482.22Z" stroke="#2C2C2C" stroke-width="4" stroke-linecap="round"/>
<path d="M1260.58 686.712C1259.15 697.855 1261.9 707.918 1264.23 718.142C1265.52 723.832 1269.6 728.203 1275.28 726.534C1278.02 725.73 1280.75 724.753 1283.04 724.345C1288.38 723.394 1293.44 721.998 1298.42 719.496C1306.49 715.442 1316.05 709.507 1321.21 701.272C1329.04 688.793 1319.4 672.732 1309.99 666.356C1307.9 664.939 1303.77 664.187 1302.79 661.487C1301.46 657.811 1299.15 651.728 1295.14 650.798C1288.43 649.237 1280.44 656.051 1276.01 660.91C1269.64 667.886 1261.85 676.816 1260.58 686.712Z" stroke="#2C2C2C" stroke-width="4" stroke-linecap="round"/>
<path d="M1351.69 727.164C1347.01 724.183 1339.2 718.447 1336.18 712.339C1335.25 710.47 1337.02 708.498 1339.16 708.647C1348.31 709.285 1359.36 711.555 1362.3 720.927C1364.58 728.175 1355.87 729.831 1351.69 727.164Z" stroke="#2C2C2C" stroke-width="4" stroke-linecap="round"/>
<path d="M1353.47 686.65C1358.13 690.47 1363.66 690.426 1369.57 690.562C1370.34 690.58 1371.08 690.075 1371.48 689.383C1372.61 687.446 1374.57 685.041 1374.4 683.392C1373.57 675.207 1363.34 673.927 1356.95 676.701C1352.06 678.825 1349.18 683.126 1353.47 686.65Z" stroke="#2C2C2C" stroke-width="4" stroke-linecap="round"/>
<path d="M1334.98 656.079C1340.52 659.18 1349.84 656.961 1355.89 656.727C1358.98 655.782 1359.16 651.938 1358.56 648.997C1357.28 642.6 1351.78 640.384 1345.44 641.9C1340.42 643.099 1326.87 651.542 1334.98 656.079Z" stroke="#2C2C2C" stroke-width="4" stroke-linecap="round"/>
<path d="M1321.01 754.968C1326.92 749.08 1325.75 740.492 1323.14 733.854C1321.33 729.231 1316.32 726.194 1311.56 728.534C1305.67 731.436 1302.41 737.951 1302.34 745.746C1302.26 754.437 1313.9 762.046 1321.01 754.968Z" stroke="#2C2C2C" stroke-width="4" stroke-linecap="round"/>
<path d="M1049.3 600.869C1045.49 611.439 1046 621.86 1046.05 632.346C1046.08 638.181 1049.12 643.331 1055.03 642.932C1057.87 642.739 1060.75 642.377 1063.08 642.474C1068.49 642.7 1073.74 642.433 1079.14 641.069C1087.9 638.858 1098.51 635.131 1105.34 628.209C1115.68 617.719 1109.74 599.95 1101.94 591.689C1100.2 589.853 1096.33 588.224 1095.96 585.376C1095.45 581.499 1094.51 575.059 1090.81 573.284C1084.59 570.307 1075.32 575.231 1069.94 579.015C1062.21 584.448 1052.68 591.482 1049.3 600.869Z" stroke="#2C2C2C" stroke-width="4" stroke-linecap="round"/>
<path d="M1129.48 660.084C1125.56 656.161 1119.17 648.87 1117.55 642.253C1117.05 640.228 1119.2 638.685 1121.26 639.294C1130.06 641.897 1140.35 646.505 1141.19 656.292C1141.85 663.862 1132.99 663.593 1129.48 660.084Z" stroke="#2C2C2C" stroke-width="4" stroke-linecap="round"/>
<path d="M1139.99 620.914C1143.71 625.652 1149.12 626.806 1154.86 628.218C1155.61 628.402 1156.44 628.069 1156.98 627.481C1158.51 625.834 1160.94 623.909 1161.13 622.263C1162.09 614.093 1152.38 610.627 1145.54 611.953C1140.31 612.968 1136.56 616.544 1139.99 620.914Z" stroke="#2C2C2C" stroke-width="4" stroke-linecap="round"/>
<path d="M1128.55 587.063C1133.29 591.289 1142.87 591.141 1148.83 592.223C1152.05 591.967 1153.05 588.253 1153.11 585.253C1153.24 578.729 1148.35 575.375 1141.83 575.483C1136.68 575.568 1121.62 580.879 1128.55 587.063Z" stroke="#2C2C2C" stroke-width="4" stroke-linecap="round"/>
<path d="M1093.51 680.59C1100.56 676.122 1101.27 667.483 1100.16 660.437C1099.39 655.531 1095.16 651.482 1090.01 652.738C1083.63 654.295 1079.04 659.95 1077.29 667.546C1075.33 676.016 1085.04 685.963 1093.51 680.59Z" stroke="#2C2C2C" stroke-width="4" stroke-linecap="round"/>
</svg>
