<svg width="1233" height="376" viewBox="0 0 1233 376" fill="none" xmlns="http://www.w3.org/2000/svg">
<path d="M142.014 122.835C145.006 122.862 148.025 122.724 150.483 122.843C151.736 122.903 163.915 124.423 164.614 122.509C165.402 120.355 155.307 112.839 154.223 112.003C145.331 105.15 134.659 101.888 123.863 99.3644C120.953 98.6841 117.874 98.2841 115.008 97.3999C114.687 97.3008 113.961 97.0597 114.189 96.8119C115.138 95.7778 119.86 96.5481 120.934 96.5227C127.067 96.3777 133.249 95.5756 139.183 93.9982C140.404 93.6738 151.728 90.5651 147.174 87.3134C142.473 83.9571 133.987 83.4078 128.545 82.8176C118.075 81.682 107.429 82.1887 96.9164 82.1905C93.7813 82.1911 84.4458 83.0375 87.5129 82.3862C93.1454 81.1901 98.0132 78.4751 102.056 74.3445C105.88 70.4379 102.949 70.1103 98.5488 69.9281C92.6081 69.6822 86.8296 70.2703 80.9918 71.2999C75.1437 72.5417 69.1233 73.3862 63.3314 74.8814M142.014 122.835C139.07 122.808 136.151 122.623 133.818 121.879C130.745 120.898 136.827 121.73 142.014 122.835ZM142.014 122.835C143.996 123.257 145.847 123.719 147.007 124.135C161.551 129.354 178.615 138.251 187.282 151.746C189.893 155.811 185.646 155.036 182.617 154.468C176.287 153.282 170.186 151.187 163.95 149.634C163.547 149.534 162.463 149.319 162.705 149.656C163.845 151.245 167.033 152.764 168.5 153.725C177.636 159.714 187.338 165.459 195.33 172.967C201.611 178.867 206.493 186.324 209.37 194.441C209.885 195.895 212.05 200.33 208.887 200.016C199.508 199.085 190.453 191.981 182.577 187.314C182.205 187.094 183.303 187.786 183.638 188.059C187.785 191.426 191.461 195.358 194.964 199.37C204.24 209.993 213.199 221.527 220.593 233.555C222.487 236.636 227.395 244.179 220.002 243.691C211.501 243.13 203.909 237.855 197.062 233.287C192.32 230.123 195.25 233.764 196.827 236.593C200.984 244.052 203.788 252.026 205.524 260.378C205.997 262.656 207.607 268.325 204.633 269.92C198.874 273.009 193.988 260.309 192.878 257.244C189.061 246.707 186.306 236.139 181.286 226.037C180.481 224.417 180.058 222.484 178.74 221.244C178.587 221.099 178.49 221.608 178.48 221.818C178.325 224.933 178.714 228.05 178.833 231.165C179.034 236.436 179.196 241.137 179.153 246.408C179.122 250.038 179.505 255.64 177.759 259.139C175.106 264.454 167.923 254.504 166.937 252.985C161.875 245.181 158.699 235.782 157.511 226.583C156.975 222.436 157.195 218.227 156.324 214.123C155.658 210.99 156.289 220.537 155.966 223.724C155.704 226.32 155.44 240.838 151.569 241.77C147.298 242.797 142.243 224.043 141.558 221.934C138.47 212.432 136.439 202.658 133.855 193.019C132.472 187.86 132.808 194.315 132.336 196.494C131.405 200.781 129.491 207.922 123.509 206.439C113.929 204.063 111.752 191.506 110.355 183.455L110.316 183.227C108.651 173.635 108.048 163.915 106.13 154.361C106.021 153.813 105.777 148.65 104.37 150.647C100.395 156.288 95.9719 160.58 90.0291 164.223C82.9578 168.557 79.5213 166.392 77.917 158.204C75.9685 148.26 76.8696 137.382 77.7928 127.368C77.8089 127.192 79.4077 115.999 78.3155 115.93C77.4746 115.877 77.0253 117.02 76.4565 117.641C74.0223 120.298 71.6402 122.884 68.7675 125.093C66.5738 126.78 61.0537 131.388 59.85 126.432C58.5512 121.086 59.332 115.028 60.7265 109.793C61.4313 107.147 62.5403 104.655 63.3161 102.038C63.9998 99.7322 60.9903 101.385 60.022 101.733C54.6051 103.68 45.9337 108.164 41.1282 102.697C36.2852 97.1877 39.7629 89.1494 44.2684 84.7801C49.8456 79.3715 56.4262 76.6639 63.3314 74.8814M164.389 189.802C149.684 166.718 130.315 146.542 111.723 126.654C95.5824 109.388 79.2401 92.3351 63.3314 74.8814M8.24166 7.75082C17.5903 20.2746 26.797 32.7851 36.8686 44.7694C45.4743 55.0093 54.3335 65.0095 63.3314 74.8814M10.22 9.6212C10.1937 9.25803 10.1343 8.90859 10.0462 8.57177M10.0462 8.57177C10.0395 8.54648 10.0328 8.52125 10.0258 8.4961M10.0462 8.57177C10.0259 8.73963 9.97676 8.908 9.89241 9.0758C9.53849 9.77981 8.93424 9.95396 8.20565 9.70771C7.79559 9.56912 7.36834 9.31073 7.25304 8.88802M10.0462 8.57177C10.0502 8.53844 10.0531 8.50513 10.0549 8.47184M10.0258 8.4961C9.95411 8.23616 9.86529 7.98377 9.76148 7.73841M10.0258 8.4961C9.19308 9.18281 8.15514 9.23865 7.25304 8.88802M10.0258 8.4961C10.0355 8.4881 10.0452 8.48001 10.0549 8.47184M9.76148 7.73841C9.74101 7.69005 9.71997 7.64196 9.69835 7.59413M9.76148 7.73841C9.54732 8.79435 7.77381 9.30135 7.22397 8.26827M9.76148 7.73841C9.76755 7.70845 9.77237 7.67806 9.77587 7.64724M9.69835 7.59413C9.49921 7.15351 9.25193 6.73572 8.96901 6.33763M9.69835 7.59413C9.72443 7.61158 9.75028 7.62929 9.77587 7.64724M9.69835 7.59413C9.21517 7.27097 8.65258 7.03968 8.16547 7.03983M8.96901 6.33763C8.64196 5.87744 8.26728 5.44358 7.86427 5.03118M8.96901 6.33763C8.77009 6.61423 8.49223 6.8494 8.16547 7.03983M8.96901 6.33763C8.98246 6.31892 8.99556 6.30001 9.00828 6.28093M7.86427 5.03118C7.83307 4.99925 7.8017 4.96744 7.77016 4.93577M7.86427 5.03118C7.86911 5.02399 7.87397 5.01684 7.87884 5.0097M7.86427 5.03118C7.37271 5.76073 7.05714 6.7207 7.0575 7.47636M7.77016 4.93577C7.34844 4.51216 6.89793 4.11116 6.44007 3.7274M7.77016 4.93577C7.80654 4.95989 7.84278 4.98455 7.87884 5.0097M7.77016 4.93577C6.97951 4.41153 6.12061 4.13901 5.5267 4.5056M6.44007 3.7274C6.3594 3.65979 6.2785 3.59271 6.19749 3.52613M6.44007 3.7274C6.26938 3.85916 6.08943 3.91344 5.93205 3.82726M6.44007 3.7274C6.46343 3.70937 6.48662 3.68988 6.50955 3.66911M6.19749 3.52613C6.12381 3.46558 6.05004 3.40545 5.97626 3.34571C5.94572 3.32099 5.91489 3.29647 5.88379 3.2722M6.19749 3.52613C6.21398 3.50995 6.23061 3.49407 6.24736 3.4785M6.19749 3.52613C6.10446 3.6174 6.01569 3.71826 5.93205 3.82726M5.88379 3.2722C4.78531 2.41496 3.34812 1.86555 2.34417 3.20749C1.10419 4.86491 3.5033 7.19601 4.96916 7.52378C5.1191 7.55731 5.27474 7.58186 5.43403 7.59767M5.88379 3.2722C5.94984 3.29354 6.01409 3.3246 6.05519 3.3508C6.11977 3.39199 6.18383 3.43459 6.24736 3.4785M5.88379 3.2722C5.73263 3.22336 5.5721 3.22544 5.65842 3.45324C5.7336 3.65163 5.82788 3.77021 5.93205 3.82726M5.43403 7.59767C5.50994 7.60521 5.58668 7.61076 5.66402 7.61434M5.43403 7.59767C4.75013 6.59169 4.44291 5.43777 5.37928 4.61487C5.42631 4.57353 5.47552 4.53719 5.5267 4.5056M5.43403 7.59767C6.02436 8.466 6.89534 9.22411 7.48946 9.56398C8.17215 9.95451 9.50621 10.485 10.2983 10.1079C10.7473 9.89408 10.9549 9.15819 10.7655 8.72366C10.6852 8.53934 10.5443 8.34209 10.3628 8.14986M5.66402 7.61434C6.12248 7.63559 6.60232 7.58791 7.0575 7.47636M5.66402 7.61434C5.30221 7.06914 5.10981 6.41254 5.18963 5.71216C5.23792 5.2884 5.35649 4.8761 5.5267 4.5056M5.66402 7.61434C6.04551 8.18917 6.61533 8.64015 7.25304 8.88802M7.0575 7.47636C7.18572 7.44493 7.31198 7.40844 7.43526 7.36699M7.0575 7.47636C7.05762 7.73491 7.09473 7.96955 7.17442 8.16285C7.18959 8.19963 7.20613 8.23476 7.22397 8.26827M7.43526 7.36699C7.69515 7.27961 7.94177 7.17021 8.16547 7.03983M7.43526 7.36699C7.50039 7.25952 7.58435 7.17542 7.6922 7.1294C7.83656 7.0678 7.99647 7.03989 8.16547 7.03983M7.43526 7.36699C7.29046 7.60588 7.23864 7.9602 7.22397 8.26827M9.00828 6.28093C9.04122 6.23151 9.07167 6.18083 9.09948 6.1289M9.00828 6.28093C9.2837 6.61591 9.5689 6.98564 9.77224 7.37423M9.00828 6.28093C8.86907 6.11161 8.73236 5.95118 8.60997 5.80168C8.42488 5.57558 8.23125 5.34564 8.02928 5.11823M9.09948 6.1289C9.39161 5.58344 9.39189 4.90048 8.91324 4.10056C8.90666 4.08956 8.90007 4.07866 8.89346 4.06784M9.09948 6.1289C9.45697 6.55824 9.70605 6.99061 9.76561 7.3317C9.7681 7.34594 9.7703 7.36012 9.77224 7.37423M9.09948 6.1289C8.80218 5.77184 8.42989 5.41687 8.02928 5.11823M8.89346 4.06784C8.2932 3.08493 7.5864 2.84099 6.95053 3.04713M8.89346 4.06784C9.13557 3.95465 9.39057 3.90893 9.65126 3.95308C11.4716 4.26131 11.2778 6.95488 10.3628 8.14986M8.89346 4.06784C8.5245 4.24035 8.18547 4.56957 7.90185 4.97635M6.95053 3.04713C6.70174 3.12779 6.46381 3.27734 6.24736 3.4785M6.95053 3.04713C6.84152 3.28165 6.6828 3.51218 6.50955 3.66911M6.95053 3.04713C7.05796 2.81604 7.11712 2.58108 7.09439 2.40889C7.05851 2.13713 6.29537 2.06633 6.04781 2M6.24736 3.4785C6.33578 3.5396 6.42318 3.60324 6.50955 3.66911M5.93205 3.82726C5.77754 4.02861 5.64057 4.25775 5.5267 4.5056M7.25304 8.88802C7.23667 8.82801 7.22659 8.76469 7.22374 8.69794C7.21889 8.58439 7.21612 8.43294 7.22397 8.26827M10.0549 8.47184C10.0793 8.45117 10.1035 8.42995 10.1275 8.40817C10.2102 8.33322 10.2888 8.24644 10.3628 8.14986M10.0549 8.47184C10.0675 8.23667 10.0257 8.00294 9.94667 7.77365M10.3628 8.14986C10.2405 8.02035 10.0998 7.89312 9.94667 7.77365M7.90185 4.97635C7.89414 4.98741 7.88647 4.99853 7.87884 5.0097M7.90185 4.97635C7.94469 5.02349 7.98717 5.07081 8.02928 5.11823M7.90185 4.97635C7.4732 4.50459 7.00847 4.04959 6.50955 3.66911M7.87884 5.0097C7.92937 5.04494 7.97954 5.08115 8.02928 5.11823M9.77587 7.64724C9.78585 7.55947 9.78513 7.46829 9.77224 7.37423M9.77587 7.64724C9.83423 7.68819 9.89126 7.73041 9.94667 7.77365M9.77224 7.37423C9.84089 7.50543 9.90021 7.63877 9.94667 7.77365" stroke="#2C2C2C" stroke-width="4" stroke-linecap="round"/>
<path d="M1128.17 329.246C1130.42 330.265 1132.63 331.419 1134.52 332.184C1135.48 332.573 1145.13 335.654 1144.99 337.35C1144.83 339.26 1134.66 341.459 1133.56 341.716C1124.52 343.83 1115.39 342.598 1106.43 340.761C1104.01 340.266 1101.57 339.499 1099.11 339.175C1098.84 339.138 1098.21 339.069 1098.3 339.336C1098.65 340.452 1102.45 341.508 1103.25 341.901C1107.8 344.143 1112.15 346.902 1116.05 350.163C1116.85 350.833 1124.26 357.132 1119.72 358.018C1115.03 358.933 1108.48 356.399 1104.2 354.956C1095.96 352.178 1088.16 348.093 1080.28 344.436C1077.93 343.346 1071.23 339.458 1073.3 341.019C1077.11 343.885 1079.82 347.639 1081.41 352.182C1082.93 356.479 1080.62 355.709 1077.25 354.317C1072.72 352.438 1068.59 349.983 1064.57 347.171C1060.62 344.195 1056.4 341.461 1052.58 338.312M1128.17 329.246C1125.95 328.242 1123.7 327.368 1121.7 327.123C1119.05 326.799 1123.9 328.282 1128.17 329.246ZM1128.17 329.246C1129.8 329.614 1131.35 329.907 1132.36 329.994C1145.07 331.087 1160.94 330.262 1172.11 323.026C1175.48 320.846 1172.03 319.958 1169.56 319.336C1164.41 318.037 1159.11 317.507 1153.9 316.518C1153.56 316.454 1152.67 316.24 1152.97 316.068C1154.38 315.258 1157.29 315.213 1158.73 314.993C1167.65 313.621 1176.91 312.63 1185.5 309.706C1192.25 307.409 1198.5 303.443 1203.47 298.278C1204.36 297.353 1207.52 294.737 1205.04 293.876C1197.69 291.322 1188.44 293.57 1180.92 294.376C1180.57 294.414 1181.63 294.27 1181.97 294.179C1186.25 293.064 1190.37 291.355 1194.38 289.526C1205.02 284.683 1215.73 279.037 1225.44 272.473C1227.93 270.791 1234.22 266.769 1228.51 264.569C1221.95 262.04 1214.43 263.407 1207.71 264.496C1203.06 265.25 1206.52 263.504 1208.68 261.903C1214.38 257.683 1219.25 252.602 1223.45 246.862C1224.59 245.296 1227.76 241.551 1226.09 239.305C1222.84 234.957 1214.78 242.904 1212.88 244.846C1206.37 251.521 1200.64 258.59 1193.38 264.517C1192.21 265.468 1191.23 266.789 1189.81 267.273C1189.64 267.329 1189.75 266.909 1189.81 266.746C1190.78 264.327 1192.15 262.095 1193.32 259.77C1195.3 255.836 1197.05 252.322 1198.84 248.304C1200.08 245.537 1202.31 241.415 1202.21 238.151C1202.07 233.191 1193.23 238.251 1191.97 239.062C1185.47 243.229 1179.83 249.264 1175.75 255.837C1173.91 258.801 1172.62 262.073 1170.54 264.888C1168.96 267.036 1172.74 260.004 1173.6 257.472C1174.31 255.409 1179.14 244.291 1176.56 242.237C1173.72 239.972 1163.43 252.458 1162.19 253.822C1156.58 259.966 1151.67 266.682 1146.39 273.105C1143.56 276.542 1146.05 271.757 1146.45 269.938C1147.24 266.358 1148.29 260.269 1143.29 259.316C1135.29 257.79 1129.3 266.569 1125.46 272.199L1125.35 272.358C1120.78 279.064 1116.96 286.237 1112.21 292.827C1111.94 293.204 1109.97 297.041 1109.6 295.035C1108.58 289.369 1106.75 284.572 1103.56 279.739C1099.77 273.988 1096.44 274.438 1092.4 280.099C1087.49 286.975 1084.4 295.55 1081.62 303.476C1081.57 303.615 1078.89 312.672 1078.04 312.345C1077.39 312.093 1077.45 311.068 1077.24 310.399C1076.34 307.535 1075.45 304.742 1074.07 302.066C1073.01 300.022 1070.47 294.603 1067.85 297.949C1065.02 301.558 1063.5 306.43 1062.73 310.891C1062.35 313.146 1062.31 315.424 1061.99 317.681C1061.7 319.67 1060.02 317.368 1059.41 316.767C1056.03 313.406 1051.09 306.985 1045.59 309.467C1040.05 311.967 1039.87 319.281 1041.73 324.166C1044.03 330.213 1048.03 334.557 1052.58 338.312M1168.15 286.163C1149.13 298.583 1127.62 307.173 1106.79 315.814C1088.71 323.317 1070.55 330.586 1052.58 338.312M988.026 370.144C999.374 363.883 1010.61 357.582 1022.31 351.981C1032.31 347.196 1042.42 342.681 1052.58 338.312M990.158 369.408C990.013 369.675 989.847 369.92 989.664 370.145M989.664 370.145C989.65 370.162 989.637 370.178 989.623 370.195M989.664 370.145C989.707 370.01 989.729 369.865 989.724 369.708C989.703 369.051 989.31 368.708 988.679 368.642C988.323 368.605 987.914 368.653 987.681 368.933M989.664 370.145C989.656 370.171 989.646 370.198 989.636 370.224M989.623 370.195C989.479 370.368 989.325 370.528 989.162 370.679M989.623 370.195C989.237 369.384 988.478 368.981 987.681 368.933M989.623 370.195C989.627 370.205 989.632 370.214 989.636 370.224M989.162 370.679C989.13 370.708 989.097 370.737 989.065 370.766M989.162 370.679C989.367 369.802 988.214 368.801 987.444 369.394M989.162 370.679C989.156 370.704 989.149 370.728 989.141 370.753M989.065 370.766C988.763 371.032 988.432 371.263 988.082 371.467M989.065 370.766C989.09 370.762 989.116 370.758 989.141 370.753M989.065 370.766C988.59 370.844 988.089 370.824 987.724 370.654M988.082 371.467C987.678 371.703 987.247 371.902 986.802 372.075M988.082 371.467C988.029 371.188 987.903 370.913 987.724 370.654M988.082 371.467C988.086 371.486 988.089 371.505 988.092 371.524M986.802 372.075C986.767 372.089 986.733 372.102 986.698 372.115M986.802 372.075C986.803 372.082 986.804 372.089 986.805 372.097M986.802 372.075C986.686 371.35 986.783 370.511 987.045 369.938M986.698 372.115C986.235 372.29 985.758 372.438 985.282 372.57M986.698 372.115C986.734 372.109 986.769 372.103 986.805 372.097M986.698 372.115C985.924 372.238 985.186 372.147 984.868 371.662M985.282 372.57C985.198 372.594 985.115 372.616 985.031 372.639M985.282 372.57C985.2 372.411 985.084 372.307 984.936 372.318M985.282 372.57C985.294 372.592 985.304 372.615 985.314 372.639M985.031 372.639C984.955 372.659 984.878 372.679 984.802 372.699C984.771 372.707 984.739 372.715 984.708 372.723M985.031 372.639C985.038 372.657 985.044 372.675 985.052 372.692M985.031 372.639C984.993 372.537 984.961 372.43 984.936 372.318M984.708 372.723C983.587 372.992 982.32 372.909 982.033 371.541C981.678 369.851 984.284 368.915 985.496 369.176C985.62 369.202 985.745 369.238 985.87 369.281M984.708 372.723C984.765 372.729 984.823 372.728 984.863 372.723C984.926 372.714 984.989 372.704 985.052 372.692M984.708 372.723C984.577 372.707 984.458 372.65 984.602 372.507C984.727 372.382 984.838 372.325 984.936 372.318M985.87 369.281C985.93 369.302 985.989 369.324 986.048 369.348M985.87 369.281C985.009 369.807 984.379 370.577 984.795 371.527C984.816 371.575 984.84 371.62 984.868 371.662M985.87 369.281C986.614 368.827 987.529 368.554 988.092 368.502C988.739 368.443 989.923 368.504 990.386 369.066C990.648 369.384 990.548 370.015 990.256 370.279C990.132 370.392 989.958 370.492 989.755 370.575M986.048 369.348C986.399 369.492 986.742 369.695 987.045 369.938M986.048 369.348C985.588 369.637 985.216 370.068 985.033 370.628C984.923 370.967 984.869 371.321 984.868 371.662M986.048 369.348C986.534 369.044 987.117 368.9 987.681 368.933M987.045 369.938C987.13 370.006 987.212 370.078 987.29 370.152M987.045 369.938C987.135 369.741 987.244 369.576 987.37 369.457C987.395 369.434 987.419 369.413 987.444 369.394M987.29 370.152C987.454 370.309 987.601 370.478 987.724 370.654M987.29 370.152C987.302 370.256 987.335 370.349 987.4 370.422C987.487 370.519 987.597 370.596 987.724 370.654M987.29 370.152C987.264 369.92 987.348 369.633 987.444 369.394M988.092 371.524C988.1 371.573 988.105 371.622 988.108 371.671M988.092 371.524C988.415 371.365 988.757 371.183 989.044 370.959M988.092 371.524C987.929 371.604 987.771 371.678 987.627 371.749C987.41 371.857 987.186 371.964 986.955 372.066M988.108 371.671C988.138 372.187 987.901 372.706 987.265 373.147C987.256 373.153 987.247 373.159 987.239 373.165M988.108 371.671C988.524 371.469 988.861 371.227 989.024 370.989C989.031 370.979 989.037 370.969 989.044 370.959M988.108 371.671C987.761 371.839 987.359 371.979 986.955 372.066M987.239 373.165C986.448 373.702 985.834 373.642 985.429 373.264M987.239 373.165C987.381 373.335 987.556 373.458 987.767 373.515C989.238 373.914 990.026 371.801 989.755 370.575M987.239 373.165C987.022 372.905 986.882 372.537 986.811 372.13M985.429 373.264C985.271 373.117 985.144 372.92 985.052 372.692M985.429 373.264C985.429 373.048 985.39 372.818 985.314 372.639M985.429 373.264C985.429 373.477 985.392 373.676 985.315 373.799C985.194 373.993 984.598 373.782 984.389 373.746M985.052 372.692C985.139 372.677 985.227 372.659 985.314 372.639M984.936 372.318C984.89 372.111 984.867 371.89 984.868 371.662M987.681 368.933C987.648 368.973 987.618 369.018 987.593 369.068C987.55 369.152 987.495 369.266 987.444 369.394M989.636 370.224C989.647 370.248 989.658 370.272 989.668 370.297C989.704 370.383 989.733 370.476 989.755 370.575M989.636 370.224C989.564 370.407 989.452 370.57 989.313 370.716M989.755 370.575C989.619 370.631 989.469 370.679 989.313 370.716M986.811 372.13C986.809 372.119 986.807 372.108 986.805 372.097M986.811 372.13C986.859 372.109 986.907 372.088 986.955 372.066M986.811 372.13C986.326 372.339 985.82 372.523 985.314 372.639M986.805 372.097C986.855 372.087 986.905 372.077 986.955 372.066M989.141 370.753C989.118 370.823 989.086 370.892 989.044 370.959M989.141 370.753C989.199 370.742 989.256 370.73 989.313 370.716M989.044 370.959C989.141 370.883 989.231 370.803 989.313 370.716" stroke="#2C2C2C" stroke-width="4" stroke-linecap="round"/>
</svg>
