<svg width="23" height="21" viewBox="0 0 23 21" fill="none" xmlns="http://www.w3.org/2000/svg">
<path fill-rule="evenodd" clip-rule="evenodd" d="M12.244 2.18731C10.5242 1.77492 8.24426 2.08448 6.46485 2.71716C5.09859 3.20294 3.97472 3.72854 3.24617 4.67274C2.6814 5.40468 2.35661 6.06211 2.18038 6.73496C2.00232 7.41479 1.96175 8.16406 2.03386 9.10153C2.13738 10.4473 2.54631 11.5201 3.40425 12.4972C3.9472 13.1155 4.79415 13.3901 5.92943 13.6457C8.03947 14.1208 10.6187 14.039 12.787 13.4491C12.9164 13.3261 13.0531 13.2229 13.1731 13.14C13.3632 13.0087 13.6124 12.8649 13.7536 12.7834C13.7961 12.7589 13.8288 12.74 13.8471 12.7289C13.978 12.6492 14.1005 12.576 14.2156 12.5073C14.8315 12.1394 15.232 11.9003 15.5299 11.481C16.7159 9.81185 16.3788 7.68639 15.5145 5.50343C14.8081 3.7194 13.9414 2.59435 12.244 2.18731ZM16.1987 13.6058C16.5438 13.3447 16.8826 13.0303 17.1603 12.6394C18.983 10.0741 18.2765 7.04642 17.374 4.76716C16.5591 2.70887 15.3228 0.868906 12.7104 0.24245C10.4885 -0.290343 7.79494 0.121577 5.79483 0.832727C4.40029 1.32856 2.77502 2.00945 1.66274 3.45096C0.961771 4.35942 0.500444 5.25537 0.24564 6.22821C-0.00733666 7.19407 -0.0427226 8.18278 0.0397499 9.25492C0.172067 10.9751 0.722067 12.4737 1.90137 13.8168C2.92009 14.977 4.38593 15.3483 5.49017 15.5969C7.82262 16.122 10.6027 16.0613 13.0255 15.4537C13.3747 15.538 13.7326 15.4263 13.9728 15.1819C14.1455 15.1257 14.3156 15.0665 14.4828 15.0043C14.5237 14.9891 14.5623 14.9738 14.5983 14.9589C14.7141 15.0398 14.8256 15.1096 14.9222 15.169C14.9613 15.1931 14.9975 15.2153 15.0315 15.2361C15.152 15.3097 15.244 15.366 15.335 15.4295C17.2764 16.7854 19.2671 18.3756 20.5216 20.1946C20.8351 20.6492 21.4579 20.7636 21.9125 20.45C22.3672 20.1365 22.4816 19.5138 22.168 19.0591C20.6975 16.9269 18.4518 15.1668 16.4801 13.7898C16.3874 13.7251 16.2898 13.6625 16.1987 13.6058Z" fill="#2C2C2C"/>
</svg>
