<svg width="25" height="25" viewBox="0 0 25 25" fill="none" xmlns="http://www.w3.org/2000/svg">
<mask id="path-1-inside-1_653_214" fill="white">
<rect width="25" height="25" rx="1.2"/>
</mask>
<rect width="25" height="25" rx="1.2" stroke="#2C2C2C" stroke-width="3.4" mask="url(#path-1-inside-1_653_214)"/>
<path d="M7.50696 6.53354C7.26994 6.49891 7.02821 6.54649 6.82199 6.66836H6.80441C6.32565 6.94899 5.89437 7.30368 5.52659 7.71925C5.22095 8.07262 5.05515 8.43018 5.01161 8.77434C4.98565 8.97949 5.00323 9.18464 5.06436 9.38058L5.08613 9.39398C5.43029 10.4055 5.87996 11.3785 6.42927 12.2946C7.13686 13.5816 8.00767 14.7718 9.02009 15.8359L9.05022 15.8794L9.09796 15.9146L9.1281 15.9497L9.16326 15.9799C10.2312 16.9952 11.4242 17.8702 12.7137 18.5832C14.1875 19.3854 15.0818 19.7648 15.6185 19.9222V19.9305C15.776 19.9784 15.9191 20 16.0632 20C16.5206 19.9665 16.9537 19.7808 17.2932 19.4726C17.7069 19.1047 18.0577 18.6716 18.3316 18.1906V18.1821C18.5886 17.6982 18.5016 17.2401 18.1307 16.9303C17.3877 16.2809 16.5844 15.7042 15.7316 15.2078C15.1604 14.898 14.5802 15.0856 14.3449 15.3996L13.8434 16.0317C13.5862 16.3457 13.119 16.3022 13.119 16.3022L13.1056 16.3107C9.62131 15.4205 8.69184 11.8927 8.69184 11.8927C8.69184 11.8927 8.64829 11.4129 8.97068 11.1684L9.59869 10.6626C9.89932 10.4181 10.1087 9.83862 9.78626 9.2667C9.2934 8.41272 8.71788 7.60918 8.068 6.86765C7.92591 6.69283 7.72659 6.5739 7.50529 6.53187L7.50696 6.53354Z" fill="black"/>
<path d="M13.3958 5C13.0435 5 12.7578 5.28564 12.7578 5.63799C12.7578 5.99034 13.0435 6.27599 13.3958 6.27599C15.0093 6.27599 16.35 6.80338 17.4092 7.81323C17.9544 8.36624 18.3788 9.02083 18.6575 9.73715C18.9372 10.4562 19.0644 11.2229 19.0317 11.9909C19.0168 12.3428 19.29 12.6404 19.642 12.6553C19.9941 12.6704 20.2916 12.397 20.3065 12.045C20.3467 11.1002 20.1901 10.1576 19.8466 9.27455C19.5031 8.39155 18.9803 7.5869 18.3103 6.90949L18.2975 6.89723C16.9832 5.64034 15.3173 5 13.3958 5Z" fill="black"/>
<path d="M13.3509 7.09821C12.9986 7.09821 12.7129 7.38385 12.7129 7.7362C12.7129 8.08855 12.9986 8.37419 13.3509 8.37419H13.3717C14.536 8.45624 15.3831 8.84432 15.9771 9.48134C16.5851 10.1374 16.9 10.9523 16.8767 11.9606C16.8685 12.3128 17.1476 12.605 17.4998 12.6131C17.8521 12.6213 18.1443 12.3424 18.1524 11.9901C18.183 10.6662 17.7572 9.52469 16.9123 8.61321L16.9111 8.61201C16.0478 7.68554 14.8633 7.19542 13.4364 7.09963L13.4151 7.09821H13.3509Z" fill="black"/>
<path d="M13.3278 9.23466C12.9759 9.21615 12.6756 9.48637 12.6571 9.83824C12.6386 10.1901 12.9089 10.4904 13.2607 10.5089C13.7949 10.537 14.1354 10.6972 14.3495 10.9134C14.5646 11.1306 14.7254 11.4783 14.7547 12.0234C14.7738 12.3753 15.0742 12.6452 15.4262 12.6261C15.778 12.6073 16.0478 12.3068 16.0289 11.9548C15.9877 11.1892 15.7481 10.5124 15.2562 10.0156C14.7633 9.51787 14.0902 9.27479 13.3278 9.23466Z" fill="black"/>
</svg>
